<?xml version="1.0" encoding="UTF-8" standalone="no"?>
<svg
   xmlns:dc="http://purl.org/dc/elements/1.1/"
   xmlns:cc="http://creativecommons.org/ns#"
   xmlns:rdf="http://www.w3.org/1999/02/22-rdf-syntax-ns#"
   xmlns:svg="http://www.w3.org/2000/svg"
   xmlns="http://www.w3.org/2000/svg"
   xmlns:xlink="http://www.w3.org/1999/xlink"
   xmlns:sodipodi="http://sodipodi.sourceforge.net/DTD/sodipodi-0.dtd"
   xmlns:inkscape="http://www.inkscape.org/namespaces/inkscape"
   sodipodi:docname="background.svg"
   height="1561.265"
   width="2775.5823"
   inkscape:version="1.0 (6e3e5246a0, 2020-05-07)"
   xml:space="preserve"
   enable-background="new 0 0 3000 1965"
   viewBox="0 0 2775.5823 1561.2651"
   y="0px"
   x="0px"
   id="Layer_1"
   version="1.1"
   inkscape:export-filename="/home/osa413/Изображения/project/minimap.svg.png"
   inkscape:export-xdpi="55.339741"
   inkscape:export-ydpi="55.339741">
  <metadata
   id="metadata1049">
    <rdf:RDF>
      <cc:Work
   rdf:about="">
        <dc:format>image/svg+xml</dc:format>

        <dc:type
   rdf:resource="http://purl.org/dc/dcmitype/StillImage" />

        <dc:title></dc:title>

      </cc:Work>

    </rdf:RDF>

  </metadata>

  <defs
   id="defs1047">
    <inkscape:perspective
   id="perspective5856"
   inkscape:persp3d-origin="0.23314892 : -1702.6595 : 1"
   inkscape:vp_z="0.46629783 : -1702.5592 : 1"
   inkscape:vp_y="0 : 0.30636082 : 0"
   inkscape:vp_x="0 : -1702.5592 : 1"
   sodipodi:type="inkscape:persp3d" />

    

    <linearGradient
   id="linearGradient3753">
      <stop
   id="stop3755"
   style="stop-color:#ededed"
   offset="0" />

      <stop
   id="stop3757"
   style="stop-color:#bebebe"
   offset="1" />

    </linearGradient>

    

    

    

    

    

    

    

    

    

    

    

    

    

    

    

    

    

    <inkscape:perspective
   sodipodi:type="inkscape:persp3d"
   inkscape:vp_x="0 : -1678.8602 : 1"
   inkscape:vp_y="0 : 1000 : 0"
   inkscape:vp_z="47.999999 : -1678.8602 : 1"
   inkscape:persp3d-origin="24 : -1686.8602 : 1"
   id="perspective112" />

    

    <linearGradient
   id="linearGradient2752">
      <stop
   id="stop2754"
   offset="0"
   style="stop-color:#9d9d9d;stop-opacity:1;" />

      <stop
   id="stop2756"
   offset="1.0000000"
   style="stop-color:#b9b9b9;stop-opacity:1.0000000;" />

    </linearGradient>

    <linearGradient
   id="linearGradient2711">
      <stop
   id="stop2713"
   offset="0.0000000"
   style="stop-color:#909090;stop-opacity:1.0000000;" />

      <stop
   id="stop2715"
   offset="1.0000000"
   style="stop-color:#bebebe;stop-opacity:0.0000000;" />

    </linearGradient>

    <linearGradient
   id="linearGradient2701">
      <stop
   id="stop2703"
   offset="0.0000000"
   style="stop-color:#585956;stop-opacity:1.0000000;" />

      <stop
   id="stop2705"
   offset="1.0000000"
   style="stop-color:#bbbeb8;stop-opacity:1.0000000;" />

    </linearGradient>

    <linearGradient
   id="linearGradient2691">
      <stop
   id="stop2693"
   offset="0.0000000"
   style="stop-color:#868686;stop-opacity:1.0000000;" />

      <stop
   id="stop2695"
   offset="1.0000000"
   style="stop-color:#e9e9e9;stop-opacity:1.0000000;" />

    </linearGradient>

    

    <linearGradient
   id="linearGradient2675">
      <stop
   id="stop2677"
   offset="0.0000000"
   style="stop-color:#5b5b97;stop-opacity:1.0000000;" />

      <stop
   id="stop2679"
   offset="1.0000000"
   style="stop-color:#1b1b43;stop-opacity:1.0000000;" />

    </linearGradient>

    <linearGradient
   id="linearGradient2667">
      <stop
   id="stop2669"
   offset="0.0000000"
   style="stop-color:#ffffff;stop-opacity:1.0000000;" />

      <stop
   id="stop2671"
   offset="1.0000000"
   style="stop-color:#fcfcff;stop-opacity:0.0000000;" />

    </linearGradient>

    <linearGradient
   id="linearGradient2635"
   inkscape:collect="always">
      <stop
   id="stop2637"
   offset="0"
   style="stop-color:#f9fff5;stop-opacity:1;" />

      <stop
   id="stop2639"
   offset="1"
   style="stop-color:#f9fff5;stop-opacity:0;" />

    </linearGradient>

    <linearGradient
   id="linearGradient2623">
      <stop
   id="stop2625"
   offset="0.0000000"
   style="stop-color:#dfdfde;stop-opacity:1.0000000;" />

      <stop
   id="stop2627"
   offset="1.0000000"
   style="stop-color:#9d9f9a;stop-opacity:1.0000000;" />

    </linearGradient>

    <linearGradient
   inkscape:collect="always"
   id="linearGradient2415">
      <stop
   style="stop-color:#ffffff;stop-opacity:1;"
   offset="0"
   id="stop2417" />

      <stop
   style="stop-color:#ffffff;stop-opacity:0;"
   offset="1"
   id="stop2419" />

    </linearGradient>

    <linearGradient
   id="linearGradient2379">
      <stop
   style="stop-color:#1a4876;stop-opacity:1.0000000;"
   offset="0.0000000"
   id="stop2381" />

      <stop
   style="stop-color:#3f54a3;stop-opacity:0.0000000;"
   offset="1.0000000"
   id="stop2383" />

    </linearGradient>

    <linearGradient
   inkscape:collect="always"
   id="linearGradient2307">
      <stop
   style="stop-color:#5a7aa4;stop-opacity:1;"
   offset="0"
   id="stop2309" />

      <stop
   style="stop-color:#5a7aa4;stop-opacity:0;"
   offset="1"
   id="stop2311" />

    </linearGradient>

    <linearGradient
   id="linearGradient2253">
      <stop
   style="stop-color:#8f8f8f;stop-opacity:1.0000000;"
   offset="0.0000000"
   id="stop2255" />

      <stop
   style="stop-color:#494949;stop-opacity:1.0000000;"
   offset="1.0000000"
   id="stop2257" />

    </linearGradient>

    <linearGradient
   id="linearGradient2245">
      <stop
   style="stop-color:#dde1d9;stop-opacity:1.0000000;"
   offset="0.0000000"
   id="stop2247" />

      <stop
   style="stop-color:#cacdc6;stop-opacity:1.0000000;"
   offset="1.0000000"
   id="stop2249" />

    </linearGradient>

    

    <linearGradient
   inkscape:collect="always"
   xlink:href="#linearGradient2307"
   id="linearGradient2313"
   gradientTransform="matrix(1.208393,0,0,0.98441,-0.789284,-0.50338)"
   x1="16.851954"
   y1="9.323514"
   x2="24.418941"
   y2="53.734985"
   gradientUnits="userSpaceOnUse" />

    <linearGradient
   inkscape:collect="always"
   xlink:href="#linearGradient2415"
   id="linearGradient2334"
   gradientTransform="matrix(1.289166,0,0,0.922731,-0.789284,-0.50338)"
   x1="16.119127"
   y1="10.842293"
   x2="27.289009"
   y2="39.03191"
   gradientUnits="userSpaceOnUse" />

    

    <linearGradient
   inkscape:collect="always"
   xlink:href="#linearGradient2379"
   id="linearGradient2445"
   gradientUnits="userSpaceOnUse"
   gradientTransform="matrix(1.02787,0,0,0.822296,1.523986,1.001198)"
   x1="21.356108"
   y1="30.078255"
   x2="19.994572"
   y2="-1.3221773" />

    

    

    <linearGradient
   y2="92.57093"
   x2="10.728384"
   y1="84.029198"
   x1="10.728384"
   gradientTransform="scale(1.983556,0.504145)"
   gradientUnits="userSpaceOnUse"
   id="linearGradient2653"
   xlink:href="#linearGradient2623"
   inkscape:collect="always" />

    <linearGradient
   y2="74.098007"
   x2="8.6485014"
   y1="101.2846"
   x1="13.62871"
   gradientTransform="scale(2.143634,0.466498)"
   gradientUnits="userSpaceOnUse"
   id="linearGradient2655"
   xlink:href="#linearGradient2635"
   inkscape:collect="always" />

    

    

    

    

    

    

    

    

    

    

    

    

    

    

    

    

    

    

  </defs>

  <sodipodi:namedview
   borderlayer="true"
   inkscape:window-maximized="1"
   inkscape:window-y="27"
   inkscape:window-x="72"
   inkscape:document-rotation="0"
   fit-margin-bottom="0"
   fit-margin-right="0"
   fit-margin-left="0"
   fit-margin-top="0"
   inkscape:current-layer="layer2"
   inkscape:cy="944.79717"
   inkscape:cx="1524.2144"
   inkscape:zoom="0.21778889"
   showgrid="false"
   id="namedview1045"
   inkscape:window-height="704"
   inkscape:window-width="1294"
   inkscape:pageshadow="2"
   inkscape:pageopacity="0"
   guidetolerance="10"
   gridtolerance="10"
   objecttolerance="10"
   borderopacity="1"
   bordercolor="#666666"
   pagecolor="#ffffff" />

  <g
   sodipodi:insensitive="true"
   transform="translate(-2045.7514,-991.41828)"
   style="display:inline"
   inkscape:label="Background"
   id="layer1"
   inkscape:groupmode="layer">
    <path
   inkscape:connector-curvature="0"
   id="use5096"
   d="m 4044.1192,2315.294 c -4.4438,0.1078 -8.8863,0.6907 -13.1881,1.8073 -4.5981,1.2942 -9.1032,2.9361 -13.2776,5.261 -5.4112,2.8173 -10.0015,6.9379 -14.2618,11.2555 -2.0957,2.7256 -4.2545,5.4392 -5.7261,8.5714 -2.5768,-1.0823 -4.9002,-2.6555 -7.5515,-3.5431 -5.9609,-2.279 -12.4594,-2.3757 -18.7353,-1.8431 -4.9131,0.5554 -9.5849,2.4207 -13.8681,4.8314 -2.531,1.758 -4.9839,3.6619 -7.0683,5.9409 -0.2061,0.2577 -0.6169,0.7681 -0.8231,1.02 -0.04,0.2005 -0.121,0.6048 -0.1611,0.8053 -6.4133,-1.3858 -13.236,-0.4352 -19.1111,2.4336 -5.2624,2.8803 -9.8812,7.2859 -12.1145,12.9376 -0.6581,1.7056 -1.0593,3.5019 -1.2704,5.3146 h 223.8758 c -0.5107,-4.019 -1.0456,-8.0832 -2.8094,-11.7745 -3.6934,-8.4232 -10.7816,-15.1235 -19.0217,-19.0574 -8.9557,-4.329 -19.2965,-5.5172 -29.0424,-3.6504 -4.455,-5.6976 -10.2313,-10.217 -16.5702,-13.6355 -6.5965,-3.4815 -13.8845,-5.5916 -21.2942,-6.3704 -2.6498,-0.2663 -5.3146,-0.3689 -7.9809,-0.3042 z"
   style="fill:#2f8c45;stroke:none" />

    <rect
   style="color:#000000;display:inline;overflow:visible;visibility:visible;fill:#89cae2;fill-opacity:1;fill-rule:nonzero;stroke:none;stroke-width:3.21578;marker:none;enable-background:accumulate"
   id="use5384"
   width="6441.6665"
   height="3272.114"
   x="-4.0000091"
   y="-4.0000205" />

    <path
   sodipodi:nodetypes="ccccccccccccccccccccccc"
   inkscape:connector-curvature="0"
   id="rect3445"
   d="m 3070.4688,1824.125 v 195.4688 h -736.375 v 163.625 h -938.625 V 1955.9375 H 618.18748 v 227.2813 H -4.5312736 V 2387.75 H 6440.9062 V 2183.2188 H 6198.625 v -300 h -746.3438 v 122.7187 h -486.375 v 177.2813 H 4688.625 V 2010.5 h -731.8125 v -186.375 z"
   style="color:#000000;display:inline;overflow:visible;visibility:visible;fill:#58a4c0;fill-opacity:1;fill-rule:nonzero;stroke:none;stroke-width:1.51629;marker:none;enable-background:accumulate" />

    <path
   inkscape:connector-curvature="0"
   id="rect8688"
   d="m 4035.0002,1172.0121 c 15.229,0 27.4979,12.6187 27.4979,28.2994 v 2.0154 c 0,15.6806 -12.2689,28.3132 -27.4979,28.3132 h -43.1976 c 0.762,0.2211 0.7717,0.5171 0.162,0.9035 -3.4297,2.1731 -2.8858,9.7541 0.8909,12.3983 0.4932,0.3453 0.8715,0.641 1.1204,0.8896 h 107.3999 c 15.2292,0 27.4846,12.6186 27.4846,28.2993 v 2.0293 c 0,15.6806 -12.2554,28.2993 -27.4846,28.2993 h -318.0961 c -15.2292,0 -27.4844,-12.6187 -27.4844,-28.2993 v -2.0293 c 0,-15.6807 12.2552,-28.2993 27.4844,-28.2993 h 174.0593 l 1.9169,-2.905 c 2.0676,-3.1356 2.3015,-5.1741 0.8774,-7.5474 -1.0314,-1.719 -1.8662,-3.3502 -1.9303,-3.739 h -66.5379 c -15.229,0 -27.4844,-12.6326 -27.4844,-28.3132 v -2.0154 c 0,-15.6807 12.2554,-28.2994 27.4844,-28.2994 z"
   style="color:#000000;display:inline;overflow:visible;visibility:visible;fill:#f9f9f9;fill-opacity:1;fill-rule:nonzero;stroke:none;stroke-width:1.51629;marker:none;enable-background:accumulate" />

    <rect
   style="color:#000000;display:inline;overflow:visible;visibility:visible;fill:#a49a84;fill-opacity:1;fill-rule:nonzero;stroke:none;stroke-width:1;marker:none;enable-background:accumulate"
   id="use4744"
   width="6441.6665"
   height="468.18176"
   x="-4.0000091"
   y="2817.1743" />

    <path
   inkscape:connector-curvature="0"
   id="rect8688-2"
   d="m 3421.8131,667.75441 c -19.9836,0 -36.0554,11.98664 -36.0554,26.8612 v 1.91184 c 0,14.87469 16.0718,26.86119 36.0554,26.86119 h 27.7398 c 5.4712,4.08021 4.8098,13.37723 -1.0274,18.44915 h -177.6436 c -36.2205,0 -65.4003,21.69594 -65.4003,48.6561 v 3.46524 c 0,26.96025 29.1798,48.68 65.4003,48.68 h 102.7399 c -1.8124,0.38 -1.8357,0.88896 -0.3854,1.55335 8.1572,3.7364 6.8632,16.7706 -2.119,21.31687 -1.1728,0.59359 -2.0726,1.10208 -2.6647,1.52947 h -255.4369 c -36.2205,0 -65.3684,21.69579 -65.3682,48.6561 v 3.48905 c 0,26.9603 29.1477,48.65608 65.3682,48.65608 h 756.5505 c 36.2202,0 65.368,-21.69578 65.3681,-48.65608 v -3.48905 c 0,-26.96031 -29.1479,-48.6561 -65.3681,-48.6561 h -2.5045 l -0.4815,-0.52573 c -4.9176,-5.39109 -5.5061,-8.89616 -2.1192,-12.97655 1.1676,-1.40644 2.2006,-2.76619 3.0181,-3.89535 h 83.3477 c 19.9837,0 36.0552,-11.9866 36.0552,-26.86123 v -1.91181 c 0,-14.87463 -16.0715,-26.86123 -36.0552,-26.86123 h -188.1101 c -19.9838,0 -36.0555,11.9866 -36.0553,26.86123 v 1.91181 c 0,14.87463 16.0715,26.86123 36.0553,26.86123 h 27.7397 c 5.1124,3.8127 4.8791,12.17583 0.064,17.39763 h -334.9318 l -4.559,-4.99464 c -4.9176,-5.39098 -5.4738,-8.89605 -2.087,-12.9765 2.4532,-2.95552 4.4387,-5.76011 4.5912,-6.42855 h 158.2515 c 36.2205,0 65.3682,-21.71975 65.3682,-48.68 v -3.46524 c 0,-26.96016 -29.1477,-48.6561 -65.3682,-48.6561 h -84.6641 l -1.4449,-1.57716 c -4.9174,-5.39104 -5.5058,-8.89611 -2.1189,-12.97656 1.1675,-1.40653 2.2005,-2.76623 3.0181,-3.89543 h 83.3477 c 19.9835,0 36.0552,-11.9865 36.0552,-26.86119 v -1.91184 c 0,-14.87456 -16.0717,-26.8612 -36.0552,-26.8612 z"
   style="color:#000000;display:inline;overflow:visible;visibility:visible;fill:#f9f9f9;fill-opacity:1;fill-rule:nonzero;stroke:none;stroke-width:1.51629;marker:none;enable-background:accumulate" />

    <path
   inkscape:connector-curvature="0"
   id="path19"
   d="m 1948.9308,1258.0775 c -22.4393,0 -40.5168,15.3063 -40.5168,34.3058 v 2.442 c 0,18.9994 18.0775,34.3057 40.5168,34.3057 h 78.9254 c -1.1229,0.2679 -1.1174,0.6265 -0.2188,1.0947 5.0535,2.6331 4.232,11.8186 -1.3327,15.0224 -1.2646,0.7281 -2.1041,1.2727 -2.0884,1.6674 -2.8974,0 -5.7947,0 -8.6922,0 -15.0205,0.198 -30.047,-0.028 -45.0717,-0.017 -2.1465,0 -4.298,0 -6.4446,0.017 -77.2068,0.038 -154.4111,-0.011 -231.6242,0 -8.0644,-0.1078 -16.1287,0.361 -24.1867,0 -9.7703,-0.016 -19.5548,0.021 -29.3186,0 -5.0983,0.1616 -10.343,0.2169 -15.1167,1.9199 -5.8048,1.9886 -10.9827,5.6175 -13.7642,10.4247 -3.3225,5.5186 -2.6946,12.4909 1.3724,17.616 5.0666,6.6342 14.4907,10.1978 23.6497,10.2732 29.2852,-0.032 58.571,-6e-4 87.8562,-0.017 4.2136,-0.065 8.5418,-0.095 12.5708,1.1284 6.4477,1.6976 12.5611,5.4687 14.878,11.0142 1.3302,2.8024 0.3835,5.9713 1.7902,8.7575 2.6032,5.7934 9.241,9.5457 16.0515,11.2163 4.0736,1.1641 8.4176,0.865 12.6503,0.8758 80.8347,0.01 161.6696,-0.011 242.5043,0 9.5729,0.2155 19.5134,4.3551 23.8288,11.8731 2.5014,3.7078 2.2642,8.137 1.8697,12.2436 -2.005,9.5659 -13.3377,16.225 -24.4255,16.3867 -19.1011,0.032 -38.2032,-0.053 -57.3043,0.034 -1.8352,0 -3.6721,0.1265 -5.4898,0.3874 h -5.0521 c -23.3654,0 -42.1678,16.2096 -42.1678,36.3604 0,20.1508 18.8024,36.3772 42.1678,36.3772 h 220.8833 216.408 c 23.3654,0 42.1677,-16.2264 42.1677,-36.3772 0,-20.1508 -18.8023,-36.3604 -42.1677,-36.3604 h -62.655 v -0.4042 c -39.2461,-0.07 -78.4853,-7e-4 -117.7314,-0.017 -3.8189,-0.043 -7.7065,0.266 -11.4172,-0.6232 -4.7992,-1.1102 -9.471,-3.0543 -12.889,-6.1639 -5.1111,-4.4946 -7.6323,-11.1907 -5.9074,-17.3129 0.9229,-4.3976 3.8667,-8.4388 8.0358,-11.1658 5.0346,-3.309 11.39,-5.076 17.7422,-5.2376 40.7228,-0.043 81.4442,0.068 122.167,-0.051 v -0.4042 h 31.6657 c 23.3655,0 42.1678,-16.2265 42.1676,-36.3773 0,-20.1508 -18.8021,-36.3772 -42.1676,-36.3772 H 2282.414 2182.1663 c -0.2412,0 -0.476,0.013 -0.7162,0.017 -34.1147,0 -68.2251,-0.012 -102.3362,-0.017 l -3.3019,-4.1093 c -3.0465,-3.7992 -3.3911,-6.2693 -1.2928,-9.1449 1.5191,-2.0818 2.7488,-4.0581 2.8444,-4.5303 h 82.764 c 22.4394,0 40.497,-15.3063 40.497,-34.3057 v -2.442 c 0,-18.9995 -18.0576,-34.3058 -40.497,-34.3058 z"
   style="color:#000000;display:inline;overflow:visible;visibility:visible;fill:#f9f9f9;fill-opacity:1;fill-rule:nonzero;stroke:none;stroke-width:1.51629;marker:none;enable-background:accumulate" />

    <g
   transform="translate(4656.5427,-1174.0171)"
   id="g7831"
   style="opacity:1;stop-opacity:1">
      <rect
   y="2255.7129"
   x="-1819.2548"
   height="1292.6313"
   width="452.93646"
   id="use4858-4"
   style="color:#000000;display:inline;overflow:visible;visibility:visible;fill:#006881;fill-opacity:1;fill-rule:nonzero;stroke:none;stroke-width:1;marker:none;enable-background:accumulate" />

      <path
   d="m -1782.0486,3359.9868 c 16.161,0.4186 32.4393,-0.9546 48.5334,0.7201 -0.2512,7.6032 -0.2177,15.2065 0,22.8265 -9.1272,1.9259 -18.4722,0.7034 -27.6831,1.0048 -7.1009,-0.2345 -14.3692,0.9546 -21.2355,-1.2058 0.2512,-7.7875 0.017,-15.5749 0.3852,-23.3456 z"
   id="path4930-5"
   inkscape:connector-curvature="0"
   style="fill:#58a9c4;stroke:none" />

      <rect
   style="color:#000000;display:inline;overflow:visible;visibility:visible;fill:#01a8b8;fill-opacity:1;fill-rule:nonzero;stroke:none;stroke-width:1;marker:none;enable-background:accumulate"
   id="rect4839-0"
   width="452.93646"
   height="1292.6313"
   x="-1568.0464"
   y="2255.7129" />

      <path
   d="m -1657.6837,3432.5463 c -1.792,-8.5913 -0.4689,-17.4673 -0.4689,-26.1591 23.1111,0.1339 46.2223,0 69.3502,0.067 8.7421,0.1172 17.6349,-0.8709 26.2597,1.3062 -0.2847,8.0722 -0.4019,16.1611 -0.1005,24.25 -6.4979,0.7537 -13.0126,0.9211 -19.4938,0.7871 -25.1878,-0.2847 -50.3924,0.335 -75.5467,-0.2512 z"
   id="path4988-2"
   inkscape:connector-curvature="0"
   style="fill:#58a9c4;stroke:none" />

      <path
   d="m -1686.4387,3471.2994 c 40.3441,0.201 80.7719,-0.8038 121.0992,0.5024 -4.9907,4.5218 -2.0432,12.0915 -2.5456,18.0033 -0.5861,0.8039 -1.7752,2.3949 -2.3613,3.1987 -38.8034,-0.1004 -77.6067,-0.1172 -116.41,0 0.2009,-7.2348 0.2344,-14.4696 0.2177,-21.7044 z"
   id="path4994-2"
   inkscape:connector-curvature="0"
   style="fill:#58a9c4;stroke:none" />

      <path
   d="m -1455.7791,3035.7171 c 44.7821,-0.5192 89.5977,-0.201 134.3965,-0.1508 0,7.4191 1.5408,14.8883 0.201,22.2906 -9.8641,1.2393 -19.7785,-0.5527 -29.6259,0.6196 -29.6258,-0.4521 -59.3019,0.3182 -88.9278,-0.4354 -5.4261,-0.034 -10.8689,0.9881 -16.1443,-0.4187 0.067,-7.3018 0,-14.6036 0.1005,-21.9053 z"
   id="path4938-4"
   inkscape:connector-curvature="0"
   style="fill:#cff4ff;stroke:none" />

      <path
   d="m -1190.0341,3035.6166 c 23.7141,-1.1221 47.5957,1.1053 71.2762,-1.1388 2.6126,7.9214 2.6796,16.7472 0.084,24.6854 -24.049,-1.5743 -48.2655,1.0048 -72.2308,-1.3566 0.5191,-7.3687 -0.8206,-14.9887 0.8708,-22.19 z"
   id="path4940-9"
   inkscape:connector-curvature="0"
   style="fill:#a3e3ff;stroke:none" />

      <path
   d="m -1119.2435,3097.8158 c 0.5526,-0.067 1.6747,-0.201 2.2274,-0.2847 -0.1005,7.8712 0.2512,15.7591 -0.201,23.6303 -0.6699,0.4354 -2.0097,1.3063 -2.6796,1.7417 -30.9488,-0.2679 -61.8977,-0.084 -92.8299,-0.1172 -0.2344,-7.8377 -0.2344,-15.6922 -0.1339,-23.5299 22.592,-0.05 45.1672,0 67.7593,-0.034 8.608,-0.1172 17.3836,0.8877 25.8577,-1.4067 z"
   id="path4942-1"
   inkscape:connector-curvature="0"
   style="fill:#a3e3ff;stroke:none" />

      <path
   d="m -1529.0985,3101.3997 c 1.4403,-2.7466 4.6223,-1.9092 7.2181,-2.0767 60.0053,0.1843 120.0106,-0.017 180.0159,0.1173 -0.033,7.2348 0.3685,14.4863 -0.067,21.7211 -2.9141,2.7633 -7.2013,-0.1675 -10.6848,0.3517 -51.3805,-0.017 -102.761,0 -154.1415,0 -6.2467,0.05 -12.5604,-0.5861 -18.6229,1.0216 -0.9713,-0.4354 -2.8973,-1.3063 -3.8686,-1.7585 0.201,-6.4644 -0.1675,-12.9288 0.1507,-19.3765 z"
   id="path4948-5"
   inkscape:connector-curvature="0"
   style="fill:#cff4ff;stroke:none" />

      <path
   d="m -1562.9279,3179.4585 c -1.591,-7.7539 -0.9881,-15.6251 0.201,-23.3791 36.7267,-0.3684 73.4868,0.1842 110.2302,-0.2847 2.8303,7.2515 1.5743,15.1562 1.9427,22.7595 -8.0554,1.457 -16.228,0.8038 -24.3337,0.8708 -29.3579,0.034 -58.699,-0.034 -88.0402,0.034 z"
   id="path4954-0"
   inkscape:connector-curvature="0"
   style="fill:#cff4ff;stroke:none" />

      <path
   d="m -1346.1182,3155.9957 c 15.039,0.1004 30.1115,-0.2512 45.1505,0.1172 1.9427,0.8039 3.8853,1.7082 5.9118,2.5958 0.2009,5.8113 0.2177,11.6226 -0.034,17.4339 -17.0655,0.4522 -34.1476,0.5191 -51.1963,-0.034 -0.3182,-6.4477 -0.1842,-12.8786 0.134,-19.2928 z"
   id="path4956-4"
   inkscape:connector-curvature="0"
   style="fill:#a3e3ff;stroke:none" />

      <path
   d="m -1300.9677,3156.1129 c 22.4245,-0.3517 44.8826,-0.067 67.3238,-0.1675 2.3279,0.3685 5.7611,-0.3684 7.4358,1.7585 0.4522,6.9333 -0.084,13.9169 0.2847,20.867 -5.895,1.3733 -11.9408,0.8374 -17.886,0.8709 -16.2281,0 -32.4562,-0.034 -48.6842,0.05 -18.0535,-2.1771 -36.2913,-0.7034 -54.4453,-1.1388 0.3015,-7.1678 -0.8373,-14.4863 0.7872,-21.5369 -0.3182,6.4142 -0.4522,12.8451 -0.134,19.2928 17.0487,0.5526 34.1308,0.4857 51.1963,0.034 0.2512,-5.8113 0.2344,-11.6226 0.034,-17.4339 -2.0265,-0.8876 -3.9691,-1.7919 -5.9118,-2.5958 z"
   id="path4958-8"
   inkscape:connector-curvature="0"
   style="fill:#cff4ff;stroke:none" />

      <path
   d="m -1212.961,3219.9032 c 31.2001,-0.4857 62.4169,0.1172 93.6337,-0.3182 0.5527,0.067 1.6748,0.2177 2.2442,0.2847 0,5.3591 0.1674,10.7182 0.1842,16.0941 -0.268,3.0312 0.5359,6.8329 -2.5288,8.7085 -7.754,-2.2608 -15.8597,-1.2895 -23.7644,-1.39 -23.2284,-0.05 -46.4568,0.034 -69.6852,-0.034 -0.067,-7.7874 -0.067,-15.5749 -0.084,-23.3456 z"
   id="path4962-4"
   inkscape:connector-curvature="0"
   style="fill:#a3e3ff;stroke:none" />

      <path
   d="m -1562.124,3280.2602 c 29.3244,0.201 58.632,-0.017 87.9564,0.1172 -0.067,7.8377 -0.067,15.6922 0.05,23.5466 -29.4082,0.3182 -58.833,0.067 -88.2412,0.134 l -1.7249,0.017 c -0.3517,-0.7202 -1.0551,-2.1604 -1.4068,-2.8806 0.5526,-6.3974 0.7536,-12.8116 0.7034,-19.2258 0.6699,-0.4187 2.0096,-1.2728 2.6628,-1.7082 z"
   id="path4968-6"
   inkscape:connector-curvature="0"
   style="fill:#a3e3ff;stroke:none" />

      <path
   d="m -1816.0958,3038.2768 c 11.3714,3.3662 23.3792,1.3398 35.052,1.3063 h 0.8206 c -0.034,7.8712 -0.05,15.7424 -0.1172,23.6303 -11.2207,0 -22.4246,-0.1675 -33.6117,0.1842 -0.4857,0 -1.4235,0 -1.8925,0 -0.067,-8.3736 0.05,-16.7472 -0.2512,-25.1208 z"
   id="path4934-9"
   inkscape:connector-curvature="0"
   style="fill:#58a9c4;stroke:none" />

      <path
   d="m -1723.1989,3038.796 c 7.1176,-1.8255 14.8381,-0.2345 22.2068,-0.7369 31.6021,-0.1173 63.2041,0.2009 94.8061,-0.1507 0.1005,8.4741 0.084,16.9649 0.034,25.4557 -39.1383,0.034 -78.2765,0.1843 -117.4148,-0.084 -0.034,-8.1391 -1.0886,-16.4458 0.3684,-24.4844 z"
   id="path4936-1"
   inkscape:connector-curvature="0"
   style="fill:#58a9c4;stroke:none" />

      <path
   d="m -1710.7724,3103.1221 c 23.1614,0.034 46.3396,-0.017 69.5177,0.034 -0.034,7.9214 0.268,15.8428 -0.3349,23.7643 -22.86,-0.084 -45.7367,-0.1675 -68.5799,0.05 -1.9762,-7.8209 -1.524,-15.9266 -0.6029,-23.848 z"
   id="path4944-0"
   inkscape:connector-curvature="0"
   style="fill:#58a9c4;stroke:none" />

      <path
   d="m -1625.0936,3103.1221 c 17.2999,0.1339 34.6333,-0.2847 51.9666,0.2679 -0.4521,7.5698 0.3852,15.1898 -0.4354,22.7428 -3.6676,1.6077 -7.9717,0.5359 -11.8235,0.8038 -13.2136,-0.1507 -26.4272,-0.05 -39.624,0.084 -0.1172,-7.9717 -0.05,-15.9434 -0.084,-23.8983 z"
   id="path4946-7"
   inkscape:connector-curvature="0"
   style="fill:#58a9c4;stroke:none" />

      <path
   d="m -1813.8349,3159.1415 c 12.4934,-0.2177 24.9869,-0.1004 37.4971,-0.084 9.1942,0.335 18.5057,-1.1555 27.6664,0.5694 -0.3015,8.0554 -0.268,16.1276 -0.084,24.2165 -21.7044,0.067 -43.4088,-0.05 -65.0964,0.067 0.034,-8.2564 0.084,-16.5128 0.017,-24.7692 z"
   id="path4950-8"
   inkscape:connector-curvature="0"
   style="fill:#58a9c4;stroke:none" />

      <path
   d="m -1730.6012,3159.9454 c 5.8951,-1.3063 11.9241,-0.4689 17.9363,-0.4354 19.5106,-1.0216 39.0546,0.2679 58.5986,-0.3685 12.1082,0.9546 24.3337,-1.2225 36.3917,0.9044 -0.6866,7.6367 1.3565,16.1276 -1.0718,23.2619 -26.8626,0.5359 -53.7419,0.05 -80.6044,0.2177 -10.4335,-0.2009 -20.8838,0.4689 -31.2504,-0.4354 -0.033,-7.7205 -0.017,-15.441 0,-23.1447 z"
   id="path4952-7"
   inkscape:connector-curvature="0"
   style="fill:#58a9c4;stroke:none" />

      <path
   d="m -1678.2828,3224.0539 c 12.5269,-0.9043 25.0873,-0.2679 37.6478,-0.4354 25.9582,0.134 51.9164,-0.3015 77.8746,0.2344 -0.5024,7.2014 -0.2345,14.4194 0.1005,21.6375 -2.6963,2.0431 -6.1295,1.9594 -9.2612,1.9929 -35.4372,-0.3517 -70.8743,0.1675 -106.2947,-0.2847 -0.201,-7.7205 -0.201,-15.441 -0.067,-23.1447 z"
   id="path4960-0"
   inkscape:connector-curvature="0"
   style="fill:#58a9c4;stroke:none" />

      <path
   d="m -1818.5241,3283.6741 c 1.0216,0.1339 3.0647,0.3851 4.0696,0.5191 l 0.017,-0.134 0.7536,0.034 c 23.4797,0.4187 46.976,0.1508 70.4724,0.1173 0.7536,6.4476 1.3063,12.9623 0.8038,19.4602 -0.017,2.1604 -0.8038,5.6774 -3.7011,5.2084 -22.6255,0.3182 -45.2678,-0.067 -67.91,0.1508 0.3517,3.2992 2.6796,5.1581 5.7275,6.1127 -4.304,-1.1053 -8.675,-1.8924 -12.9623,-2.7465 2.5791,-0.134 5.2084,-0.3852 7.8209,-0.9881 -1.7919,-1.524 -3.5504,-3.0145 -5.2586,-4.4883 -0.1507,-7.754 -0.084,-15.5079 0.1675,-23.2451 z"
   id="path4964-2"
   inkscape:connector-curvature="0"
   style="fill:#58a9c4;stroke:none" />

      <path
   d="m -1638.1229,3284.2937 c 25.3218,0.067 50.6603,0.1005 75.9989,-0.034 -0.6532,0.4354 -1.9929,1.2895 -2.6628,1.7082 0.05,6.4142 -0.1508,12.8284 -0.7034,19.2258 0.3517,0.7202 1.0551,2.1604 1.4068,2.8806 -24.6855,0.05 -49.3709,0.2177 -74.0563,-0.084 0.034,-7.9047 0.034,-15.8094 0.017,-23.6973 z"
   id="path4966-9"
   inkscape:connector-curvature="0"
   style="fill:#58a9c4;stroke:none" />

      <path
   d="m -1386.3953,3280.7626 c 29.9105,-0.7536 59.8881,0.034 89.8321,-0.3852 0.4354,7.7875 0.4857,15.6252 -0.017,23.4127 -30.0781,0.1172 -60.1728,0.5861 -90.2174,-0.2345 0.1005,-7.6032 -0.7368,-15.2567 0.402,-22.793 z"
   id="path4970-1"
   inkscape:connector-curvature="0"
   style="fill:#cff4ff;stroke:none" />

      <path
   d="m -1524.3423,3345.8256 c 5.5434,-2.4618 11.6896,-1.5407 17.6014,-1.6245 18.4387,0.017 36.8774,0 55.3161,0 5.9452,0.084 12.1585,-0.7871 17.8693,1.5575 -0.1843,7.2851 -0.1005,14.5534 -0.134,21.8552 -28.8387,0.084 -57.6775,0.067 -86.5162,0.017 -3.5169,0.6029 -4.5887,-3.5169 -4.0863,-6.1127 -0.067,-5.2419 0.067,-10.4671 -0.05,-15.6922 z"
   id="path4972-0"
   inkscape:connector-curvature="0"
   style="fill:#a3e3ff;stroke:none" />

      <path
   d="m -1160.1235,3345.5911 c 14.3021,-0.4354 28.7382,1.1054 42.9566,-0.9713 -3.4164,7.6367 -1.6077,15.5749 -0.2679,23.4294 -9.0603,-1.6245 -18.2712,-0.8541 -27.3985,-0.9714 -52.6868,-0.1339 -105.3736,0.1843 -158.0436,-0.1507 -0.2345,-7.1008 -0.2345,-14.1849 0.034,-21.269 47.5789,-0.1507 95.141,0 142.7199,-0.067 z"
   id="path4974-4"
   inkscape:connector-curvature="0"
   style="fill:#cff4ff;stroke:none" />

      <path
   d="m -1561.4206,3404.173 c 36.0902,-0.3182 72.1973,-0.05 108.3043,-0.134 7.9214,0.1675 15.9434,-0.6867 23.8313,0.6029 1.1053,7.1678 0.4522,14.4863 0.5527,21.7211 -1.1388,1.0049 -2.2274,2.0265 -3.2657,3.048 -43.1911,-0.1674 -86.3823,0.1843 -129.5734,-0.1674 -0.988,-0.034 -2.9642,-0.1173 -3.9523,-0.1675 l -0.201,-1.9762 c 44.6146,1.39 89.313,-0.017 133.9611,0.7369 1.4738,-7.2013 1.2058,-14.5701 0.9379,-21.8551 -44.9998,-0.1675 -90.0331,-0.402 -135.033,0.1172 l 0.05,-1.8255 c 1.1053,-0.034 3.2824,-0.067 4.3878,-0.1004 z"
   id="path4976-2"
   inkscape:connector-curvature="0"
   style="fill:#72d2df;stroke:none" />

      <path
   d="m -1347.2571,3426.899 c 0.7872,-7.3521 -1.0718,-15.1563 1.0551,-22.2069 58.7995,-0.5024 117.6661,-0.2177 176.4823,-0.134 0.4857,0.4187 1.457,1.2896 1.9427,1.7083 0.3182,7.1343 -0.2177,14.2686 0.3015,21.4029 -5.7109,2.2107 -11.8738,1.1556 -17.7856,1.3398 -48.5,0 -97,-0.017 -145.4832,0.017 -5.5936,-0.1339 -11.5723,0.9881 -16.5128,-2.1268 z"
   id="path4980-2"
   inkscape:connector-curvature="0"
   style="fill:#a3e3ff;stroke:none" />

      <path
   d="m -1565.8587,3406.0989 c 44.9999,-0.5192 90.0332,-0.2847 135.033,-0.1172 0.2679,7.285 0.5359,14.6538 -0.9379,21.8551 -44.6481,-0.7536 -89.3465,0.6531 -133.9611,-0.7369 -0.5191,-7.0003 -0.3349,-14.0007 -0.134,-21.001 z"
   id="path4982-0"
   inkscape:connector-curvature="0"
   style="fill:#cff4ff;stroke:none" />

      <path
   d="m -1257.8938,3469.5374 c 37.0951,-0.1842 74.1902,-0.017 111.2853,-0.084 8.9095,-0.1005 17.9028,0.6531 26.7621,-1.0216 0.6699,0.2512 2.0264,0.7369 2.6963,0.9881 0.3517,7.8879 0.05,15.7926 0.1842,23.714 -0.6364,0.017 -1.8924,0.05 -2.5121,0.067 -46.1219,-0.3852 -92.227,0.1508 -138.3489,-0.2847 -0.084,-7.8042 -0.084,-15.5916 -0.067,-23.3791 z"
   id="path4986-5"
   inkscape:connector-curvature="0"
   style="fill:#a3e3ff;stroke:none" />

      <rect
   style="color:#000000;display:inline;overflow:visible;visibility:visible;fill:#3b84ad;fill-opacity:1;fill-rule:nonzero;stroke:none;stroke-width:1;marker:none;enable-background:accumulate"
   id="use7687"
   width="269.79083"
   height="47.176815"
   x="1548.7737"
   y="2246.8037"
   transform="scale(-1,1)" />

      <rect
   y="2246.8037"
   x="-1566.0464"
   height="47.176815"
   width="452.93646"
   id="use7666"
   style="color:#000000;display:inline;overflow:visible;visibility:visible;fill:#46c4d2;fill-opacity:1;fill-rule:nonzero;stroke:none;stroke-width:1;marker:none;enable-background:accumulate" />

      <path
   style="fill:#cff4ff;stroke:none"
   inkscape:connector-curvature="0"
   id="path89-9"
   d="m -1276.2321,2360.423 c 7.888,0.3517 16.0606,-0.7871 23.8481,0.4019 2.4786,6.9334 0.2345,15.3405 1.2225,22.8433 -5.2418,1.8422 -10.7852,1.189 -16.1443,0.7871 -3.1987,0.3014 -6.3472,0.134 -9.3617,-0.6029 0.201,-7.821 0.067,-15.6252 0.4354,-23.4294 z" />

      <path
   style="fill:#58a9c4;stroke:none"
   inkscape:connector-curvature="0"
   id="path91-1"
   d="m -1782.0486,2360.3393 c 16.161,0.4187 32.4393,-0.9546 48.5334,0.7201 -0.2512,7.6032 -0.2177,15.2065 0,22.8265 -9.1272,1.9259 -18.4722,0.7034 -27.6831,1.0048 -7.1009,-0.2344 -14.3692,0.9546 -21.2355,-1.2058 0.2512,-7.7875 0.017,-15.5749 0.3852,-23.3456 z" />

      <path
   style="fill:#a3e3ff;stroke:none"
   inkscape:connector-curvature="0"
   id="path93-9"
   d="m -1326.7082,2360.2388 c 8.8425,0.017 17.7186,-0.1507 26.6113,0.1507 0.134,7.7707 -0.034,15.5414 0.2512,23.3289 -8.876,1.8087 -18.3047,1.8757 -27.1472,0.067 0.3014,-7.8545 0.1172,-15.7089 0.2847,-23.5466 z" />

      <path
   style="fill:#58a9c4;stroke:none"
   inkscape:connector-curvature="0"
   id="path103-6"
   d="m -1816.0958,2420.6293 c 11.3714,3.3662 23.3792,1.3398 35.052,1.3063 h 0.8206 c -0.034,7.8712 -0.05,15.7424 -0.1172,23.6303 -11.2207,0 -22.4246,-0.1674 -33.6117,0.1842 -0.4857,0 -1.4235,0 -1.8925,0 -0.067,-8.3736 0.05,-16.7472 -0.2512,-25.1208 z" />

      <path
   style="fill:#58a9c4;stroke:none"
   inkscape:connector-curvature="0"
   id="path105-2"
   d="m -1723.1989,2421.1485 c 7.1176,-1.8255 14.8381,-0.2345 22.2068,-0.7369 31.6021,-0.1172 63.2041,0.201 94.8061,-0.1507 0.1005,8.4741 0.084,16.9649 0.034,25.4558 -39.1383,0.033 -78.2765,0.1842 -117.4148,-0.084 -0.034,-8.1391 -1.0886,-16.4458 0.3684,-24.4844 z" />

      <path
   style="fill:#cff4ff;stroke:none"
   inkscape:connector-curvature="0"
   id="path107-5"
   d="m -1455.7791,2422.0696 c 44.7821,-0.5192 89.5977,-0.201 134.3965,-0.1508 0,7.4191 1.5408,14.8883 0.201,22.2906 -9.8641,1.2393 -19.7785,-0.5527 -29.6259,0.6196 -29.6258,-0.4521 -59.3019,0.3182 -88.9278,-0.4354 -5.4261,-0.034 -10.8689,0.9881 -16.1443,-0.4187 0.067,-7.3018 0,-14.6035 0.1005,-21.9053 z" />

      <path
   style="fill:#a3e3ff;stroke:none"
   inkscape:connector-curvature="0"
   id="path109-4"
   d="m -1190.0341,2421.9691 c 23.7141,-1.1221 47.5957,1.1053 71.2762,-1.1388 2.6126,7.9214 2.6796,16.7472 0.084,24.6854 -24.049,-1.5743 -48.2655,1.0048 -72.2308,-1.3565 0.5191,-7.3688 -0.8206,-14.9888 0.8708,-22.1901 z" />

      <path
   style="fill:#a3e3ff;stroke:none"
   inkscape:connector-curvature="0"
   id="path111-4"
   d="m -1119.2435,2484.1683 c 0.5526,-0.067 1.6747,-0.201 2.2274,-0.2847 -0.1005,7.8712 0.2512,15.7591 -0.201,23.6303 -0.6699,0.4355 -2.0097,1.3063 -2.6796,1.7417 -30.9488,-0.2679 -61.8977,-0.084 -92.8299,-0.1172 -0.2344,-7.8377 -0.2344,-15.6921 -0.1339,-23.5298 22.592,-0.05 45.1672,0 67.7593,-0.034 8.608,-0.1173 17.3836,0.8876 25.8577,-1.4068 z" />

      <path
   style="fill:#58a9c4;stroke:none"
   inkscape:connector-curvature="0"
   id="path115-9"
   d="m -1710.7724,2485.4746 c 23.1614,0.034 46.3396,-0.017 69.5177,0.034 -0.034,7.9214 0.268,15.8428 -0.3349,23.7643 -22.86,-0.084 -45.7367,-0.1675 -68.5799,0.05 -1.9762,-7.8209 -1.524,-15.9266 -0.6029,-23.848 z" />

      <path
   style="fill:#58a9c4;stroke:none"
   inkscape:connector-curvature="0"
   id="path117-9"
   d="m -1625.0936,2485.4746 c 17.2999,0.134 34.6333,-0.2847 51.9666,0.2679 -0.4521,7.5698 0.3852,15.1898 -0.4354,22.7428 -3.6676,1.6077 -7.9717,0.5359 -11.8235,0.8038 -13.2136,-0.1507 -26.4272,-0.05 -39.624,0.084 -0.1172,-7.9717 -0.05,-15.9434 -0.084,-23.8983 z" />

      <path
   style="fill:#cff4ff;stroke:none"
   inkscape:connector-curvature="0"
   id="path127-3"
   d="m -1529.0985,2487.7522 c 1.4403,-2.7465 4.6223,-1.9092 7.2181,-2.0767 60.0053,0.1843 120.0106,-0.017 180.0159,0.1173 -0.033,7.2348 0.3685,14.4863 -0.067,21.7211 -2.9141,2.7633 -7.2013,-0.1674 -10.6848,0.3517 -51.3805,-0.017 -102.761,0 -154.1415,0 -6.2467,0.05 -12.5604,-0.5861 -18.6229,1.0216 -0.9713,-0.4354 -2.8973,-1.3063 -3.8686,-1.7585 0.201,-6.4644 -0.1675,-12.9288 0.1507,-19.3765 z" />

      <path
   style="fill:#58a9c4;stroke:none"
   inkscape:connector-curvature="0"
   id="path137-6"
   d="m -1813.8349,2541.4941 c 12.4934,-0.2178 24.9869,-0.1005 37.4971,-0.084 9.1942,0.335 18.5057,-1.1555 27.6664,0.5694 -0.3015,8.0554 -0.268,16.1276 -0.084,24.2165 -21.7044,0.067 -43.4088,-0.05 -65.0964,0.067 0.034,-8.2564 0.084,-16.5128 0.017,-24.7691 z" />

      <path
   style="fill:#58a9c4;stroke:none"
   inkscape:connector-curvature="0"
   id="path139-0"
   d="m -1730.6012,2542.2979 c 5.8951,-1.3063 11.9241,-0.4689 17.9363,-0.4354 19.5106,-1.0216 39.0546,0.268 58.5986,-0.3684 12.1082,0.9546 24.3337,-1.2226 36.3917,0.9043 -0.6866,7.6367 1.3565,16.1276 -1.0718,23.2619 -26.8626,0.5359 -53.7419,0.05 -80.6044,0.2177 -10.4335,-0.2009 -20.8838,0.4689 -31.2504,-0.4354 -0.033,-7.7205 -0.017,-15.4409 0,-23.1447 z" />

      <path
   style="fill:#cff4ff;stroke:none"
   inkscape:connector-curvature="0"
   id="path141-5"
   d="m -1562.9279,2565.811 c -1.591,-7.7539 -0.9881,-15.6251 0.201,-23.3791 36.7267,-0.3684 73.4868,0.1842 110.2302,-0.2847 2.8303,7.2516 1.5743,15.1562 1.9427,22.7595 -8.0554,1.457 -16.228,0.8039 -24.3337,0.8708 -29.3579,0.034 -58.699,-0.034 -88.0402,0.034 z" />

      <path
   style="fill:#a3e3ff;stroke:none"
   inkscape:connector-curvature="0"
   id="path143-0"
   d="m -1346.1182,2542.3482 c 15.039,0.1005 30.1115,-0.2512 45.1505,0.1172 1.9427,0.8039 3.8853,1.7082 5.9118,2.5958 0.2009,5.8113 0.2177,11.6226 -0.034,17.4339 -17.0655,0.4522 -34.1476,0.5192 -51.1963,-0.034 -0.3182,-6.4477 -0.1842,-12.8786 0.134,-19.2928 z" />

      <path
   style="fill:#cff4ff;stroke:none"
   inkscape:connector-curvature="0"
   id="path145-2"
   d="m -1300.9677,2542.4654 c 22.4245,-0.3517 44.8826,-0.067 67.3238,-0.1675 2.3279,0.3685 5.7611,-0.3684 7.4358,1.7585 0.4522,6.9333 -0.084,13.9169 0.2847,20.867 -5.895,1.3733 -11.9408,0.8374 -17.886,0.8709 -16.2281,0 -32.4562,-0.034 -48.6842,0.05 -18.0535,-2.1771 -36.2913,-0.7034 -54.4453,-1.1388 0.3015,-7.1678 -0.8373,-14.4863 0.7872,-21.5369 -0.3182,6.4142 -0.4522,12.8451 -0.134,19.2928 17.0487,0.5527 34.1308,0.4857 51.1963,0.034 0.2512,-5.8113 0.2344,-11.6226 0.034,-17.4339 -2.0265,-0.8876 -3.9691,-1.7919 -5.9118,-2.5958 z" />

      <path
   style="fill:#58a9c4;stroke:none"
   inkscape:connector-curvature="0"
   id="path181-9"
   d="m -1678.2828,2606.4064 c 12.5269,-0.9043 25.0873,-0.2679 37.6478,-0.4354 25.9582,0.134 51.9164,-0.3015 77.8746,0.2345 -0.5024,7.2013 -0.2345,14.4193 0.1005,21.6374 -2.6963,2.0431 -6.1295,1.9594 -9.2612,1.9929 -35.4372,-0.3517 -70.8743,0.1675 -106.2947,-0.2847 -0.201,-7.7205 -0.201,-15.441 -0.067,-23.1447 z" />

      <path
   style="fill:#a3e3ff;stroke:none"
   inkscape:connector-curvature="0"
   id="path183-4"
   d="m -1212.961,2606.2557 c 31.2001,-0.4857 62.4169,0.1172 93.6337,-0.3182 0.5527,0.067 1.6748,0.2177 2.2442,0.2847 0,5.3591 0.1674,10.7182 0.1842,16.0941 -0.268,3.0312 0.5359,6.8329 -2.5288,8.7086 -7.754,-2.2609 -15.8597,-1.2896 -23.7644,-1.3901 -23.2284,-0.05 -46.4568,0.034 -69.6852,-0.034 -0.067,-7.7874 -0.067,-15.5749 -0.084,-23.3456 z" />

      <path
   style="fill:#58a9c4;stroke:none"
   inkscape:connector-curvature="0"
   id="path201-3"
   d="m -1818.5241,2666.0266 c 1.0216,0.1339 3.0647,0.3851 4.0696,0.5191 l 0.017,-0.134 0.7536,0.034 c 23.4797,0.4187 46.976,0.1508 70.4724,0.1173 0.7536,6.4477 1.3063,12.9623 0.8038,19.4603 -0.017,2.1603 -0.8038,5.6773 -3.7011,5.2083 -22.6255,0.3182 -45.2678,-0.067 -67.91,0.1508 0.3517,3.2992 2.6796,5.1581 5.7275,6.1127 -4.304,-1.1053 -8.675,-1.8924 -12.9623,-2.7465 2.5791,-0.134 5.2084,-0.3852 7.8209,-0.9881 -1.7919,-1.524 -3.5504,-3.0145 -5.2586,-4.4883 -0.1507,-7.7539 -0.084,-15.5079 0.1675,-23.2451 z" />

      <path
   style="fill:#58a9c4;stroke:none"
   inkscape:connector-curvature="0"
   id="path203-5"
   d="m -1638.1229,2666.6462 c 25.3218,0.067 50.6603,0.1005 75.9989,-0.034 -0.6532,0.4354 -1.9929,1.2896 -2.6628,1.7082 0.05,6.4142 -0.1508,12.8284 -0.7034,19.2259 0.3517,0.7201 1.0551,2.1603 1.4068,2.8805 -24.6855,0.05 -49.3709,0.2177 -74.0563,-0.084 0.034,-7.9047 0.034,-15.8093 0.017,-23.6973 z" />

      <path
   style="fill:#a3e3ff;stroke:none"
   inkscape:connector-curvature="0"
   id="path205-1"
   d="m -1562.124,2666.6127 c 29.3244,0.201 58.632,-0.017 87.9564,0.1172 -0.067,7.8378 -0.067,15.6922 0.05,23.5467 -29.4082,0.3181 -58.833,0.067 -88.2412,0.1339 l -1.7249,0.017 c -0.3517,-0.7202 -1.0551,-2.1604 -1.4068,-2.8805 0.5526,-6.3975 0.7536,-12.8117 0.7034,-19.2259 0.6699,-0.4186 2.0096,-1.2728 2.6628,-1.7082 z" />

      <path
   style="fill:#cff4ff;stroke:none"
   inkscape:connector-curvature="0"
   id="path207-7"
   d="m -1386.3953,2667.1151 c 29.9105,-0.7536 59.8881,0.034 89.8321,-0.3852 0.4354,7.7875 0.4857,15.6252 -0.017,23.4127 -30.0781,0.1172 -60.1728,0.5861 -90.2174,-0.2345 0.1005,-7.6032 -0.7368,-15.2567 0.402,-22.793 z" />

      <path
   style="fill:#a3e3ff;stroke:none"
   inkscape:connector-curvature="0"
   id="path225-4"
   d="m -1524.3423,2732.1781 c 5.5434,-2.4618 11.6896,-1.5407 17.6014,-1.6245 18.4387,0.017 36.8774,0 55.3161,0 5.9452,0.084 12.1585,-0.7871 17.8693,1.5575 -0.1843,7.2851 -0.1005,14.5534 -0.134,21.8552 -28.8387,0.084 -57.6775,0.067 -86.5162,0.017 -3.5169,0.6029 -4.5887,-3.5169 -4.0863,-6.1127 -0.067,-5.2419 0.067,-10.467 -0.05,-15.6922 z" />

      <path
   style="fill:#cff4ff;stroke:none"
   inkscape:connector-curvature="0"
   id="path227-3"
   d="m -1160.1235,2731.9437 c 14.3021,-0.4355 28.7382,1.1053 42.9566,-0.9714 -3.4164,7.6368 -1.6077,15.5749 -0.2679,23.4294 -9.0603,-1.6245 -18.2712,-0.8541 -27.3985,-0.9713 -52.6868,-0.134 -105.3736,0.1842 -158.0436,-0.1508 -0.2345,-7.1008 -0.2345,-14.1849 0.034,-21.269 47.5789,-0.1507 95.141,0 142.7199,-0.067 z" />

      <path
   style="fill:#72d2df;stroke:none"
   inkscape:connector-curvature="0"
   id="path257-1"
   d="m -1561.4206,2790.5255 c 36.0902,-0.3182 72.1973,-0.05 108.3043,-0.134 7.9214,0.1675 15.9434,-0.6866 23.8313,0.6029 1.1053,7.1678 0.4522,14.4863 0.5527,21.7212 -1.1388,1.0048 -2.2274,2.0264 -3.2657,3.0479 -43.1911,-0.1674 -86.3823,0.1843 -129.5734,-0.1674 -0.988,-0.034 -2.9642,-0.1173 -3.9523,-0.1675 l -0.201,-1.9762 c 44.6146,1.39 89.313,-0.017 133.9611,0.7369 1.4738,-7.2013 1.2058,-14.5701 0.9379,-21.8551 -44.9998,-0.1675 -90.0331,-0.402 -135.033,0.1172 l 0.05,-1.8254 c 1.1053,-0.034 3.2824,-0.067 4.3878,-0.1005 z" />

      <path
   style="fill:#58a9c4;stroke:none"
   inkscape:connector-curvature="0"
   id="path259-4"
   d="m -1621.3422,2790.8269 c 18.5057,-0.3517 37.0114,0.084 55.5338,-0.2009 l -0.05,1.8254 c -0.2009,7.0003 -0.3851,14.0007 0.134,21.001 l 0.201,1.9762 c -12.8116,-0.1005 -25.6233,0.05 -38.4182,0.017 -5.5433,-0.2177 -11.3211,0.8542 -16.6132,-0.8541 -2.3279,-7.553 -0.4354,-15.9098 -0.7871,-23.7643 z" />

      <path
   style="fill:#a3e3ff;stroke:none"
   inkscape:connector-curvature="0"
   id="path261-6"
   d="m -1347.2571,2813.2515 c 0.7872,-7.3521 -1.0718,-15.1563 1.0551,-22.2069 58.7995,-0.5024 117.6661,-0.2177 176.4823,-0.1339 0.4857,0.4186 1.457,1.2895 1.9427,1.7082 0.3182,7.1343 -0.2177,14.2686 0.3015,21.4029 -5.7109,2.2107 -11.8738,1.1556 -17.7856,1.3398 -48.5,0 -97,-0.017 -145.4832,0.017 -5.5936,-0.134 -11.5723,0.988 -16.5128,-2.1269 z" />

      <path
   style="fill:#cff4ff;stroke:none"
   inkscape:connector-curvature="0"
   id="path263-9"
   d="m -1565.8587,2792.4514 c 44.9999,-0.5192 90.0332,-0.2847 135.033,-0.1172 0.2679,7.285 0.5359,14.6538 -0.9379,21.8551 -44.6481,-0.7536 -89.3465,0.6531 -133.9611,-0.7369 -0.5191,-7.0003 -0.3349,-14.0007 -0.134,-21.001 z" />

      <path
   style="fill:#58a9c4;stroke:none"
   inkscape:connector-curvature="0"
   id="path279-4"
   d="m -1768.8183,2855.8899 c 10.0985,-0.1507 20.2139,-0.2345 30.3459,0.1005 0.3517,7.6032 0.2513,15.2232 0.1843,22.8432 -0.6364,0.084 -1.926,0.2512 -2.5791,0.335 -9.2947,0.8708 -18.6229,0.3684 -27.9009,0.1004 -0.2679,-7.8042 -0.2679,-15.5916 -0.05,-23.3791 z" />

      <path
   style="fill:#a3e3ff;stroke:none"
   inkscape:connector-curvature="0"
   id="path283-2"
   d="m -1257.8938,2855.8899 c 37.0951,-0.1842 74.1902,-0.017 111.2853,-0.084 8.9095,-0.1005 17.9028,0.6531 26.7621,-1.0216 0.6699,0.2512 2.0264,0.7369 2.6963,0.9881 0.3517,7.8879 0.05,15.7926 0.1842,23.7141 -0.6364,0.017 -1.8924,0.05 -2.5121,0.067 -46.1219,-0.3851 -92.227,0.1508 -138.3489,-0.2847 -0.084,-7.8042 -0.084,-15.5916 -0.067,-23.3791 z" />

      <path
   style="fill:#58a9c4;stroke:none"
   inkscape:connector-curvature="0"
   id="path311-2"
   d="m -1657.6837,2940.8988 c -1.792,-8.5913 -0.4689,-17.4673 -0.4689,-26.1591 23.1111,0.134 46.2223,0 69.3502,0.067 8.7421,0.1172 17.6349,-0.8709 26.2597,1.3062 -0.2847,8.0722 -0.4019,16.1611 -0.1005,24.25 -6.4979,0.7537 -13.0126,0.9211 -19.4938,0.7872 -25.1878,-0.2847 -50.3924,0.3349 -75.5467,-0.2513 z" />

      <path
   style="fill:#a3e3ff;stroke:none"
   inkscape:connector-curvature="0"
   id="path315-6"
   d="m -1346.9556,2916.3307 c 17.5343,-0.1005 35.0854,-0.067 52.6533,-0.034 -0.084,6.9668 0,13.9337 0.2344,20.9173 39.6742,0.3684 79.3484,0.067 119.0226,0.1507 11.5221,0.134 23.0777,-0.4187 34.5998,0.4689 -3.9859,2.2944 -8.6751,1.457 -12.9791,1.5742 -61.948,-0.1004 -123.9128,-0.1004 -185.8608,0.335 -2.5456,-0.3852 -6.8998,0.9378 -7.5697,-2.5121 -0.5359,-6.9668 -0.05,-13.9504 -0.1005,-20.9005 z" />

      <path
   style="fill:#cff4ff;stroke:none"
   inkscape:connector-curvature="0"
   id="path317-4"
   d="m -1294.3023,2916.2972 c 51.1795,0.067 102.3925,-0.1005 153.5888,0.084 -0.017,7.1511 -0.2009,14.3021 0.268,21.4532 -11.5221,-0.8876 -23.0777,-0.3349 -34.5998,-0.4689 -39.6742,-0.084 -79.3484,0.2177 -119.0226,-0.1507 -0.2344,-6.9836 -0.3182,-13.9505 -0.2344,-20.9173 z" />

      <path
   style="fill:#58a9c4;stroke:none"
   inkscape:connector-curvature="0"
   id="path331-1"
   d="m -1686.4387,2979.6519 c 40.3441,0.201 80.7719,-0.8038 121.0992,0.5025 -4.9907,4.5217 -2.0432,12.0915 -2.5456,18.0032 -0.5861,0.8039 -1.7752,2.3949 -2.3613,3.1987 -38.8034,-0.1004 -77.6067,-0.1172 -116.41,0 0.2009,-7.2348 0.2344,-14.4696 0.2177,-21.7044 z" />

      <path
   style="fill:#cff4ff;stroke:none"
   inkscape:connector-curvature="0"
   id="path333-2"
   d="m -1567.8851,2998.1576 c 0.5024,-5.9117 -2.4451,-13.4815 2.5456,-18.0032 3.316,0.2512 6.6487,0.5526 10.0651,0.7033 15.9099,0.3015 31.8197,-0.3014 47.7296,0.3517 -0.1172,5.7611 -0.3014,11.5389 -0.2345,17.2999 -6.3974,-0.4019 -12.6609,1.4068 -19.0081,1.2896 -13.7159,-0.2847 -27.5157,0.7536 -41.0977,-1.6413 z" />

      <path
   style="fill:#a3e3ff;stroke:none"
   inkscape:connector-curvature="0"
   id="path335-8"
   d="m -1392.0224,2982.6497 c 5.4094,-3.0313 11.79,-1.6077 17.7521,-1.8589 10.8522,-0.201 21.7379,0.2344 32.6236,0.1507 0.5694,6.0457 0.8373,12.1417 0.05,18.1875 -16.2281,2.4451 -32.7073,-0.4522 -48.9521,1.591 0.1507,-6.0793 -0.2178,-12.1418 -1.4738,-18.0703 z" />

      <path
   style="fill:#cff4ff;stroke:none"
   inkscape:connector-curvature="0"
   id="path337-8"
   d="m -1341.6467,2980.9415 c 30.0445,0.2177 60.1225,-0.4689 90.167,0.3182 -0.1674,6.0625 -0.3851,12.1417 -0.2009,18.221 -0.8876,-0.4522 -2.6628,-1.3398 -3.5504,-1.792 -9.8307,3.1317 -20.2139,1.9594 -30.3125,2.0264 -12.3762,0.017 -24.7189,-0.05 -37.0616,0.1005 -6.3807,0.1172 -12.6777,-1.7417 -18.9914,-0.6866 0.7871,-6.0458 0.5192,-12.1418 -0.05,-18.1875 z" />

    </g>

    <rect
   y="-2407.1743"
   x="-4.0000091"
   height="40.540081"
   width="6441.667"
   id="use5447"
   style="color:#000000;display:inline;overflow:visible;visibility:visible;fill:#2f8c45;fill-opacity:1;fill-rule:nonzero;stroke:none;stroke-width:0.908087;marker:none;enable-background:accumulate"
   transform="scale(1,-1)" />

    <rect
   y="2659.1743"
   x="-4.0000091"
   height="209.09091"
   width="6441.6665"
   id="rect4565"
   style="color:#000000;display:inline;overflow:visible;visibility:visible;fill:#9c9779;fill-opacity:1;fill-rule:nonzero;stroke:none;stroke-width:1;marker:none;enable-background:accumulate" />

    <rect
   transform="scale(1,-1)"
   style="color:#000000;display:inline;overflow:visible;visibility:visible;fill:#689123;fill-opacity:1;fill-rule:nonzero;stroke:none;stroke-width:0.96871;marker:none;enable-background:accumulate"
   id="use5426"
   width="6441.6665"
   height="269.5831"
   x="-4.0000091"
   y="-2659.1743" />

    <rect
   transform="scale(1,-1)"
   style="color:#000000;display:inline;overflow:visible;visibility:visible;fill:#2d6027;fill-opacity:1;fill-rule:nonzero;stroke:none;stroke-width:0.883278;marker:none;enable-background:accumulate"
   id="use5405"
   width="6441.667"
   height="30.53857"
   x="-4.0000091"
   y="-2661.1743" />

    <path
   style="fill:#2f8c45;stroke:none"
   d="m 2866.8968,2305.5579 c -5.5579,0.1348 -11.1141,0.8639 -16.4943,2.2605 -5.7508,1.6185 -11.3854,3.6722 -16.6063,6.5798 -6.7677,3.5235 -12.5087,8.6772 -17.837,14.0771 -2.6212,3.409 -5.3212,6.8027 -7.1617,10.7203 -3.2228,-1.3536 -6.1287,-3.3213 -9.4445,-4.4314 -7.4554,-2.8503 -15.583,-2.9712 -23.4322,-2.3051 -6.1448,0.6946 -11.9878,3.0275 -17.3447,6.0426 -3.1655,2.1987 -6.2334,4.5799 -8.8403,7.4303 -0.2579,0.3222 -0.7716,0.9606 -1.0294,1.2758 -0.05,0.2505 -0.1514,0.7563 -0.2015,1.0069 -8.0211,-1.7331 -16.5543,-0.5442 -23.9022,3.0438 -6.5816,3.6023 -12.3583,9.1124 -15.1514,16.181 -0.8232,2.1331 -1.3249,4.3799 -1.589,6.6469 h 280 c -0.6387,-5.0266 -1.3078,-10.1096 -3.5137,-14.7262 -4.6193,-10.5349 -13.4846,-18.9149 -23.7903,-23.835 -11.2009,-5.4143 -24.134,-6.9003 -36.3232,-4.5656 -5.5718,-7.1259 -12.7962,-12.7783 -20.7242,-17.0538 -8.2503,-4.3543 -17.3653,-6.9934 -26.6326,-7.9674 -3.314,-0.333 -6.6469,-0.4614 -9.9815,-0.3805 z"
   id="use6816"
   inkscape:connector-curvature="0" />

    <g
   style="fill:#c5beb0;fill-opacity:1"
   transform="matrix(1.6053391,0,0,0.80515493,-176.7201,1058.5542)"
   id="g4830">
      <path
   style="fill:#c5beb0;fill-opacity:1;stroke:none"
   inkscape:connector-curvature="0"
   id="path1035-2"
   d="m 633.97162,2351.7548 c -2.77422,0.8264 -4.7811,-2.0462 -7.20116,-3.03 -39.25222,0.1771 -78.50444,0.059 -117.77634,0.039 -8.0472,4.1908 -17.03881,9.0703 -20.08848,18.298 -0.86571,5.0762 -0.90506,10.3689 -0.19675,15.5435 4.11213,10.5853 14.65809,18.2586 26.10912,18.3767 36.04515,0.02 72.10997,-0.02 108.15512,0.1181 6.847,-0.2755 12.65121,-4.368 18.78991,-6.8667 0.059,-0.6296 0.19675,-1.9085 0.25578,-2.5578 4.89915,-3.5416 9.32609,-8.5194 9.40479,-14.8549 0.059,-6.8076 -2.43974,-13.3201 -2.85292,-20.0884 -3.04967,0.6689 -6.21739,1.4362 -9.36544,2.2233 1.21987,-2.4201 3.14805,-4.6237 3.20707,-7.3389 -2.34136,-2.302 -5.60746,0.1377 -8.4407,0.1377 z" />

      <path
   style="fill:#c5beb0;fill-opacity:1;stroke:none"
   inkscape:connector-curvature="0"
   id="path1037-9"
   d="m 864.21197,2451.0167 c -8.24395,-4.6827 -17.8455,-0.9838 -26.73873,-1.6527 -161.84901,0.118 -323.69802,0.2557 -485.52736,-0.039 -3.38415,3.5416 -7.90947,5.4107 -12.65121,6.6306 -3.1087,6.4141 -5.90259,13.0054 -8.91291,19.5376 0.3148,3.3644 0.62961,6.7879 0.94441,10.2311 3.32513,4.8401 5.68616,11.3723 11.86421,13.2218 10.09342,4.2696 21.19029,2.9513 31.79528,2.9907 158.79934,0.079 317.59868,-0.059 476.39801,0.059 6.6109,-0.3148 13.08408,-2.6562 18.69154,-5.9616 9.48349,-8.8736 9.85732,-23.5907 4.60402,-34.8056 -1.41662,-5.0566 -6.04032,-8.0079 -10.46726,-10.2115 z" />

      <path
   style="fill:#c5beb0;fill-opacity:1;stroke:none"
   inkscape:connector-curvature="0"
   id="path1039-3"
   d="m 1121.8401,2467.3078 c -5.5878,-7.3389 -12.238,-13.7924 -20.5017,-18.0422 -39.8424,0.4525 -79.6849,0.098 -119.5274,0.2164 -6.0403,1.515 -12.7496,4.1515 -16.055,9.877 -3.7974,5.8042 -8.3817,12.238 -7.5947,19.5573 3.2661,7.2798 6.965,15.6418 14.8942,18.8489 9.2277,5.2926 20.1081,3.4628 30.2016,3.699 25.6172,0.2164 51.2148,-0.1181 76.8123,0.079 9.7,0.2557 19.6557,-0.059 28.844,-3.3842 6.5716,-5.0172 13.9892,-12.12 13.1825,-21.0722 0.059,-3.3055 -0.079,-6.5716 -0.2558,-9.7787 z" />

    </g>

    <g
   style="fill:#c5beb0;fill-opacity:1"
   transform="matrix(1.6053391,0,0,0.80515493,-2919.4184,932.75546)"
   id="g4835">
      <path
   style="fill:#c5beb0;fill-opacity:1;stroke:none"
   inkscape:connector-curvature="0"
   id="path1041-1"
   d="m 4264.0129,2482.3791 c -6.4339,-3.3054 -12.8086,-8.2439 -20.4033,-7.8308 -34.7072,0.2361 -69.4145,0.2165 -104.1217,0.1378 -3.9744,-0.3935 -7.6537,1.1018 -10.9395,3.2464 -1.4953,-0.039 -3.0103,-0.02 -4.5253,0.039 -10.0737,5.5878 -17.4323,16.9798 -14.7565,28.785 3.9745,10.1721 13.7531,18.298 24.4171,20.2656 37.3437,0.3148 74.7071,-0.02 112.0508,0.118 13.2415,0.8264 23.1185,-10.8804 26.4633,-22.5282 1.6134,-8.362 -2.9513,-16.1534 -8.1849,-22.2331 z" />

      <path
   style="fill:#c5beb0;fill-opacity:1;stroke:none"
   inkscape:connector-curvature="0"
   id="path1043-9"
   d="m 4032.8992,2494.8926 c -4.3876,-10.1525 -14.0285,-19.754 -25.6172,-20.2459 -159.429,0.1574 -318.8383,0.02 -478.2672,0.079 -5.8632,0.079 -11.8052,-0.6296 -17.6488,0.4526 -4.8991,1.9872 -9.6999,4.4072 -14.2055,7.2798 -4.7221,5.6271 -9.3261,12.4151 -8.6178,20.1672 0.728,11.392 10.0344,21.328 20.9739,23.9252 7.1421,1.2002 14.422,0.3738 21.6034,0.5312 158.642,0.079 317.3036,0.039 475.9455,0.039 6.4929,-0.1377 11.5494,-4.8991 17.3536,-7.1618 5.2927,-6.9847 12.9464,-15.8583 8.4801,-25.0663 z" />

    </g>

    <g
   transform="matrix(1,0,0,0.50154819,80,1816.3224)"
   id="g6130">
      <path
   d="m 5321.0193,2264.5057 c -4.4535,1.3267 -7.6753,-3.2848 -11.5603,-4.8641 -63.0131,0.2843 -126.0262,0.095 -189.0709,0.063 -12.9185,6.7277 -27.3531,14.5609 -32.2489,29.3745 -1.3897,8.149 -1.4529,16.6456 -0.3158,24.9526 6.6014,16.993 23.5312,29.3112 41.914,29.5008 57.8647,0.032 115.7609,-0.032 173.6256,0.1896 10.9918,-0.4423 20.3095,-7.0121 30.1642,-11.0234 0.095,-1.0107 0.3159,-3.0638 0.4106,-4.1061 7.8648,-5.6855 14.9716,-13.6765 15.0979,-23.8472 0.095,-10.9285 -3.9166,-21.3832 -4.5799,-32.2486 -4.8958,1.0738 -9.981,2.3055 -15.0347,3.5691 1.9583,-3.8851 5.0537,-7.4226 5.1484,-11.7814 -3.7587,-3.6955 -9.0019,0.221 -13.5502,0.221 z"
   id="path6121"
   inkscape:connector-curvature="0"
   style="fill:#c5beb0;fill-opacity:1;stroke:none" />

      <path
   d="m 5690.6332,2423.8547 c -13.2344,-7.5173 -28.6481,-1.5793 -42.9248,-2.6531 -259.8225,0.1894 -519.6451,0.4105 -779.436,-0.063 -5.4327,5.6855 -12.6974,8.6861 -20.3095,10.6444 -4.9905,10.2968 -9.4757,20.8781 -14.3082,31.3645 0.5053,5.401 1.0107,10.8969 1.5161,16.4244 5.3379,7.77 9.1282,18.2564 19.046,21.2254 16.2034,6.8542 34.0176,4.7379 51.0422,4.8011 254.9268,0.1264 509.8536,-0.095 764.7804,0.095 10.6127,-0.5053 21.0044,-4.2641 30.0063,-9.5703 15.2242,-14.2452 15.8243,-37.8711 7.391,-55.8748 -2.2742,-8.1176 -9.6968,-12.8554 -16.8035,-16.393 z"
   id="path6123"
   inkscape:connector-curvature="0"
   style="fill:#c5beb0;fill-opacity:1;stroke:none" />

    </g>

    <g
   id="g3496">
      <g
   id="g4584"
   transform="translate(-432.18189,903.26531)"
   style="stroke:none">
        <path
   d="m 2422.42,1825.27 c 1.41,0.42 2.43,-1.04 3.66,-1.54 19.95,0.09 39.9,0.03 59.86,0.02 4.09,2.13 8.66,4.61 10.21,9.3 0.44,2.58 0.46,5.27 0.1,7.9 -2.09,5.38 -7.45,9.28 -13.27,9.34 -18.32,0.01 -36.65,-0.01 -54.97,0.06 -3.48,-0.14 -6.43,-2.22 -9.55,-3.49 -0.03,-0.32 -0.1,-0.97 -0.13,-1.3 -2.49,-1.8 -4.74,-4.33 -4.78,-7.55 -0.03,-3.46 1.24,-6.77 1.45,-10.21 1.55,0.34 3.16,0.73 4.76,1.13 -0.62,-1.23 -1.6,-2.35 -1.63,-3.73 1.19,-1.17 2.85,0.07 4.29,0.07 z"
   id="path1035"
   inkscape:connector-curvature="0"
   style="fill:#b7b191;stroke:none" />

        <path
   d="m 2305.4,1875.72 c 4.19,-2.38 9.07,-0.5 13.59,-0.84 82.26,0.06 164.52,0.13 246.77,-0.02 1.72,1.8 4.02,2.75 6.43,3.37 1.58,3.26 3,6.61 4.53,9.93 -0.16,1.71 -0.32,3.45 -0.48,5.2 -1.69,2.46 -2.89,5.78 -6.03,6.72 -5.13,2.17 -10.77,1.5 -16.16,1.52 -80.71,0.04 -161.42,-0.03 -242.13,0.03 -3.36,-0.16 -6.65,-1.35 -9.5,-3.03 -4.82,-4.51 -5.01,-11.99 -2.34,-17.69 0.72,-2.57 3.07,-4.07 5.32,-5.19 z"
   id="path1037"
   inkscape:connector-curvature="0"
   style="fill:#b7b191;stroke:none" />

        <path
   d="m 2133.8,1884 c 2.84,-3.73 6.22,-7.01 10.42,-9.17 20.25,0.23 40.5,0.05 60.75,0.11 3.07,0.77 6.48,2.11 8.16,5.02 1.93,2.95 4.26,6.22 3.86,9.94 -1.66,3.7 -3.54,7.95 -7.57,9.58 -4.69,2.69 -10.22,1.76 -15.35,1.88 -13.02,0.11 -26.03,-0.06 -39.04,0.04 -4.93,0.13 -9.99,-0.03 -14.66,-1.72 -3.34,-2.55 -7.11,-6.16 -6.7,-10.71 -0.03,-1.68 0.04,-3.34 0.13,-4.97 z"
   id="path1039"
   inkscape:connector-curvature="0"
   style="fill:#b7b191;stroke:none" />

        <path
   d="m 532.72,1891.66 c 3.27,-1.68 6.51,-4.19 10.37,-3.98 17.64,0.12 35.28,0.11 52.92,0.07 2.02,-0.2 3.89,0.56 5.56,1.65 0.76,-0.02 1.53,-0.01 2.3,0.02 5.12,2.84 8.86,8.63 7.5,14.63 -2.02,5.17 -6.99,9.3 -12.41,10.3 -18.98,0.16 -37.97,-0.01 -56.95,0.06 -6.73,0.42 -11.75,-5.53 -13.45,-11.45 -0.82,-4.25 1.5,-8.21 4.16,-11.3 z"
   id="path1041"
   inkscape:connector-curvature="0"
   style="fill:#b7b191;stroke:none" />

        <path
   d="m 694.91,1898.02 c 2.23,-5.16 7.13,-10.04 13.02,-10.29 81.03,0.08 162.05,0.01 243.08,0.04 2.98,0.04 6,-0.32 8.97,0.23 2.49,1.01 4.93,2.24 7.22,3.7 2.4,2.86 4.74,6.31 4.38,10.25 -0.37,5.79 -5.1,10.84 -10.66,12.16 -3.63,0.61 -7.33,0.19 -10.98,0.27 -80.63,0.04 -161.27,0.02 -241.9,0.02 -3.3,-0.07 -5.87,-2.49 -8.82,-3.64 -2.69,-3.55 -6.58,-8.06 -4.31,-12.74 z"
   id="path1043"
   inkscape:connector-curvature="0"
   style="fill:#b7b191;stroke:none" />

      </g>

      <path
   d="m 4730.2381,2728.5353 c 1.41,0.42 2.43,-1.04 3.66,-1.54 19.95,0.09 39.9,0.03 59.86,0.02 4.09,2.13 8.66,4.61 10.21,9.3 0.44,2.58 0.46,5.27 0.1,7.9 -2.09,5.38 -7.45,9.28 -13.27,9.34 -18.32,0.01 -36.65,-0.01 -54.97,0.06 -3.48,-0.14 -6.43,-2.22 -9.55,-3.49 -0.03,-0.32 -0.1,-0.97 -0.13,-1.3 -2.49,-1.8 -4.74,-4.33 -4.78,-7.55 -0.03,-3.46 1.24,-6.77 1.45,-10.21 1.55,0.34 3.16,0.73 4.76,1.13 -0.62,-1.23 -1.6,-2.35 -1.63,-3.73 1.19,-1.17 2.85,0.07 4.29,0.07 z"
   id="path3450"
   inkscape:connector-curvature="0"
   style="fill:#b7b191;stroke:none" />

      <path
   d="m 4613.2181,2778.9853 c 4.19,-2.38 9.07,-0.5 13.59,-0.84 82.26,0.06 164.52,0.13 246.77,-0.02 1.72,1.8 4.02,2.75 6.43,3.37 1.58,3.26 3,6.61 4.53,9.93 -0.16,1.71 -0.32,3.45 -0.48,5.2 -1.69,2.46 -2.89,5.78 -6.03,6.72 -5.13,2.17 -10.77,1.5 -16.16,1.52 -80.71,0.04 -161.42,-0.03 -242.13,0.03 -3.36,-0.16 -6.65,-1.35 -9.5,-3.03 -4.82,-4.51 -5.01,-11.99 -2.34,-17.69 0.72,-2.57 3.07,-4.07 5.32,-5.19 z"
   id="path3452"
   inkscape:connector-curvature="0"
   style="fill:#b7b191;stroke:none" />

      <path
   d="m 3460.5381,2794.9253 c 3.27,-1.68 6.51,-4.19 10.37,-3.98 17.64,0.12 35.28,0.11 52.92,0.07 2.02,-0.2 3.89,0.56 5.56,1.65 0.76,-0.02 1.53,-0.01 2.3,0.02 5.12,2.84 8.86,8.63 7.5,14.63 -2.02,5.17 -6.99,9.3 -12.41,10.3 -18.98,0.16 -37.97,-0.01 -56.95,0.06 -6.73,0.42 -11.75,-5.53 -13.45,-11.45 -0.82,-4.25 1.5,-8.21 4.16,-11.3 z"
   id="path3456"
   inkscape:connector-curvature="0"
   style="fill:#b7b191;stroke:none" />

      <path
   d="m 3122.7281,2801.2853 c 2.23,-5.16 7.13,-10.04 13.02,-10.29 81.03,0.08 162.05,0.01 243.08,0.04 2.98,0.04 6,-0.32 8.97,0.23 2.49,1.01 4.93,2.24 7.22,3.7 2.4,2.86 4.74,6.31 4.38,10.25 -0.37,5.79 -5.1,10.84 -10.66,12.16 -3.63,0.61 -7.33,0.19 -10.98,0.27 -80.63,0.04 -161.27,0.02 -241.9,0.02 -3.3,-0.07 -5.87,-2.49 -8.82,-3.64 -2.69,-3.55 -6.58,-8.06 -4.31,-12.74 z"
   id="path3458"
   inkscape:connector-curvature="0"
   style="fill:#b7b191;stroke:none" />

      <path
   style="fill:#b7b191;stroke:none"
   inkscape:connector-curvature="0"
   id="use3471"
   d="m 5522.7281,2801.2853 c 2.23,-5.16 7.13,-10.04 13.02,-10.29 81.03,0.08 162.05,0.01 243.08,0.04 2.98,0.04 6,-0.32 8.97,0.23 2.49,1.01 4.93,2.24 7.22,3.7 2.4,2.86 4.74,6.31 4.38,10.25 -0.37,5.79 -5.1,10.84 -10.66,12.16 -3.63,0.61 -7.33,0.19 -10.98,0.27 -80.63,0.04 -161.27,0.02 -241.9,0.02 -3.3,-0.07 -5.87,-2.49 -8.82,-3.64 -2.69,-3.55 -6.58,-8.06 -4.31,-12.74 z" />

      <path
   d="m 5060.5381,2794.9253 c 3.27,-1.68 6.51,-4.19 10.37,-3.98 17.64,0.12 35.28,0.11 52.92,0.07 2.02,-0.2 3.89,0.56 5.56,1.65 0.76,-0.02 1.53,-0.01 2.3,0.02 5.12,2.84 8.86,8.63 7.5,14.63 -2.02,5.17 -6.99,9.3 -12.41,10.3 -18.98,0.16 -37.97,-0.01 -56.95,0.06 -6.73,0.42 -11.75,-5.53 -13.45,-11.45 -0.82,-4.25 1.5,-8.21 4.16,-11.3 z"
   id="path3487"
   inkscape:connector-curvature="0"
   style="fill:#b7b191;stroke:none" />

    </g>

    <g
   transform="translate(1357.1318,18.378105)"
   id="g2010">
      <rect
   style="fill:#005858;fill-rule:evenodd;stroke:none;stroke-width:4;stroke-linecap:square;stroke-linejoin:round;stroke-miterlimit:0;paint-order:stroke fill markers"
   id="rect1963"
   width="38.555084"
   height="22.923243"
   x="2219.9163"
   y="2325.6755" />

      <rect
   y="2325.6755"
   x="2273.4714"
   height="22.923243"
   width="38.555084"
   id="rect1963-3"
   style="fill:#005858;fill-rule:evenodd;stroke:none;stroke-width:4;stroke-linecap:square;stroke-linejoin:round;stroke-miterlimit:0;paint-order:stroke fill markers" />

      <rect
   y="2325.6755"
   x="2327.0264"
   height="22.923243"
   width="38.555084"
   id="rect1963-6"
   style="fill:#005858;fill-rule:evenodd;stroke:none;stroke-width:4;stroke-linecap:square;stroke-linejoin:round;stroke-miterlimit:0;paint-order:stroke fill markers" />

      <rect
   y="2325.6755"
   x="2380.5815"
   height="22.923243"
   width="38.555084"
   id="rect1963-7"
   style="fill:#005858;fill-rule:evenodd;stroke:none;stroke-width:4;stroke-linecap:square;stroke-linejoin:round;stroke-miterlimit:0;paint-order:stroke fill markers" />

      <rect
   y="2325.6755"
   x="2434.1367"
   height="22.923243"
   width="38.555084"
   id="rect1963-5"
   style="fill:#005858;fill-rule:evenodd;stroke:none;stroke-width:4;stroke-linecap:square;stroke-linejoin:round;stroke-miterlimit:0;paint-order:stroke fill markers" />

      <rect
   y="2325.6755"
   x="2487.6917"
   height="22.923243"
   width="38.555084"
   id="rect1963-35"
   style="fill:#005858;fill-rule:evenodd;stroke:none;stroke-width:4;stroke-linecap:square;stroke-linejoin:round;stroke-miterlimit:0;paint-order:stroke fill markers" />

    </g>

  </g>

  <g
   style="display:inline"
   transform="translate(-2045.7514,-991.41828)"
   inkscape:label="Boss"
   id="layer2"
   inkscape:groupmode="layer">
    

    

  </g>

  <g
   style="display:inline"
   inkscape:label="Office"
   id="layer3"
   inkscape:groupmode="layer">
    

  </g>

  <g
   style="display:inline"
   inkscape:label="Server room"
   id="layer4"
   inkscape:groupmode="layer">
    

  </g>

  <g
   style="display:inline"
   inkscape:label="Shop"
   id="layer5"
   inkscape:groupmode="layer">
    

  </g>

</svg>
