<?xml version="1.0" encoding="UTF-8" standalone="no"?>
<svg
   xmlns:dc="http://purl.org/dc/elements/1.1/"
   xmlns:cc="http://creativecommons.org/ns#"
   xmlns:rdf="http://www.w3.org/1999/02/22-rdf-syntax-ns#"
   xmlns:svg="http://www.w3.org/2000/svg"
   xmlns="http://www.w3.org/2000/svg"
   xmlns:xlink="http://www.w3.org/1999/xlink"
   xmlns:sodipodi="http://sodipodi.sourceforge.net/DTD/sodipodi-0.dtd"
   xmlns:inkscape="http://www.inkscape.org/namespaces/inkscape"
   sodipodi:docname="boss.svg"
   height="277.0155"
   width="277.0155"
   inkscape:version="1.0 (6e3e5246a0, 2020-05-07)"
   xml:space="preserve"
   enable-background="new 0 0 3000 1965"
   viewBox="0 0 277.01551 277.01552"
   y="0px"
   x="0px"
   id="Layer_1"
   version="1.1"
   inkscape:export-filename="/home/osa413/Изображения/project/minimap.svg.png"
   inkscape:export-xdpi="55.339741"
   inkscape:export-ydpi="55.339741">
  <metadata
   id="metadata1049">
    <rdf:RDF>
      <cc:Work
   rdf:about="">
        <dc:format>image/svg+xml</dc:format>

        <dc:type
   rdf:resource="http://purl.org/dc/dcmitype/StillImage" />

        <dc:title></dc:title>

      </cc:Work>

    </rdf:RDF>

  </metadata>

  <defs
   id="defs1047">
    <inkscape:perspective
   id="perspective5856"
   inkscape:persp3d-origin="0.23314892 : -1702.6595 : 1"
   inkscape:vp_z="0.46629783 : -1702.5592 : 1"
   inkscape:vp_y="0 : 0.30636082 : 0"
   inkscape:vp_x="0 : -1702.5592 : 1"
   sodipodi:type="inkscape:persp3d" />

    

    <linearGradient
   id="linearGradient3753">
      <stop
   id="stop3755"
   style="stop-color:#ededed"
   offset="0" />

      <stop
   id="stop3757"
   style="stop-color:#bebebe"
   offset="1" />

    </linearGradient>

    

    

    

    

    

    

    

    

    

    

    

    

    

    

    

    

    

    <inkscape:perspective
   sodipodi:type="inkscape:persp3d"
   inkscape:vp_x="0 : -1678.8602 : 1"
   inkscape:vp_y="0 : 1000 : 0"
   inkscape:vp_z="47.999999 : -1678.8602 : 1"
   inkscape:persp3d-origin="24 : -1686.8602 : 1"
   id="perspective112" />

    

    <linearGradient
   id="linearGradient2752">
      <stop
   id="stop2754"
   offset="0"
   style="stop-color:#9d9d9d;stop-opacity:1;" />

      <stop
   id="stop2756"
   offset="1.0000000"
   style="stop-color:#b9b9b9;stop-opacity:1.0000000;" />

    </linearGradient>

    <linearGradient
   id="linearGradient2711">
      <stop
   id="stop2713"
   offset="0.0000000"
   style="stop-color:#909090;stop-opacity:1.0000000;" />

      <stop
   id="stop2715"
   offset="1.0000000"
   style="stop-color:#bebebe;stop-opacity:0.0000000;" />

    </linearGradient>

    <linearGradient
   id="linearGradient2701">
      <stop
   id="stop2703"
   offset="0.0000000"
   style="stop-color:#585956;stop-opacity:1.0000000;" />

      <stop
   id="stop2705"
   offset="1.0000000"
   style="stop-color:#bbbeb8;stop-opacity:1.0000000;" />

    </linearGradient>

    <linearGradient
   id="linearGradient2691">
      <stop
   id="stop2693"
   offset="0.0000000"
   style="stop-color:#868686;stop-opacity:1.0000000;" />

      <stop
   id="stop2695"
   offset="1.0000000"
   style="stop-color:#e9e9e9;stop-opacity:1.0000000;" />

    </linearGradient>

    

    <linearGradient
   id="linearGradient2675">
      <stop
   id="stop2677"
   offset="0.0000000"
   style="stop-color:#5b5b97;stop-opacity:1.0000000;" />

      <stop
   id="stop2679"
   offset="1.0000000"
   style="stop-color:#1b1b43;stop-opacity:1.0000000;" />

    </linearGradient>

    <linearGradient
   id="linearGradient2667">
      <stop
   id="stop2669"
   offset="0.0000000"
   style="stop-color:#ffffff;stop-opacity:1.0000000;" />

      <stop
   id="stop2671"
   offset="1.0000000"
   style="stop-color:#fcfcff;stop-opacity:0.0000000;" />

    </linearGradient>

    <linearGradient
   id="linearGradient2635"
   inkscape:collect="always">
      <stop
   id="stop2637"
   offset="0"
   style="stop-color:#f9fff5;stop-opacity:1;" />

      <stop
   id="stop2639"
   offset="1"
   style="stop-color:#f9fff5;stop-opacity:0;" />

    </linearGradient>

    <linearGradient
   id="linearGradient2623">
      <stop
   id="stop2625"
   offset="0.0000000"
   style="stop-color:#dfdfde;stop-opacity:1.0000000;" />

      <stop
   id="stop2627"
   offset="1.0000000"
   style="stop-color:#9d9f9a;stop-opacity:1.0000000;" />

    </linearGradient>

    <linearGradient
   inkscape:collect="always"
   id="linearGradient2415">
      <stop
   style="stop-color:#ffffff;stop-opacity:1;"
   offset="0"
   id="stop2417" />

      <stop
   style="stop-color:#ffffff;stop-opacity:0;"
   offset="1"
   id="stop2419" />

    </linearGradient>

    <linearGradient
   id="linearGradient2379">
      <stop
   style="stop-color:#1a4876;stop-opacity:1.0000000;"
   offset="0.0000000"
   id="stop2381" />

      <stop
   style="stop-color:#3f54a3;stop-opacity:0.0000000;"
   offset="1.0000000"
   id="stop2383" />

    </linearGradient>

    <linearGradient
   inkscape:collect="always"
   id="linearGradient2307">
      <stop
   style="stop-color:#5a7aa4;stop-opacity:1;"
   offset="0"
   id="stop2309" />

      <stop
   style="stop-color:#5a7aa4;stop-opacity:0;"
   offset="1"
   id="stop2311" />

    </linearGradient>

    <linearGradient
   id="linearGradient2253">
      <stop
   style="stop-color:#8f8f8f;stop-opacity:1.0000000;"
   offset="0.0000000"
   id="stop2255" />

      <stop
   style="stop-color:#494949;stop-opacity:1.0000000;"
   offset="1.0000000"
   id="stop2257" />

    </linearGradient>

    <linearGradient
   id="linearGradient2245">
      <stop
   style="stop-color:#dde1d9;stop-opacity:1.0000000;"
   offset="0.0000000"
   id="stop2247" />

      <stop
   style="stop-color:#cacdc6;stop-opacity:1.0000000;"
   offset="1.0000000"
   id="stop2249" />

    </linearGradient>

    

    <linearGradient
   inkscape:collect="always"
   xlink:href="#linearGradient2307"
   id="linearGradient2313"
   gradientTransform="matrix(1.208393,0,0,0.98441,-0.789284,-0.50338)"
   x1="16.851954"
   y1="9.323514"
   x2="24.418941"
   y2="53.734985"
   gradientUnits="userSpaceOnUse" />

    <linearGradient
   inkscape:collect="always"
   xlink:href="#linearGradient2415"
   id="linearGradient2334"
   gradientTransform="matrix(1.289166,0,0,0.922731,-0.789284,-0.50338)"
   x1="16.119127"
   y1="10.842293"
   x2="27.289009"
   y2="39.03191"
   gradientUnits="userSpaceOnUse" />

    

    <linearGradient
   inkscape:collect="always"
   xlink:href="#linearGradient2379"
   id="linearGradient2445"
   gradientUnits="userSpaceOnUse"
   gradientTransform="matrix(1.02787,0,0,0.822296,1.523986,1.001198)"
   x1="21.356108"
   y1="30.078255"
   x2="19.994572"
   y2="-1.3221773" />

    

    

    <linearGradient
   y2="92.57093"
   x2="10.728384"
   y1="84.029198"
   x1="10.728384"
   gradientTransform="scale(1.983556,0.504145)"
   gradientUnits="userSpaceOnUse"
   id="linearGradient2653"
   xlink:href="#linearGradient2623"
   inkscape:collect="always" />

    <linearGradient
   y2="74.098007"
   x2="8.6485014"
   y1="101.2846"
   x1="13.62871"
   gradientTransform="scale(2.143634,0.466498)"
   gradientUnits="userSpaceOnUse"
   id="linearGradient2655"
   xlink:href="#linearGradient2635"
   inkscape:collect="always" />

    

    

    

    

    

    

    

    

    

    

    

    

    

    

    

    

    

    

  
      

      

    
        

        

        

        

        

        

        

        

        

        

        

        

        

      </defs>

  <sodipodi:namedview
   borderlayer="true"
   inkscape:window-maximized="1"
   inkscape:window-y="27"
   inkscape:window-x="72"
   inkscape:document-rotation="0"
   fit-margin-bottom="0"
   fit-margin-right="0"
   fit-margin-left="0"
   fit-margin-top="0"
   inkscape:current-layer="layer2"
   inkscape:cy="140.95187"
   inkscape:cx="172.31623"
   inkscape:zoom="0.616"
   showgrid="false"
   id="namedview1045"
   inkscape:window-height="704"
   inkscape:window-width="1294"
   inkscape:pageshadow="2"
   inkscape:pageopacity="0"
   guidetolerance="10"
   gridtolerance="10"
   objecttolerance="10"
   borderopacity="1"
   bordercolor="#666666"
   pagecolor="#ffffff" />

  

  <g
   style="display:inline"
   transform="translate(-2894.0432,-1157.5443)"
   inkscape:label="Boss"
   id="layer2"
   inkscape:groupmode="layer">
    

    <rect
   ry="54.688477"
   y="1173.5443"
   x="2910.0432"
   height="245.01552"
   width="245.01552"
   id="rect2126"
   style="fill:#efefef;fill-opacity:1;fill-rule:evenodd;stroke:#000000;stroke-width:32;stroke-linecap:square;stroke-linejoin:round;stroke-miterlimit:0;stroke-dasharray:none;stroke-opacity:1;paint-order:stroke fill markers" /><g
   id="g463"><path
     sodipodi:nodetypes="ccccccccccccccccccccccsscccc"
     style="fill:#000000;fill-opacity:1;stroke-width:0.297825"
     d="m 3129.5393,1311.6412 c -3.1798,-3.2371 -7.2359,-4.5606 -11.6309,-4.9859 -1.0397,-0.1004 -1.482,-0.3288 -1.3391,-1.5094 0.1898,-1.5675 0.1966,-3.1668 0.1603,-4.7494 -0.033,-1.4528 0.2636,-2.6271 1.4554,-3.6406 1.0055,-0.8548 1.7983,-1.98 2.6027,-3.048 6.21,-8.2456 9.5564,-17.6059 10.692,-27.7999 1.2082,-10.8486 -0.4706,-21.0669 -6.2618,-30.5425 -8.0606,-13.1892 -19.0709,-23.1988 -32.3793,-30.8288 -3.5664,-2.0449 -7.2184,-3.9385 -11.1803,-5.1027 -0.9117,-0.2677 -1.5472,-0.6757 -2.1208,-1.3965 -8.7787,-11.0362 -20.4392,-16.6022 -34.289,-17.9064 -9.0241,-0.85 -17.9263,0.1537 -26.7047,2.2227 -16.0037,3.7713 -31.051,10.0265 -45.4211,17.9347 -9.8309,5.4103 -18.8732,11.8886 -26.2833,20.429 -11.0637,12.7505 -15.1579,27.3978 -12.0792,44.06 2.3692,12.8231 7.7592,24.2796 15.5003,34.6582 1.4149,1.8968 1.9159,3.7806 1.8855,6.0068 -0.01,0.7592 -0.2082,1.0397 -0.9676,1.0922 -1.2825,0.088 -2.5679,0.2192 -3.8342,0.4363 -8.8889,1.5225 -13.8236,7.7142 -13.0677,16.5248 0.472,5.5047 3.2868,9.3124 8.5788,11.1878 3.0262,1.0725 6.1792,1.5064 9.3434,1.6193 16.2974,0.5812 110.1017,5.0082 164.119,-0.1108 1.772,-0.1679 3.5596,-0.3249 5.304,-0.674 4.9066,-0.9822 8.941,-3.1596 10.8476,-8.1798 0.8563,-2.2545 0.6502,-4.5808 0.7178,-6.9024 0.1016,-3.4925 -1.269,-6.3728 -3.6478,-8.7947"
     fill="#6E4100"
     id="path1138"
     inkscape:connector-curvature="0" /><path
     style="fill:#000000;fill-opacity:1;stroke-width:0.297825"
     inkscape:connector-curvature="0"
     id="path1152"
     fill="#FEF5E2"
     d="m 3111.7231,1306.9641 c -0.021,7.1883 -0.4306,14.362 -0.9479,21.5262 -0.7139,9.8896 -1.8677,19.7277 -4.1023,29.407 -2.4553,10.635 -5.9398,20.8522 -12.5012,29.7563 -7.8507,10.6535 -18.5334,16.0525 -31.6332,16.9996 -9.2522,0.6689 -18.5143,0.9891 -27.7844,0.8077 -10.6526,-0.2085 -21.3041,-0.6308 -31.8846,-1.9615 -14.3075,-1.7992 -24.7457,-9.405 -31.8813,-21.7523 -4.9397,-8.5472 -7.7038,-17.8754 -9.6174,-27.4851 -2.4362,-12.2322 -3.3704,-24.6289 -3.9327,-37.0616 -0.2172,-4.7998 -0.3819,-9.6016 -0.5704,-14.4026 0.2308,-0.218 0.5212,-0.3136 0.8125,-0.2326 2.3105,0.6442 4.6845,1.0314 6.9828,1.7233 0.2856,0.086 0.52,0.268 0.7097,0.5018 0.8458,1.8543 1.0907,3.9009 1.896,5.7805 0.9536,2.2256 2.2283,4.1823 3.9771,5.8582 1.4895,1.4272 3.2377,2.3031 5.262,2.5452 6.2972,0.7526 12.6189,1.3498 18.9599,1.2318 5.1937,-0.097 10.3842,-0.475 15.466,-1.7792 4.1258,-1.059 7.479,-3.0974 9.6278,-6.8768 0.2469,-0.4342 0.5206,-0.8547 1.0844,-0.9316 l 16.8757,0.3866 c 2.5937,0.3074 5.1911,0.235 7.7887,0.2713 0.3934,0.01 0.7842,0.039 1.1618,0.1552 0.4423,0.1528 0.7607,0.4744 1.0055,0.8473 2.7846,4.2434 7.0507,5.8779 11.7745,6.7285 5.3826,0.9694 10.8233,1.3646 16.2711,1.1934 5.1902,-0.1629 10.3792,-0.5594 15.5408,-1.2047 3.1343,-0.3923 5.3415,-2.2251 7.163,-4.6268 1.115,-1.4697 1.9635,-3.0929 2.5395,-4.8551 0.2294,-0.7017 0.4125,-1.4412 1.0573,-1.9222 1.0591,-0.6614 2.2882,-0.4527 3.4354,-0.6454 1.3009,-0.2189 2.6358,-0.1834 3.9471,-0.3773 0.5382,-0.079 1.0808,0 1.5168,0.3949"
     sodipodi:nodetypes="ccccsccccccccccccccccccccccccccccc" /><path
     inkscape:connector-curvature="0"
     id="path1158"
     fill="#fefefe"
     d="m 3045.6324,1185.1688 c -15.3189,-0.4277 -29.5448,3.9283 -43.385,9.9417 -11.312,4.915 -22.1874,10.6038 -31.8927,18.316 -8.6247,6.8538 -15.8172,14.8632 -20.091,25.1897 -0.5459,1.3188 -1.0027,2.6745 -1.5552,4.1588 5.9535,-0.2433 11.6893,-0.7907 17.3814,-1.7497 22.467,-3.7844 43.8068,-11.2289 64.7359,-19.9942 7.7726,-3.2552 15.4321,-6.7591 22.9542,-10.5618 1.7307,-0.875 3.2836,-0.5015 3.9894,0.8685 0.7553,1.4659 0.1299,2.9169 -1.6651,3.8545 -0.2636,0.1376 -0.5361,0.2582 -0.8024,0.3907 -10.3461,5.1411 -20.9031,9.8077 -31.6519,14.0401 -15.6454,6.1602 -31.5656,11.4406 -48.0401,14.9368 -8.1521,1.7301 -16.381,2.8987 -24.7046,3.3708 -1.409,0.08 -1.5925,0.015 -3.1963,-0.9962 -1.1755,4.8423 -1.2142,9.7484 -0.8953,14.6515 0.4492,6.8982 1.661,13.6627 4.1026,20.1645 0.257,0.6844 0.4098,1.4227 0.9024,2.0038 0.012,0.086 0.027,0.1713 0.048,0.2555 0.1621,0.8015 0.1656,1.6023 0,2.4032 0,2.1583 0,4.3164 0,6.8842 -1.4433,-1.7616 -2.3141,-3.3562 -3.2171,-4.9198 -5.2355,-9.0666 -8.7734,-18.7186 -9.8682,-29.1824 -1.3164,-12.578 2.2858,-23.6902 10.1484,-33.4883 6.937,-8.6444 15.671,-15.1269 25.2377,-20.5068 14.6042,-8.2131 29.9529,-14.6378 46.333,-18.385 7.9099,-1.8096 15.9262,-2.6906 24.0565,-1.9329 0.3657,0.034 0.8086,-0.1397 1.0781,0.2868"
     style="stroke-width:0.297825" /><path
     style="fill:#000000;fill-opacity:1;stroke-width:0.297825"
     inkscape:connector-curvature="0"
     id="path1162"
     fill="#FEF5E2"
     d="m 2950.8031,1311.3344 c 1.3822,-0.5447 1.6017,0.1683 1.6628,1.5591 0.2603,5.9354 0.643,11.8654 1.0221,17.7948 0.043,0.6734 0.044,1.0465 -0.7773,0.9343 -2.3525,-0.322 -4.736,-0.4247 -7.0409,-1.0725 -4.211,-1.1839 -6.1751,-3.3038 -6.6323,-7.199 -0.5572,-4.7518 1.0406,-8.1372 4.7977,-10.1508 1.051,-0.5632 2.1554,-0.984 3.3145,-1.281 1.155,-0.296 2.3177,-0.5152 3.6534,-0.5849" /><path
     style="fill:#000000;fill-opacity:1;stroke-width:0.297825"
     inkscape:connector-curvature="0"
     id="path1164"
     fill="#FEF5E2"
     d="m 3116.3204,1331.4731 c -0.7005,0.2046 -1.043,-0.057 -0.9322,-1.2229 0.539,-5.6739 0.7564,-11.3695 0.9694,-17.0639 0.074,-1.9785 0.075,-2.0172 1.9731,-1.7107 2.3159,0.3735 4.543,1.0227 6.4872,2.4085 3.6317,2.5884 4.2818,6.2281 3.5575,10.3044 -0.6436,3.6219 -3.0607,5.486 -6.4604,6.353 -1.7348,0.4425 -3.4953,0.6852 -5.5946,0.9316" /><path
     inkscape:connector-curvature="0"
     id="path1186"
     fill="#d6d6d6"
     d="m 3047.9731,1185.2334 c -0.7988,0.3363 -1.5889,0.4298 -2.3573,-0.084 0.7856,0.028 1.5716,0.056 2.3573,0.084"
     style="stroke-width:0.297825" /><path
     inkscape:connector-curvature="0"
     id="path1188"
     fill="#9c9c9c"
     d="m 2951.864,1286.413 c 9e-4,-0.8009 0,-1.602 0,-2.4032 0.3902,0.8015 0.2389,1.6026 0,2.4032"
     style="stroke-width:0.297825" /><path
     inkscape:connector-curvature="0"
     id="path1190"
     fill="#d0cac2"
     d="m 3086.7326,1206.6262 c -0.5813,0.5111 -0.8693,0.014 -1.1963,-0.3484 0.4497,-0.058 0.8208,0.153 1.1963,0.3484"
     style="stroke-width:0.297825" /><path
     style="fill:#ffffff;fill-opacity:1;stroke-width:0.297825"
     inkscape:connector-curvature="0"
     id="path1194"
     fill="#6E4100"
     d="m 2965.1556,1304.8826 c -0.9277,-4.9623 -1.2649,-9.9655 -1.0877,-15.0098 0.037,-1.0483 0.1379,-2.1496 1.2709,-2.4418 16.9396,-4.3694 36.1226,-3.9655 56.1156,-1.4701 1.1344,0.1416 1.3825,1.2002 1.4674,2.1789 0.1974,2.2691 0.4187,4.5391 0.5099,6.8136 0.04,0.9879 0.2629,1.37 1.3393,1.362 6.3958,-0.049 12.7925,-0.037 19.1889,-0.01 0.8476,0 1.2115,-0.1492 1.2398,-1.1162 0.061,-2.0767 -0.486,-4.3669 0.4542,-6.2219 5.503,-10.8573 47.4485,-4.1409 57.5556,-1.5686 1.1546,0.2997 1.345,1.3155 1.3754,2.3716 0.1763,6.1033 -0.269,12.1444 -1.767,18.0833 -0.1758,0.4596 -0.3676,0.9137 -0.5248,1.3798 -2.1184,6.2785 -5.9461,10.1481 -13.0525,10.5597 -8.2087,0.4757 -16.3902,1.1008 -24.6018,0.2675 -2.8094,-0.285 -5.5896,-0.7634 -8.296,-1.5722 -3.7546,-1.122 -6.6951,-3.3324 -8.6741,-6.7559 -0.7267,-0.4444 -1.0394,-1.1711 -1.3003,-1.9269 -0.7631,-2.2084 -1.3256,-4.4677 -1.4579,-6.8036 -0.064,-1.1344 -0.5474,-1.5618 -1.6568,-1.5594 -5.9401,0.013 -11.8802,0.017 -17.8204,0 -1.2038,0 -1.6648,0.5168 -1.7142,1.6857 -0.09,2.1399 -0.5647,4.2137 -1.3096,6.224 -0.2079,0.5608 -0.405,1.1234 -0.9655,1.4465 -2.6411,5.5446 -7.5142,7.6967 -13.1678,8.6557 -8.9198,1.5127 -17.8701,1.2378 -26.8281,0.4411 -1.1838,-0.1054 -2.362,-0.3226 -3.5471,-0.3607 -4.2002,-0.1349 -7.1871,-2.248 -9.3779,-5.6667 -1.7619,-2.7498 -2.6462,-5.8398 -3.3675,-8.9857"
     sodipodi:nodetypes="ccsscccccscccccccccccccccccccc" /><path
     style="fill:#000000;fill-opacity:1;stroke-width:0.297825"
     inkscape:connector-curvature="0"
     id="path1202"
     fill="#FFE0C5"
     d="m 3082.5979,1373.4042 c -0.087,6.4389 -0.8044,11.737 -3.4509,16.6153 -0.8023,1.479 -1.9242,2.0994 -3.0834,1.6884 -1.5564,-0.5519 -2.0165,-2.3168 -1.1424,-3.9566 2.9303,-5.4979 3.4568,-11.4207 2.5416,-17.4296 -0.6293,-4.1315 -3.2001,-7.4019 -5.9094,-10.4659 -2.9869,-3.3776 -6.3211,-6.3764 -10.0391,-8.9455 -1.1097,-0.7672 -1.3271,-2.2125 -0.6091,-3.3023 0.7017,-1.0653 2.1581,-1.4489 3.2779,-0.6561 1.8921,1.3399 3.7949,2.6992 5.4999,4.2613 3.9864,3.6522 7.7816,7.4888 10.3545,12.3449 1.7998,3.3973 2.7781,6.9712 2.5604,9.8461" /><path
     style="fill:#020100;fill-opacity:1;stroke-width:0.297825"
     inkscape:connector-curvature="0"
     id="path1204"
     fill="#FFDAB7"
     d="m 3021.444,1310.7989 c 1.0736,-2.7388 1.7842,-5.5607 1.8888,-8.5112 0.032,-0.9084 0.3395,-1.2634 1.3375,-1.256 6.447,0.049 12.8947,0.043 19.3417,0.01 0.9649,-0.01 1.2702,0.2767 1.3098,1.2538 0.1334,3.2988 0.9286,6.4536 2.3469,9.4432 -3.5841,0.043 -7.1639,-0.053 -10.7414,-0.28 -0.5134,-0.033 -1.1013,-0.1846 -1.4963,0.3595 -1.2657,-0.8077 -2.608,-0.7609 -3.9822,-0.3562 -2.8496,-0.3881 -5.717,-0.3213 -8.5812,-0.3249 -0.509,-6e-4 -0.9825,-0.08 -1.4236,-0.3339" /></g>

  </g>

  <g
   transform="translate(-848.29177,-166.12606)"
   style="display:inline"
   inkscape:label="Office"
   id="layer3"
   inkscape:groupmode="layer">
    

  </g>

  <g
   transform="translate(-848.29177,-166.12606)"
   style="display:inline"
   inkscape:label="Server room"
   id="layer4"
   inkscape:groupmode="layer">
    

  </g>

  

</svg>
