<?xml version="1.0" encoding="UTF-8" standalone="no"?>
<svg
   xmlns:dc="http://purl.org/dc/elements/1.1/"
   xmlns:cc="http://creativecommons.org/ns#"
   xmlns:rdf="http://www.w3.org/1999/02/22-rdf-syntax-ns#"
   xmlns:svg="http://www.w3.org/2000/svg"
   xmlns="http://www.w3.org/2000/svg"
   xmlns:xlink="http://www.w3.org/1999/xlink"
   xmlns:sodipodi="http://sodipodi.sourceforge.net/DTD/sodipodi-0.dtd"
   xmlns:inkscape="http://www.inkscape.org/namespaces/inkscape"
   sodipodi:docname="shop.svg"
   height="277.0155"
   width="277.0155"
   inkscape:version="1.0 (6e3e5246a0, 2020-05-07)"
   xml:space="preserve"
   enable-background="new 0 0 3000 1965"
   viewBox="0 0 277.01551 277.01552"
   y="0px"
   x="0px"
   id="Layer_1"
   version="1.1"
   inkscape:export-filename="/home/osa413/Изображения/project/minimap.svg.png"
   inkscape:export-xdpi="55.339741"
   inkscape:export-ydpi="55.339741">
  <metadata
   id="metadata1049">
    <rdf:RDF>
      <cc:Work
   rdf:about="">
        <dc:format>image/svg+xml</dc:format>

        <dc:type
   rdf:resource="http://purl.org/dc/dcmitype/StillImage" />

        <dc:title></dc:title>

      </cc:Work>

    </rdf:RDF>

  </metadata>

  <defs
   id="defs1047">
    <inkscape:perspective
   id="perspective5856"
   inkscape:persp3d-origin="0.23314892 : -2986.9091 : 1"
   inkscape:vp_z="0.46629784 : -2986.8088 : 1"
   inkscape:vp_y="0 : 0.30636082 : 0"
   inkscape:vp_x="0 : -2986.8088 : 1"
   sodipodi:type="inkscape:persp3d" />

    

    <linearGradient
   id="linearGradient3753">
      <stop
   id="stop3755"
   style="stop-color:#ededed"
   offset="0" />

      <stop
   id="stop3757"
   style="stop-color:#bebebe"
   offset="1" />

    </linearGradient>

    

    

    

    

    

    

    

    

    

    

    

    

    

    

    

    

    

    <inkscape:perspective
   sodipodi:type="inkscape:persp3d"
   inkscape:vp_x="0 : -2963.1098 : 1"
   inkscape:vp_y="0 : 1000 : 0"
   inkscape:vp_z="48 : -2963.1098 : 1"
   inkscape:persp3d-origin="24 : -2971.1098 : 1"
   id="perspective112" />

    

    <linearGradient
   id="linearGradient2752">
      <stop
   id="stop2754"
   offset="0"
   style="stop-color:#9d9d9d;stop-opacity:1;" />

      <stop
   id="stop2756"
   offset="1.0000000"
   style="stop-color:#b9b9b9;stop-opacity:1.0000000;" />

    </linearGradient>

    <linearGradient
   id="linearGradient2711">
      <stop
   id="stop2713"
   offset="0.0000000"
   style="stop-color:#909090;stop-opacity:1.0000000;" />

      <stop
   id="stop2715"
   offset="1.0000000"
   style="stop-color:#bebebe;stop-opacity:0.0000000;" />

    </linearGradient>

    <linearGradient
   id="linearGradient2701">
      <stop
   id="stop2703"
   offset="0.0000000"
   style="stop-color:#585956;stop-opacity:1.0000000;" />

      <stop
   id="stop2705"
   offset="1.0000000"
   style="stop-color:#bbbeb8;stop-opacity:1.0000000;" />

    </linearGradient>

    <linearGradient
   id="linearGradient2691">
      <stop
   id="stop2693"
   offset="0.0000000"
   style="stop-color:#868686;stop-opacity:1.0000000;" />

      <stop
   id="stop2695"
   offset="1.0000000"
   style="stop-color:#e9e9e9;stop-opacity:1.0000000;" />

    </linearGradient>

    

    <linearGradient
   id="linearGradient2675">
      <stop
   id="stop2677"
   offset="0.0000000"
   style="stop-color:#5b5b97;stop-opacity:1.0000000;" />

      <stop
   id="stop2679"
   offset="1.0000000"
   style="stop-color:#1b1b43;stop-opacity:1.0000000;" />

    </linearGradient>

    <linearGradient
   id="linearGradient2667">
      <stop
   id="stop2669"
   offset="0.0000000"
   style="stop-color:#ffffff;stop-opacity:1.0000000;" />

      <stop
   id="stop2671"
   offset="1.0000000"
   style="stop-color:#fcfcff;stop-opacity:0.0000000;" />

    </linearGradient>

    <linearGradient
   id="linearGradient2635"
   inkscape:collect="always">
      <stop
   id="stop2637"
   offset="0"
   style="stop-color:#f9fff5;stop-opacity:1;" />

      <stop
   id="stop2639"
   offset="1"
   style="stop-color:#f9fff5;stop-opacity:0;" />

    </linearGradient>

    <linearGradient
   id="linearGradient2623">
      <stop
   id="stop2625"
   offset="0.0000000"
   style="stop-color:#dfdfde;stop-opacity:1.0000000;" />

      <stop
   id="stop2627"
   offset="1.0000000"
   style="stop-color:#9d9f9a;stop-opacity:1.0000000;" />

    </linearGradient>

    <linearGradient
   inkscape:collect="always"
   id="linearGradient2415">
      <stop
   style="stop-color:#ffffff;stop-opacity:1;"
   offset="0"
   id="stop2417" />

      <stop
   style="stop-color:#ffffff;stop-opacity:0;"
   offset="1"
   id="stop2419" />

    </linearGradient>

    <linearGradient
   id="linearGradient2379">
      <stop
   style="stop-color:#1a4876;stop-opacity:1.0000000;"
   offset="0.0000000"
   id="stop2381" />

      <stop
   style="stop-color:#3f54a3;stop-opacity:0.0000000;"
   offset="1.0000000"
   id="stop2383" />

    </linearGradient>

    <linearGradient
   inkscape:collect="always"
   id="linearGradient2307">
      <stop
   style="stop-color:#5a7aa4;stop-opacity:1;"
   offset="0"
   id="stop2309" />

      <stop
   style="stop-color:#5a7aa4;stop-opacity:0;"
   offset="1"
   id="stop2311" />

    </linearGradient>

    <linearGradient
   id="linearGradient2253">
      <stop
   style="stop-color:#8f8f8f;stop-opacity:1.0000000;"
   offset="0.0000000"
   id="stop2255" />

      <stop
   style="stop-color:#494949;stop-opacity:1.0000000;"
   offset="1.0000000"
   id="stop2257" />

    </linearGradient>

    <linearGradient
   id="linearGradient2245">
      <stop
   style="stop-color:#dde1d9;stop-opacity:1.0000000;"
   offset="0.0000000"
   id="stop2247" />

      <stop
   style="stop-color:#cacdc6;stop-opacity:1.0000000;"
   offset="1.0000000"
   id="stop2249" />

    </linearGradient>

    

    <linearGradient
   inkscape:collect="always"
   xlink:href="#linearGradient2307"
   id="linearGradient2313"
   gradientTransform="matrix(1.208393,0,0,0.98441,-0.789284,-0.50338)"
   x1="16.851954"
   y1="9.323514"
   x2="24.418941"
   y2="53.734985"
   gradientUnits="userSpaceOnUse" />

    <linearGradient
   inkscape:collect="always"
   xlink:href="#linearGradient2415"
   id="linearGradient2334"
   gradientTransform="matrix(1.289166,0,0,0.922731,-0.789284,-0.50338)"
   x1="16.119127"
   y1="10.842293"
   x2="27.289009"
   y2="39.03191"
   gradientUnits="userSpaceOnUse" />

    

    <linearGradient
   inkscape:collect="always"
   xlink:href="#linearGradient2379"
   id="linearGradient2445"
   gradientUnits="userSpaceOnUse"
   gradientTransform="matrix(1.02787,0,0,0.822296,1.523986,1.001198)"
   x1="21.356108"
   y1="30.078255"
   x2="19.994572"
   y2="-1.3221773" />

    

    

    <linearGradient
   y2="92.57093"
   x2="10.728384"
   y1="84.029198"
   x1="10.728384"
   gradientTransform="scale(1.983556,0.504145)"
   gradientUnits="userSpaceOnUse"
   id="linearGradient2653"
   xlink:href="#linearGradient2623"
   inkscape:collect="always" />

    <linearGradient
   y2="74.098007"
   x2="8.6485014"
   y1="101.2846"
   x1="13.62871"
   gradientTransform="scale(2.143634,0.466498)"
   gradientUnits="userSpaceOnUse"
   id="linearGradient2655"
   xlink:href="#linearGradient2635"
   inkscape:collect="always" />

    

    

    

    

    

    

    

    

    

    

    

    

    

    

    

    

    

    

  </defs>

  <sodipodi:namedview
   borderlayer="true"
   inkscape:window-maximized="1"
   inkscape:window-y="27"
   inkscape:window-x="72"
   inkscape:document-rotation="0"
   fit-margin-bottom="0"
   fit-margin-right="0"
   fit-margin-left="0"
   fit-margin-top="0"
   inkscape:current-layer="layer2"
   inkscape:cy="78.749018"
   inkscape:cx="1064.2228"
   inkscape:zoom="0.308"
   showgrid="false"
   id="namedview1045"
   inkscape:window-height="704"
   inkscape:window-width="1294"
   inkscape:pageshadow="2"
   inkscape:pageopacity="0"
   guidetolerance="10"
   gridtolerance="10"
   objecttolerance="10"
   borderopacity="1"
   bordercolor="#666666"
   pagecolor="#ffffff" />

  

  <g
   style="display:inline"
   transform="translate(-3695.7968,-1994.5)"
   inkscape:label="Boss"
   id="layer2"
   inkscape:groupmode="layer">
    

    

  </g>

  <g
   transform="translate(-1650.0454,-1003.0817)"
   style="display:inline"
   inkscape:label="Office"
   id="layer3"
   inkscape:groupmode="layer">
    

  </g>

  <g
   transform="translate(-1650.0454,-1003.0817)"
   style="display:inline"
   inkscape:label="Server room"
   id="layer4"
   inkscape:groupmode="layer">
    

  </g>

  <g
   transform="translate(-1650.0454,-1003.0817)"
   style="display:inline"
   inkscape:label="Shop"
   id="layer5"
   inkscape:groupmode="layer">
    <g
   transform="translate(-2205.915,-482.67914)"
   id="g16498"
   style="display:inline"
   inkscape:export-filename="/home/osa413/Изображения/project/minimap_shop.png"
   inkscape:export-xdpi="55.339741"
   inkscape:export-ydpi="55.339741">
      <rect
   ry="54.688477"
   y="1501.7609"
   x="3871.9604"
   height="245.01552"
   width="245.01552"
   id="rect2126-2"
   style="fill:#efefef;fill-opacity:1;fill-rule:evenodd;stroke:#000000;stroke-width:32;stroke-linecap:square;stroke-linejoin:round;stroke-miterlimit:0;stroke-dasharray:none;stroke-opacity:1;paint-order:stroke fill markers" />

      <path
   d="m 3897.6551,1525.9261 c 0.3166,0 0.6427,0.032 0.9541,0.088 0,0 0.013,0 0.017,0 l 31.451,5.3714 c 2.0002,0.3432 3.6771,1.7149 4.4172,3.6046 a 1.429926,1.429926 0 0 1 0,0.017 l 14.5944,37.4229 142.4328,3.5514 c 1.6381,0.041 3.1757,0.7808 4.2406,2.0144 1.0649,1.2336 1.5775,2.8739 1.3783,4.5056 l -7.8626,65.0393 c -0.3244,2.7288 -2.5789,4.8926 -5.3184,5.1064 l -101.5424,8.0746 -20.1252,15.8315 a 1.429926,1.429926 0 0 1 -0.07,0.053 c -0.021,0.015 -0.049,0.021 -0.07,0.035 -0.025,0.016 -0.045,0.037 -0.071,0.053 -3.6727,2.7414 -4.5829,6.4762 -4.0639,8.5519 0.2958,1.1827 0.7473,2.0516 1.82,2.721 1.0727,0.6694 2.9256,1.1539 6.0956,0.9718 a 1.429926,1.429926 0 0 1 0.036,0 c 0.1023,0 0.2162,0 0.3181,0 0.017,4e-4 0.036,-5e-4 0.053,0 l 121.1056,0.3535 h 0.017 c 3.1827,-0.02 5.8612,2.649 5.8487,5.8305 -0.013,3.182 -2.7014,5.8412 -5.8836,5.7954 0,0 -0.013,10e-5 -0.017,0 l -8.852,-0.017 c 3.2891,2.0966 5.495,5.7643 5.495,9.9297 0,6.4791 -5.3065,11.7855 -11.7855,11.7855 -6.479,0 -11.7853,-5.3064 -11.7853,-11.7855 0,-4.1882 2.2116,-7.892 5.5304,-9.9828 l -99.7274,-0.2828 c 3.5929,2.0256 6.0431,5.8712 6.0431,10.2656 0,6.4791 -5.3064,11.7855 -11.7854,11.7855 -6.4791,0 -11.7855,-5.3064 -11.7855,-11.7855 0,-5.6266 3.9973,-10.3702 9.2943,-11.5203 -5.0081,-1.7716 -8.8555,-5.4249 -11.2375,-11.0079 a 1.429926,1.429926 0 0 1 -0.088,-0.2121 c -1.8264,-7.3028 1.4128,-15.243 8.0921,-20.408 a 1.429926,1.429926 0 0 1 0.053,-0.053 c 0.016,-0.013 0.019,-0.041 0.034,-0.053 a 1.429926,1.429926 0 0 1 0.1944,-0.1944 l 14.2592,-11.1843 -44.473,-113.9136 -28.2174,-4.806 c 0,0 -0.013,0 -0.017,0 -2.9643,-0.4765 -5.1322,-3.2393 -4.8767,-6.237 0.2558,-3.0036 2.8728,-5.3593 5.8837,-5.3183 z m 55.7286,55.481 8.1984,21.0265 h 10.692 v -20.5527 l -18.8882,-0.4771 z m 22.9698,0.583 v 20.4431 h 19.7362 v -19.9484 z m 23.8179,0.5831 v 19.86 h 19.7363 v -19.3653 z m 23.818,0.6007 v 19.259 h 19.7363 v -18.7649 l -19.7363,-0.4946 z m 23.818,0.6007 v 18.6586 h 19.7363 v -18.1638 z m 23.818,0.583 v 18.0757 h 14.4711 l 2.138,-17.6515 -16.609,-0.4242 z m 13.9764,22.1393 h -13.9764 v 18.4641 h 11.7497 l 2.2263,-18.4641 z m -18.0581,0 h -19.7363 v 18.4641 h 19.7363 z m -23.818,0 h -19.7363 v 18.4641 h 19.7363 z m -23.818,0 h -19.7363 v 18.4641 h 19.7363 z m -23.818,0 h -19.7362 v 18.4641 h 19.7362 z m -23.8179,0 h -9.1173 l 7.209,18.4641 h 1.9083 z m 110.6057,22.5284 h -11.255 v 13.252 l 9.7533,-0.7775 1.5019,-12.474 z m -15.3367,0 h -19.7362 v 15.1422 l 19.7362,-1.5725 v -13.5699 z m -23.8179,0 h -19.7363 v 17.033 l 19.7363,-1.5549 z m -23.818,0 h -19.7363 v 18.9412 l 19.7363,-1.5726 v -17.3688 z m -23.818,0 h -19.7363 v 11.2375 l 3.7459,9.5944 c 0.4862,-0.2355 1.0164,-0.3801 1.5549,-0.424 l 14.4355,-1.1485 v -19.259 z m -23.818,0 h -0.3003 l 0.3003,0.8304 z m 99.9875,74.883 c -3.8512,0 -6.9264,3.0753 -6.9264,6.9264 0,3.851 3.0752,6.9086 6.9264,6.9086 3.8508,0 6.9262,-3.0575 6.9262,-6.9086 0,-3.8511 -3.0754,-6.9264 -6.9262,-6.9264 z m -111.7197,0 c -3.851,0 -6.9264,3.0753 -6.9264,6.9264 0,3.851 3.0754,6.9086 6.9264,6.9086 3.851,0 6.9262,-3.0575 6.9262,-6.9086 0,-3.8511 -3.0752,-6.9264 -6.9262,-6.9264 z m 111.7197,3.2865 c 2.0921,0 3.7635,1.6714 3.7635,3.7634 0,2.0922 -1.6714,3.746 -3.7635,3.746 -2.0922,0 -3.7636,-1.6538 -3.7636,-3.746 0,-2.092 1.6714,-3.7634 3.7636,-3.7634 z m -111.7197,0 c 2.0921,0 3.7635,1.6714 3.7635,3.7634 0,2.0922 -1.6714,3.746 -3.7635,3.746 -2.0921,0 -3.7635,-1.6538 -3.7635,-3.746 0,-2.092 1.6714,-3.7634 3.7635,-3.7634 z"
   inkscape:connector-curvature="0"
   style="color:#000000;text-indent:0;text-transform:none;display:inline;overflow:visible;visibility:visible;fill:#7a7a7c;fill-opacity:1;fill-rule:nonzero;stroke-width:0.565412;stroke-linecap:butt;stroke-linejoin:miter;stroke-miterlimit:4;stroke-dasharray:none;stroke-dashoffset:0;stroke-opacity:1;marker:none;enable-background:accumulate"
   id="path3847" />

    </g>

  </g>

</svg>
