<?xml version="1.0" encoding="UTF-8" standalone="no"?>
<svg
   xmlns:dc="http://purl.org/dc/elements/1.1/"
   xmlns:cc="http://creativecommons.org/ns#"
   xmlns:rdf="http://www.w3.org/1999/02/22-rdf-syntax-ns#"
   xmlns:svg="http://www.w3.org/2000/svg"
   xmlns="http://www.w3.org/2000/svg"
   xmlns:sodipodi="http://sodipodi.sourceforge.net/DTD/sodipodi-0.dtd"
   xmlns:inkscape="http://www.inkscape.org/namespaces/inkscape"
   enable-background="new"
   sodipodi:docname="gpu.svg"
   inkscape:version="1.0alpha (9f82346, 2019-04-27)"
   id="svg8"
   version="1.1"
   viewBox="0 0 210 297"
   height="297mm"
   width="210mm">
  <defs
     id="defs2" />
  <sodipodi:namedview
     inkscape:window-maximized="1"
     inkscape:window-y="24"
     inkscape:window-x="65"
     inkscape:window-height="744"
     inkscape:window-width="1301"
     showgrid="false"
     inkscape:document-rotation="0"
     inkscape:current-layer="layer3"
     inkscape:document-units="mm"
     inkscape:cy="588.38823"
     inkscape:cx="446.7465"
     inkscape:zoom="0.50141301"
     inkscape:pageshadow="2"
     inkscape:pageopacity="0.0"
     borderopacity="1.0"
     bordercolor="#666666"
     pagecolor="#ffffff"
     id="base" />
  <metadata
     id="metadata5">
    <rdf:RDF>
      <cc:Work
         rdf:about="">
        <dc:format>image/svg+xml</dc:format>
        <dc:type
           rdf:resource="http://purl.org/dc/dcmitype/StillImage" />
        <dc:title></dc:title>
      </cc:Work>
    </rdf:RDF>
  </metadata>
  <g
     sodipodi:insensitive="true"
     style="display:inline"
     id="layer1"
     inkscape:groupmode="layer"
     inkscape:label="Layer 1">
    <path
       inkscape:connector-curvature="0"
       d="m 54.590577,130.28535 v 47.90716 h 21.941814 v 4.10517 H 165.7595 v -4.10517 h 6.62492 v -47.90716 z"
       style="fill:#ac0000;fill-opacity:1;stroke:#000000;stroke-width:0.264583;stroke-linecap:round;stroke-linejoin:round;stroke-miterlimit:4;stroke-dasharray:none;paint-order:stroke markers fill"
       id="rect10" />
    <rect
       ry="0"
       y="134.42772"
       x="111.88443"
       height="38.102634"
       width="52.438046"
       id="rect39"
       style="fill:#1f1f1f;fill-opacity:1;stroke:#000000;stroke-width:1.05833;stroke-linecap:round;stroke-linejoin:round;stroke-miterlimit:4;stroke-dasharray:none;paint-order:stroke markers fill" />
    <rect
       ry="0"
       y="111.36524"
       x="48.38855"
       height="88.27227"
       width="7.0162678"
       id="rect12"
       style="fill:#c0c0c0;fill-opacity:1;stroke:#787878;stroke-width:1.05833;stroke-linecap:round;stroke-linejoin:round;stroke-miterlimit:4;stroke-dasharray:none;stroke-opacity:1;paint-order:stroke markers fill" />
    <rect
       y="178.72165"
       x="77.225899"
       height="2.9206672"
       width="87.972595"
       id="rect59"
       style="fill:#fff073;fill-opacity:1;stroke:#f9d800;stroke-width:0.529167;stroke-linecap:round;stroke-linejoin:round;stroke-miterlimit:4;stroke-dasharray:none;stroke-opacity:1;paint-order:stroke markers fill" />
    <g
       transform="matrix(0.26458333,0,0,0.26458333,57.413443,100.63018)"
       id="g5872"
       style="display:inline">
      <g
         id="g5831"
         transform="matrix(-1,0,0,1,609.91537,0)">
        <g
           id="g5815"
           transform="translate(23.706346,-27.095979)">
          <g
             id="g5813"
             transform="rotate(135,234.01767,261.98707)"
             style="opacity:1;stop-opacity:1">
            <g
               transform="translate(-51.940552,40.982635)"
               id="g5809"
               style="opacity:1;stop-opacity:1" />
          </g>
        </g>
        <g
           transform="rotate(90,305.82427,224.53062)"
           id="g5829">
          <g
             style="opacity:1;stop-opacity:1"
             transform="rotate(135,234.01767,261.98707)"
             id="g5827">
            <g
               style="opacity:1;stop-opacity:1"
               id="g5823"
               transform="translate(-51.940552,40.982635)" />
          </g>
        </g>
      </g>
      <g
         id="g5801">
        <g
           transform="translate(23.706346,-27.095979)"
           id="g5771">
          <g
             style="opacity:1;stop-opacity:1"
             transform="rotate(135,234.01767,261.98707)"
             id="g5755">
            <g
               style="opacity:1;stop-opacity:1"
               id="g5751"
               transform="translate(-51.940552,40.982635)" />
          </g>
        </g>
        <g
           id="g5785"
           transform="rotate(90,305.82427,224.53062)">
          <g
             id="g5783"
             transform="rotate(135,234.01767,261.98707)"
             style="opacity:1;stop-opacity:1">
            <g
               transform="translate(-51.940552,40.982635)"
               id="g5779"
               style="opacity:1;stop-opacity:1" />
          </g>
        </g>
      </g>
      <g
         style="opacity:1;stop-opacity:1"
         id="g5646"
         transform="matrix(0.92612395,0,0,0.92612395,-27.305692,53.022336)">
        <g
           id="g5635"
           transform="rotate(60,358.78115,158.42519)">
          <path
             inkscape:connector-curvature="0"
             id="path5631"
             style="fill:#2f2f2f;fill-opacity:1;fill-rule:evenodd;stroke:#000000;stroke-width:2;stroke-linecap:butt;stroke-linejoin:miter;stroke-miterlimit:4;stroke-dasharray:none;stroke-opacity:1"
             d="m 345.70312,101.32031 c -12.00993,-0.28322 -26.10171,12.29305 -25.59179,18.05274 0.85332,9.63862 23.45854,7.06284 29.53125,27.5039 l 11.52539,-1.25195 c 4.10668,-33.79298 -4.86784,-44.05478 -15.46485,-44.30469 z m 30.51758,4.95703 c -1.51822,0.0362 -2.76436,0.33379 -3.59961,0.91993 -7.92063,5.5583 5.61339,23.84847 -9.05273,39.32812 l 6.84766,9.35547 c 60.54992,-25.79066 20.48086,-49.95304 5.80468,-49.60352 z m -62.57617,26.66993 c -21.07104,0.56987 -16.49181,34.61971 -9.24414,37.99023 8.77395,4.08031 17.84711,-16.78564 38.58594,-11.82422 l 4.67773,-10.60742 c -15.42027,-11.59002 -26.39809,-15.76472 -34.01953,-15.55859 z m 93.29102,13.10546 c -8.09266,0.13658 -17.30505,16.85175 -36.09961,12.35547 l -4.67774,10.60938 c 58.05278,43.63304 53.13284,-17.84396 43.26368,-22.4336 -0.82256,-0.38252 -1.64916,-0.54537 -2.48633,-0.53125 z m -63.5293,15.58789 c -66.8137,28.45868 -11.11441,54.93573 -2.20508,48.6836 7.92063,-5.55831 -5.61339,-23.84653 9.05274,-39.32617 z m 20.77344,9.00391 -11.52735,1.25195 c -8.76092,72.0917 42.01844,37.09373 41.0586,26.25196 -0.85332,-9.63862 -23.45855,-7.06285 -29.53125,-27.50391 z"
             transform="rotate(-60,357.55504,156.97325)" />
        </g>
        <g
           transform="rotate(120,358.78115,158.42519)"
           id="g5629" />
        <g
           id="g5623" />
      </g>
      <circle
         r="62.103291"
         cy="199.7437"
         cx="304.97012"
         id="path3837-3"
         style="opacity:1;fill:none;stroke:#000000;stroke-width:7.40899;stroke-linecap:round;stroke-linejoin:round;stroke-miterlimit:4;stroke-dasharray:none;stroke-opacity:1;stop-opacity:1" />
      <g
         style="opacity:1;stop-opacity:1"
         id="g5600"
         transform="translate(-52.523837,40.239022)">
        <circle
           style="opacity:1;fill:#dcdcdc;stroke:#000000;stroke-width:2.23706;stroke-linecap:round;stroke-linejoin:round;stop-opacity:1"
           id="path3843"
           cx="357.48193"
           cy="159.43135"
           r="16.378538" />
        <circle
           style="opacity:1;fill:none;stroke:#000000;stroke-width:2.23706;stroke-linecap:round;stroke-linejoin:round;stroke-opacity:1;stop-opacity:1"
           id="path3843-8"
           cx="357.47565"
           cy="159.51486"
           r="16.378538" />
      </g>
    </g>
  </g>
  <g
     style="display:inline"
     inkscape:label="Layer 3"
     id="layer3"
     inkscape:groupmode="layer">
    <rect
       style="fill:#1f1f1f;fill-opacity:1;stroke:#000000;stroke-width:1.05833;stroke-linecap:round;stroke-linejoin:round;stroke-miterlimit:4;stroke-dasharray:none;paint-order:stroke markers fill"
       id="rect4102"
       width="52.438049"
       height="9.5668058"
       x="111.88443"
       y="213.24449"
       ry="0" />
    <path
       sodipodi:nodetypes="ccccc"
       id="path4100"
       style="fill:#ac0000;fill-opacity:1;stroke:#000000;stroke-width:0.264583;stroke-linecap:round;stroke-linejoin:round;stroke-miterlimit:4;stroke-dasharray:none;paint-order:stroke markers fill"
       d="m 54.590577,210.1529 v 4.12018 H 172.38442 v -4.12018 z"
       inkscape:connector-curvature="0" />
    <rect
       style="fill:#c0c0c0;fill-opacity:1;stroke:#787878;stroke-width:1.05833;stroke-linecap:round;stroke-linejoin:round;stroke-miterlimit:4;stroke-dasharray:none;stroke-opacity:1;paint-order:stroke markers fill"
       id="rect4104"
       width="7.0162659"
       height="14.853666"
       x="48.38855"
       y="208.15013"
       ry="0" />
  </g>
</svg>
