<?xml version="1.0" encoding="UTF-8" standalone="no"?>
<svg
   xmlns:dc="http://purl.org/dc/elements/1.1/"
   xmlns:cc="http://creativecommons.org/ns#"
   xmlns:rdf="http://www.w3.org/1999/02/22-rdf-syntax-ns#"
   xmlns:svg="http://www.w3.org/2000/svg"
   xmlns="http://www.w3.org/2000/svg"
   xmlns:sodipodi="http://sodipodi.sourceforge.net/DTD/sodipodi-0.dtd"
   xmlns:inkscape="http://www.inkscape.org/namespaces/inkscape"
   inkscape:export-ydpi="130.43689"
   inkscape:export-xdpi="130.43689"
   inkscape:export-filename="/home/osa413/Изображения/project/pc.png"
   sodipodi:docname="pc_master_race.svg"
   inkscape:version="1.0alpha (9f82346, 2019-04-27)"
   id="svg990"
   version="1.1"
   viewBox="0 0 132.98042 175.25716"
   height="175.25716mm"
   width="132.98042mm">
  <defs
     id="defs984">
    <inkscape:path-effect
       overflow_perspective="false"
       vertical_mirror="false"
       horizontal_mirror="false"
       deform_type="perspective"
       is_visible="true"
       id="path-effect1747"
       down_right_point="52.101777,157.81493"
       down_left_point="42.823781,153.35179"
       up_right_point="52.224789,130.87659"
       up_left_point="42.823781,125.81406"
       effect="perspective-envelope" />
    <inkscape:path-effect
       overflow_perspective="false"
       vertical_mirror="false"
       horizontal_mirror="false"
       deform_type="perspective"
       is_visible="true"
       id="path-effect1709"
       down_right_point="-36.816578,117.42273"
       down_left_point="-79.309693,137.4552"
       up_right_point="-36.816578,7.5300188"
       up_left_point="-79.309693,27.562486"
       effect="perspective-envelope" />
    <inkscape:path-effect
       overflow_perspective="true"
       vertical_mirror="false"
       horizontal_mirror="false"
       deform_type="perspective"
       is_visible="true"
       id="path-effect1671"
       down_right_point="105.59176,211.4251"
       down_left_point="0.24156795,211.4251"
       up_right_point="105.59176,0.24156795"
       up_left_point="0.24156795,0.24156795"
       effect="perspective-envelope" />
    <inkscape:path-effect
       overflow_perspective="false"
       vertical_mirror="false"
       horizontal_mirror="false"
       deform_type="perspective"
       is_visible="true"
       id="path-effect1669"
       down_right_point="105.83333,211.4251"
       down_left_point="0,211.4251"
       up_right_point="105.83333,0.24156795"
       up_left_point="0,0.24156795"
       effect="perspective-envelope" />
    <inkscape:perspective
       id="perspective992"
       inkscape:persp3d-origin="70.417807 : 56.258049 : 1"
       inkscape:vp_z="105 : 49.499997 : 0"
       inkscape:vp_y="0 : 999.99995 : 0"
       inkscape:vp_x="-105 : 49.499997 : 0"
       sodipodi:type="inkscape:persp3d" />
  </defs>
  <sodipodi:namedview
     inkscape:pagecheckerboard="true"
     inkscape:window-maximized="1"
     inkscape:window-y="24"
     inkscape:window-x="65"
     inkscape:window-height="744"
     inkscape:window-width="1301"
     showgrid="false"
     inkscape:document-rotation="0"
     inkscape:current-layer="g919"
     inkscape:document-units="mm"
     inkscape:cy="377.7624"
     inkscape:cx="165.85492"
     inkscape:zoom="0.71385146"
     inkscape:pageshadow="2"
     inkscape:pageopacity="0.0"
     borderopacity="1.0"
     bordercolor="#666666"
     pagecolor="#ffffff"
     id="base"
     fit-margin-top="2"
     fit-margin-left="2"
     fit-margin-right="2"
     fit-margin-bottom="2" />
  <metadata
     id="metadata987">
    <rdf:RDF>
      <cc:Work
         rdf:about="">
        <dc:format>image/svg+xml</dc:format>
        <dc:type
           rdf:resource="http://purl.org/dc/dcmitype/StillImage" />
        <dc:title />
      </cc:Work>
    </rdf:RDF>
  </metadata>
  <g
     id="layer1"
     inkscape:groupmode="layer"
     inkscape:label="Layer 1"
     transform="translate(-33.33037,-59.064825)">
    <g
       id="g919">
      <g
         id="g3121">
        <g
           inkscape:corner7="-0.16612766 : -0.045551333 : 0.40469632 : 1"
           inkscape:corner0="0.64748225 : 0.064341383 : 0 : 1"
           inkscape:perspectiveID="#perspective992"
           style="opacity:1;fill:none;stroke:none;stroke-width:8;stroke-linecap:round;stroke-linejoin:round;paint-order:stroke markers fill;stop-opacity:1"
           id="g994"
           sodipodi:type="inkscape:box3d">
          <path
             points="163.6847,101.9134 163.6847,211.80611 78.255656,171.53243 78.255656,61.639712 "
             inkscape:box3dsidetype="11"
             style="fill:#e9e9ff;fill-rule:evenodd;stroke:none;stroke-width:1px;stroke-linecap:butt;stroke-linejoin:round;stroke-opacity:1"
             id="path1006"
             sodipodi:type="inkscape:box3dside"
             d="M 78.255656,61.639712 163.6847,101.9134 V 211.80611 L 78.255656,171.53243 Z" />
          <path
             points="35.762541,191.56489 78.255656,171.53243 78.255656,61.639712 35.762541,81.672179 "
             inkscape:box3dsidetype="6"
             style="fill:#353564;fill-rule:evenodd;stroke:none;stroke-width:1px;stroke-linecap:butt;stroke-linejoin:round;stroke-opacity:1"
             id="path996"
             sodipodi:type="inkscape:box3dside"
             d="M 35.762541,81.672179 V 191.56489 L 78.255656,171.53243 V 61.639712 Z" />
          <path
             points="121.19158,231.83858 163.6847,211.80611 78.255656,171.53243 35.762541,191.56489 "
             inkscape:box3dsidetype="13"
             style="fill:#d5a961;fill-opacity:1;stroke:none"
             id="path1004"
             sodipodi:type="inkscape:box3dside"
             d="M 35.762541,191.56489 121.19158,231.83858 163.6847,211.80611 78.255656,171.53243 Z" />
          <path
             points="121.19158,121.94587 163.6847,101.9134 78.255656,61.639712 35.762541,81.672179 "
             inkscape:box3dsidetype="5"
             style="fill:#ffffff;fill-opacity:1;fill-rule:evenodd;stroke:#000000;stroke-width:1.05833;stroke-linecap:butt;stroke-linejoin:round;stroke-miterlimit:4;stroke-dasharray:none;stroke-opacity:1"
             id="path998"
             sodipodi:type="inkscape:box3dside"
             d="M 35.762541,81.672179 121.19158,121.94587 163.6847,101.9134 78.255656,61.639712 Z" />
          <path
             points="121.19158,231.83858 163.6847,211.80611 163.6847,101.9134 121.19158,121.94587 "
             inkscape:box3dsidetype="14"
             style="fill:#d3a559;fill-opacity:1;stroke:none"
             id="path1002"
             sodipodi:type="inkscape:box3dside"
             d="M 121.19158,121.94587 V 231.83858 L 163.6847,211.80611 V 101.9134 Z" />
          <path
             points="121.19158,121.94587 121.19158,231.83858 35.762541,191.56489 35.762541,81.672179 "
             inkscape:box3dsidetype="3"
             style="fill:#ffffff;fill-opacity:1;stroke:#000000;stroke-width:1.05833;stroke-miterlimit:4;stroke-dasharray:none;stroke-opacity:1"
             id="path1000"
             sodipodi:type="inkscape:box3dside"
             d="M 35.762541,81.672179 121.19158,121.94587 V 231.83858 L 35.762541,191.56489 Z" />
        </g>
        <g
           transform="translate(200.59827,94.337655)"
           id="g982"
           style="opacity:1;stop-opacity:1">
          <path
             inkscape:connector-curvature="0"
             d="m -79.212701,27.516761 c 0,0 42.29913,-19.9410171 42.29913,-19.9410171 0,0 0,109.8927161 0,109.8927161 0,0 -42.29913,19.94102 -42.29913,19.94102 0,0 0,-109.892719 0,-109.892719 z"
             style="fill:#ffffff;fill-opacity:1;stroke:#000000;stroke-width:1.05833;stroke-linecap:round;stroke-linejoin:round;stroke-miterlimit:4;stroke-dasharray:none;paint-order:stroke markers fill"
             id="rect899" />
          <path
             inkscape:connector-curvature="0"
             d="m -72.622012,63.735296 c 0,0 29.490426,-13.902629 29.490426,-13.902629 1.415977,-0.667532 2.555916,0.272455 2.555916,2.107595 0,0 0,11.985445 0,11.985445 0,1.835138 -1.139939,3.849924 -2.555916,4.517456 0,0 -29.490426,13.90263 -29.490426,13.90263 -1.415978,0.667532 -2.555917,-0.272455 -2.555917,-2.107593 0,0 0,-11.985445 0,-11.985445 0,-1.83514 1.139939,-3.849926 2.555917,-4.517459 z"
             style="fill:#ffffff;fill-opacity:1;stroke:#000000;stroke-width:0.529167;stroke-linecap:round;stroke-linejoin:round;stroke-miterlimit:4;stroke-dasharray:none;paint-order:stroke markers fill"
             id="rect919" />
          <path
             inkscape:connector-curvature="0"
             d="m -76.256057,44.169611 c 0,0 36.378582,-17.149902 36.378582,-17.149902 0,0 0,7.770957 0,7.770957 0,0 -36.378582,17.149902 -36.378582,17.149902 0,0 0,-7.770957 0,-7.770957 z"
             style="fill:#ffffff;stroke:#000000;stroke-width:1.05833;stroke-linecap:round;stroke-linejoin:round;stroke-miterlimit:4;stroke-dasharray:none;paint-order:stroke markers fill"
             id="rect10" />
          <path
             inkscape:connector-curvature="0"
             d="m -48.596488,42.642301 c 0,0 6.225659,-2.934953 6.225659,-2.934953 0,0 0,2.714957 0,2.714957 0,0 -6.225659,2.934953 -6.225659,2.934953 0,0 0,-2.714957 0,-2.714957 z"
             style="fill:#ffffff;stroke:#000000;stroke-width:1.05833;stroke-linecap:round;stroke-linejoin:round;stroke-miterlimit:4;stroke-dasharray:none;paint-order:stroke markers fill"
             id="rect841" />
          <path
             style="fill:none;fill-rule:evenodd;stroke:#000000;stroke-width:0.529167;stroke-linecap:butt;stroke-linejoin:miter;stroke-miterlimit:4;stroke-dasharray:none;stroke-opacity:1"
             d="m -79.309693,123.95057 c 0,0 42.493115,-20.03247 42.493115,-20.03247"
             id="path881"
             inkscape:connector-curvature="0"
             sodipodi:nodetypes="cc" />
          <path
             sodipodi:nodetypes="cc"
             inkscape:connector-curvature="0"
             id="path883"
             d="m -79.309693,62.820581 c 0,0 42.493115,-20.032468 42.493115,-20.032468"
             style="fill:none;fill-rule:evenodd;stroke:#000000;stroke-width:0.529167;stroke-linecap:butt;stroke-linejoin:miter;stroke-miterlimit:4;stroke-dasharray:none;stroke-opacity:1" />
          <path
             style="fill:none;fill-rule:evenodd;stroke:#000000;stroke-width:0.529167;stroke-linecap:butt;stroke-linejoin:miter;stroke-miterlimit:4;stroke-dasharray:none;stroke-opacity:1"
             d="m -79.309693,41.342478 c 0,0 42.493115,-20.032468 42.493115,-20.032468"
             id="path885"
             inkscape:connector-curvature="0"
             sodipodi:nodetypes="cc" />
          <path
             style="fill:none;fill-rule:evenodd;stroke:#000000;stroke-width:0.529167;stroke-linecap:butt;stroke-linejoin:miter;stroke-miterlimit:4;stroke-dasharray:none;stroke-opacity:1"
             d="m -79.309693,89.805891 c 0,0 42.493115,-20.032469 42.493115,-20.032469"
             id="path887"
             inkscape:connector-curvature="0"
             sodipodi:nodetypes="cc" />
          <path
             style="fill:#d8e2ff;fill-opacity:1;stroke:#000000;stroke-width:0.529167;stroke-linecap:round;stroke-linejoin:round;stroke-miterlimit:4;stroke-dasharray:none;paint-order:stroke markers fill"
             d="m -42.356302,89.277404 c 0,4.260253 -2.664781,8.970126 -5.951956,10.519794 -3.287174,1.549672 -5.951956,-0.647696 -5.951956,-4.90795 0,-4.260254 2.664782,-8.970127 5.951956,-10.519795 3.287175,-1.549668 5.951956,0.647697 5.951956,4.907951"
             id="path893" />
          <path
             style="fill:#93d1ff;fill-opacity:1;stroke:#000000;stroke-width:0.529167;stroke-linecap:round;stroke-linejoin:round;stroke-miterlimit:4;stroke-dasharray:none;paint-order:stroke markers fill"
             d="m -43.550429,89.840349 c 0,3.405529 -2.130152,7.170471 -4.757829,8.409233 -2.627676,1.238762 -4.757829,-0.51775 -4.757829,-3.92328 0,-3.405529 2.130153,-7.170471 4.757829,-8.409233 2.627677,-1.238762 4.757829,0.517751 4.757829,3.92328"
             id="circle895" />
          <path
             style="fill:#b3b3b3;fill-opacity:1;stroke:#000000;stroke-width:0.529167;stroke-linecap:round;stroke-linejoin:round;stroke-miterlimit:4;stroke-dasharray:none;paint-order:stroke markers fill"
             d="m -68.665857,53.805803 c 0,0.697313 -0.436168,1.468219 -0.974209,1.721867 -0.538041,0.253648 -0.974209,-0.106014 -0.974209,-0.803327 0,-0.697314 0.436168,-1.46822 0.974209,-1.721868 0.538041,-0.253647 0.974209,0.106014 0.974209,0.803328"
             id="path897" />
          <g
             id="g911"
             transform="translate(8.4737412,-2.4579265)">
            <path
               inkscape:connector-curvature="0"
               d="m -75.947686,66.851382 c 0,0 6.73486,-3.175005 6.73486,-3.175005 0,0 0,4.621448 0,4.621448 0,0 -6.73486,3.175006 -6.73486,3.175006 0,0 0,-4.621449 0,-4.621449 z"
               style="fill:#ffffff;fill-opacity:1;stroke:#000000;stroke-width:0.529167;stroke-linecap:round;stroke-linejoin:round;stroke-miterlimit:4;stroke-dasharray:none;paint-order:stroke markers fill"
               id="rect901" />
            <path
               inkscape:connector-curvature="0"
               d="m -75.738695,67.083649 c 0,0 6.316877,-2.977957 6.316877,-2.977957 0,0 0,1.895402 0,1.895402 0,0 -6.316877,2.977957 -6.316877,2.977957 0,0 0,-1.895402 0,-1.895402 z"
               style="fill:#2f9cff;fill-opacity:1;stroke:#000000;stroke-width:0.529167;stroke-linecap:round;stroke-linejoin:round;stroke-miterlimit:4;stroke-dasharray:none;paint-order:stroke markers fill"
               id="rect903" />
          </g>
          <g
             transform="translate(37.418422,-2.4579265)"
             id="g917">
            <path
               inkscape:connector-curvature="0"
               d="m -93.270795,61.372642 c 0,0 6.73486,-3.175006 6.73486,-3.175006 0,0 0,4.621448 0,4.621448 0,0 -6.73486,3.175006 -6.73486,3.175006 0,0 0,-4.621448 0,-4.621448 z"
               style="fill:#ffffff;fill-opacity:1;stroke:#000000;stroke-width:0.529167;stroke-linecap:round;stroke-linejoin:round;stroke-miterlimit:4;stroke-dasharray:none;paint-order:stroke markers fill"
               id="rect913" />
            <path
               inkscape:connector-curvature="0"
               d="m -93.061804,61.604908 c 0,0 6.316877,-2.977956 6.316877,-2.977956 0,0 0,1.895401 0,1.895401 0,0 -6.316877,2.977957 -6.316877,2.977957 0,0 0,-1.895402 0,-1.895402 z"
               style="fill:#2f9cff;fill-opacity:1;stroke:#000000;stroke-width:0.529167;stroke-linecap:round;stroke-linejoin:round;stroke-miterlimit:4;stroke-dasharray:none;paint-order:stroke markers fill"
               id="rect915" />
          </g>
          <path
             style="fill:#ff0909;fill-opacity:1;stroke:#e22626;stroke-width:2.11667;stroke-linecap:round;stroke-linejoin:round;stroke-miterlimit:4;stroke-dasharray:none;stroke-opacity:1;paint-order:stroke markers fill"
             d="m -62.916381,71.623928 c 0,0.955137 -0.597437,2.011078 -1.334412,2.358509 -0.736975,0.347431 -1.334412,-0.145212 -1.334412,-1.100349 0,-0.955137 0.597437,-2.011077 1.334412,-2.358508 0.736975,-0.347431 1.334412,0.145211 1.334412,1.100348"
             id="path921" />
          <path
             style="fill:#09ff1a;fill-opacity:1;stroke:#42e226;stroke-width:2.11667;stroke-linecap:round;stroke-linejoin:round;stroke-miterlimit:4;stroke-dasharray:none;stroke-opacity:1;paint-order:stroke markers fill"
             d="m -51.310388,66.152532 c 0,0.955137 -0.597437,2.011077 -1.334412,2.358508 -0.736975,0.347431 -1.334412,-0.145211 -1.334412,-1.100348 0,-0.955137 0.597437,-2.011078 1.334412,-2.358509 0.736975,-0.347431 1.334412,0.145212 1.334412,1.100349"
             id="circle923" />
          <path
             id="circle925"
             style="fill:none;fill-opacity:1;stroke:#000000;stroke-width:1.05833;stroke-linecap:round;stroke-linejoin:round;stroke-miterlimit:4;stroke-dasharray:none;paint-order:stroke markers fill"
             transform="rotate(-45)"
             d="m -94.765576,29.704 c 0.157682,1.640235 -1.73056,3.529236 -4.218302,4.22 -2.487752,0.69064 -4.633652,-0.07809 -4.793932,-1.717604 -0.16029,-1.63951 1.72573,-3.52932 4.213301,-4.221795"
             inkscape:connector-curvature="0"
             sodipodi:nodetypes="cssc" />
          <path
             style="fill:none;fill-rule:evenodd;stroke:#000000;stroke-width:1.05833;stroke-linecap:round;stroke-linejoin:miter;stroke-miterlimit:4;stroke-dasharray:none;stroke-opacity:1"
             d="m -48.289717,88.268256 c 0,0 0,5.030346 0,5.030346"
             id="path936"
             inkscape:connector-curvature="0" />
        </g>
        <path
           inkscape:connector-curvature="0"
           id="path1729"
           d="M 113.19213,117.77281 155.68525,97.740347"
           style="opacity:1;fill:none;fill-rule:evenodd;stroke:#000000;stroke-width:0.529167;stroke-linecap:butt;stroke-linejoin:miter;stroke-miterlimit:4;stroke-dasharray:none;stroke-opacity:1;stop-opacity:1" />
        <path
           sodipodi:nodetypes="cc"
           inkscape:connector-curvature="0"
           id="path1731"
           d="M 113.19213,117.77281 V 228.14192"
           style="opacity:1;fill:none;fill-rule:evenodd;stroke:#000000;stroke-width:0.529167;stroke-linecap:butt;stroke-linejoin:miter;stroke-miterlimit:4;stroke-dasharray:none;stroke-opacity:1;stop-opacity:1" />
        <path
           inkscape:connector-curvature="0"
           id="path1733"
           d="m 121.28858,218.28822 c 0,0 -8.09645,-3.65092 -8.09645,-3.65092"
           style="opacity:1;fill:none;fill-rule:evenodd;stroke:#000000;stroke-width:0.529167;stroke-linecap:butt;stroke-linejoin:miter;stroke-miterlimit:4;stroke-dasharray:none;stroke-opacity:1;stop-opacity:1" />
        <path
           style="opacity:1;fill:none;fill-rule:evenodd;stroke:#000000;stroke-width:0.529167;stroke-linecap:butt;stroke-linejoin:miter;stroke-miterlimit:4;stroke-dasharray:none;stroke-opacity:1;stop-opacity:1"
           d="m 121.28858,184.14355 c 0,0 -8.09645,-3.65092 -8.09645,-3.65092"
           id="path1735"
           inkscape:connector-curvature="0" />
        <path
           inkscape:connector-curvature="0"
           id="path1737"
           d="m 121.28858,157.15824 c 0,0 -8.09645,-3.65092 -8.09645,-3.65092"
           style="opacity:1;fill:none;fill-rule:evenodd;stroke:#000000;stroke-width:0.529167;stroke-linecap:butt;stroke-linejoin:miter;stroke-miterlimit:4;stroke-dasharray:none;stroke-opacity:1;stop-opacity:1" />
        <path
           style="opacity:1;fill:none;fill-rule:evenodd;stroke:#000000;stroke-width:0.529167;stroke-linecap:butt;stroke-linejoin:miter;stroke-miterlimit:4;stroke-dasharray:none;stroke-opacity:1;stop-opacity:1"
           d="m 121.28858,135.68013 c 0,0 -8.09645,-3.65092 -8.09645,-3.65092"
           id="path1739"
           inkscape:connector-curvature="0" />
        <path
           sodipodi:nodetypes="cc"
           inkscape:connector-curvature="0"
           id="path1741"
           d="M 38.459366,80.058795 115.37607,116.65341"
           style="opacity:1;fill:none;fill-rule:evenodd;stroke:#000000;stroke-width:0.529167;stroke-linecap:butt;stroke-linejoin:miter;stroke-miterlimit:4;stroke-dasharray:none;stroke-opacity:1;stop-opacity:1" />
        <path
           style="opacity:1;fill:none;fill-rule:evenodd;stroke:#000000;stroke-width:0.529167;stroke-linecap:butt;stroke-linejoin:miter;stroke-miterlimit:4;stroke-dasharray:none;stroke-opacity:1;stop-opacity:1"
           d="M 76.359059,62.203433 153.57743,98.702432"
           id="path1743"
           inkscape:connector-curvature="0"
           sodipodi:nodetypes="cc" />
        <path
           sodipodi:nodetypes="zzzz"
           inkscape:connector-curvature="0"
           id="path1745"
           d="m 44.212992,126.56217 c -2.057928,-1.12597 -1.71989,26.69808 0.26913,27.58723 1.972719,0.8819 7.602555,3.87864 7.679657,-9.48168 0.07811,-13.53638 -5.908469,-16.98919 -7.948787,-18.10555 z"
           style="opacity:1;fill:none;fill-rule:evenodd;stroke:#000000;stroke-width:0.529167;stroke-linecap:butt;stroke-linejoin:miter;stroke-miterlimit:4;stroke-dasharray:none;stroke-opacity:1;stop-opacity:1" />
      </g>
    </g>
  </g>
</svg>
