<?xml version="1.0" encoding="UTF-8" standalone="no"?>
<svg
   xmlns:dc="http://purl.org/dc/elements/1.1/"
   xmlns:cc="http://creativecommons.org/ns#"
   xmlns:rdf="http://www.w3.org/1999/02/22-rdf-syntax-ns#"
   xmlns:svg="http://www.w3.org/2000/svg"
   xmlns="http://www.w3.org/2000/svg"
   xmlns:sodipodi="http://sodipodi.sourceforge.net/DTD/sodipodi-0.dtd"
   xmlns:inkscape="http://www.inkscape.org/namespaces/inkscape"
   inkscape:version="1.0 (6e3e5246a0, 2020-05-07)"
   id="svg8"
   version="1.1"
   viewBox="0 0 48.947929 57.15004"
   height="57.15004mm"
   width="48.947929mm">
  <defs
     id="defs2" />
  <sodipodi:namedview
     inkscape:window-maximized="1"
     inkscape:window-y="27"
     inkscape:window-x="72"
     inkscape:window-height="704"
     inkscape:window-width="1294"
     fit-margin-bottom="0"
     fit-margin-right="0"
     fit-margin-left="0"
     fit-margin-top="0"
     showgrid="false"
     inkscape:document-rotation="0"
     inkscape:current-layer="layer1"
     inkscape:document-units="mm"
     inkscape:cy="113.08783"
     inkscape:cx="95.6086"
     inkscape:zoom="0.98994949"
     inkscape:pageshadow="2"
     inkscape:pageopacity="0.0"
     borderopacity="1.0"
     bordercolor="#666666"
     pagecolor="#ffffff"
     id="base" />
  <metadata
     id="metadata5">
    <rdf:RDF>
      <cc:Work
         rdf:about="">
        <dc:format>image/svg+xml</dc:format>
        <dc:type
           rdf:resource="http://purl.org/dc/dcmitype/StillImage" />
        <dc:title></dc:title>
      </cc:Work>
    </rdf:RDF>
  </metadata>
  <g
     transform="translate(-55.910809,-12.11096)"
     id="layer1"
     inkscape:groupmode="layer"
     inkscape:label="Слой 1">
    <g
       transform="translate(-61.734281,-124.11163)"
       id="g24">
      <path
         id="path30"
         d="m 117.64509,175.31895 c 0,-17.70822 0.009,-18.03605 0.48842,-17.13177 0.957,1.80637 8.48294,7.60287 12.01101,9.25092 3.24092,1.51391 5.1865,1.94815 7.74079,1.72769 2.54595,-0.21975 3.41692,-0.56336 4.61352,-1.82012 0.77671,-0.81577 0.92518,-1.17917 1.02057,-2.49788 0.0931,-1.28638 -0.006,-1.77562 -0.59598,-2.93961 l -0.7076,-1.3964 1.14224,0.1897 c 4.96973,0.82533 8.76665,2.54808 11.39484,5.17009 0.98227,0.97996 1.78594,1.97739 1.78594,2.21652 0,1.59412 -3.54429,5.60846 -7.09526,8.03623 -4.9546,3.38744 -8.1998,4.98615 -14.38061,7.08447 -4.45051,1.5109 -7.55749,2.22634 -9.66848,2.22634 -2.83343,0 -4.30982,1.29633 -4.30982,3.78419 0,1.34996 0.82639,2.778 1.90888,3.29864 0.38417,0.18477 1.57035,0.43722 2.63596,0.56098 1.63484,0.18989 1.1626,0.2304 -3.02348,0.25936 l -4.96094,0.0343 z m 16.00729,17.53473 c 6.82078,-1.49875 14.39606,-4.34285 19.04239,-7.14937 7.52124,-4.54304 12.56594,-10.35601 13.62086,-15.69522 0.13051,-0.66053 0.23114,3.84741 0.24839,11.12656 l 0.029,12.23698 -17.52865,-0.0269 c -17.38184,-0.0267 -17.51092,-0.0308 -15.41198,-0.49203 z m 32.61106,-28.00171 c -0.19769,-1.47382 -1.3205,-4.0871 -2.48602,-5.78603 -3.43863,-5.01236 -11.57228,-9.45002 -19.13567,-10.44028 -3.18439,-0.41693 -3.09775,-0.35629 -2.11239,-1.47855 1.33997,-1.52613 2.17299,-3.60877 2.30017,-5.75063 0.10273,-1.73003 0.051,-1.95951 -0.70761,-3.1374 -0.48021,-0.74566 -1.17252,-1.42477 -1.67524,-1.64329 -0.75275,-0.32722 0.66143,-0.37371 11.64477,-0.3828 l 12.50156,-0.0104 v 14.81667 c 0,8.14916 -0.0439,14.81666 -0.0975,14.81666 -0.0536,0 -0.15805,-0.45179 -0.23211,-1.00399 z M 117.663,145.4169 l -0.0179,-9.19427 11.04635,0.0304 c 6.0755,0.0167 10.6056,0.11612 10.06689,0.22086 -0.53871,0.10474 -1.37214,0.51137 -1.85208,0.90361 -0.47994,0.39225 -1.7466,1.37708 -2.8148,2.18852 -1.06821,0.81144 -3.33039,2.61993 -5.02709,4.01886 -1.69669,1.39893 -4.39458,3.48074 -5.99531,4.62624 -3.61025,2.58353 -3.93698,2.88558 -4.43442,4.09944 -0.22035,0.53772 -0.52508,1.27532 -0.67718,1.63912 -0.20016,0.47877 -0.28149,-1.87802 -0.29445,-8.53281 z"
         style="fill:#fefefe;stroke-width:0.264583" />
      <path
         id="path28"
         d="m 125.65939,190.99642 c -1.94541,-0.2216 -2.45946,-0.57583 -2.454,-1.69108 0.007,-1.4794 0.96394,-2.1421 2.718,-1.88276 2.42923,0.35916 11.97127,-2.50184 17.57621,-5.26989 8.61305,-4.25364 15.15591,-10.26106 15.15591,-13.91562 0,-1.23873 -1.07375,-2.92248 -2.96247,-4.64546 -2.58419,-2.35744 -6.71676,-4.16089 -11.45732,-4.99997 -2.91479,-0.51592 -11.50493,-0.87402 -11.1125,-0.46326 0.14552,0.15232 1.36453,0.71513 2.70892,1.25069 2.7876,1.11048 4.35468,2.14701 5.10405,3.37604 1.29872,2.13001 0.19092,3.96134 -2.59163,4.28429 -2.04679,0.23755 -3.37275,0.0185 -5.8828,-0.97175 -2.45568,-0.96882 -3.79673,-1.78492 -7.58314,-4.61472 -5.10699,-3.81675 -5.44583,-4.29283 -4.87401,-6.84799 0.3736,-1.66944 0.91737,-2.26617 3.99048,-4.37916 1.23693,-0.85048 2.96333,-2.1468 3.83646,-2.88072 0.87312,-0.73392 3.13531,-2.54503 5.02708,-4.02469 1.89177,-1.47967 3.8563,-3.07957 4.36563,-3.55535 1.06717,-0.99689 2.0612,-1.42926 3.25837,-1.41731 1.02868,0.0103 1.54726,0.38187 2.14367,1.53606 0.43753,0.84671 0.43354,0.95791 -0.097,2.70476 -0.64429,2.12119 -2.20043,4.16159 -4.73913,6.21392 l -1.62144,1.31081 2.84289,0.1697 c 5.64703,0.33711 9.88719,1.26356 13.66738,2.98624 6.54047,2.98059 10.75584,7.60414 11.53205,12.64871 1.28347,8.34126 -8.36488,17.64703 -23.55821,22.72174 -7.1561,2.3902 -10.32578,2.88843 -14.9934,2.35677 z m -4.04555,-4.07368 c 0,-0.0549 0.20836,-0.2633 0.46302,-0.46303 0.41964,-0.3291 0.429,-0.31974 0.0999,0.0999 -0.34565,0.44073 -0.56292,0.58089 -0.56292,0.36313 z m 37.43854,-5.98553 c 0.26339,-0.29104 0.53842,-0.52916 0.61119,-0.52916 0.0728,0 -0.0832,0.23812 -0.3466,0.52916 -0.26339,0.29105 -0.53843,0.52917 -0.61119,0.52917 -0.0728,0 0.0832,-0.23812 0.3466,-0.52917 z m 2.24896,-2.21656 c 0,-0.0549 0.20836,-0.2633 0.46302,-0.46302 0.41965,-0.32911 0.42901,-0.31975 0.0999,0.0999 -0.34565,0.44073 -0.56292,0.58088 -0.56292,0.36312 z m -8.06979,-5.72094 c 0.56839,-0.58208 1.09297,-1.05833 1.16573,-1.05833 0.0728,0 -0.33276,0.47625 -0.90115,1.05833 -0.56839,0.58209 -1.09296,1.05834 -1.16573,1.05834 -0.0728,0 0.33276,-0.47625 0.90115,-1.05834 z m 13.18156,-5.55625 c 0,-0.94588 0.048,-1.33283 0.10671,-0.85989 0.0587,0.47294 0.0587,1.24685 0,1.71979 -0.0587,0.47294 -0.10671,0.086 -0.10671,-0.8599 z m -11.74059,-1.78593 -0.9118,-0.99219 0.99218,0.9118 c 0.54571,0.50149 0.99219,0.94797 0.99219,0.99219 0,0.20204 -0.22389,0.0117 -1.07257,-0.9118 z m -33.6216,-4.49792 c -0.3291,-0.41964 -0.31974,-0.429 0.0999,-0.0999 0.25466,0.19971 0.46302,0.40807 0.46302,0.46302 0,0.21776 -0.21727,0.0776 -0.56292,-0.36313 z m 40.77959,-4.16719 c -0.64268,-0.65484 -1.10898,-1.19062 -1.03622,-1.19062 0.0728,0 0.65812,0.53578 1.3008,1.19062 0.64268,0.65485 1.10898,1.19063 1.03622,1.19063 -0.0728,0 -0.65812,-0.53578 -1.3008,-1.19063 z m -42.8625,-5.50675 c 0,-0.0455 0.38695,-0.43248 0.85989,-0.85989 l 0.8599,-0.77711 -0.77711,0.8599 c -0.72437,0.80154 -0.94268,0.98151 -0.94268,0.7771 z m 7.9375,-6.10252 c 0,-0.0549 0.20836,-0.2633 0.46302,-0.46302 0.41964,-0.32911 0.429,-0.31975 0.0999,0.0999 -0.34564,0.44073 -0.56291,0.58088 -0.56291,0.36312 z m 9.26041,-7.40833 c 0,-0.0549 0.20836,-0.2633 0.46302,-0.46302 0.41965,-0.32911 0.42901,-0.31975 0.0999,0.0999 -0.34564,0.44073 -0.56292,0.58089 -0.56292,0.36313 z m 6.98632,-0.76 -0.50402,-0.59531 0.59531,0.50402 c 0.55945,0.47366 0.71576,0.6866 0.50403,0.6866 -0.0502,0 -0.3181,-0.26789 -0.59532,-0.59531 z"
         style="fill:#e3e3e3;stroke-width:0.264583" />
      <path
         id="path26"
         d="m 125.97947,193.06354 c -1.16417,-0.13194 -2.52248,-0.4498 -3.01847,-0.70636 -1.73647,-0.89822 -2.38513,-3.30618 -1.34859,-5.00624 0.83644,-1.37188 1.97261,-1.91368 4.01544,-1.91482 2.88493,-0.002 9.81355,-1.94963 15.03599,-4.22744 5.15197,-2.24707 11.4404,-6.50734 13.8124,-9.3576 2.57812,-3.09792 2.61183,-3.93096 0.25246,-6.2396 -2.30537,-2.2558 -6.14435,-4.04884 -10.21085,-4.76911 -2.59229,-0.45915 -2.55431,-0.48635 -1.69642,1.21442 1.17483,2.32911 0.89771,4.28525 -0.81073,5.7228 -1.11217,0.93583 -2.60652,1.32382 -5.18332,1.34577 -3.60849,0.0307 -7.14751,-1.49489 -12.01174,-5.17811 -1.78459,-1.3513 -3.75397,-2.84289 -4.3764,-3.31465 -1.46777,-1.11246 -2.53971,-2.67889 -2.71194,-3.963 -0.0856,-0.63786 0.0696,-1.71732 0.41211,-2.86745 0.64084,-2.15182 1.49573,-3.09112 5.06193,-5.56173 1.23693,-0.85693 3.32052,-2.46083 4.63021,-3.56424 1.30969,-1.1034 3.45281,-2.81911 4.7625,-3.81268 1.30969,-0.99357 2.91703,-2.24822 3.57187,-2.78811 1.60043,-1.31948 2.00569,-1.50607 3.70417,-1.70551 1.76691,-0.20747 2.8696,0.27777 4.08223,1.7964 0.73837,0.92468 0.81203,1.19044 0.80669,2.91041 -0.007,2.16442 -0.80175,4.22302 -2.37009,6.13697 l -0.90639,1.10613 1.82286,0.16942 c 2.81819,0.26192 7.79699,1.65408 10.50759,2.93811 6.34191,3.00419 10.62371,7.35861 12.08882,12.29385 0.60261,2.02991 0.55947,5.61785 -0.0929,7.72932 -1.40012,4.53141 -5.44868,9.11222 -11.65128,13.18307 -4.19476,2.75307 -8.49979,4.67566 -14.81667,6.61699 -6.58729,2.02444 -8.82111,2.32754 -13.36145,1.81299 z m 7.87504,-2.45841 c 13.68036,-3.10329 25.29085,-10.20745 29.15084,-17.83664 3.63333,-7.18121 -0.5245,-15.03241 -10.3264,-19.49929 -3.78019,-1.72268 -8.02035,-2.64913 -13.66738,-2.98624 l -2.84289,-0.1697 1.62144,-1.31081 c 2.5387,-2.05233 4.09484,-4.09273 4.73913,-6.21392 0.53059,-1.74685 0.53458,-1.85805 0.097,-2.70476 -0.59641,-1.15419 -1.11499,-1.52579 -2.14367,-1.53606 -1.19717,-0.012 -2.1912,0.42042 -3.25837,1.41731 -0.50933,0.47578 -2.47386,2.07568 -4.36563,3.55535 -1.89177,1.47966 -4.15396,3.29077 -5.02708,4.02469 -0.87313,0.73392 -2.59953,2.03024 -3.83646,2.88072 -3.07311,2.11299 -3.61688,2.70972 -3.99048,4.37916 -0.57182,2.55516 -0.23298,3.03124 4.87401,6.84799 3.78641,2.8298 5.12746,3.6459 7.58314,4.61472 2.51005,0.99027 3.83601,1.2093 5.8828,0.97175 2.78255,-0.32295 3.89035,-2.15428 2.59163,-4.28429 -0.74937,-1.22903 -2.31645,-2.26556 -5.10405,-3.37604 -1.34439,-0.53556 -2.5634,-1.09837 -2.70892,-1.25069 -0.39243,-0.41076 8.19771,-0.0527 11.1125,0.46326 4.74056,0.83908 8.87313,2.64253 11.45732,4.99997 1.88872,1.72298 2.96247,3.40673 2.96247,4.64546 0,3.65456 -6.54286,9.66198 -15.15591,13.91562 -5.60494,2.76805 -15.14698,5.62905 -17.57621,5.26989 -1.75406,-0.25934 -2.71076,0.40336 -2.718,1.88276 -0.005,1.11525 0.50859,1.46948 2.454,1.69108 3.20216,0.36474 5.30487,0.26434 8.19512,-0.39129 z"
         style="fill:#bfbfbf;stroke-width:0.264583" />
    </g>
  </g>
</svg>
