<?xml version="1.0" encoding="UTF-8" standalone="no"?>
<svg
   xmlns:dc="http://purl.org/dc/elements/1.1/"
   xmlns:cc="http://creativecommons.org/ns#"
   xmlns:rdf="http://www.w3.org/1999/02/22-rdf-syntax-ns#"
   xmlns:svg="http://www.w3.org/2000/svg"
   xmlns="http://www.w3.org/2000/svg"
   xmlns:sodipodi="http://sodipodi.sourceforge.net/DTD/sodipodi-0.dtd"
   xmlns:inkscape="http://www.inkscape.org/namespaces/inkscape"
   inkscape:version="1.0 (6e3e5246a0, 2020-05-07)"
   sodipodi:docname="done.svg"
   id="svg8"
   version="1.1"
   viewBox="0 0 6.65586 6.65586"
   height="6.6558599mm"
   width="6.6558599mm">
  <defs
     id="defs2" />
  <sodipodi:namedview
     inkscape:window-maximized="1"
     inkscape:window-y="27"
     inkscape:window-x="72"
     inkscape:window-height="704"
     inkscape:window-width="1294"
     fit-margin-bottom="0"
     fit-margin-right="0"
     fit-margin-left="0"
     fit-margin-top="0"
     showgrid="false"
     inkscape:document-rotation="0"
     inkscape:current-layer="layer1"
     inkscape:document-units="mm"
     inkscape:cy="16.162343"
     inkscape:cx="13.039456"
     inkscape:zoom="8"
     inkscape:pageshadow="2"
     inkscape:pageopacity="0.0"
     borderopacity="1.0"
     bordercolor="#666666"
     pagecolor="#ffffff"
     id="base" />
  <metadata
     id="metadata5">
    <rdf:RDF>
      <cc:Work
         rdf:about="">
        <dc:format>image/svg+xml</dc:format>
        <dc:type
           rdf:resource="http://purl.org/dc/dcmitype/StillImage" />
        <dc:title></dc:title>
      </cc:Work>
    </rdf:RDF>
  </metadata>
  <g
     transform="translate(-144.85287,-145.93804)"
     id="layer1"
     inkscape:groupmode="layer"
     inkscape:label="Слой 1">
    <g
       transform="translate(0.87150961,0.24310487)"
       id="g28">
      <path
         sodipodi:nodetypes="ccccsccccccccc"
         style="fill:#22d503;stroke-width:0.0266807"
         d="m 145.15595,151.73102 c -0.2001,-0.0654 -0.24523,-0.11277 -0.3795,-0.39866 -0.42136,-0.89716 -0.64697,-1.89377 -0.47747,-2.10925 0.0932,-0.11854 0.55503,-0.3226 0.84376,-0.37285 0.12774,-0.0222 0.20082,0.0609 0.30205,0.34363 0.17605,0.4917 0.27784,0.62979 0.43513,0.59031 0.0836,-0.021 0.18265,-0.139 0.54035,-0.64367 1.09258,-1.5415 2.23904,-2.64656 2.93332,-2.82739 0.20122,-0.0524 0.91259,-0.0576 0.98158,-0.007 0.0591,0.0432 0.0974,-0.007 -0.78391,1.0214 -1.6106,1.87871 -2.61955,3.14823 -3.04104,3.82646 -0.22883,0.36821 -0.34705,0.48966 -0.53334,0.5479 -0.1979,0.0619 -0.66961,0.0787 -0.82093,0.0293 z"
         id="path32" />
      <path
         style="fill:#117201;stroke-width:0.0266807"
         d="m 145.25671,152.01898 c -0.0367,-0.007 -0.0907,-0.0232 -0.12006,-0.0361 -0.0293,-0.0129 -0.11084,-0.0442 -0.18109,-0.0696 -0.15103,-0.0545 -0.22971,-0.14106 -0.35575,-0.39133 -0.36603,-0.72685 -0.66994,-1.83387 -0.61113,-2.22609 0.0139,-0.0927 0.0457,-0.14529 0.15583,-0.25724 0.1132,-0.1151 0.18873,-0.16148 0.41539,-0.25507 0.69024,-0.285 0.91092,-0.23344 1.08354,0.25314 0.12304,0.3468 0.16932,0.4421 0.21015,0.43265 0.0208,-0.005 0.16554,-0.18768 0.32172,-0.40637 0.83328,-1.16678 1.6174,-2.0343 2.30681,-2.55215 0.28976,-0.21765 0.49956,-0.33382 0.78199,-0.43299 0.15112,-0.0531 0.21678,-0.0587 0.64899,-0.0562 0.5218,0.003 0.60723,0.0224 0.69583,0.15767 0.0447,0.0683 0.0348,0.22574 -0.0182,0.28941 -0.0139,0.0167 -0.0641,0.0799 -0.11161,0.1405 -0.0475,0.0606 -0.33311,0.39678 -0.6347,0.74706 -1.58424,1.84002 -2.6079,3.12227 -3.09641,3.87858 -0.12795,0.19811 -0.27194,0.40614 -0.31997,0.46231 -0.15864,0.18552 -0.47803,0.30424 -0.86908,0.32304 -0.12954,0.006 -0.26554,0.006 -0.30223,-10e-4 z m 0.72017,-0.3173 c 0.18629,-0.0582 0.30451,-0.17969 0.53334,-0.5479 0.42149,-0.67823 1.43044,-1.94775 3.04104,-3.82646 0.8813,-1.02801 0.84305,-0.97816 0.78391,-1.0214 -0.069,-0.0504 -0.78036,-0.0453 -0.98158,0.007 -0.69428,0.18083 -1.84074,1.28589 -2.93332,2.82739 -0.3577,0.50467 -0.45678,0.6227 -0.54035,0.64367 -0.15729,0.0395 -0.25908,-0.0986 -0.43513,-0.59031 -0.10123,-0.28273 -0.17431,-0.36586 -0.30205,-0.34363 -0.28873,0.0503 -0.75052,0.25431 -0.84376,0.37285 -0.1695,0.21548 0.0561,1.21209 0.47747,2.10925 0.13427,0.28589 0.1794,0.33329 0.3795,0.39866 0.15132,0.0494 0.62303,0.0326 0.82093,-0.0293 z"
         id="path30" />
    </g>
  </g>
</svg>
