<?xml version="1.0" encoding="UTF-8" standalone="no"?>
<svg
   xmlns:dc="http://purl.org/dc/elements/1.1/"
   xmlns:cc="http://creativecommons.org/ns#"
   xmlns:rdf="http://www.w3.org/1999/02/22-rdf-syntax-ns#"
   xmlns:svg="http://www.w3.org/2000/svg"
   xmlns="http://www.w3.org/2000/svg"
   xmlns:sodipodi="http://sodipodi.sourceforge.net/DTD/sodipodi-0.dtd"
   xmlns:inkscape="http://www.inkscape.org/namespaces/inkscape"
   width="1280"
   height="720"
   viewBox="0 0 338.66666 190.50001"
   version="1.1"
   id="svg8"
   inkscape:version="1.0 (6e3e5246a0, 2020-05-07)"
   sodipodi:docname="boss.svg"
   inkscape:export-filename="/home/osa413/Изображения/project/boss_room.png"
   inkscape:export-xdpi="120"
   inkscape:export-ydpi="120">
  <defs
     id="defs2">
    <inkscape:path-effect
       overflow_perspective="false"
       vertical_mirror="false"
       horizontal_mirror="false"
       deform_type="perspective"
       is_visible="true"
       id="path-effect1666"
       down_right_point="85.172367,65.039405"
       down_left_point="75.384531,67.057503"
       up_right_point="79.494181,43.848127"
       up_left_point="70.531755,48.946697"
       effect="perspective-envelope" />
    <inkscape:path-effect
       overflow_perspective="false"
       vertical_mirror="false"
       horizontal_mirror="false"
       deform_type="perspective"
       is_visible="true"
       id="path-effect1658"
       down_right_point="93.729207,61.787232"
       down_left_point="78.526011,61.787232"
       up_right_point="93.729207,46.584037"
       up_left_point="78.526011,46.584037"
       effect="perspective-envelope" />
    <inkscape:perspective
       id="perspective843"
       inkscape:persp3d-origin="169.33333 : 63.500003 : 1"
       inkscape:vp_z="340.80482 : 63.17766 : 1"
       inkscape:vp_y="0 : 1000 : 0"
       inkscape:vp_x="58.208321 : 105.07739 : 1"
       sodipodi:type="inkscape:persp3d" />
  </defs>
  <sodipodi:namedview
     id="base"
     pagecolor="#ffffff"
     bordercolor="#666666"
     borderopacity="1.0"
     inkscape:pageopacity="0.0"
     inkscape:pageshadow="2"
     inkscape:zoom="0.54"
     inkscape:cx="621.32629"
     inkscape:cy="351.98447"
     inkscape:document-units="px"
     inkscape:current-layer="layer6"
     inkscape:document-rotation="0"
     showgrid="false"
     units="px"
     inkscape:window-width="1294"
     inkscape:window-height="704"
     inkscape:window-x="72"
     inkscape:window-y="27"
     inkscape:window-maximized="1" />
  <metadata
     id="metadata5">
    <rdf:RDF>
      <cc:Work
         rdf:about="">
        <dc:format>image/svg+xml</dc:format>
        <dc:type
           rdf:resource="http://purl.org/dc/dcmitype/StillImage" />
        <dc:title></dc:title>
      </cc:Work>
    </rdf:RDF>
  </metadata>
  <g
     style="display:inline"
     inkscape:groupmode="layer"
     id="layer6"
     inkscape:label="Chair 2">
    <path
       id="path956"
       style="fill:#ffffff;fill-opacity:1;fill-rule:evenodd;stroke:#000000;stroke-width:0.187643px;stroke-linecap:butt;stroke-linejoin:miter;stroke-opacity:1"
       d="m 75.280519,135.66045 c 0,0 0.294874,-6.98278 -0.05343,-14.4379 -0.290544,-6.21884 1.132245,-16.16861 19.767325,-16.24734 19.406836,-0.082 19.635046,11.46661 19.561356,17.46081 -0.0549,4.44752 0.14565,13.42418 0.14565,13.42418"
       inkscape:connector-curvature="0"
       sodipodi:nodetypes="csssc" />
    <g
       id="g1871"
       transform="matrix(0.06012605,0,0,0.06012605,70.177775,80.869424)">
      <path
         style="opacity:1;fill:#000000;fill-opacity:1;stop-opacity:1"
         d="m 554.849,962.805 c 2.89,-19.709 5.773,-39.418 8.674,-59.124 0.748,-5.08 1.549,-10.152 2.418,-15.826 12.406,9.531 24.346,18.732 36.329,27.876 1.537,1.172 1.69,1.903 0.204,3.365 -15.515,15.268 -30.954,30.613 -46.414,45.936 -1.924,0.084 -1.65,-1.027 -1.211,-2.227 z m -286.422,-3.069 c -13.25,-13.106 -26.397,-26.315 -39.712,-39.352 -2.348,-2.299 -3.085,-3.475 0.072,-5.834 10.763,-8.042 21.278,-16.414 32.657,-25.257 3.74,24.995 7.32,48.918 10.924,72.995 -2.319,-0.011 -2.962,-1.584 -3.941,-2.552 z M 734.721,442.724 c -10.677,-10.869 -24.296,-15.313 -39.053,-16.741 -3.491,-0.337 -4.976,-1.104 -4.496,-5.068 0.637,-5.263 0.66,-10.633 0.538,-15.947 -0.112,-4.878 0.885,-8.821 4.887,-12.224 3.376,-2.87 6.038,-6.648 8.739,-10.234 20.851,-27.686 32.087,-59.115 35.9,-93.343 4.057,-36.426 -1.58,-70.736 -21.025,-102.552 C 693.146,142.33 656.177,108.721 611.492,83.102 599.517,76.236 587.255,69.878 573.952,65.969 570.891,65.07 568.757,63.7 566.831,61.28 537.355,24.224 498.203,5.535 451.7,1.156 421.4,-1.698 391.509,1.672 362.034,8.619 308.299,21.282 257.775,42.285 209.525,68.838 c -33.009,18.166 -63.37,39.918 -88.251,68.594 -37.148,42.812 -50.895,91.993 -40.558,147.939 7.955,43.056 26.053,81.523 52.045,116.371 4.751,6.369 6.433,12.694 6.331,20.169 -0.035,2.549 -0.699,3.491 -3.249,3.667 -4.306,0.296 -8.622,0.736 -12.874,1.465 -29.846,5.112 -46.415,25.902 -43.877,55.485 1.585,18.483 11.036,31.268 28.805,37.565 10.161,3.601 20.757,4.851 31.372,5.437 5.147,0.284 6.348,2.107 6.825,6.943 3.636,36.828 9.908,73.164 21.974,108.283 10.206,29.703 24.328,57.191 46.176,80.223 9.789,10.32 20.926,18.943 33.877,26.807 -1.357,0.969 -2.392,1.549 -3.237,2.335 -34.254,31.873 -69.124,63.105 -101.507,96.932 -11.506,12.019 -22.988,24.087 -31.678,38.466 -3.848,6.367 -4.725,12.966 -2.907,20.11 1.953,7.67 5.33,14.722 9.644,21.239 29.624,44.75 67.113,82.092 109.113,115.112 2.688,2.12 3.332,3.44 1.959,6.73 -4.198,10.04 -7.155,20.43 -5.561,31.54 1.292,9.02 7.076,15.99 15.944,17.7 17.285,3.32 32.168,-1.96 44.787,-13.94 1.369,-1.3 2.171,-3.2 3.236,-4.82 0.543,0.44 1.086,0.88 1.63,1.32 1.136,8.19 2.29,16.38 3.403,24.57 0.584,4.31 2.003,7.73 7.193,7.87 5.715,0.16 7.479,-1.15 8.931,-6.97 1.201,-1.44 1.031,-3.08 0.802,-4.77 -2.876,-21.28 -5.904,-42.55 -8.984,-63.81 -7.427,-51.253 -15.126,-102.468 -22.799,-153.687 -0.74,-4.939 -1.367,-9.909 -2.401,-14.79 -0.955,-4.513 -4.596,-7.653 -8.549,-7.977 -4.014,-0.33 -7.594,2.16 -9.275,6.841 -0.834,2.322 -2.176,4.041 -4.095,5.485 -7.189,5.41 -14.232,11.008 -21.332,16.533 -8.02,6.241 -16.148,12.348 -24.012,18.785 -4.68,3.83 -5.678,7.972 -3.209,12.239 1.184,2.045 2.943,3.608 4.59,5.255 17.903,17.915 35.817,35.819 53.721,53.733 3.298,3.299 6.622,6.573 9.874,9.919 1.926,1.981 2.344,4.037 0.258,6.112 -10.156,10.102 -19.975,20.542 -30.554,30.222 -2.922,2.67 -5.217,2.39 -8.217,0.02 -9.018,-7.14 -17.628,-14.72 -26.12,-22.47 -23.548,-21.51 -45.367,-44.602 -64.742,-69.933 -6.469,-8.457 -12.325,-17.354 -16.72,-27.188 -2.722,-6.09 -1.857,-11.177 1.904,-16.328 6.298,-8.626 13.142,-16.791 20.484,-24.527 11.802,-12.435 23.807,-24.648 36.197,-36.532 18.988,-18.213 38.424,-35.94 57.549,-53.999 5.2,-4.911 10.38,-9.86 15.619,-14.739 2.683,-2.499 5.469,-3.444 9.072,-1.879 4.736,2.056 9.66,3.65 14.673,4.921 2.9,0.735 4.176,2.325 3.602,5.444 -1.086,5.894 -1.594,11.876 -2.32,17.821 -1.471,12.056 -3.936,24.004 -4.319,36.174 -0.189,5.985 1.64,8.04 7.493,9.36 4.226,0.954 8.4,2.126 12.647,2.99 0.952,0.193 2.214,0.138 2.613,1.15 0.573,1.456 -0.962,1.915 -1.728,2.676 -5.797,5.747 -12.218,10.819 -18.009,16.575 -4.127,4.102 -4.601,6.981 -1.759,12.022 1.553,2.756 3.23,5.443 4.917,8.123 26.715,42.436 53.604,84.761 80.256,127.239 2.479,3.95 5.026,7.86 7.636,11.72 2.111,3.13 5.201,4.05 8.789,2.98 3.203,-0.95 4.968,-3.21 5.369,-6.51 0.303,-2.51 -0.96,-4.52 -2.2,-6.5 -7.171,-11.428 -14.407,-22.818 -21.603,-34.234 -21.499,-34.104 -43.09,-68.151 -64.595,-102.252 -1.976,-3.133 -1.886,-5.021 0.918,-7.613 7.58,-7.008 15.491,-13.647 22.96,-20.773 2.829,-2.699 5.577,-5.468 4.397,-9.911 -1.246,-4.695 -5.303,-5.62 -9.216,-6.54 -5.999,-1.412 -12.007,-2.816 -18.054,-3.99 -3.637,-0.706 -4.984,-2.159 -4.482,-6.057 1.783,-13.869 3.958,-27.689 5.374,-41.605 0.311,-3.054 2.107,-3.902 4.869,-3.425 5.749,0.993 11.576,1.455 17.371,1.821 4.042,0.256 5.861,1.787 6.916,5.601 2.976,10.755 6.233,21.435 9.446,32.123 11.221,37.331 22.32,74.699 33.49,112.044 9.023,30.164 18.049,60.327 26.996,90.511 1.474,4.98 3.852,8.98 9.62,9.39 4.521,0.32 7.596,-2.55 9.987,-8.94 0.175,-0.47 0.332,-0.94 0.495,-1.41 8.346,-24.087 16.762,-48.147 25.021,-72.258 14.307,-41.767 28.903,-83.433 43.209,-125.2 3.993,-11.657 7.764,-23.402 12.207,-34.908 0.962,-2.491 2.041,-4.715 5.089,-4.666 5.018,0.081 9.962,-0.654 14.925,-1.157 3.165,-0.321 4.36,0.973 4.793,4.115 1.771,12.865 3.334,25.756 5.077,38.623 0.439,3.243 -0.734,4.459 -3.711,5.162 -6.649,1.569 -13.317,3.05 -19.98,4.552 -3.782,0.852 -7.023,2.433 -8.204,6.416 -1.174,3.956 1.165,6.666 3.804,9.133 7.785,7.275 15.837,14.257 23.734,21.408 2.905,2.63 2.87,4.614 0.933,7.643 -22.788,35.654 -45.245,71.518 -67.877,107.27 -6.416,10.134 -12.963,20.19 -19.093,30.497 -2.677,4.5 -1.927,8.25 1.525,10.63 3.757,2.59 8.178,1.7 11.373,-2.38 1.747,-2.23 3.205,-4.66 4.696,-7.07 8.594,-13.885 17.374,-27.649 26.097,-41.45 20.56,-32.53 41.035,-65.113 61.675,-97.593 3.38,-5.319 2.705,-9.077 -2.126,-13.129 -4.467,-3.747 -8.522,-7.942 -12.998,-11.689 -2.432,-2.036 -5.048,-4.108 -6.843,-7.271 5.614,-1.81 11.092,-2.449 16.348,-3.947 6.022,-1.716 8.036,-4.974 7.229,-11.128 -2.035,-15.516 -4.123,-31.024 -6.181,-46.537 -0.844,-6.358 -0.744,-6.511 5.521,-8.269 5.785,-1.623 11.533,-3.359 16.983,-5.885 2.997,-1.389 5.259,-0.789 7.748,1.21 4.57,3.67 8.325,8.164 12.705,12.012 16.886,14.835 33.152,30.351 49.463,45.799 15.601,14.774 30.638,30.157 45.623,45.564 8.238,8.47 15.893,17.505 22.495,27.375 2.519,3.766 2.995,7.517 1.457,11.826 -3.411,9.556 -9.003,17.844 -14.925,25.89 -21.515,29.233 -46.72,55.091 -73.552,79.402 -6.531,5.92 -13.343,11.55 -20.421,16.85 -3.354,2.51 -5.852,2.36 -8.61,-0.68 -9.174,-10.11 -20.257,-18.3 -29.015,-28.876 -2.432,-2.938 -2.779,-4.75 0.047,-7.461 12.381,-11.879 23.401,-25.094 35.921,-36.844 9.473,-8.888 19.019,-17.697 28.052,-27.043 6.907,-7.145 6.675,-12.283 -1.165,-18.152 -12.404,-9.287 -24.643,-18.792 -36.87,-28.305 -4.812,-3.745 -10.534,-6.601 -13.77,-12.136 -2.523,-4.316 -6.299,-6.973 -11.118,-5.933 -4.524,0.975 -6.015,5.31 -6.906,9.536 -0.024,0.113 -0.061,0.276 -0.091,0.491 -1.277,9.24 -2.864,18.432 -4.217,27.66 -5.506,37.565 -11.226,75.099 -16.7,112.673 -4.394,30.15 -8.772,60.31 -12.872,90.5 -0.206,1.52 -0.387,2.99 0.707,4.27 1.816,6.06 3.641,7.4 9.554,6.97 4.87,-0.36 6.111,-3.73 6.667,-7.84 1.247,-9.23 2.616,-18.44 4.029,-28.31 1.57,1.67 2.503,2.61 3.376,3.6 11.249,12.76 25.346,18.97 42.382,18.57 12.803,-0.3 21.548,-8.83 22.241,-21.55 0.567,-10.41 -2.214,-20.08 -6.138,-29.51 -0.954,-2.29 -0.949,-3.48 1.326,-5.22 38.961,-29.87 72.973,-64.66 102.272,-104.027 6.854,-9.21 12.844,-18.996 16.557,-30.017 2.891,-8.583 2.275,-16.594 -2.713,-24.317 -3.987,-6.173 -8.37,-12.019 -13.151,-17.58 -22.3,-25.938 -47.231,-49.278 -72.056,-72.712 -15.851,-14.964 -31.955,-29.66 -47.92,-44.451 0.845,-1.823 2.557,-2.318 3.912,-3.205 7.964,-5.217 15.391,-11.099 22.222,-17.73 23.946,-23.242 39.305,-51.745 50.398,-82.781 13.293,-37.196 19.976,-75.816 23.986,-114.955 0.399,-3.9 1.516,-5.467 5.49,-5.737 5.963,-0.403 11.952,-1.091 17.809,-2.263 16.475,-3.298 30.021,-10.609 36.423,-27.465 2.875,-7.57 2.183,-15.381 2.41,-23.176 0.341,-11.727 -4.261,-21.398 -12.248,-29.53"
         fill="#6E4100"
         id="path1138"
         inkscape:connector-curvature="0" />
      <path
         style="opacity:1;fill:#000000;fill-opacity:1;stop-opacity:1"
         d="m 309.071,1105.98 c -2.166,-15.96 -4.255,-31.93 -6.516,-47.87 -3.123,-22.03 -6.343,-44.04 -9.58,-66.051 -3.092,-21.024 -6.247,-42.039 -9.393,-63.054 -2.851,-19.045 -5.822,-38.073 -8.549,-57.136 -1.11,-7.763 -6.251,-11.895 -11.884,-8.926 -1.274,0.671 -3.098,1.807 -3.229,2.901 -0.892,7.455 -7.428,9.81 -12.139,13.601 -12.443,10.013 -25.147,19.701 -37.806,29.442 -6.116,4.705 -6.565,9.014 -1.148,14.45 21.643,21.712 43.247,43.464 65.036,65.027 3.585,3.548 3.576,5.904 0.008,9.382 -10.491,10.224 -20.578,20.864 -31.491,30.674 -2.464,2.21 -3.893,1.95 -6.259,0.17 -14.39,-10.84 -27.706,-22.91 -40.505,-35.534 -23.254,-22.939 -45.772,-46.541 -63.323,-74.337 -2.388,-3.782 -4.091,-7.989 -6.243,-11.927 -3.51,-6.423 -1.919,-12.014 2.199,-17.566 7.951,-10.722 16.898,-20.547 26.012,-30.27 24.05,-25.658 50.25,-49.08 75.74,-73.238 10.142,-9.612 20.609,-18.879 30.833,-28.404 1.71,-1.593 3.033,-1.804 5.248,-0.958 6.05,2.309 12.191,4.437 18.42,6.198 2.795,0.791 3.851,1.845 3.45,4.766 -2.212,16.12 -4.306,32.256 -6.45,48.386 -0.087,0.657 -0.311,1.296 -0.399,1.954 -1.405,10.513 -0.651,11.653 9.483,14.077 4.199,1.005 8.405,1.996 12.638,2.844 3.396,0.68 2.788,1.873 0.762,3.675 -6.592,5.858 -13.123,11.785 -19.68,17.683 -4.953,4.454 -5.291,6.451 -1.809,11.966 25.858,40.95 51.734,81.889 77.597,122.836 4.621,7.318 9.203,14.659 13.811,21.989 2.719,4.32 6.404,5.54 9.997,3.32 3.419,-2.11 3.961,-5.57 1.202,-9.95 -19.492,-31.001 -39.037,-61.963 -58.572,-92.932 -9.768,-15.486 -19.5,-30.994 -29.38,-46.409 -1.532,-2.391 -1.6,-3.579 0.772,-5.627 8.817,-7.612 17.284,-15.628 25.971,-23.393 2.449,-2.19 3.878,-4.603 2.942,-7.888 -0.903,-3.168 -3.597,-4.165 -6.443,-4.806 -7.615,-1.715 -15.216,-3.503 -22.869,-5.03 -2.732,-0.546 -3.405,-1.474 -2.999,-4.36 2.035,-14.468 3.871,-28.967 5.536,-43.482 0.498,-4.343 1.731,-6.168 6.632,-5.277 6.677,1.214 13.517,1.636 20.309,2.076 2.905,0.188 3.462,1.924 4.109,4.094 5.884,19.752 11.835,39.484 17.723,59.235 11.872,39.819 23.71,79.648 35.576,119.469 5.838,19.594 11.771,39.16 17.513,58.78 1.283,4.39 3.341,7.91 8.185,8.1 5.216,0.21 7.311,-3.61 8.826,-8.01 19.944,-57.859 39.938,-115.702 59.929,-173.546 7.061,-20.431 14.193,-40.839 21.176,-61.298 1.043,-3.057 2.541,-4.641 5.965,-4.741 5.811,-0.169 11.625,-0.63 17.404,-1.274 2.38,-0.266 3.231,0.245 3.536,2.669 1.829,14.494 3.769,28.975 5.765,43.447 0.346,2.514 -0.436,3.582 -2.955,4.091 -7.648,1.547 -15.24,3.372 -22.873,5.004 -3.122,0.667 -5.784,1.955 -6.745,5.176 -0.915,3.07 0.576,5.39 2.864,7.438 8.559,7.657 16.85,15.631 25.666,22.976 3.07,2.558 2.624,4.21 0.909,6.907 -14.736,23.174 -29.419,46.382 -44.101,69.591 -14.415,22.789 -28.826,45.581 -43.204,68.39 -3.06,4.86 -2.763,8.24 0.711,10.51 3.595,2.34 7.356,1.15 10.321,-3.54 29.529,-46.702 59.024,-93.43 88.529,-140.149 0.444,-0.704 0.9,-1.401 1.354,-2.099 5.436,-8.375 5.3,-9.138 -2.026,-15.736 -6.742,-6.072 -13.403,-12.233 -20.795,-18.991 6.824,-1.587 12.742,-2.948 18.652,-4.34 6.888,-1.622 8.074,-3.562 7.173,-10.411 -2.208,-16.793 -4.151,-33.622 -6.495,-50.395 -0.422,-3.018 0.567,-3.75 3.039,-4.346 7.77,-1.874 15.376,-4.293 22.658,-7.624 2.181,-0.997 3.734,-0.888 5.683,0.941 18.083,16.967 36.257,33.837 54.489,50.643 18.871,17.393 36.899,35.64 54.751,54.057 8.339,8.603 16.072,17.757 22.831,27.707 2.765,4.069 3.347,8.066 1.576,12.695 -4.766,12.462 -12.36,23.217 -20.535,33.507 -26.388,33.218 -55.869,63.391 -89.232,89.711 -3.843,3.03 -6.117,2.81 -9.442,-0.64 -10.035,-10.43 -21.167,-19.75 -30.844,-30.571 -2.5,-2.795 -2.386,-4.145 0.09,-6.778 21.228,-22.575 43.535,-44.063 65.694,-65.702 6.04,-5.899 5.647,-10.223 -1.187,-15.435 -15.877,-12.108 -31.701,-24.284 -47.524,-36.462 -1.7,-1.309 -3.15,-2.734 -3.956,-4.965 -1.527,-4.227 -5.431,-5.642 -9.307,-5.144 -3.096,0.397 -5.109,3.313 -5.636,6.545 -2.032,12.451 -3.989,24.915 -5.873,37.389 -3.224,21.339 -6.4,42.685 -9.545,64.035 -3.531,23.982 -7.047,47.968 -10.492,71.958 -3.068,21.37 -6.031,42.75 -9.04,64.12 -1.995,-0.06 -3.989,-0.17 -5.984,-0.17 -65.619,-0.01 -131.237,-0.01 -196.856,0 -1.994,0 -3.988,0.12 -5.982,0.19"
         fill="#8A8A8A"
         id="path1140"
         inkscape:connector-curvature="0" />
      <path
         style="opacity:1;fill:#000000;fill-opacity:1;stop-opacity:1"
         inkscape:connector-curvature="0"
         id="path1152"
         fill="#FEF5E2"
         d="m 674.9,427.02 c -0.07,24.136 -1.446,48.223 -3.183,72.278 -2.397,33.206 -6.271,66.239 -13.774,98.739 -8.244,35.709 -19.944,70.015 -41.975,99.912 -26.36,35.771 -62.229,53.899 -106.214,57.079 -31.066,2.246 -62.165,3.321 -93.291,2.712 -35.768,-0.7 -71.532,-2.118 -107.058,-6.586 -48.04,-6.041 -83.088,-31.579 -107.047,-73.037 -16.586,-28.699 -25.867,-60.02 -32.292,-92.286 -8.18,-41.072 -11.317,-82.696 -13.205,-124.441 -0.729,-16.116 -1.282,-32.239 -1.915,-48.359 0.775,-0.732 1.75,-1.053 2.728,-0.781 7.758,2.163 15.729,3.463 23.446,5.786 0.959,0.289 1.746,0.9 2.383,1.685 2.84,6.226 3.662,13.098 6.366,19.409 3.202,7.473 7.482,14.043 13.354,19.67 5.001,4.792 10.871,7.733 17.668,8.546 21.144,2.527 42.37,4.532 63.661,4.136 17.439,-0.325 34.867,-1.595 51.93,-5.974 13.853,-3.556 25.112,-10.4 32.327,-23.09 0.829,-1.458 1.748,-2.87 3.641,-3.128 l 56.663,1.298 c 8.709,1.032 17.43,0.789 26.152,0.911 1.321,0.019 2.633,0.132 3.901,0.521 1.485,0.513 2.554,1.593 3.376,2.845 9.35,14.248 23.674,19.736 39.535,22.592 18.073,3.255 36.341,4.582 54.633,4.007 17.427,-0.547 34.85,-1.878 52.181,-4.045 10.524,-1.317 17.935,-7.471 24.051,-15.535 3.744,-4.935 6.593,-10.385 8.527,-16.302 0.77,-2.356 1.385,-4.839 3.55,-6.454 3.556,-2.221 7.683,-1.52 11.535,-2.167 4.368,-0.735 8.85,-0.616 13.253,-1.267 1.807,-0.267 3.629,-0.01 5.093,1.326"
         sodipodi:nodetypes="ccccsccccccccccccccccccccccccccccc" />
      <path
         style="opacity:1;fill:#050505;fill-opacity:1;stop-opacity:1"
         inkscape:connector-curvature="0"
         id="path1154"
         fill="#9C9C9C"
         d="m 590.99,90.118 c 22.275,11.335 42.859,25.207 61.757,41.541 23.5,20.309 43.05,43.849 58.108,71.109 12.376,22.405 16.271,46.511 15.354,71.718 -1.252,34.424 -11.348,65.951 -30.771,94.445 -0.546,0.802 -1.197,1.532 -2.708,3.449 -9.32242,-129.38753 -52.0136,-201.46698 -154.813,-234.794 -1.819,-0.601 -3.036,-1.399 -3.817,-3.416 -2.54,-6.564 -7.897,-7.937 -13.393,-3.461 -23.688,19.288 -49.117,35.991 -75.685,50.985 -58.325,32.915 -120.068,56.959 -185.483,71.567 -34.791,7.769 -69.936,12.76 -105.512,14.824 -7.468,0.433 -10.596,6.161 -6.992,12.907 0.856,1.602 1.127,2.997 0.698,4.715 -4.935,19.729 -7.912,39.749 -8.873,60.069 -0.053,1.116 -0.568,2.21 -0.867,3.314 -2.581,-0.279 -2.826,-2.596 -3.49,-4.313 -7.623,-19.715 -11.737,-40.214 -13.899,-61.199 -1.097,-10.646 -0.784,-21.282 -0.961,-31.929 -0.125,-7.544 1.019,-14.947 2.331,-22.32 0.809,-4.541 1.822,-4.99 6.016,-3.141 2.675,1.18 5.393,1.574 8.276,1.384 47.427,-3.13 93.661,-12.663 139.194,-25.94 55.751,-16.256 109.876,-36.875 162.822,-60.671 15.801,-7.102 31.528,-14.354 47.032,-22.086 1.935,-0.965 3.968,-1.811 5.496,-3.405 2.435,-2.541 3.172,-5.493 1.49,-8.691 -1.676,-3.186 -4.49,-4.341 -7.981,-3.707 -2.655,0.483 -4.998,1.82 -7.38,3.011 -56.421,28.212 -114.633,52.1 -174.569,71.72 -42.334,13.857 -85.363,25.023 -129.572,31.137 -13.517,1.869 -27.118,3.036 -40.76,3.615 -4.722,0.201 -5.68,-0.93 -4.173,-5.609 1.992,-6.184 4.429,-12.216 7.247,-18.078 13.678,-28.46 33.843,-51.695 57.915,-71.766 29.921,-24.947 63.509,-43.854 98.757,-60.067 23.486,-10.803 47.331,-20.624 72.181,-27.876 24.562,-7.167 49.513,-11.961 75.197,-12.026 4.605,-0.012 9.252,0.135 13.827,0.938 l -0.056,-0.064 c 2.604,1.06 5.261,0.632 7.915,0.281 25.32,4.173 48.754,12.85 69.165,28.826 12.827,10.04 23.4,22.12 32.611,35.482 4.126,5.986 6.957,6.487 13.198,2.372 1.007,-0.664 1.53,-0.784 2.554,-0.245 2.824,1.487 5.726,2.827 8.597,4.225 1.257,0.673 2.428,1.639 4.017,1.17"
         sodipodi:nodetypes="ccccccccccccccccccccccccccccccccccccccccccccccc" />
      <path
         style="opacity:1;fill:#000000;fill-opacity:1;stop-opacity:1"
         inkscape:connector-curvature="0"
         id="path1156"
         fill="#FFDAB7"
         d="m 674.9,427.02 c -10.014,0.532 -20.001,1.324 -29.901,2.993 -1.256,-1.26 -0.953,-2.762 -0.578,-4.218 4.48,-17.405 5.452,-35.137 5.11,-53.013 -0.196,-10.223 -2.487,-11.785 -11.403,-7.394 -10.072,-3.868 -19.946,-8.219 -30.368,-11.213 -37.931,-10.898 -75.884,-9.529 -113.887,-0.608 -6.147,1.443 -12.299,2.886 -18.307,4.889 -3.734,1.245 -7.348,2.364 -7.769,7.189 -0.079,0.911 -0.791,1.883 -2.119,1.259 -0.909,-1.086 -1.052,-2.425 -1.201,-3.748 -0.314,-2.778 -1.463,-4.968 -4.564,-4.904 -2.941,0.061 -4.535,2.205 -4.904,4.847 -0.736,5.27 -1.481,10.555 -1.549,15.895 -0.034,2.67 -0.212,5.312 -0.657,7.957 -0.626,3.723 -2.653,5.509 -6.448,5.524 -4.5,0.017 -8.999,0.027 -13.498,0.03 -15.331,0.008 -30.663,0.02 -45.994,-0.004 -8.451,-0.014 -8.852,-0.302 -9.914,-8.819 -0.7,-5.614 -0.762,-11.289 -1.412,-16.922 -1.001,-8.672 -3.744,-10.28 -11.218,-6.226 -2.23,0.707 -4.261,-0.175 -6.303,-0.841 -27.241,-8.894 -55.147,-13.659 -83.843,-13.201 -25.383,0.404 -49.81,5.604 -73.305,15.209 -2.91,1.19 -5.685,2.795 -8.928,3.004 -9.223,-3.22 -11.312,-1.633 -11.507,8.435 -0.271,14 0.489,27.914 2.888,41.727 0.299,1.723 1.092,3.602 -0.547,5.164 -9.276,-2.333 -18.552,-4.667 -27.828,-7 -1.879,-25.09 -1.54,-50.175 0.507,-75.229 1.383,-16.934 4.011,-33.683 8.315,-50.159 0.787,-3.01 1.79,-4.348 5.176,-4.609 82.981,-6.387 161.991,-27.857 237.278,-63.128 40.186,-18.827 78.352,-41.107 113.662,-68.102 2.041,-1.561 3.833,-1.951 6.387,-1.159 101.13111,24.88188 132.57567,114.80985 148.413,192.094 2.347,19.743 1.696,39.557 1.192,59.359 -0.212,8.31 -0.644,16.614 -0.976,24.922"
         sodipodi:nodetypes="cccccccccccccscccccccccccccccccccccccc" />
      <path
         style="opacity:1;stop-opacity:1"
         inkscape:connector-curvature="0"
         id="path1158"
         fill="#fefefe"
         d="m 452.989,18.071 c -51.436,-1.436 -99.202,13.19 -145.673,33.381 -37.982,16.503 -74.498,35.604 -107.085,61.499 -28.959,23.013 -53.109,49.906 -67.459,84.579 -1.833,4.428 -3.367,8.98 -5.222,13.964 19.99,-0.817 39.249,-2.655 58.361,-5.875 75.437,-12.707 147.089,-37.703 217.362,-67.134 26.098,-10.93 51.816,-22.695 77.073,-35.463 5.811,-2.938 11.025,-1.684 13.395,2.916 2.536,4.922 0.436,9.794 -5.591,12.942 -0.885,0.462 -1.8,0.867 -2.694,1.312 -34.739,17.262 -70.186,32.931 -106.277,47.142 -52.532,20.684 -105.987,38.414 -161.303,50.153 -27.372,5.809 -55.002,9.733 -82.95,11.318 -4.731,0.268 -5.347,0.051 -10.732,-3.345 -3.947,16.259 -4.077,32.732 -3.006,49.195 1.508,23.162 5.577,45.875 13.775,67.706 0.863,2.298 1.376,4.777 3.03,6.728 0.039,0.289 0.092,0.575 0.161,0.858 0.544,2.691 0.556,5.38 -0.009,8.069 0,7.247 0,14.493 0,23.115 -4.846,-5.915 -7.77,-11.269 -10.802,-16.519 -17.579,-30.443 -29.458,-62.851 -33.134,-97.985 -4.42,-42.233 7.675,-79.544 34.075,-112.443 23.292,-29.025 52.618,-50.791 84.74,-68.855 49.036,-27.577 100.572,-49.149 155.571,-61.731 26.559,-6.076 53.475,-9.034 80.774,-6.49 1.228,0.115 2.715,-0.469 3.62,0.963" />
      <path
         style="opacity:1;fill:#000000;fill-opacity:1;stop-opacity:1"
         inkscape:connector-curvature="0"
         id="path1160"
         fill="#FFBAAD"
         d="m 410.409,982.629 c -4.118,-13.782 -8.78,-27.435 -12.087,-41.409 -1.321,-5.585 0.271,-11.881 0.661,-17.845 1.822,-27.859 3.753,-55.71 5.457,-83.576 0.221,-3.614 1.117,-4.632 4.906,-4.357 11.581,0.841 11.596,0.642 12.035,11.969 1.182,30.556 2.347,61.112 3.573,91.667 0.122,3.044 -0.307,5.9 -1.324,8.775 -4.093,11.562 -8.071,23.165 -12.091,34.753 -0.376,0.007 -0.753,0.015 -1.13,0.023" />
      <path
         style="opacity:1;fill:#000000;fill-opacity:1;stop-opacity:1"
         inkscape:connector-curvature="0"
         id="path1162"
         fill="#FEF5E2"
         d="m 134.583,441.694 c 4.641,-1.829 5.378,0.565 5.583,5.235 0.874,19.929 2.159,39.84 3.432,59.749 0.144,2.261 0.146,3.514 -2.61,3.137 -7.899,-1.081 -15.902,-1.426 -23.641,-3.601 -14.139,-3.975 -20.734,-11.093 -22.269,-24.172 -1.871,-15.955 3.494,-27.322 16.109,-34.083 3.529,-1.891 7.237,-3.304 11.129,-4.301 3.878,-0.994 7.782,-1.73 12.267,-1.964" />
      <path
         style="opacity:1;fill:#000000;fill-opacity:1;stop-opacity:1"
         inkscape:connector-curvature="0"
         id="path1164"
         fill="#FEF5E2"
         d="m 690.336,509.313 c -2.352,0.687 -3.502,-0.191 -3.13,-4.106 1.81,-19.051 2.54,-38.175 3.255,-57.295 0.248,-6.643 0.251,-6.773 6.625,-5.744 7.776,1.254 15.254,3.434 21.782,8.087 12.194,8.691 14.377,20.912 11.945,34.599 -2.161,12.161 -10.277,18.42 -21.692,21.331 -5.825,1.486 -11.736,2.301 -18.785,3.128" />
      <path
         style="opacity:1;fill:#000000;fill-opacity:1;stop-opacity:1"
         inkscape:connector-curvature="0"
         id="path1166"
         fill="#FEF5E2"
         d="m 547.282,1012.54 c 11.332,10.75 22.95,19.99 32.243,31.16 7.632,9.17 11.091,21.09 10.498,33.53 -0.198,4.18 -3.045,5.63 -6.813,5.69 -8.564,0.14 -16.493,-1.8 -23.274,-7.33 -1.548,-1.26 -3.093,-2.53 -4.52,-3.93 -9.683,-9.43 -16.523,-19.5 -11.876,-34.31 2.392,-7.63 2.491,-15.97 3.742,-24.81" />
      <path
         style="opacity:1;fill:#050300;fill-opacity:1;stop-opacity:1"
         inkscape:connector-curvature="0"
         id="path1168"
         fill="#FEF5E2"
         d="m 280.08,1014.8 c 2.014,13.69 3.929,26.68 5.829,39.67 0.17,1.16 0.128,2.29 -0.575,3.35 -7.87,11.9 -16.702,22.39 -32.035,24.82 -11.537,1.83 -15.288,-1.16 -13.287,-12.6 2.195,-12.55 6.092,-24.33 16.594,-33.06 8.028,-6.67 15.239,-14.33 23.474,-22.18" />
      <path
         style="opacity:1;stop-opacity:1"
         inkscape:connector-curvature="0"
         id="path1174"
         fill="#fefefe"
         d="m 424.038,773.745 c 20.824,0.395 40.204,-0.325 59.687,-0.995 -2.987,13.474 -8.785,25.063 -16.881,35.596 -1.453,1.891 -2.302,1.678 -3.838,0.295 -12.591,-11.331 -25.231,-22.607 -38.968,-34.896" />
      <path
         style="opacity:1;stop-opacity:1"
         inkscape:connector-curvature="0"
         id="path1176"
         fill="#fefefe"
         d="m 406.16,773.74 c -13.63,11.579 -26.154,22.229 -38.7,32.853 -0.942,0.798 -1.747,1.805 -3.14,0.103 -8.543,-10.442 -14.681,-21.961 -16.581,-35.722 19.081,0.903 38.118,1.805 58.421,2.766" />
      <path
         style="opacity:1;stop-opacity:1"
         inkscape:connector-curvature="0"
         id="path1178"
         fill="#fefefe"
         d="m 439.09,891.89 c -0.65,-16.957 -1.291,-33.914 -1.961,-50.87 -0.093,-2.367 -0.229,-4.253 2.943,-5.175 3.301,-0.96 4.623,-4.039 4.82,-7.479 0.236,-4.14 0.547,-8.276 0.88,-13.224 6.295,5.301 12.139,10.029 17.717,15.051 1.427,1.285 -0.314,3.145 -0.815,4.609 -7.2,21.049 -14.498,42.065 -21.771,63.089 -3.041,-1.264 -0.399,-4.245 -1.813,-6.001" />
      <path
         style="opacity:1;stop-opacity:1"
         inkscape:connector-curvature="0"
         id="path1180"
         fill="#fefefe"
         d="m 380.744,816.696 c 1.136,3.307 1.098,6.318 1.332,9.291 0.216,2.744 0.808,5.686 3.348,6.865 3.335,1.548 3.209,3.807 2.998,6.774 -1.287,18.062 -2.408,36.135 -3.593,54.332 -1.655,-0.803 -1.572,-2.394 -1.967,-3.714 -5.795,-19.386 -11.55,-38.783 -17.411,-58.149 -0.727,-2.402 -0.786,-3.524 1.912,-5.1 4.658,-2.721 8.657,-6.57 13.381,-10.299" />
      <path
         style="opacity:1;fill:#000000;fill-opacity:1;stop-opacity:1"
         inkscape:connector-curvature="0"
         id="path1182"
         fill="#FFBAAD"
         d="m 419.32,819.96 c -6.124,-0.318 -12.246,-0.793 -18.373,-0.881 -2.807,-0.041 -3.625,-1.085 -3.906,-3.742 -1.244,-11.758 -1.387,-11.83 7.881,-19.316 3.425,-2.766 6.371,-8.1 10.449,-7.545 3.576,0.486 6.674,5.043 9.81,7.987 1.88,1.766 5.185,2.862 5.203,5.644 0.036,5.612 -0.641,11.239 -1.219,16.84 -0.16,1.55 -1.8,1.125 -2.879,1.155 -2.321,0.063 -4.645,0.019 -6.967,0.019 10e-4,-0.054 10e-4,-0.108 10e-4,-0.161" />
      <path
         style="opacity:1;stop-opacity:1"
         inkscape:connector-curvature="0"
         id="path1184"
         fill="#bdac97"
         d="m 439.09,891.89 c 1.581,1.705 -0.639,4.559 1.812,6.001 0.173,1.085 -0.195,1.903 -1.697,2.68 -0.475,-3.015 -0.551,-5.829 -0.115,-8.681" />
      <path
         style="opacity:1;stop-opacity:1"
         inkscape:connector-curvature="0"
         id="path1186"
         fill="#d6d6d6"
         d="m 460.848,18.288 c -2.682,1.129 -5.335,1.443 -7.915,-0.281 2.638,0.094 5.277,0.188 7.915,0.281" />
      <path
         style="opacity:1;stop-opacity:1"
         inkscape:connector-curvature="0"
         id="path1188"
         fill="#9c9c9c"
         d="m 138.145,358.016 c 0.003,-2.689 0.006,-5.379 0.009,-8.069 1.31,2.691 0.802,5.381 -0.009,8.069" />
      <path
         style="opacity:1;stop-opacity:1"
         inkscape:connector-curvature="0"
         id="path1190"
         fill="#d0cac2"
         d="m 590.99,90.118 c -1.952,1.716 -2.919,0.047 -4.017,-1.17 1.51,-0.196 2.756,0.514 4.017,1.17" />
      <path
         style="opacity:1;stop-opacity:1"
         inkscape:connector-curvature="0"
         id="path1192"
         fill="#ddd5cb"
         d="m 554.849,962.805 c 0.349,0.772 0.225,1.801 1.211,2.227 -0.264,0.775 -1.139,1.739 -1.513,1.378 -1.166,-1.128 -0.317,-2.428 0.302,-3.605" />
      <path
         style="opacity:1;fill:#ffffff;fill-opacity:1;stop-opacity:1"
         inkscape:connector-curvature="0"
         id="path1194"
         fill="#6E4100"
         d="m 182.774,420.031 c -3.115,-16.662 -4.247,-33.461 -3.652,-50.398 0.124,-3.52 0.46294,-7.21779 4.267,-8.199 56.8778,-14.67092 121.28807,-13.3148 188.418,-4.936 3.80881,0.47539 4.642,4.03 4.927,7.316 0.663,7.619 1.406,15.241 1.712,22.878 0.133,3.317 0.883,4.6 4.497,4.573 21.475,-0.164 42.953,-0.126 64.43,-0.027 2.846,0.013 4.068,-0.501 4.163,-3.748 0.205,-6.973 -1.63183,-14.66259 1.525,-20.891 18.47721,-36.45544 159.3165,-13.90404 193.253,-5.267 3.87677,1.00621 4.516,4.417 4.618,7.963 0.592,20.493 -0.903,40.777 -5.933,60.718 -0.59,1.543 -1.234,3.068 -1.762,4.633 -7.113,21.081 -19.965,34.074 -43.826,35.456 -27.562,1.597 -55.033,3.696 -82.605,0.898 -9.433,-0.957 -18.768,-2.563 -27.855,-5.279 -12.607,-3.767 -22.48,-11.189 -29.125,-22.684 -2.44,-1.492 -3.49,-3.932 -4.366,-6.47 -2.562,-7.415 -4.451,-15.001 -4.895,-22.844 -0.215,-3.809 -1.838,-5.244 -5.563,-5.236 -19.945,0.044 -39.89,0.056 -59.835,-0.006 -4.042,-0.012 -5.59,1.735 -5.756,5.66 -0.302,7.185 -1.896,14.148 -4.397,20.898 -0.698,1.883 -1.36,3.772 -3.242,4.857 -8.868,18.617 -25.23,25.843 -44.213,29.063 -29.95,5.079 -60.002,4.156 -90.08,1.481 -3.975,-0.354 -7.931,-1.083 -11.91,-1.211 -14.103,-0.453 -24.132,-7.548 -31.488,-19.027 -5.916,-9.233 -8.885,-19.608 -11.307,-30.171"
         sodipodi:nodetypes="ccsscccccscccccccccccccccccccc" />
      <path
         style="opacity:1;fill:#000000;fill-opacity:1;stop-opacity:1"
         inkscape:connector-curvature="0"
         id="path1196"
         fill="#FFE0C5"
         d="m 230.793,551.101 c -14.003,-0.759 -27.777,-2.519 -39.46,-11.315 -15.825,-11.915 -15.462,-27.832 -5.242,-41.299 9.802,-12.916 22.939,-19.396 39.123,-20.598 14.577,-1.082 27.714,1.929 38.465,12.069 8.691,8.196 15.103,17.901 13.201,30.638 -1.193,7.983 -6.805,13.564 -12.674,18.532 -9.578,8.109 -20.605,12.546 -33.413,11.973" />
      <path
         style="opacity:1;fill:#000000;fill-opacity:1;stop-opacity:1"
         inkscape:connector-curvature="0"
         id="path1198"
         fill="#FFE0C5"
         d="m 605.149,548.112 c -12.017,-0.549 -23.669,-2.203 -34.137,-9.006 -16.777,-10.903 -16.362,-27.775 -5.782,-40.666 10.42,-12.694 24.494,-18.967 40.819,-18.263 20.361,0.878 36.314,11.01 42.264,31.629 2.596,8.997 -1.956,16.254 -7.883,21.842 -9.135,8.614 -17.483,15.095 -35.281,14.464" />
      <path
         style="opacity:1;fill:#000000;fill-opacity:1;stop-opacity:1"
         inkscape:connector-curvature="0"
         id="path1200"
         fill="#6E4100"
         d="m 423.032,640.939 c 33.058,0.466 68.449,1.869 103.184,10.075 6.951,1.642 13.843,3.573 20.306,6.696 4.212,2.036 5.719,5.601 4.243,9.393 -1.392,3.575 -5.542,5.302 -9.641,3.572 -18.646,-7.867 -38.443,-10.51 -58.288,-12.593 -33.164,-3.481 -66.436,-4.072 -99.718,-2.044 -28.608,1.742 -57.016,4.896 -84.201,14.792 -3.731,1.358 -7.332,3.115 -10.887,4.898 -4.681,2.347 -8.91,1.599 -10.851,-2.153 -1.931,-3.734 -0.411,-7.816 4.159,-10.3 12.095,-6.575 25.226,-10.251 38.559,-13.178 33.177,-7.281 66.874,-9.03 103.135,-9.158" />
      <path
         style="opacity:1;fill:#000000;fill-opacity:1;stop-opacity:1"
         inkscape:connector-curvature="0"
         id="path1202"
         fill="#FFE0C5"
         d="m 577.107,650.104 c -0.291,21.62 -2.701,39.409 -11.587,55.789 -2.694,4.966 -6.461,7.049 -10.353,5.669 -5.226,-1.853 -6.771,-7.779 -3.836,-13.285 9.839,-18.46 11.607,-38.347 8.534,-58.523 -2.113,-13.872 -10.745,-24.853 -19.842,-35.141 -10.029,-11.341 -21.224,-21.41 -33.708,-30.036 -3.726,-2.576 -4.456,-7.429 -2.045,-11.088 2.356,-3.577 7.246,-4.865 11.006,-2.203 6.353,4.499 12.742,9.063 18.467,14.308 13.385,12.263 26.128,25.145 34.767,41.45 6.043,11.407 9.328,23.407 8.597,33.06" />
      <path
         style="opacity:1;fill:#020100;fill-opacity:1;stop-opacity:1"
         inkscape:connector-curvature="0"
         id="path1204"
         fill="#FFDAB7"
         d="m 371.772,439.896 c 3.605,-9.196 5.991,-18.671 6.342,-28.578 0.108,-3.05 1.14,-4.242 4.491,-4.217 21.647,0.165 43.296,0.145 64.943,0.019 3.24,-0.018 4.265,0.929 4.398,4.21 0.448,11.076 3.118,21.669 7.88,31.707 -12.034,0.146 -24.054,-0.178 -36.066,-0.94 -1.724,-0.11 -3.698,-0.62 -5.024,1.207 -4.25,-2.712 -8.757,-2.555 -13.371,-1.196 -9.568,-1.303 -19.196,-1.079 -28.813,-1.091 -1.709,-0.002 -3.299,-0.267 -4.78,-1.121" />
    </g>
  </g>
  <g
     style="display:inline"
     inkscape:groupmode="layer"
     id="layer7"
     inkscape:label="Table">
    <g
       style="display:inline"
       id="g991">
      <rect
         style="fill:#ffffff;fill-opacity:1;fill-rule:evenodd;stroke:#000000;stroke-width:0.264583;stroke-linecap:square;stroke-linejoin:miter;stroke-miterlimit:4;stroke-dasharray:none;paint-order:fill markers stroke"
         id="rect889"
         width="128.28937"
         height="42.228584"
         x="33.375233"
         y="135.21677" />
      <path
         id="rect905"
         style="fill:#ffffff;fill-opacity:1;fill-rule:evenodd;stroke:#000000;stroke-width:0.264583;stroke-linecap:square;stroke-linejoin:miter;stroke-miterlimit:4;stroke-dasharray:none;paint-order:fill markers stroke"
         d="m 38.375,131.49 h 118.29 l 4.9996,3.72677 H 33.375233 Z"
         inkscape:connector-curvature="0"
         sodipodi:nodetypes="ccccc" />
    </g>
  </g>
</svg>
