<?xml version="1.0" encoding="UTF-8" standalone="no"?>
<svg
   xmlns:dc="http://purl.org/dc/elements/1.1/"
   xmlns:cc="http://creativecommons.org/ns#"
   xmlns:rdf="http://www.w3.org/1999/02/22-rdf-syntax-ns#"
   xmlns:svg="http://www.w3.org/2000/svg"
   xmlns="http://www.w3.org/2000/svg"
   xmlns:sodipodi="http://sodipodi.sourceforge.net/DTD/sodipodi-0.dtd"
   xmlns:inkscape="http://www.inkscape.org/namespaces/inkscape"
   width="1280"
   height="720"
   viewBox="0 0 338.66666 190.50001"
   version="1.1"
   id="svg8"
   inkscape:version="1.0 (6e3e5246a0, 2020-05-07)"
   sodipodi:docname="casher.svg">
  <defs
     id="defs2">
    <inkscape:perspective
       sodipodi:type="inkscape:persp3d"
       inkscape:vp_x="-172.28418 : -2.1098728e-14 : 0"
       inkscape:vp_y="0 : 1000 : 0"
       inkscape:vp_z="142.3358 : 89.94453 : 1"
       inkscape:persp3d-origin="169.33333 : 63.500003 : 1"
       id="perspective861" />
    <linearGradient
       gradientUnits="userSpaceOnUse"
       gradientTransform="scale(0.99984473,1.0001553)"
       y2="260.52774"
       y1="402.15451"
       x2="243.32458"
       x1="243.32458"
       id="L2">
      <stop
         id="stop2271"
         style="stop-color: rgb(255, 255, 255); stop-opacity: 0;" />
      <stop
         id="stop2273"
         style="stop-color: rgb(255, 255, 255); stop-opacity: 0.572549;"
         offset="1" />
    </linearGradient>
    <linearGradient
       gradientUnits="userSpaceOnUse"
       gradientTransform="scale(0.99992221,1.0000778)"
       y2="469.55243"
       y1="307.82748"
       x2="260.54816"
       x1="259.40082"
       id="L1">
      <stop
         id="stop2266"
         style="stop-color: rgb(221, 221, 221);" />
      <stop
         id="stop2268"
         style="stop-color: rgb(245, 245, 245);"
         offset="1" />
    </linearGradient>
    <linearGradient
       gradientUnits="userSpaceOnUse"
       gradientTransform="scale(0.97710312,1.0234334)"
       y2="850.52936"
       y1="987.17004"
       x2="106.81163"
       x1="104.63348"
       id="L3">
      <stop
         id="stop2276"
         style="stop-color: rgb(255, 255, 255); stop-opacity: 0;" />
      <stop
         id="stop2278"
         style="stop-color: rgb(255, 255, 255); stop-opacity: 0.85;"
         offset="1" />
    </linearGradient>
    <linearGradient
       gradientUnits="userSpaceOnUse"
       gradientTransform="scale(0.99984473,1.0001553)"
       y2="260.52774"
       y1="402.15451"
       x2="243.32458"
       x1="243.32458"
       id="L2-7">
      <stop
         id="stop2271-0"
         style="stop-color: rgb(255, 255, 255); stop-opacity: 0;" />
      <stop
         id="stop2273-4"
         style="stop-color: rgb(255, 255, 255); stop-opacity: 0.572549;"
         offset="1" />
    </linearGradient>
    <linearGradient
       gradientUnits="userSpaceOnUse"
       gradientTransform="scale(0.99992221,1.0000778)"
       y2="469.55243"
       y1="307.82748"
       x2="260.54816"
       x1="259.40082"
       id="L1-8">
      <stop
         id="stop2266-4"
         style="stop-color: rgb(221, 221, 221);" />
      <stop
         id="stop2268-8"
         style="stop-color: rgb(245, 245, 245);"
         offset="1" />
    </linearGradient>
    <linearGradient
       gradientUnits="userSpaceOnUse"
       gradientTransform="scale(0.97710312,1.0234334)"
       y2="850.52936"
       y1="987.17004"
       x2="106.81163"
       x1="104.63348"
       id="L3-1">
      <stop
         id="stop2276-6"
         style="stop-color: rgb(255, 255, 255); stop-opacity: 0;" />
      <stop
         id="stop2278-8"
         style="stop-color: rgb(255, 255, 255); stop-opacity: 0.85;"
         offset="1" />
    </linearGradient>
    <linearGradient
       gradientUnits="userSpaceOnUse"
       gradientTransform="scale(0.99984473,1.0001553)"
       y2="260.52774"
       y1="402.15451"
       x2="243.32458"
       x1="243.32458"
       id="L2-5">
      <stop
         id="stop2271-2"
         style="stop-color: rgb(255, 255, 255); stop-opacity: 0;" />
      <stop
         id="stop2273-1"
         style="stop-color: rgb(255, 255, 255); stop-opacity: 0.572549;"
         offset="1" />
    </linearGradient>
    <linearGradient
       gradientUnits="userSpaceOnUse"
       gradientTransform="scale(0.99992221,1.0000778)"
       y2="469.55243"
       y1="307.82748"
       x2="260.54816"
       x1="259.40082"
       id="L1-9">
      <stop
         id="stop2266-9"
         style="stop-color: rgb(221, 221, 221);" />
      <stop
         id="stop2268-6"
         style="stop-color: rgb(245, 245, 245);"
         offset="1" />
    </linearGradient>
    <linearGradient
       gradientUnits="userSpaceOnUse"
       gradientTransform="scale(0.97710312,1.0234334)"
       y2="850.52936"
       y1="987.17004"
       x2="106.81163"
       x1="104.63348"
       id="L3-0">
      <stop
         id="stop2276-64"
         style="stop-color: rgb(255, 255, 255); stop-opacity: 0;" />
      <stop
         id="stop2278-9"
         style="stop-color: rgb(255, 255, 255); stop-opacity: 0.85;"
         offset="1" />
    </linearGradient>
  </defs>
  <sodipodi:namedview
     id="base"
     pagecolor="#ffffff"
     bordercolor="#666666"
     borderopacity="1.0"
     inkscape:pageopacity="0.0"
     inkscape:pageshadow="2"
     inkscape:zoom="0.175"
     inkscape:cx="751.95242"
     inkscape:cy="502.9725"
     inkscape:document-units="px"
     inkscape:current-layer="layer2"
     inkscape:document-rotation="0"
     showgrid="false"
     units="px"
     inkscape:window-width="1294"
     inkscape:window-height="704"
     inkscape:window-x="72"
     inkscape:window-y="27"
     inkscape:window-maximized="1"
     inkscape:pagecheckerboard="false"
     borderlayer="true" />
  <metadata
     id="metadata5">
    <rdf:RDF>
      <cc:Work
         rdf:about="">
        <dc:format>image/svg+xml</dc:format>
        <dc:type
           rdf:resource="http://purl.org/dc/dcmitype/StillImage" />
        <dc:title></dc:title>
      </cc:Work>
    </rdf:RDF>
  </metadata>
  <g
     inkscape:label="Background 1"
     id="layer2"
     inkscape:groupmode="layer">
    <g
       id="g4807"
       transform="matrix(0.14265964,0,0,0.14265964,140.28188,49.651019)"
       style="display:inline">
      <g
         style="opacity:1;stop-opacity:1"
         id="g3181">
        <path
           d="m 347.423,178.903 h -66.212 v 66.533 h 66.212 z"
           fill="#F9D6AE"
           id="path3177"
           inkscape:connector-curvature="0"
           style="fill:#000000;fill-opacity:1" />
        <path
           d="m 347.423,178.903 h -66.212 v 66.533 h 66.212 z"
           fill-opacity="0"
           stroke="#1A1919"
           stroke-width="5.374"
           stroke-linecap="round"
           stroke-linejoin="round"
           id="path3179"
           inkscape:connector-curvature="0"
           style="stroke:#000000;stroke-opacity:1" />
      </g>
      <path
         style="opacity:1;stop-opacity:1;fill:#000000;fill-opacity:1"
         d="m 391.446,145.19 c -4.81,9.986 -14.016,15.524 -20.528,12.377 -6.534,-3.152 -7.916,-13.794 -3.103,-23.778 4.811,-9.986 14.008,-15.524 20.535,-12.373 6.524,3.143 7.913,13.792 3.096,23.774"
         fill="#F9DAB8"
         id="path3185"
         inkscape:connector-curvature="0" />
      <path
         style="opacity:1;stop-opacity:1;stroke:#000000;stroke-opacity:1"
         d="m 391.446,145.19 c -4.81,9.986 -14.016,15.524 -20.528,12.377 -6.534,-3.152 -7.916,-13.794 -3.103,-23.778 4.811,-9.986 14.008,-15.524 20.535,-12.373 6.524,3.143 7.913,13.792 3.096,23.774 z"
         fill-opacity="0"
         stroke="#1A1919"
         stroke-width="5.374"
         stroke-linecap="round"
         stroke-linejoin="round"
         id="path3187"
         inkscape:connector-curvature="0" />
      <path
         style="opacity:1;stop-opacity:1"
         d="m 241.682,134.596 c 3.372,10.559 11.678,17.338 18.597,15.14 6.899,-2.195 9.776,-12.532 6.414,-23.1 -3.367,-10.563 -11.686,-17.342 -18.599,-15.138 -6.894,2.189 -9.769,12.535 -6.412,23.098"
         fill="#F9DAB8"
         id="path3189"
         inkscape:connector-curvature="0" />
      <path
         style="opacity:1;stop-opacity:1;fill:#000000;fill-opacity:1;stroke:#000000;stroke-opacity:1"
         d="m 241.682,134.596 c 3.372,10.559 11.678,17.338 18.597,15.14 6.899,-2.195 9.776,-12.532 6.414,-23.1 -3.367,-10.563 -11.686,-17.342 -18.599,-15.138 -6.894,2.189 -9.769,12.535 -6.412,23.098 z"
         fill-opacity="0"
         stroke="#1A1919"
         stroke-width="5.374"
         stroke-linecap="round"
         stroke-linejoin="round"
         id="path3191"
         inkscape:connector-curvature="0" />
      <path
         style="opacity:1;stop-opacity:1;fill:#000000;fill-opacity:1"
         d="m 375.136,129.558 c -2.856,40.413 -31.642,71.296 -64.293,68.986 -32.668,-2.307 -56.823,-36.941 -53.967,-77.345 2.862,-40.4 31.649,-71.283 64.31,-68.976 32.661,2.311 56.806,36.944 53.95,77.335"
         fill="#F9D6AE"
         id="path3197"
         inkscape:connector-curvature="0" />
      <path
         style="opacity:1;stop-opacity:1;stroke:#000000;stroke-opacity:1"
         d="m 375.136,129.558 c -2.856,40.413 -31.642,71.296 -64.293,68.986 -32.668,-2.307 -56.823,-36.941 -53.967,-77.345 2.862,-40.4 31.649,-71.283 64.31,-68.976 32.661,2.311 56.806,36.944 53.95,77.335 z"
         fill-opacity="0"
         stroke="#1A1919"
         stroke-width="5.374"
         stroke-linecap="round"
         stroke-linejoin="round"
         id="path3199"
         inkscape:connector-curvature="0" />
      <path
         style="opacity:1;stop-opacity:1;fill:#fdfcfb;fill-opacity:1"
         d="m 250.605,117.01 c -0.28,-0.321 -0.555,-0.598 -0.818,-0.823 -0.777,-0.605 -2.773,-0.706 -2.942,-0.862 -1.951,-1.825 -2.75,-1.739 -3.882,-4.933 -1.731,-4.933 -0.848,-11.335 -0.712,-16.481 0.159,-5.992 -2.146,-11.746 -1.879,-17.543 0.319,-7.174 5.821,-14.053 10.081,-19.377 -0.913,-0.199 -5.258,-0.911 -5.928,0.039 6.358,-9.148 11.471,-19.544 19.787,-27.159 8.043,-7.381 16.806,-5.996 26.577,-9.037 -3.975,-1.824 -8.095,-3.421 -11.865,-5.642 8.518,-2.065 17.311,-1.628 25.974,-3.028 6.322,-1.016 12.851,-0.422 19.077,0.922 1.077,0.234 15.175,3.844 15.261,4.284 -0.723,-3.955 -3.427,-7.86 -3.27,-11.867 9.59,-0.529 18.359,6.308 24.18,13.305 2.314,2.775 2.708,6.923 4.617,9.254 2.9,3.58 7.044,1.481 11.991,1.768 5.414,0.311 7.927,1.938 12.824,3.422 -1.013,-0.311 -8.26,3.197 -9.177,4.06 5.571,10.15 12.542,17.244 11.947,30.064 -1.265,-0.621 -3.806,-0.767 -5.08,-1.445 2.059,9.29 3.733,17.454 2.821,27.027 -1.013,-0.659 -3.508,-1.077 -4.56,-2.028 -0.681,6.939 -0.564,13.937 -0.994,20.785 -0.459,7.39 -5.084,11.471 -7.199,18.109 -1.24,3.851 -0.175,8.327 -1.47,12.278 0.948,-12.059 0.155,-21.42 -4.286,-31.897 -4.75,-11.197 -6.891,-25.859 -13.254,-36.759 -2.084,0.802 -5.218,12.701 -6.369,14.877 -1.037,-2.916 -0.401,-15.688 -1.729,-18.421 -9.301,18.785 -29.089,36.755 -50.318,40.59 3.42,-4.868 5.311,-11.118 8.013,-15.438 -5.445,3.045 -13.156,9.805 -20.22,8.612 1.212,-5.046 4.394,-9.748 5.721,-14.893 -5.578,1.367 -9.986,8.818 -14.889,11.101 -4.353,2.034 -10.032,6.016 -14.124,7.78 0.029,-2.122 0.292,-10.499 0.54,-12.628 -0.49,4.091 -6.973,7.536 -8.251,11.693 -1.643,5.33 -0.038,11.256 -2.727,16.577 -0.597,-1.735 -2.032,-4.607 -3.468,-6.286"
         fill="#523E21"
         id="path3207"
         inkscape:connector-curvature="0" />
      <path
         style="opacity:1;stop-opacity:1;fill:#010101;fill-opacity:1;stroke:#ffffff;stroke-opacity:1"
         inkscape:connector-curvature="0"
         id="path3211"
         stroke-linejoin="round"
         stroke-linecap="round"
         stroke-width="5.374"
         stroke="#1A1919"
         fill-opacity="0"
         d="m 250.605,117.01 c -0.28,-0.321 -0.555,-0.598 -0.818,-0.823 -0.777,-0.605 -2.773,-0.706 -2.942,-0.862 -1.951,-1.825 -2.75,-1.739 -3.882,-4.933 -1.731,-4.933 -0.848,-11.335 -0.712,-16.481 0.159,-5.992 -2.146,-11.746 -1.879,-17.543 0.319,-7.174 5.821,-14.053 10.081,-19.377 -0.913,-0.199 -5.258,-0.911 -5.928,0.039 6.358,-9.148 11.471,-19.544 19.787,-27.159 8.043,-7.381 16.806,-5.996 26.577,-9.037 -3.975,-1.824 -8.095,-3.421 -11.865,-5.642 8.518,-2.065 17.311,-1.628 25.974,-3.028 6.322,-1.016 12.851,-0.422 19.077,0.922 1.077,0.234 15.175,3.844 15.261,4.284 -0.723,-3.955 -3.427,-7.86 -3.27,-11.867 9.59,-0.529 18.359,6.308 24.18,13.305 2.314,2.775 2.708,6.923 4.617,9.254 2.9,3.58 7.044,1.481 11.991,1.768 5.414,0.311 7.927,1.938 12.824,3.422 -1.013,-0.311 -8.26,3.197 -9.177,4.06 5.571,10.15 12.542,17.244 11.947,30.064 -1.265,-0.621 -3.806,-0.767 -5.08,-1.445 2.059,9.29 3.733,17.454 2.821,27.027 -1.013,-0.659 -3.508,-1.077 -4.56,-2.028 -0.681,6.939 -0.564,13.937 -0.994,20.785 -0.459,7.39 -5.084,11.471 -7.199,18.109 -1.24,3.851 -0.175,8.327 -1.47,12.278 0.948,-12.059 0.155,-21.42 -4.286,-31.897 -4.75,-11.197 -6.891,-25.859 -13.254,-36.759 -2.084,0.802 -5.218,12.701 -6.369,14.877 -1.037,-2.916 -0.401,-15.688 -1.729,-18.421 -9.301,18.785 -29.089,36.755 -50.318,40.59 3.42,-4.868 5.311,-11.118 8.013,-15.438 -5.445,3.045 -13.156,9.805 -20.22,8.612 1.212,-5.046 4.394,-9.748 5.721,-14.893 -5.578,1.367 -9.986,8.818 -14.889,11.101 -4.353,2.034 -10.032,6.016 -14.124,7.78 0.029,-2.122 0.292,-10.499 0.54,-12.628 -0.49,4.091 -6.973,7.536 -8.251,11.693 -1.643,5.33 -0.038,11.256 -2.727,16.577 -0.597,-1.735 -2.032,-4.607 -3.468,-6.286 z" />
      <g
         style="opacity:1;stop-opacity:1"
         id="g3273">
        <path
           inkscape:connector-curvature="0"
           id="path3221"
           fill="#F9D6AE"
           d="m 418.566,413.052 -4.266,51.891 h 37.387 l 2.651,-63.013 z" />
        <path
           inkscape:connector-curvature="0"
           id="path3223"
           stroke-linejoin="round"
           stroke-linecap="round"
           stroke-width="5.621"
           stroke="#1A1919"
           fill-opacity="0"
           d="m 418.566,413.052 -4.266,51.891 h 37.387 l 2.651,-63.013 z"
           style="stroke:#000000;stroke-opacity:1;fill:#000000;fill-opacity:1" />
        <g
           id="g3231">
          <path
             inkscape:connector-curvature="0"
             id="path3227"
             fill="#FFFFFE"
             d="M 346.832,365.71241 H 283.63 l 0,-124.17241 h 63.202 z"
             sodipodi:nodetypes="ccccc"
             style="fill:#000000;fill-opacity:1" />
        </g>
        <path
           inkscape:connector-curvature="0"
           id="path3233"
           fill="#636463"
           d="m 295.882,255.24 11.373,15.726 16.394,-0.334 10.035,-16.728 -9.905,-13.971 h -14.415 z"
           style="fill:#000000;fill-opacity:1" />
        <path
           inkscape:connector-curvature="0"
           id="path3243"
           stroke-linejoin="round"
           stroke-linecap="round"
           stroke-width="5.621"
           stroke="#1A1919"
           fill-opacity="0"
           d="m 348.621,203.694 -31.187,34.467 36.737,37.389 7.404,-65.54 -13.674,-13.753 z"
           style="stroke:#010101;stroke-opacity:1;fill:#000000;fill-opacity:1" />
        <path
           inkscape:connector-curvature="0"
           id="path3245"
           fill="#598EB3"
           d="m 314.16,464.943 h 104.269 l 2.017,-43.734 41.566,-13.841 -5.437,-148.257 -7.996,-8.798 -93.402,-42.859 -40.729,155.888 z" />
        <path
           inkscape:connector-curvature="0"
           id="path3247"
           stroke-linejoin="round"
           stroke-linecap="round"
           stroke-width="5.621"
           stroke="#1A1919"
           fill-opacity="0"
           d="m 425.868,294.136 -7.116,147.216 M 314.16,464.943 h 102.897 l 3.389,-43.734 41.566,-13.841 -5.437,-148.257 -7.995,-8.798 -92.123,-44.141 -42.009,157.17 z m 1.29,-106.088 c 8.782,-24.84 39.85,-85.932 71.075,-67.598 l -9.635,-74.506"
           style="stroke:#000000;stroke-opacity:1;fill:#000000;fill-opacity:1" />
        <path
           inkscape:connector-curvature="0"
           id="path3251"
           stroke-linejoin="round"
           stroke-linecap="round"
           stroke-width="5.621"
           stroke="#1A1919"
           fill-opacity="0"
           d="m 281.69,204.414 28.63,33.747 -36.735,37.389 -7.406,-65.54 13.112,-12.073 z"
           style="stroke:#080808;stroke-opacity:1;fill:#000000;fill-opacity:1" />
        <g
           id="g3257" />
      </g>
      <path
         style="opacity:1;stop-opacity:1"
         inkscape:connector-curvature="0"
         id="path3275"
         stroke-linejoin="round"
         stroke-linecap="round"
         stroke-width="5.374"
         stroke="#1A1919"
         fill-opacity="0"
         d="M 34.352,465.263 H 502.629" />
      <g
         style="opacity:1;stop-opacity:1"
         id="g3301">
        <path
           inkscape:connector-curvature="0"
           id="path3277"
           fill="#F9D6AE"
           d="m 209.832,413.052 4.266,51.891 h -37.387 l -2.253,-63.013 z" />
        <path
           inkscape:connector-curvature="0"
           id="path3279"
           stroke-linejoin="round"
           stroke-linecap="round"
           stroke-width="5.374"
           stroke="#1A1919"
           fill-opacity="0"
           d="m 209.832,413.052 4.266,51.891 h -37.387 l -2.253,-63.013 z" />
        <path
           inkscape:connector-curvature="0"
           id="path3281"
           fill="#598EB3"
           d="M 314.235,464.943 H 209.966 l -2.015,-43.734 -41.567,-13.841 5.437,-148.257 7.995,-8.798 93.402,-42.859 40.731,155.888 z"
           style="stroke:#1b1b1b;stroke-opacity:1;fill:#000000;fill-opacity:1" />
        <path
           inkscape:connector-curvature="0"
           id="path3283"
           stroke-linejoin="round"
           stroke-linecap="round"
           stroke-width="5.621"
           stroke="#1A1919"
           fill-opacity="0"
           d="m 202.527,294.136 c 0,0 7.197,146.167 7.358,147.297 m 104.35,23.51 H 211.34 l -3.389,-43.734 -41.567,-13.841 5.437,-148.257 7.995,-8.798 92.122,-44.141 42.011,157.17 z m -1.288,-106.088 c -8.784,-24.84 -39.85,-85.932 -71.077,-67.598 l 9.636,-74.506"
           style="stroke:#000000;stroke-opacity:1;fill:#000000;fill-opacity:1" />
        <path
           inkscape:connector-curvature="0"
           id="path3285"
           fill="#F3B882"
           d="m 178.055,414.324 27.348,9.116 0.719,13.194 z" />
        <g
           id="g3291">
          <path
             inkscape:connector-curvature="0"
             id="path3287"
             fill="#F5F0D1"
             d="M 100.713,436.032 H 81.669 V 321.294 h 19.044 z" />
          <path
             inkscape:connector-curvature="0"
             id="path3289"
             stroke-linejoin="round"
             stroke-linecap="round"
             stroke-width="5.374"
             stroke="#1A1919"
             fill-opacity="0"
             d="M 100.713,436.032 H 81.669 V 321.294 h 19.044 z" />
        </g>
        <g
           id="g3297">
          <path
             inkscape:connector-curvature="0"
             id="path3293"
             fill="#F5F0D1"
             d="m 24.399,231.436 h 129.747 v 91.238 H 24.399 Z" />
          <path
             inkscape:connector-curvature="0"
             id="path3295"
             stroke-linejoin="round"
             stroke-linecap="round"
             stroke-width="5.374"
             stroke="#1A1919"
             fill-opacity="0"
             d="m 24.399,231.436 h 129.747 v 91.238 H 24.399 Z" />
        </g>
        <path
           inkscape:connector-curvature="0"
           id="path3299"
           fill="#F5F0D1"
           d="m 2.687,340.647 h 217.827 v 154.83 H 2.687 Z" />
      </g>
      <path
         style="opacity:1;stop-opacity:1"
         inkscape:connector-curvature="0"
         id="path3303"
         stroke-linejoin="round"
         stroke-linecap="round"
         stroke-width="5.374"
         stroke="#1A1919"
         fill-opacity="0"
         d="m 2.687,340.647 h 217.827 v 154.83 H 2.687 Z" />
      <path
         style="opacity:1;stop-opacity:1;fill:#ffffff;fill-opacity:1"
         inkscape:connector-curvature="0"
         id="path3305"
         fill="#A3C3CE"
         d="M 34.076,239.731 H 144.47 v 74.648 H 34.076 Z" />
      <path
         style="opacity:1;stop-opacity:1"
         inkscape:connector-curvature="0"
         id="path3307"
         stroke-linejoin="round"
         stroke-linecap="round"
         stroke-width="5.374"
         stroke="#1A1919"
         fill-opacity="0"
         d="M 217.746,362.08 H 2.686 M 34.075,239.73 h 110.394 v 74.648 H 34.075 Z" />
      <path
         style="opacity:1;stop-opacity:1;fill:#ededed;fill-opacity:1"
         d="m 147.234,237.656 h -54.7 l -0.893,2.082 -54.801,49.323 v 23.247 h 45.727 l 64.667,-60.193 z"
         fill="#E2F3F8"
         id="path3309"
         inkscape:connector-curvature="0" />
      <path
         style="opacity:1;stop-opacity:1"
         d="M 34.076,239.731 H 144.47 v 74.648 H 34.076 Z"
         fill-opacity="0"
         stroke="#1A1919"
         stroke-width="5.374"
         stroke-linecap="round"
         stroke-linejoin="round"
         id="path3311"
         inkscape:connector-curvature="0" />
    </g>
    <rect
       style="display:inline;fill:#fcfcfc;fill-rule:evenodd;stroke:#000000;stroke-width:1.05833335;stroke-linecap:square;stroke-linejoin:round;stroke-miterlimit:4;stroke-dasharray:none;paint-order:stroke fill markers;fill-opacity:1"
       id="rect5025"
       width="180.29465"
       height="54.428585"
       x="122.43189"
       y="115.17469" />
  </g>
</svg>
