<?xml version="1.0" encoding="UTF-8" standalone="no"?>
<svg
   xmlns:dc="http://purl.org/dc/elements/1.1/"
   xmlns:cc="http://creativecommons.org/ns#"
   xmlns:rdf="http://www.w3.org/1999/02/22-rdf-syntax-ns#"
   xmlns:svg="http://www.w3.org/2000/svg"
   xmlns="http://www.w3.org/2000/svg"
   xmlns:sodipodi="http://sodipodi.sourceforge.net/DTD/sodipodi-0.dtd"
   xmlns:inkscape="http://www.inkscape.org/namespaces/inkscape"
   inkscape:export-ydpi="120"
   inkscape:export-xdpi="120"
   inkscape:export-filename="/home/osa413/Изображения/pc_back/ppcc.png"
   width="1280"
   height="720"
   viewBox="0 0 338.66666 190.50001"
   version="1.1"
   id="svg8"
   inkscape:version="1.0 (6e3e5246a0, 2020-05-07)"
   sodipodi:docname="usb0.svg">
  <defs
     id="defs2" />
  <sodipodi:namedview
     units="px"
     id="base"
     pagecolor="#ffffff"
     bordercolor="#666666"
     borderopacity="1.0"
     inkscape:pageopacity="0.0"
     inkscape:pageshadow="2"
     inkscape:zoom="0.4"
     inkscape:cx="646.99225"
     inkscape:cy="396.78379"
     inkscape:document-units="mm"
     inkscape:current-layer="layer9"
     inkscape:document-rotation="0"
     showgrid="false"
     inkscape:window-width="1294"
     inkscape:window-height="704"
     inkscape:window-x="72"
     inkscape:window-y="27"
     inkscape:window-maximized="1" />
  <metadata
     id="metadata5">
    <rdf:RDF>
      <cc:Work
         rdf:about="">
        <dc:format>image/svg+xml</dc:format>
        <dc:type
           rdf:resource="http://purl.org/dc/dcmitype/StillImage" />
        <dc:title></dc:title>
      </cc:Work>
    </rdf:RDF>
  </metadata>
  <g
     style="display:inline"
     inkscape:label="Wires"
     id="layer8"
     inkscape:groupmode="layer">
    <g
       style="display:inline"
       inkscape:label="USB0"
       id="layer9"
       inkscape:groupmode="layer">
      <g
         transform="matrix(0.64210422,0,0,0.64210422,204.08336,5.3014736)"
         id="g2365">
        <rect
           style="fill:#4e4e4e;fill-opacity:1;fill-rule:evenodd;stroke:#282828;stroke-width:1.058;stroke-linejoin:round;stroke-opacity:1;paint-order:stroke fill markers"
           id="rect2359"
           width="5.6070099"
           height="9.6286316"
           x="56.179111"
           y="88.35965"
           rx="0.13470493"
           ry="0.26940933" />
        <rect
           ry="0.22869545"
           rx="0.098644316"
           y="89.087204"
           x="56.929611"
           height="8.1735268"
           width="4.106009"
           id="rect2361"
           style="fill:#4e4e4e;fill-opacity:1;fill-rule:evenodd;stroke:#282828;stroke-width:0.834166;stroke-linejoin:round;stroke-opacity:1;paint-order:stroke fill markers" />
      </g>
      <path
         inkscape:connector-curvature="0"
         id="path2418"
         d="m 241.70475,64.003906 c 0,0 -2.52977,-0.09421 -5.60547,0.121094 -3.07569,0.215307 -6.68664,0.675191 -9.15429,2.0625 -6.01484,3.381529 -9.65218,9.862354 -12.52344,15.748047 -5.5974,11.473922 -6.8042,24.481743 -8.96094,36.744143 -1.95332,11.10583 -3.05567,22.35506 -3.69726,33.58789 -0.69393,12.14888 0.41437,24.2501 -0.16211,36.20117 -0.38603,8.00276 -1.28868,15.99745 -2.21289,24 -1.17901,10.20878 -4.25782,30.64453 -4.25782,30.64453 a 1.0583349,1.0583349 0 0 0 0.88867,1.20508 1.0583349,1.0583349 0 0 0 1.20313,-0.88867 c 0,0 3.07737,-20.41297 4.26758,-30.71875 0.92461,-8.00601 1.8342,-16.04714 2.22461,-24.14063 0.58599,-12.14833 -0.51984,-24.24236 0.16211,-36.18164 0.63831,-11.17527 1.7353,-22.3423 3.66992,-33.34179 2.17699,-12.37753 3.40562,-25.172292 8.77734,-36.183599 2.82651,-5.793961 6.34516,-11.843093 11.65821,-14.830078 1.82096,-1.023743 5.31254,-1.590152 8.26562,-1.796875 2.95308,-0.206723 5.37891,-0.117187 5.37891,-0.117187 a 1.0583349,1.0583349 0 0 0 1.09765,-1.019532 1.0583349,1.0583349 0 0 0 -1.01953,-1.095703 z"
         style="color:#000000;font-style:normal;font-variant:normal;font-weight:normal;font-stretch:normal;font-size:medium;line-height:normal;font-family:sans-serif;font-variant-ligatures:normal;font-variant-position:normal;font-variant-caps:normal;font-variant-numeric:normal;font-variant-alternates:normal;font-variant-east-asian:normal;font-feature-settings:normal;font-variation-settings:normal;text-indent:0;text-align:start;text-decoration:none;text-decoration-line:none;text-decoration-style:solid;text-decoration-color:#000000;letter-spacing:normal;word-spacing:normal;text-transform:none;writing-mode:lr-tb;direction:ltr;text-orientation:mixed;dominant-baseline:auto;baseline-shift:baseline;text-anchor:start;white-space:normal;shape-padding:0;shape-margin:0;inline-size:0;clip-rule:nonzero;display:inline;overflow:visible;visibility:visible;opacity:1;isolation:auto;mix-blend-mode:normal;color-interpolation:sRGB;color-interpolation-filters:linearRGB;solid-color:#000000;solid-opacity:1;vector-effect:none;fill:#4e4e4e;fill-opacity:1;fill-rule:evenodd;stroke:#363636;stroke-width:0.529167;stroke-linecap:round;stroke-linejoin:miter;stroke-miterlimit:4;stroke-dasharray:none;stroke-dashoffset:0;stroke-opacity:1;paint-order:stroke fill markers;color-rendering:auto;image-rendering:auto;shape-rendering:auto;text-rendering:auto;enable-background:accumulate;stop-color:#000000;stop-opacity:1" />
    </g>
  </g>
</svg>
