<?xml version="1.0" encoding="UTF-8" standalone="no"?>
<svg
   xmlns:dc="http://purl.org/dc/elements/1.1/"
   xmlns:cc="http://creativecommons.org/ns#"
   xmlns:rdf="http://www.w3.org/1999/02/22-rdf-syntax-ns#"
   xmlns:svg="http://www.w3.org/2000/svg"
   xmlns="http://www.w3.org/2000/svg"
   xmlns:sodipodi="http://sodipodi.sourceforge.net/DTD/sodipodi-0.dtd"
   xmlns:inkscape="http://www.inkscape.org/namespaces/inkscape"
   width="1280"
   height="720"
   viewBox="0 0 338.66666 190.50001"
   version="1.1"
   id="svg8"
   sodipodi:docname="logo.svg"
   inkscape:version="1.0 (6e3e5246a0, 2020-05-07)">
  <defs
     id="defs2" />
  <sodipodi:namedview
     id="base"
     pagecolor="#ffffff"
     bordercolor="#666666"
     borderopacity="1.0"
     inkscape:pageopacity="0.0"
     inkscape:pageshadow="2"
     inkscape:zoom="0.70710678"
     inkscape:cx="378.96647"
     inkscape:cy="418.07893"
     inkscape:document-units="mm"
     inkscape:current-layer="layer1"
     inkscape:document-rotation="0"
     showgrid="false"
     units="px"
     inkscape:window-width="1294"
     inkscape:window-height="704"
     inkscape:window-x="72"
     inkscape:window-y="27"
     inkscape:window-maximized="1" />
  <metadata
     id="metadata5">
    <rdf:RDF>
      <cc:Work
         rdf:about="">
        <dc:format>image/svg+xml</dc:format>
        <dc:type
           rdf:resource="http://purl.org/dc/dcmitype/StillImage" />
        <dc:title />
      </cc:Work>
    </rdf:RDF>
  </metadata>
  <g
     inkscape:label="Слой 1"
     inkscape:groupmode="layer"
     id="layer1">
    <g
       id="g1166"
       transform="matrix(2.7741587,0,0,2.7741587,-382.42867,-207.2973)"
       style="fill:#ffffff;fill-opacity:1;stroke:#000000;stroke-width:0.762994;stroke-linejoin:round;stroke-miterlimit:4;stroke-dasharray:none;stroke-opacity:1;paint-order:markers stroke fill">
      <g
         transform="translate(-0.46033919)"
         id="g1139"
         style="fill:#ffffff;fill-opacity:1;stroke:#000000;stroke-width:0.762994;stroke-linejoin:round;stroke-miterlimit:4;stroke-dasharray:none;stroke-opacity:1;paint-order:markers stroke fill">
        <path
           id="path138"
           style="fill:#ffffff;fill-opacity:1;stroke:#000000;stroke-width:0.762994;stroke-linejoin:round;stroke-miterlimit:4;stroke-dasharray:none;stroke-opacity:1;paint-order:markers stroke fill"
           d="m 175.35282,97.144816 c 0.15105,-0.573574 -0.40264,-0.806451 -0.79408,-1.052546 -0.37796,-0.189863 -0.62439,-0.621591 -1.02752,-0.728507 -0.47512,-0.08427 -0.68477,0.391237 -0.60664,0.79204 0.051,0.574426 0.0403,1.224311 0.48899,1.657089 0.55965,0.61517 1.35595,0.963188 2.13968,1.189024 0.45757,-0.06136 0.80231,-0.421296 1.1903,-0.64386 0.69329,-0.482341 1.4495,-0.943349 1.92745,-1.65793 0.37905,-0.854863 0.51943,-1.794196 0.82697,-2.675809 0.26388,-0.744918 0.2719,-1.545275 0.45407,-2.309458 -0.0173,-0.270198 0.11629,-0.530582 0.44765,-0.423576 -0.61122,-0.352953 -1.22332,-0.704378 -1.83364,-1.058889 0.32195,0.184316 0.6199,0.480493 0.96336,0.685732 0.37329,0.220372 0.74575,0.534201 1.19486,0.547315 0.31433,-0.157301 -0.24318,-0.740452 -0.21026,-0.36641 0.31104,-0.445368 -0.58795,-0.546747 -0.83358,-0.825751 -0.39934,-0.219073 -0.76367,-0.639199 -1.25623,-0.581441 -0.48877,0.272326 -0.52255,0.904866 -0.66564,1.390682 -0.16881,0.596992 -0.18801,1.232083 -0.39261,1.816758 -0.23036,0.374155 -0.71818,0.476274 -1.11776,0.344734 -0.23102,-0.01339 -0.84339,-0.330546 -0.79889,-0.299711 0.7067,0.411796 1.41307,0.824146 2.12012,1.235321 -0.38441,-0.234719 -0.84508,-0.415759 -1.03335,-0.862131 -0.36192,-0.691093 -0.66774,-1.461493 -0.56227,-2.256827 0.013,-0.248037 0.0622,-0.692596 0.40894,-0.638882 -0.62039,-0.348183 -1.24153,-0.695015 -1.86115,-1.044559 -0.004,0.269876 0.2934,0.480758 0.63102,0.539651 0.56582,0.28461 1.13182,0.569046 1.69754,0.853763 v 5e-6 c 0.0302,-0.435607 -0.34226,-0.692296 -0.7018,-0.833406 -0.51415,-0.273755 -1.02912,-0.54597 -1.54347,-0.819336 -0.52072,0.136291 -0.59777,0.763222 -0.60555,1.214388 -0.0533,0.830454 0.27394,1.63453 0.67747,2.342976 0.37554,0.563664 1.01246,0.87869 1.58303,1.209479 0.66983,0.313111 1.34789,0.742657 2.11417,0.709803 0.53809,-0.06506 1.0006,-0.518225 1.05286,-1.063333 0.14724,-0.783567 0.26441,-1.581658 0.53811,-2.332982 0.0486,-0.285216 0.20165,-0.08609 0.43889,-0.06453 -0.66564,-0.308313 -1.29495,-0.696626 -1.91209,-1.092912 -0.0988,-0.07098 0.24044,0.06421 0.20193,-0.185493 -0.17738,0.03165 0.0135,0.61113 0.3417,0.595676 0.62563,0.268281 1.20423,0.639174 1.83423,0.893917 -0.16038,-0.340896 -0.67138,-0.663765 -1.00445,-0.944637 -0.43036,-0.300484 -0.97638,-0.579876 -1.5123,-0.43808 -0.41408,0.24181 -0.30815,0.798736 -0.43714,1.195072 -0.13474,0.690254 -0.16788,1.40327 -0.43348,2.06343 -0.25299,0.788201 -0.4032,1.611205 -0.71742,2.378421 -0.53115,0.734973 -1.34467,1.194878 -2.07818,1.703243 -1.22165,1.215757 0.36793,1.482811 0.21066,-0.152204 -0.0488,-0.245527 0.0246,-0.762271 0.18151,-0.24668 z"
           sodipodi:nodetypes="cccccccccccccccccccccccccccsscccccccccccccccccccccc" />
        <path
           id="path136"
           style="fill:#ffffff;fill-opacity:1;fill-rule:nonzero;stroke:#000000;stroke-width:0.762994;stroke-linejoin:round;stroke-miterlimit:4;stroke-dasharray:none;stroke-opacity:1;paint-order:markers stroke fill"
           d="m 170.65962,84.605652 c 0.48482,-0.02275 1.44127,-0.434181 0.89582,-1.011781 -0.63577,-0.736816 -1.6146,-1.05833 -2.53844,-1.247941 -0.95456,0.04481 -1.85579,0.438271 -2.68953,0.881569 -0.52535,0.295175 -0.88238,0.817395 -1.17504,1.328472 -0.20368,0.464162 -0.25254,1.088039 0.16057,1.458352 0.53378,0.547143 1.20626,0.945652 1.87214,1.313586 0.6694,0.366723 1.42129,0.5081 2.1682,0.614336 0.8021,0.152652 1.55232,0.500649 2.28645,0.846021 0.23092,0.127606 0.84777,0.465114 0.27171,0.139484 -0.61502,-0.349356 -1.2308,-0.697375 -1.84638,-1.045743 0.65218,0.409971 1.25652,1.078923 1.18607,1.902197 -0.037,0.573428 -0.51405,1.000625 -0.93616,1.33608 -0.83435,0.595694 -1.89028,0.648391 -2.83373,0.979209 -0.90427,0.220349 -1.83371,0.456481 -2.77135,0.387987 -0.20218,-0.02883 -0.87326,-0.4243 -0.35811,-0.133404 0.70661,0.408445 1.41859,0.80829 2.1138,1.235968 -0.10884,-0.56475 -1.01018,-0.494344 -0.57704,-1.019951 0.23671,-0.396063 0.71564,-0.344261 1.08857,-0.259066 0.18434,0.0096 0.36867,0.01914 0.553,0.02871 -0.5459,-0.266917 -1.04795,-0.606645 -1.5198,-0.988798 -0.46151,-0.373119 -1.13488,-0.583918 -1.67247,-0.233468 -0.44617,0.240592 -0.89194,1.193621 -0.26912,1.462424 0.76673,0.466917 1.51263,1.057607 2.41759,1.213627 1.2798,0.01982 2.51589,-0.373863 3.73855,-0.705229 0.97417,-0.190862 1.97023,-0.592174 2.58085,-1.413015 0.64039,-0.692005 0.50637,-1.861961 -0.1409,-2.502732 -0.87675,-0.897115 -2.04386,-1.43055 -3.16766,-1.947723 -0.7601,-0.342447 -1.55813,-0.594482 -2.38878,-0.691151 -0.30117,-0.01553 -0.91891,-0.243645 -0.98231,-0.288891 0.5855,0.338894 1.17136,0.677171 1.75703,1.015775 -0.45934,-0.269786 -1.05555,-0.70439 -0.90221,-1.314372 0.0997,-0.515803 0.49193,-0.91513 0.8382,-1.283368 0.71128,-0.48689 1.53645,-0.799466 2.37661,-0.981481 0.42745,-0.163803 1.09266,0.379952 1.35334,0.324621 -0.67816,-0.399307 -1.35432,-0.801999 -2.03243,-1.2014 0.72733,0.328019 -0.58016,0.483922 -0.61069,0.565404 0.58447,0.411867 1.16957,0.82398 1.75365,1.235692 z"
           sodipodi:nodetypes="cccccccccccccccccccccccccccccccccccccc" />
        <path
           id="path146"
           style="fill:#ffffff;fill-opacity:1;stroke:#000000;stroke-width:0.762994;stroke-linejoin:round;stroke-miterlimit:4;stroke-dasharray:none;stroke-opacity:1;paint-order:markers stroke fill"
           d="m 184.35389,92.416873 c -1.94553,-0.955656 -3.42439,-1.314911 -0.29258,0.03664 l 0.29258,-0.03664 c 0.1657,-0.284409 0.017,-0.534794 -0.30979,-0.523115 -0.55667,-0.136165 -1.08001,-0.380261 -1.58069,-0.654831 -0.3234,0.153272 -0.79376,0.318334 -0.80498,0.749611 -0.0383,0.343027 0.1539,0.638454 0.4237,0.831981 0.42097,0.236468 0.87614,0.416129 1.2911,0.668176 0.27895,0.162371 0.56128,0.347298 0.89919,0.332802 1.0678,0.05283 2.13948,-0.273919 3.03978,-0.837572 0.45235,-0.420429 0.75226,-1.079593 0.56218,-1.697175 -0.14531,-0.705523 -0.6831,-1.254548 -1.25185,-1.656892 -0.54603,-0.326869 -1.1264,-0.596628 -1.70548,-0.858399 -3.34158,-1.196777 -1.94869,-0.702607 0.14661,0.517623 -0.18398,-0.182493 -0.75872,-0.721416 -0.87166,-1.214835 0.1563,-0.425279 0.54226,-0.722552 0.90892,-0.966742 0.53585,-0.330784 1.18648,-0.611051 1.81904,-0.396224 0.19532,0.0646 0.24079,0.104801 0.0402,-0.01321 -0.61453,-0.360955 -1.24895,-0.687596 -1.87347,-1.029338 -0.0473,0.263736 0.72081,0.501086 0.31478,0.781446 -0.12668,0.105446 0.18361,0.170545 0.26165,0.25709 0.51598,0.321468 1.0333,0.643289 1.54845,0.964538 l 2e-5,2e-6 c 0.32345,-0.254661 0.49049,-0.78202 0.17446,-1.108714 -0.68497,-0.738501 -1.67322,-1.206482 -2.68147,-1.227974 -0.64331,0.07596 -1.23788,0.396276 -1.74487,0.787404 -0.3036,0.282591 -0.69045,0.593859 -0.71076,1.040907 0.0663,0.610429 0.43903,1.200981 0.99567,1.476574 0.71268,0.460466 1.42522,0.965825 2.26805,1.153538 0.4431,0.127166 0.88694,0.421069 1.31548,0.437222 -0.60535,-0.348315 -1.21049,-0.697014 -1.81607,-1.044934 0.56011,0.372801 0.97121,1.028614 0.94491,1.714778 -0.0668,0.467825 -0.37491,0.926704 -0.83756,1.077662 -0.81862,0.408243 -1.75423,0.645415 -2.67005,0.524621 -0.0455,-0.05543 -0.55187,-0.275799 -0.21196,-0.06971 0.65365,0.37693 1.31164,0.746577 1.96207,1.128936 -0.049,-0.353934 -0.85523,-0.592936 -0.39066,-0.869918 0.13168,-0.165598 0.66854,-0.117385 0.25248,-0.23869"
           sodipodi:nodetypes="cccccccccccccccccccccssccccccccccccccc" />
        <g
           id="g218"
           transform="translate(-30.801972,7.6887062)"
           style="fill:#ffffff;fill-opacity:1;stroke:#000000;stroke-width:0.762994;stroke-linejoin:round;stroke-miterlimit:4;stroke-dasharray:none;stroke-opacity:1;paint-order:markers stroke fill">
          <path
             id="path148"
             style="fill:#ffffff;fill-opacity:1;stroke:#000000;stroke-width:0.762994;stroke-linejoin:round;stroke-miterlimit:4;stroke-dasharray:none;stroke-opacity:1;paint-order:markers stroke fill"
             d="m 222.44712,79.20573 c -0.86382,0.02758 -1.74761,0.4909 -2.15032,1.271855 -0.23884,0.756674 -0.23022,1.570712 -0.15844,2.353815 0.0633,0.714893 0.34149,1.435907 0.91779,1.892305 0.69004,0.600805 1.53688,0.972688 2.33052,1.410811 0.72512,0.174819 1.51692,0.059 2.15845,-0.325048 0.34954,0.581083 1.04596,0.759301 1.59506,1.091398 0.35282,0.231722 0.90751,0.581933 1.19482,0.05855 0.23773,-0.224549 0.10268,-0.365956 -0.13533,-0.45217 -0.3047,-0.169886 -0.60939,-0.339775 -0.91409,-0.509664 -0.15261,-0.760474 -0.14903,-1.541632 -0.19025,-2.313377 0.0113,-0.662397 0.0637,-1.324115 0.14116,-1.981967 0.0611,0.08384 6.8e-4,-0.417661 0.12524,-0.557747 0.0916,-0.195392 0.16675,-0.678942 0.44364,-0.423905 0.13085,0.03847 0.38059,0.306576 0.35183,0.02388 0.0257,-0.368004 -0.18861,-0.761865 -0.58573,-0.796451 -0.48395,-0.171133 -0.93819,-0.414425 -1.38349,-0.66734 -0.50624,-0.04172 -0.65768,0.536519 -0.79307,0.912444 -0.23143,0.04645 -0.61874,-0.27447 -0.92252,-0.364304 -0.62845,-0.265018 -1.24079,-0.656482 -1.94985,-0.622229 l -0.0754,-8.41e-4 z m 1.7787,1.302763 c 0.42508,0.05093 1.25619,0.07885 1.00071,0.690981 -0.0954,0.892199 -0.12292,1.790869 -0.0426,2.685375 0.10672,0.359836 -0.10724,0.176588 -0.28038,0.06375 -0.27344,-0.09896 -0.53047,0.350417 -0.81133,0.43283 -0.48226,0.303881 -1.0346,0.554177 -1.61723,0.523176 -0.42012,-0.67736 -0.42681,-1.510858 -0.4163,-2.283116 0.0406,-0.402341 0.0192,-0.84985 0.23694,-1.202563 0.42577,-0.619683 1.19248,-0.935397 1.93016,-0.910434 z"
             sodipodi:nodetypes="sccccccccccccccccccccsscccccccss" />
        </g>
        <g
           id="g222"
           transform="translate(-31.729241,6.4589404)"
           style="fill:#ffffff;fill-opacity:1;stroke:#000000;stroke-width:0.762994;stroke-linejoin:round;stroke-miterlimit:4;stroke-dasharray:none;stroke-opacity:1;paint-order:markers stroke fill">
          <path
             id="path160"
             style="fill:#ffffff;fill-opacity:1;stroke:#000000;stroke-width:0.762994;stroke-linejoin:round;stroke-miterlimit:4;stroke-dasharray:none;stroke-opacity:1;paint-order:markers stroke fill"
             d="m 237.19112,75.417715 c -0.50936,0.43293 -0.48746,1.192808 -0.61074,1.80209 -0.12822,0.977265 -0.15878,1.964426 -0.13852,2.949041 -1.37965,-0.327692 -2.91778,-0.429903 -4.21208,0.248822 -1.1726,0.624697 -1.77756,2.008844 -1.63959,3.302577 0.0218,1.008904 0.52014,2.040165 1.44126,2.515293 0.98346,0.611444 2.01308,1.412719 3.24385,1.273683 0.8723,-0.03635 1.66073,-0.491046 2.31535,-1.037945 0.48922,0.515123 1.2444,0.615405 1.82469,0.999424 0.52188,-0.103486 0.61526,-0.753599 0.73967,-1.185555 0.21178,-0.325483 -0.1041,-0.411364 -0.3373,-0.534601 -0.31774,-0.170929 -0.63549,-0.341855 -0.95324,-0.512784 -0.23418,-1.213771 -0.3567,-2.448526 -0.44829,-3.680532 -0.0385,-1.462579 -0.0246,-2.945222 0.30515,-4.377375 l 1.02423,0.483177 c -0.21555,-0.689578 -0.64337,-1.375529 -1.35148,-1.635641 -0.40818,-0.188627 -0.81317,-0.385148 -1.20296,-0.609674 z m -1.07694,5.791893 c 0.69447,-0.102753 0.3334,0.894265 0.51514,1.335998 0.0699,0.581898 0.13275,1.166162 0.25329,1.740291 -0.39178,-0.307395 -0.56704,0.544706 -0.86778,0.717849 -0.73801,0.807101 -1.84617,1.340522 -2.95525,1.189522 -0.56103,-0.774967 -0.59641,-1.811052 -0.43239,-2.72129 0.24695,-1.106969 1.21871,-1.959485 2.32725,-2.138791 0.38101,-0.07955 0.76971,-0.133768 1.15974,-0.123579 z"
             sodipodi:nodetypes="ccccccccccccccccccccccccc" />
        </g>
        <path
           id="path170"
           style="fill:#ffffff;fill-opacity:1;stroke:#000000;stroke-width:0.762994;stroke-linejoin:round;stroke-miterlimit:4;stroke-dasharray:none;stroke-opacity:1;paint-order:markers stroke fill"
           d="m 211.11696,87.372156 c 0.25871,-0.718132 0.43274,-1.538597 1.03029,-2.060926 0.17059,-4.28e-4 0.40473,0.07771 0.0774,-0.138358 -0.53663,-0.295546 -1.06996,-0.597046 -1.60474,-0.895921 0.18128,0.388674 0.49241,0.999659 0.52793,1.532301 0.0671,1.464696 -0.0459,2.929414 -0.0896,4.392791 -0.0915,0.791784 -0.17326,1.588044 -0.12552,2.386046 -0.30801,0.766143 0.5374,0.722598 1.0163,0.885057 0.39697,0.0503 1.06391,0.720537 0.95812,-0.06376 0.29588,-1.600739 0.2685,-3.294916 0.96246,-4.797955 0.33991,-0.570226 0.79451,-1.151598 1.42921,-1.397782 0.23597,-0.102185 0.68551,0.323996 0.26389,0.04646 -0.51885,-0.295434 -1.03402,-0.597251 -1.55146,-0.895143 0.66041,0.448864 0.67145,1.326666 0.77424,2.039722 0.1001,1.354459 -0.21681,2.693033 -0.2519,4.042211 -0.0697,0.404051 -0.0971,0.813307 -0.13424,1.221152 0.347,-0.60448 0.72917,0.435391 1.14758,0.507241 0.31428,0.143069 1.02231,0.798339 0.76072,0.05557 0.0301,-1.069653 0.13828,-2.138789 0.27629,-3.200024 0.17675,-1.058765 0.489,-2.15657 1.18876,-2.994657 0.287,-0.41986 1.18742,-0.610509 1.40404,-0.404818 -0.57508,-0.326199 -1.14955,-0.653495 -1.72434,-0.980218 0.65159,0.354709 0.77379,1.152355 0.7366,1.82443 -0.0378,0.963026 -0.07,1.928877 -0.26363,2.876255 -0.13726,0.762696 -0.0593,1.54114 0.0207,2.303777 0.17932,0.684376 0.98322,0.787119 1.52726,1.054529 0.27348,0.310801 0.99777,0.237543 0.95135,-0.174558 l -1.85199,-1.075673 c -0.12358,0.290417 -0.57005,0.01532 -0.14104,0.245804 0.53397,0.316604 1.06873,0.631912 1.601,0.951373 -0.31235,-0.478437 -0.16853,-1.228506 -0.21064,-1.809684 0.0926,-0.882387 0.30136,-1.751816 0.2927,-2.643798 0.0327,-0.873825 0.20079,-1.883667 -0.43436,-2.598226 -0.41473,-0.373131 -0.95444,-0.581235 -1.4233,-0.882598 -0.42126,-0.204479 -0.8306,-0.620087 -1.33788,-0.433057 -0.92725,0.187416 -1.4429,1.059153 -1.77199,1.86722 -0.65488,1.549921 -0.66131,3.256287 -0.80588,4.904571 -0.19918,0.636658 0.34989,0.830918 0.7958,1.097979 0.40644,0.119475 0.76116,0.898551 1.12498,0.726229 0.1987,-0.418676 0.1057,-0.913072 0.21339,-1.360599 0.0596,-0.677582 0.0865,-1.36106 0.19148,-2.036203 0.13172,-1.25415 0.19676,-2.55789 -0.22272,-3.767889 -0.20201,-0.593916 -0.8409,-0.779304 -1.31376,-1.098971 -0.41089,-0.224299 -0.79394,-0.511669 -1.2276,-0.686615 -0.64232,-0.05274 -1.11333,0.509789 -1.50656,0.940546 -0.84077,0.980708 -0.98522,2.320629 -1.17432,3.549728 -0.0837,0.807344 -0.20816,1.61508 -0.33504,2.412909 0.644,0.361332 1.22545,0.821132 1.75797,1.329856 0.37742,-0.212627 0.21288,-0.955287 0.23929,-1.371877 0.0266,-0.932729 0.19974,-1.855418 0.17671,-2.790745 0.0578,-1.329092 0.14256,-2.668495 -0.009,-3.993947 -0.18988,-1.023586 -1.05667,-1.977179 -2.12296,-2.066439 -0.71807,-0.04603 -1.09401,0.678149 -1.34117,1.237627 -0.071,0.364753 -0.50492,0.90805 -0.29111,1.186055 0.60634,0.334255 1.21533,0.669153 1.82001,1.003007 z"
           sodipodi:nodetypes="cccccccccccccccccccccccccccccccccccccccccccccccccccccccc" />
        <g
           id="g226"
           transform="translate(-37.554386,7.1433342)"
           style="fill:#ffffff;fill-opacity:1;stroke:#000000;stroke-width:0.762994;stroke-linejoin:round;stroke-miterlimit:4;stroke-dasharray:none;stroke-opacity:1;paint-order:markers stroke fill">
          <path
             id="path172"
             style="fill:#ffffff;fill-opacity:1;stroke:#000000;stroke-width:0.762994;stroke-linejoin:round;stroke-miterlimit:4;stroke-dasharray:none;stroke-opacity:1;paint-order:markers stroke fill"
             d="m 260.95263,74.280119 c -0.43065,0.09667 -0.93068,0.516279 -1.07278,0.821222 l 0.87537,0.532193 c 0.0269,0.390869 -0.0951,0.977466 0.36282,1.15896 0.60089,0.342024 1.21325,0.663239 1.81899,0.996466 0.27497,-0.103563 0.75965,-0.457478 0.70221,-0.689515 -0.30641,-0.183401 -0.61283,-0.366802 -0.91925,-0.550204 -0.01,-0.347191 0.0184,-0.710083 0.002,-1.046448 -0.52271,-0.338386 -0.94215,-0.810921 -1.45876,-1.154401 -0.0944,-0.05098 -0.20292,-0.08046 -0.31067,-0.06827 z m -0.42323,4.169254 c -0.33015,1.656101 -0.51974,3.341653 -0.5519,5.030184 0.0476,0.827821 0.17347,1.675739 0.53534,2.428605 0.45486,0.747499 1.39512,0.871453 2.10687,1.264709 0.51131,-0.285486 0.66077,-0.91299 0.82735,-1.43247 -0.48628,-0.263549 -0.97255,-0.527101 -1.45883,-0.790649 -0.12804,-1.133145 0.0594,-2.272737 0.15484,-3.401936 0.0731,-0.693579 0.20547,-1.378429 0.3335,-2.063364 z"
             sodipodi:nodetypes="cccccccccccccccccccc" />
        </g>
        <path
           id="path178"
           style="fill:#ffffff;fill-opacity:1;stroke:#000000;stroke-width:0.762994;stroke-linejoin:round;stroke-miterlimit:4;stroke-dasharray:none;stroke-opacity:1;paint-order:markers stroke fill"
           d="m 228.3492,86.622173 c 0.37807,-0.905141 0.94673,-1.734312 1.6186,-2.446676 0.0837,-0.17604 0.59125,-0.414471 0.52874,-0.365678 -0.59506,-0.322005 -1.1821,-0.6588 -1.78193,-0.971977 0.2302,0.442546 0.0574,0.99878 0.0696,1.487122 -0.14726,1.658558 -0.29984,3.317481 -0.33479,4.983361 -0.032,1.101505 -0.0623,2.206032 -0.22809,3.297071 0.14051,0.555044 0.83485,0.667583 1.30267,0.829345 0.33779,0.07882 0.79121,0.311518 0.69039,-0.237112 0.34318,-1.86194 0.72755,-3.734786 1.42886,-5.499806 1.36063,-2.600468 3.49889,-0.501408 0.11191,-2.545909 0.0599,0.311994 0.62316,0.698612 0.65551,1.16562 0.14199,1.574542 -0.26042,3.133464 -0.22236,4.708413 0.0185,0.809281 -0.0329,1.657996 0.26902,2.423236 0.33713,0.687917 1.1809,0.775591 1.78181,1.125871 0.26674,0.330911 0.92372,-0.366682 0.63486,-0.525406 -0.59251,-0.344389 -1.18503,-0.688779 -1.77755,-1.033168 -0.0201,0.307835 -0.57973,0.296628 -0.20549,0.376335 0.55079,0.32443 1.09796,0.654952 1.64647,0.983202 -0.4237,-0.430859 -0.30089,-1.150059 -0.3774,-1.711311 -0.0526,-1.217648 0.0644,-2.431233 0.19597,-3.639833 0.0335,-0.873271 0.17997,-1.809317 -0.19396,-2.631556 -0.23766,-0.499302 -0.72589,-0.735815 -1.21081,-0.931666 -0.47792,-0.166403 -0.8883,-0.683348 -1.42922,-0.524421 -0.95384,0.284114 -1.65595,1.109494 -1.94754,2.041427 -0.65494,1.803601 -1.05038,3.692644 -1.37454,5.57889 0.50175,0.383731 0.96711,0.889049 1.54607,1.187572 0.64305,0.194869 0.42804,-0.776046 0.55061,-1.156763 0.15328,-2.049937 0.11395,-4.112422 0.34796,-6.157388 0.0786,-0.905185 0.18224,-1.815441 0.13045,-2.724181 -0.53137,-0.486923 -1.0875,-1.077915 -1.83731,-1.179092 -0.64799,0.05701 -1.02617,0.720323 -1.42244,1.164364 -0.42274,0.586023 -0.83672,1.191856 -1.1015,1.868254 0.64526,0.353431 1.2895,0.711033 1.93539,1.061861 z"
           sodipodi:nodetypes="sccccccccccccccccccccccccccccccccss" />
      </g>
      <g
         transform="translate(-7.3887592,-6.4738297)"
         id="g280"
         style="fill:#ffffff;fill-opacity:1;stroke:#000000;stroke-width:0.762994;stroke-linejoin:round;stroke-miterlimit:4;stroke-dasharray:none;stroke-opacity:1;paint-order:markers stroke fill">
        <g
           id="g246"
           transform="translate(-38.362779,9.1430385)"
           style="fill:#ffffff;fill-opacity:1;stroke:#000000;stroke-width:0.762994;stroke-linejoin:round;stroke-miterlimit:4;stroke-dasharray:none;stroke-opacity:1;paint-order:markers stroke fill">
          <path
             sodipodi:nodetypes="ccccccccccccccccccccccccccccccc"
             d="m 205.69003,96.102733 c -1.04957,0.287542 -1.72469,1.264052 -2.00981,2.266717 -0.21981,0.339381 0.29713,0.369875 0.49038,0.535414 0.46152,0.247451 0.92304,0.494903 1.38455,0.742355 0.22364,-0.927561 0.73523,-1.878748 1.68023,-2.227607 0.50965,-0.158411 1.35919,0.526495 1.14649,0.959546 -0.78574,0.706358 -1.415,1.55733 -1.95304,2.462392 -0.62647,0.96651 -1.20614,1.9648 -1.71032,3.00075 -1.10764,0.27636 -2.42584,0.42499 -3.16362,1.40417 -0.1565,0.3369 -0.68779,1.08276 -0.17115,1.27237 0.57864,0.2919 1.15727,0.5838 1.7359,0.8757 0.0255,-0.53678 0.25748,-1.08713 0.70952,-1.40044 -0.35444,1.02637 -0.40788,2.15269 -0.17518,3.21118 0.66439,0.31402 1.32877,0.62804 1.99316,0.94206 -0.40238,-1.41278 -0.0615,-2.91268 0.53227,-4.21938 0.14353,-0.7243 0.65014,-1.02422 1.36207,-1.03215 1.12994,-0.23241 2.32322,-0.29744 3.44179,0.004 0.28495,1.283 0.44992,2.59049 0.4429,3.90561 -0.054,0.31461 0.3746,0.32449 0.56891,0.48265 0.4656,0.23999 0.9312,0.47997 1.39681,0.71995 0.003,-1.19116 -0.0601,-2.38639 -0.30687,-3.55586 -0.0511,-0.35924 -0.26894,-1.01128 -0.10563,-1.05562 -0.30124,-0.43942 -0.25805,-1.0276 -0.44532,-1.52458 -0.49659,-2.00214 -1.22103,-4.024485 -2.64261,-5.564714 -0.84013,-0.855858 -1.95032,-1.366563 -3.00953,-1.890316 -0.39169,-0.106521 -0.78487,-0.301082 -1.1919,-0.313997 z m 3.94343,4.061247 c 0.55387,1.29599 0.91624,2.66656 1.21026,4.04213 -1.0061,-0.64454 -2.21792,-0.82247 -3.39152,-0.80615 0.78071,-1.14419 1.34389,-2.36837 2.18126,-3.23598 z"
             style="fill:#ffffff;fill-opacity:1;stroke:#000000;stroke-width:0.762994;stroke-linejoin:round;stroke-miterlimit:4;stroke-dasharray:none;stroke-opacity:1;paint-order:markers stroke fill"
             id="path184" />
        </g>
        <path
           sodipodi:nodetypes="scccccccccccccccccccccccccccss"
           d="m 187.67506,113.40792 c 0.23423,-0.78784 0.63735,-1.53382 1.16857,-2.16009 0.16928,-0.31562 0.53679,0.0735 0.70947,0.0327 0.17691,-0.0906 -1.07744,-0.82663 -1.736,-0.99968 0.26519,0.4832 0.37793,1.26417 0.39646,1.89334 -0.10987,1.63013 -0.34531,3.24991 -0.46325,4.87985 0.0164,0.45358 -0.39087,1.01644 0.246,1.14611 0.45169,0.25239 0.83878,0.60057 1.26925,0.88251 0.49373,-0.0542 0.5856,-0.79835 0.84929,-1.16765 0.79773,-1.56595 1.32074,-3.32781 2.59423,-4.59872 0.73624,-0.75922 1.54094,-1.54096 2.57111,-1.86626 0.35236,-0.1229 0.7331,0.0164 1.0534,0.10303 -0.62346,-0.34374 -1.26538,-0.6538 -1.89228,-0.99163 0.42375,0.17439 0.39558,0.77921 0.81571,0.91076 0.59773,0.27244 1.19545,0.54487 1.79318,0.81731 -0.18596,-0.57007 -0.55026,-1.04594 -1.10924,-1.28365 -0.52047,-0.27996 -0.94553,-0.78621 -1.56288,-0.84041 -0.95834,-0.19902 -1.81334,0.45841 -2.51875,1.01762 -1.04285,0.87652 -1.95034,1.93482 -2.51904,3.18193 -0.5815,1.2057 -1.06706,2.46237 -1.75978,3.6112 0.21705,0.35802 0.90409,0.31353 1.28759,0.55985 0.22519,0.0775 0.74694,0.33358 0.70922,0.3526 0.21075,-1.05081 0.20004,-2.13013 0.35845,-3.18892 0.092,-1.32771 0.3845,-2.66398 0.19169,-3.99525 -0.0342,-0.61301 -0.61589,-0.81645 -1.06136,-1.08715 -0.46861,-0.2528 -0.9022,-0.58338 -1.39859,-0.77646 -0.59913,-0.11124 -0.92621,0.52975 -1.20508,0.94619 -0.30218,0.49371 -0.56723,1.01635 -0.7283,1.57418 0.64676,0.34902 1.29523,0.69706 1.94093,1.0467 z"
           style="fill:#ffffff;fill-opacity:1;stroke:#000000;stroke-width:0.762994;stroke-linejoin:round;stroke-miterlimit:4;stroke-dasharray:none;stroke-opacity:1;paint-order:markers stroke fill"
           id="path192" />
        <path
           sodipodi:nodetypes="sccccccccccccccccccccccccss"
           d="m 199.51747,116.50345 c 0.78032,-0.0117 1.57175,-0.0305 2.32121,-0.27465 1.09721,-0.35018 2.23461,-0.83253 2.96617,-1.76073 0.34504,-0.41291 0.43458,-1.01608 0.16914,-1.4928 -0.37622,-0.84738 -1.28182,-1.24358 -2.09515,-1.55585 -0.46502,-0.17881 -0.94527,-0.31452 -1.41034,-0.49287 -1.25314,0.1098 -2.54016,0.39972 -3.58038,1.13847 -0.49769,0.33481 -0.75332,0.9256 -0.75604,1.5148 -0.0801,0.94256 0.14374,1.9008 0.6435,2.70459 0.34471,0.5881 0.82288,1.10588 1.43207,1.42406 0.95559,0.61223 1.95965,1.28435 3.13003,1.34712 0.94293,0.081 1.84337,-0.30856 2.62744,-0.79619 0.27221,-0.0842 -0.084,-0.18248 -0.17732,-0.27485 -0.51436,-0.33372 -1.02872,-0.66743 -1.54308,-1.00115 -0.76557,0.47067 -1.63957,0.86963 -2.56159,0.76448 -0.47565,-0.0459 -0.92894,-0.20222 -1.37284,-0.38695 0.45002,0.39145 1.26096,1.01798 1.63674,0.95842 -0.85704,-0.48174 -1.39193,-1.38082 -1.7043,-2.28661 -0.18382,-0.65284 -0.21844,-1.35914 -0.0802,-2.0233 0.19664,-0.65077 0.87377,-0.96046 1.44459,-1.21712 0.83673,-0.3482 1.73758,-0.51827 2.64026,-0.56311 -2.18959,-1.73746 -0.5527,-0.1908 -0.0672,0.38405 0.009,0.58473 -0.49412,1.00561 -0.91431,1.33609 -0.86825,0.60357 -1.88326,0.99583 -2.92398,1.17381 -0.52484,0.0737 -1.06107,0.0927 -1.58869,0.0578 0.58803,0.44084 1.17642,0.8816 1.76423,1.32248 z"
           style="fill:#ffffff;fill-opacity:1;stroke:#000000;stroke-width:0.762994;stroke-linejoin:round;stroke-miterlimit:4;stroke-dasharray:none;stroke-opacity:1;paint-order:markers stroke fill"
           id="path200" />
        <g
           id="g258"
           transform="translate(-31.776783,8.5869678)"
           style="fill:#ffffff;fill-opacity:1;stroke:#000000;stroke-width:0.762994;stroke-linejoin:round;stroke-miterlimit:4;stroke-dasharray:none;stroke-opacity:1;paint-order:markers stroke fill">
          <path
             sodipodi:nodetypes="sccccccccccccccccccccccss"
             d="m 249.69474,95.9312 c -0.72994,0.478642 -1.41377,1.068872 -1.90996,1.793687 0.45734,0.26665 0.91468,0.533302 1.37201,0.799952 -0.23758,0.680815 -0.0842,1.618491 -0.44996,2.157181 -0.43103,0.0726 -0.83801,0.59661 -1.23799,0.46323 -0.59576,-0.31536 -1.19153,-0.63073 -1.78729,-0.94609 -0.0663,0.62195 -0.14438,1.41417 0.42967,1.83216 0.64835,0.60502 1.5618,1.22721 2.48385,0.88033 0.35021,-0.12555 0.0855,0.69189 0.15961,0.97941 -0.0496,1.59998 -0.0772,3.215 0.18013,4.79943 0.0273,0.63262 0.58442,0.9803 1.04247,1.3159 0.46638,0.31408 1.15291,0.75073 1.6771,0.30966 0.60299,-0.55975 0.91486,-1.35397 1.28686,-2.07195 0.21191,-0.17383 -0.25089,-0.2356 -0.40163,-0.41071 -0.46289,-0.30526 -0.92579,-0.61052 -1.38868,-0.91578 -0.17239,0.23615 -0.48655,1.2421 -0.44411,0.48169 -0.0667,-1.42863 0.0516,-2.85775 0.0218,-4.28721 0.11045,-0.43971 -0.21296,-1.2385 0.31008,-1.38943 0.57409,-0.26506 0.96094,-0.11529 1.29367,0.33976 0.63249,0.2755 1.26499,0.551 1.89748,0.8265 -0.43935,-0.70833 -0.95292,-1.38373 -1.65867,-1.84664 -0.48488,-0.34044 -1.02545,-0.61002 -1.6016,-0.75423 0.14797,-1.092339 0.52271,-2.136435 0.70642,-3.221507 -0.66091,-0.375285 -1.29883,-0.80608 -1.98122,-1.135343 z"
             style="fill:#ffffff;fill-opacity:1;stroke:#000000;stroke-width:0.762994;stroke-linejoin:round;stroke-miterlimit:4;stroke-dasharray:none;stroke-opacity:1;paint-order:markers stroke fill"
             id="path202" />
        </g>
        <path
           sodipodi:nodetypes="sccccccccccccccccccccccccccccss"
           d="m 234.01718,111.93067 c 0.32088,-0.56705 0.64271,-1.16827 1.15003,-1.59113 0.13162,-0.28644 0.19484,0.0378 0.30202,-0.0952 -0.5498,-0.30361 -1.0825,-0.65032 -1.6378,-0.93595 0.28629,0.44314 0.0929,1.01954 0.0302,1.50604 -0.41196,1.63024 -0.37518,3.32196 -0.56871,4.98245 -0.0504,0.66253 -0.21591,1.31321 -0.2171,1.97973 0.32255,0.0101 0.75025,0.37722 1.11347,0.52515 0.25363,0.10439 0.67851,0.41836 0.8361,0.39113 -0.048,-0.9812 0.13538,-1.95853 0.29513,-2.9231 0.19661,-0.99168 0.36204,-2.06531 1.08796,-2.82939 0.63348,-0.7083 1.50811,-1.15204 2.37476,-1.50837 0.36121,-0.21934 1.05398,0.0829 1.27086,0.0247 -0.56658,-0.31319 -1.11745,-0.66537 -1.69308,-0.95545 0.43676,0.35836 0.59186,0.94993 0.78871,1.44017 0.65447,0.31412 1.30895,0.62823 1.96342,0.94235 -0.1487,-0.66043 -0.43286,-1.32454 -0.92016,-1.80551 -0.51359,-0.35336 -1.11958,-0.54852 -1.64655,-0.88351 -0.61381,-0.42736 -1.38929,-0.0863 -1.99457,0.18284 -1.05929,0.50318 -2.109,1.20122 -2.61337,2.30409 -0.39745,0.88417 -0.52119,1.85951 -0.69512,2.80556 -0.10377,0.76039 -0.22607,1.53018 -0.19195,2.29734 0.58128,0.34713 0.99395,0.95456 1.63996,1.19227 0.54682,0.0284 0.2794,-0.65909 0.40009,-0.99134 0.28331,-1.67934 0.28575,-3.38916 0.5041,-5.07527 0.12795,-0.89446 0.48872,-1.79609 0.2895,-2.70709 -0.62491,-0.456 -1.30271,-0.84374 -1.96546,-1.24522 -0.54386,-0.0359 -0.91261,0.47781 -1.19997,0.87124 -0.1459,0.32906 -0.68537,0.79174 -0.53427,1.08017 0.61055,0.34047 1.22148,0.68054 1.83179,1.02127 z"
           style="fill:#ffffff;fill-opacity:1;stroke:#000000;stroke-width:0.762994;stroke-linejoin:round;stroke-miterlimit:4;stroke-dasharray:none;stroke-opacity:1;paint-order:markers stroke fill"
           id="path212" />
        <g
           transform="translate(-55.029842,31.182569)"
           id="g252"
           style="fill:#ffffff;fill-opacity:1;stroke:#000000;stroke-width:0.762994;stroke-linejoin:round;stroke-miterlimit:4;stroke-dasharray:none;stroke-opacity:1;paint-order:markers stroke fill">
          <path
             sodipodi:nodetypes="ccccccccccccccccccccccccc"
             d="m 237.19133,75.417642 c -0.5098,0.432332 -0.48714,1.19299 -0.61074,1.80209 -0.12825,0.977437 -0.15877,1.96477 -0.13852,2.949557 -1.37969,-0.328748 -2.9177,-0.42894 -4.21247,0.248428 -1.17217,0.624829 -1.77771,2.008806 -1.63927,3.302452 0.0213,1.008824 0.52017,2.040578 1.44134,2.515296 0.98335,0.611335 2.0128,1.412589 3.24341,1.273683 0.87232,-0.03613 1.66032,-0.491067 2.31526,-1.037416 0.48955,0.514856 1.24485,0.614815 1.82521,0.998906 0.52143,-0.103796 0.61472,-0.753759 0.73915,-1.185553 0.21177,-0.32548 -0.10409,-0.411361 -0.33729,-0.534596 L 238.86416,85.2377 c -0.23419,-1.213771 -0.3567,-2.448526 -0.44829,-3.680532 -0.0384,-1.462394 -0.0247,-2.944928 0.30515,-4.376856 l 1.02423,0.482658 c -0.21562,-0.68943 -0.64314,-1.375436 -1.35113,-1.635641 -0.40811,-0.188666 -0.81303,-0.385146 -1.20279,-0.609687 z m -1.07694,5.791893 c 0.69393,-0.102288 0.33279,0.894482 0.51471,1.335998 0.0701,0.581869 0.13353,1.166016 0.25321,1.740291 -0.39169,-0.307398 -0.56599,0.545256 -0.86726,0.71787 -0.73817,0.806842 -1.84606,1.341369 -2.95525,1.189514 -0.56139,-0.77475 -0.59623,-1.811115 -0.4324,-2.72129 0.24739,-1.106421 1.21816,-1.959792 2.32676,-2.138791 0.38118,-0.07957 0.77001,-0.133744 1.16023,-0.123592 z"
             style="fill:#ffffff;fill-opacity:1;stroke:#000000;stroke-width:0.762994;stroke-linejoin:round;stroke-miterlimit:4;stroke-dasharray:none;stroke-opacity:1;paint-order:markers stroke fill"
             id="path248" />
        </g>
        <path
           sodipodi:nodetypes="sccccccccccccccccccccccccccccccccccss"
           d="m 206.68915,111.6773 c 0.37808,-0.90514 0.94673,-1.73431 1.6186,-2.44667 0.0837,-0.17606 0.23944,-0.22549 0.52874,-0.36572 -0.59506,-0.322 -1.1821,-0.6588 -1.78193,-0.97198 0.10727,0.45685 0.0574,0.99877 0.0696,1.48711 -0.14726,1.65856 -0.29984,3.31748 -0.33479,4.98337 -0.032,1.1015 -0.0624,2.20603 -0.22809,3.29707 0.14051,0.55504 0.83485,0.66758 1.30267,0.82934 0.33779,0.0788 0.79118,0.31149 0.69039,-0.23711 0.34318,-1.86194 0.72754,-3.73479 1.42886,-5.49981 0.28545,-0.72957 0.92158,-1.33838 1.69511,-1.50922 0.27203,-0.0317 0.48252,0.22111 0.12397,-0.0155 -0.57927,-0.3232 -1.13961,-0.67966 -1.70717,-1.02162 0.3981,0.25771 0.62316,0.69861 0.65551,1.16562 0.14199,1.57454 -0.26042,3.13346 -0.22236,4.70841 0.0185,0.80928 -0.0328,1.658 0.26902,2.42324 0.33713,0.68792 1.1809,0.77559 1.78181,1.12587 0.26674,0.3309 0.92372,-0.36667 0.63486,-0.5254 -0.59251,-0.34438 -1.18503,-0.68877 -1.77755,-1.03316 -0.0201,0.30777 -0.57972,0.2967 -0.20549,0.37641 0.55079,0.32443 1.09795,0.65496 1.64647,0.9832 -0.42371,-0.43081 -0.30089,-1.15005 -0.3774,-1.71128 -0.0526,-1.21765 0.0644,-2.43123 0.19597,-3.63983 0.0335,-0.87327 0.17997,-1.80931 -0.19396,-2.63155 -0.23766,-0.4993 -0.72589,-0.73582 -1.21081,-0.93167 -0.47793,-0.16644 -0.88827,-0.68324 -1.42922,-0.52452 -0.95384,0.28411 -1.65595,1.10949 -1.94754,2.04142 -0.65494,1.8036 -1.05038,3.69264 -1.37454,5.57888 0.50179,0.3837 0.9671,0.88904 1.54607,1.18755 0.64305,0.19487 0.42804,-0.77605 0.55061,-1.15677 0.15328,-2.04993 0.11395,-4.11242 0.34796,-6.15739 0.0786,-0.90518 0.18224,-1.81544 0.13045,-2.72418 -0.53139,-0.4869 -1.0875,-1.07791 -1.83731,-1.17909 -0.64798,0.057 -1.02616,0.72035 -1.42244,1.16439 -0.42274,0.58602 -0.83672,1.19185 -1.1015,1.86825 0.64525,0.35376 1.28955,0.71039 1.93539,1.06236 z"
           style="fill:#ffffff;fill-opacity:1;stroke:#000000;stroke-width:0.762994;stroke-linejoin:round;stroke-miterlimit:4;stroke-dasharray:none;stroke-opacity:1;paint-order:markers stroke fill"
           id="path254" />
        <path
           sodipodi:nodetypes="cccccccccccccccccccccccccccccccccccccsc"
           d="m 224.55505,111.10399 c 1.35186,-2.33462 2.35663,-0.93855 -0.58794,-2.695 0.1685,0.42987 0.0994,1.12777 0.13504,1.66081 -0.096,1.37052 -0.42468,2.71622 -0.45297,4.09344 -0.0462,1.13987 -0.0714,2.37885 0.57009,3.37501 0.28898,0.40476 0.72315,0.6531 1.17211,0.84307 0.44788,0.14957 0.83419,0.60492 1.32207,0.5287 0.6654,-0.21372 0.90573,-0.95411 1.19857,-1.51708 0.5927,-1.31595 0.80405,-2.75658 1.22331,-4.12983 0.18363,-0.83967 0.41847,-1.66807 0.763,-2.45729 0.0818,-0.42193 0.5442,-0.98801 0.20788,-1.35683 -0.61462,-0.21081 -1.22585,-0.45395 -1.79478,-0.76097 -0.41622,0.63595 -0.44811,1.42657 -0.61728,2.14898 -0.2743,1.34554 -0.53351,2.72337 -0.33821,4.09998 0.12147,0.82834 0.18009,1.71521 0.64575,2.43707 0.58476,0.58662 1.2996,1.25093 2.18887,1.19512 0.65105,-0.0968 1.13366,-0.61085 1.55347,-1.07728 -0.62957,-0.37921 -1.25915,-0.75841 -1.88872,-1.13762 -0.37692,0.39986 -0.80687,0.90211 -1.40262,0.89627 -0.22482,-0.0613 0.41747,0.26192 0.54254,0.34877 0.43654,0.25459 0.88801,0.48271 1.33039,0.72611 -0.10263,-0.35165 -0.68012,-0.80726 -0.81377,-1.28988 -0.27686,-1.29643 -0.35006,-2.64229 -0.10393,-3.94967 0.4176,-2.03677 0.58743,-2.59141 0.4026,-3.00323 -0.43843,-0.507 -0.9771,-0.91675 -1.54567,-1.26696 -0.23499,0.9703 -0.74709,1.85721 -0.93732,2.84421 -0.28742,1.18703 -0.62437,2.36226 -0.92096,3.54726 -0.2387,0.74201 -0.53347,1.48368 -0.97703,2.12794 -0.0969,0.28139 -0.40883,0.18466 -0.6735,0.2435 0.60253,0.35829 1.20802,0.71155 1.81411,1.06377 -0.18091,-0.50662 -0.76387,-1.01049 -0.89651,-1.6037 -0.1611,-1.18183 -0.0587,-2.38369 0.0762,-3.5636 0.19408,-1.24853 0.37277,-2.50509 0.38236,-3.77064 0.0984,-0.52507 -0.41519,-0.67647 -0.77253,-0.88993 -0.43771,-0.24166 -0.8667,-0.51463 -1.31721,-0.72377 -0.52965,0.23528 -0.73269,0.85645 -1.05112,1.30348 -0.15457,0.29287 -0.54162,0.66106 -0.0537,0.78218 0.53887,0.30904 1.07995,0.61931 1.61743,0.92759 z"
           style="fill:#ffffff;fill-opacity:1;stroke:#000000;stroke-width:0.762994;stroke-linejoin:round;stroke-miterlimit:4;stroke-dasharray:none;stroke-opacity:1;paint-order:markers stroke fill"
           id="path260" />
        <path
           sodipodi:nodetypes="sccccccccccccccccccccccccss"
           d="m 244.15318,116.33948 c 0.78032,-0.0117 1.57175,-0.0304 2.32121,-0.27465 1.09721,-0.35018 2.23461,-0.83253 2.96617,-1.76073 0.34504,-0.41291 0.43458,-1.01608 0.16914,-1.4928 -0.37622,-0.84738 -1.28182,-1.24358 -2.09515,-1.55585 -0.46502,-0.17881 -0.94527,-0.31452 -1.41034,-0.49287 -1.25314,0.1098 -2.54016,0.39972 -3.58038,1.13847 -0.49769,0.33481 -0.75332,0.9256 -0.75604,1.5148 -0.0801,0.94256 0.14374,1.9008 0.6435,2.70459 0.34471,0.5881 0.82288,1.10588 1.43207,1.42406 0.95559,0.61223 1.95965,1.28435 3.13003,1.34712 0.94293,0.081 1.84337,-0.30856 2.62744,-0.79619 0.27221,-0.0842 -0.084,-0.18248 -0.17732,-0.27485 -0.51436,-0.33372 -1.02872,-0.66743 -1.54308,-1.00115 -0.76557,0.47067 -1.63957,0.86963 -2.56159,0.76448 -0.47565,-0.0459 -0.91602,-0.30077 -1.37284,-0.38695 0.44978,0.3728 1.28244,0.98089 1.63674,0.95842 -0.85704,-0.48174 -1.39193,-1.38082 -1.7043,-2.28661 -0.18382,-0.65284 -0.21844,-1.35914 -0.0802,-2.0233 0.19664,-0.65077 0.87377,-0.96046 1.44459,-1.21712 0.83673,-0.3482 1.73758,-0.51827 2.64026,-0.56311 -2.18959,-1.73746 -0.32218,0.2067 -0.0672,0.38405 0.009,0.58473 -0.49412,1.00561 -0.91431,1.33609 -0.86825,0.60357 -1.88326,0.99583 -2.92398,1.17381 -0.52484,0.0737 -1.06107,0.0927 -1.58869,0.0578 0.58803,0.44084 1.17642,0.8816 1.76423,1.32248 z"
           style="fill:#ffffff;fill-opacity:1;stroke:#000000;stroke-width:0.762994;stroke-linejoin:round;stroke-miterlimit:4;stroke-dasharray:none;stroke-opacity:1;paint-order:markers stroke fill"
           id="path262" />
      </g>
    </g>
    <text
       id="text35"
       y="116.47089"
       x="115.65641"
       style="font-size:10.5833px;line-height:1.25;font-family:FreeMono;-inkscape-font-specification:FreeMono;stroke-width:0.264583"
       xml:space="preserve"><tspan
         style="stroke-width:0.264583"
         y="116.47089"
         x="115.65641"
         id="tspan33"
         sodipodi:role="line">by INTERN PROJECT</tspan></text>
  </g>
</svg>
