<?xml version="1.0" encoding="UTF-8" standalone="no"?>
<svg
   xmlns:dc="http://purl.org/dc/elements/1.1/"
   xmlns:cc="http://creativecommons.org/ns#"
   xmlns:rdf="http://www.w3.org/1999/02/22-rdf-syntax-ns#"
   xmlns:svg="http://www.w3.org/2000/svg"
   xmlns="http://www.w3.org/2000/svg"
   xmlns:xlink="http://www.w3.org/1999/xlink"
   xmlns:sodipodi="http://sodipodi.sourceforge.net/DTD/sodipodi-0.dtd"
   xmlns:inkscape="http://www.inkscape.org/namespaces/inkscape"
   inkscape:version="1.0 (6e3e5246a0, 2020-05-07)"
   sodipodi:docname="play_button.svg"
   id="svg8"
   version="1.1"
   viewBox="0 0 338.66666 190.50001"
   height="720"
   width="1280">
  <defs
     id="defs2">
    <linearGradient
       id="linearGradient1085"
       inkscape:collect="always">
      <stop
         id="stop1081"
         offset="0"
         style="stop-color:#fff0a7;stop-opacity:1" />
      <stop
         id="stop1083"
         offset="1"
         style="stop-color:#ffdc37;stop-opacity:1" />
    </linearGradient>
    <linearGradient
       id="linearGradient1077"
       inkscape:collect="always">
      <stop
         id="stop1073"
         offset="0"
         style="stop-color:#fbffa5;stop-opacity:1" />
      <stop
         id="stop1075"
         offset="1"
         style="stop-color:#f9ff41;stop-opacity:1" />
    </linearGradient>
    <linearGradient
       gradientUnits="userSpaceOnUse"
       y2="133.50301"
       x2="168.93346"
       y1="150.62164"
       x1="168.93346"
       id="linearGradient1079"
       xlink:href="#linearGradient1077"
       inkscape:collect="always" />
    <linearGradient
       gradientUnits="userSpaceOnUse"
       y2="148.33771"
       x2="169.28838"
       y1="174.74443"
       x1="169.01532"
       id="linearGradient1087"
       xlink:href="#linearGradient1085"
       inkscape:collect="always" />
  </defs>
  <sodipodi:namedview
     inkscape:window-maximized="1"
     inkscape:window-y="27"
     inkscape:window-x="72"
     inkscape:window-height="704"
     inkscape:window-width="1294"
     units="px"
     showgrid="false"
     inkscape:document-rotation="0"
     inkscape:current-layer="layer1"
     inkscape:document-units="mm"
     inkscape:cy="539.05351"
     inkscape:cx="676.48675"
     inkscape:zoom="0.87087522"
     inkscape:pageshadow="2"
     inkscape:pageopacity="0.0"
     borderopacity="1.0"
     bordercolor="#666666"
     pagecolor="#ffffff"
     id="base" />
  <metadata
     id="metadata5">
    <rdf:RDF>
      <cc:Work
         rdf:about="">
        <dc:format>image/svg+xml</dc:format>
        <dc:type
           rdf:resource="http://purl.org/dc/dcmitype/StillImage" />
        <dc:title />
      </cc:Work>
    </rdf:RDF>
  </metadata>
  <g
     id="layer1"
     inkscape:groupmode="layer"
     inkscape:label="Слой 1">
    <rect
       ry="19.250795"
       y="133.76901"
       x="99.449265"
       height="38.501591"
       width="139.76814"
       id="rect3122"
       style="fill:#ffffff;fill-opacity:1;fill-rule:nonzero;stroke:#000000;stroke-width:2.11667;stroke-linejoin:round;stroke-miterlimit:4;stroke-dasharray:none;stroke-opacity:1;paint-order:markers stroke fill" />
    <g
       id="g1095">
      <path
         id="rect244"
         style="fill:url(#linearGradient1079);fill-opacity:1;fill-rule:nonzero;stroke:none;stroke-width:2.11667;stroke-linejoin:round;stroke-miterlimit:4;stroke-dasharray:none;stroke-opacity:1;paint-order:markers stroke fill"
         d="m 118.70022,133.76909 c -10.37206,0 -18.77547,8.12145 -19.22932,18.37769 a 107.33549,15.815556 0 0 1 69.81745,-3.80907 107.33549,15.815556 0 0 1 0.045,0 107.33549,15.815556 0 0 1 69.8624,3.80907 c -0.45384,-10.25624 -8.85726,-18.37769 -19.22932,-18.37769 z" />
      <path
         id="path237"
         style="fill:url(#linearGradient1087);fill-opacity:1;stroke-width:0;stroke-linejoin:round;paint-order:markers stroke fill"
         d="m 169.28837,148.33771 a 107.33549,15.815556 0 0 0 -69.817442,3.80907 c -0.01281,0.28961 -0.02169,0.57994 -0.02169,0.87282 0,10.66493 8.586072,19.25102 19.251012,19.25102 h 101.26617 c 10.66494,0 19.25103,-8.58609 19.25103,-19.25102 0,-0.29288 -0.009,-0.58321 -0.0217,-0.87282 a 107.33549,15.815556 0 0 0 -69.86242,-3.80907 107.33549,15.815556 0 0 0 -0.045,0 z" />
    </g>
    <g
       style="fill:#0e16ff;fill-opacity:1"
       transform="matrix(0.83768548,0,0,0.83768548,18.045267,25.154248)"
       id="g235">
      <path
         transform="matrix(0.31585045,0,0,0.31585045,-21.541817,-30.028273)"
         d="m 662.18945,523.77344 c -0.53234,1.5696 -1.45903,2.97945 -2.03515,4.53515 -0.40086,0.96403 -0.81523,1.92082 -1.23047,2.87891 l -1.59766,0.125 c 0.36112,0.38701 0.69552,0.79794 1.01953,1.21875 -1.46402,3.35546 -2.94283,6.70662 -4.1582,10.16406 -3.39772,9.4692 -7.03503,18.8382 -10.7793,28.17578 -4.06753,10.86936 -7.79375,21.86058 -11.75781,32.76758 -1.82687,4.92318 -3.68497,9.83818 -5.9082,14.59961 l 13.65039,9.71289 c 2.66128,-5.09115 4.68257,-10.48691 6.7168,-15.84961 2.73372,-7.41739 5.33423,-14.88189 7.98632,-22.32812 l 1.89063,4.28906 c 3.33066,-0.64685 6.66678,-1.23315 10.03125,-1.67383 2.40918,-0.29876 4.82259,-0.54865 7.24219,-0.73242 1.09735,4.83851 2.28112,9.6581 3.30468,14.51367 0.88061,4.52974 1.64682,9.08133 2.55664,13.60547 0.1906,0.71521 0.22236,1.46154 0.47071,2.16016 l 16.28711,3.92187 c -0.0285,-0.92423 -0.17846,-1.82574 -0.3418,-2.73633 -0.82516,-4.5615 -1.85299,-9.08694 -2.54297,-13.67382 -1.36786,-7.35548 -3.24968,-14.58478 -4.89258,-21.88086 -1.52237,-7.71907 -2.98471,-15.46137 -4.01172,-23.26368 -0.97932,-8.09277 -1.95313,-16.24831 -5.02148,-23.875 -0.92792,-2.32084 -1.9803,-4.57139 -3.11133,-6.78711 0.1692,-0.36401 0.33737,-0.72944 0.50586,-1.09374 l -1.59375,-0.97852 c -0.27904,-0.51777 -0.55258,-1.03799 -0.83984,-1.55274 l -1.4961,0.11719 z m -171.75976,6.38672 c -0.007,4.02839 -0.27806,8.046 -0.53125,12.06445 -0.39978,6.3207 -0.9744,12.62843 -1.34375,18.95117 -0.0863,1.69982 -0.15682,3.40079 -0.2168,5.10156 -0.51241,-0.0418 -1.02289,-0.088 -1.53711,-0.11914 -3.93658,-0.30236 -7.87993,-0.51329 -11.82617,-0.64062 -4.70793,-0.10896 -9.42812,0.0173 -14.05469,0.9668 0.29374,-6.0483 0.6296,-12.09561 0.76367,-18.1504 0.17856,-3.65267 0.44509,-7.30106 0.69727,-10.94921 l -15.93164,-5.17579 h -0.002 c 0.0126,3.47839 -0.30801,6.9548 -0.51954,10.42579 -0.265,6.19422 -0.49427,12.38746 -0.80078,18.58007 -0.16934,3.52852 -0.30027,7.06014 -0.43554,10.58985 -3.27667,1.40714 -6.52356,2.87919 -9.67774,4.54687 l 9.13867,13.58399 c 0.006,1.1097 0.0168,2.22043 0.0293,3.33007 0.0418,4.50008 0.0333,8.99779 0.0488,13.49805 0.0253,3.36995 -0.0301,6.7421 -0.20899,10.10742 0.12507,0.51075 -0.23342,1.07127 -0.0605,1.57227 l 15.25976,6.91602 c 0.24063,-0.83571 0.38657,-1.68281 0.4668,-2.55079 0.3728,-3.62108 0.47164,-7.26347 0.48633,-10.90234 -0.0158,-4.5224 -0.0346,-9.04399 -0.0254,-13.56641 -0.0472,-4.80487 -0.2345,-9.61475 0.0488,-14.41601 0.007,-0.13743 0.0127,-0.27468 0.0195,-0.41211 2.28963,-0.69897 4.62217,-1.25518 6.99414,-1.6875 4.16342,-0.74279 8.39072,-0.47876 12.58594,-0.26172 2.76313,0.0947 5.52087,0.28927 8.27539,0.51562 0.008,4.3669 0.0682,8.73506 0.20898,13.09961 0.1431,3.16036 0.33694,6.31664 0.37695,9.48047 0.003,2.84563 -0.0159,5.69159 -0.0391,8.53711 -0.044,2.01931 -0.16554,4.03821 -0.31055,6.05274 0.007,0.50577 -0.0476,1.09282 -0.0644,1.55468 0.16274,-0.2574 0.33522,-0.5065 0.50977,-0.75585 l 13.69921,9.64257 c 0.29793,-0.46113 0.58824,-0.92489 0.79688,-1.43554 0.34761,-0.96952 0.53997,-2.00832 0.70508,-3.02149 0.21497,-2.19499 0.35375,-4.3957 0.50781,-6.5957 0.13266,-2.93709 0.0917,-5.87518 0.13281,-8.81445 0.0285,-3.30012 9.9e-4,-6.59935 -0.24804,-9.89258 -0.25327,-4.43327 -0.29652,-8.87491 -0.35157,-13.31446 0.30464,0.17449 0.61095,0.34778 0.91407,0.52539 0.23179,0.37414 1.03595,0.4176 1.40625,0.7129 l 0.71289,-16.34766 c -0.92313,-0.25771 -1.74283,-0.64893 -2.58399,-1.11133 -0.08,-0.037 -0.16198,-0.0708 -0.24219,-0.10742 0.0358,-1.1504 0.0715,-2.2991 0.11915,-3.44922 0.26975,-6.29341 0.84657,-12.56444 1.30664,-18.8457 0.25391,-4.15349 0.63713,-8.30628 0.67382,-12.46875 z m 15.88672,57.69336 -0.0156,0.39062 c 0.0554,-0.0722 0.20496,-0.1348 0.16602,-0.2168 -0.0326,-0.0688 -0.0867,-0.12305 -0.15039,-0.17382 z m 27.52148,-57.33399 c -1.19285,3.24767 -2.29403,6.52682 -3.37109,9.81445 -2.09201,6.11224 -3.77987,12.34227 -5.30078,18.61719 -1.91968,7.8346 -3.39623,15.76223 -4.61719,23.73242 -1.05243,7.29884 -1.9426,14.62027 -3.15821,21.89453 -0.90232,5.15121 -1.91185,10.28237 -3.12695,15.36915 -0.50027,1.95566 -0.25915,1.05484 -0.71484,2.71093 l 14.78906,7.87305 c 0.63292,-1.97118 0.31511,-0.92145 0.93945,-3.14453 1.356,-5.29107 2.45659,-10.63851 3.42578,-16.01367 0.98228,-5.43957 1.74166,-10.91257 2.48047,-16.38867 3.19373,0.30224 6.41395,-0.0188 9.60352,-0.25586 2.7559,-0.0685 5.44608,-0.21517 8.14453,-0.47461 1.77331,5.896 2.99787,11.93351 4.19531,17.96679 0.6998,3.74753 1.46998,7.48056 2.43946,11.16797 0.29349,0.9565 0.55418,1.91492 0.7539,2.89453 l 16.48633,0.41407 c -0.33187,-0.15 -0.43047,-0.9021 -0.62695,-1.15235 -1.26573,-3.22602 -1.98589,-6.62188 -2.62696,-10.01953 -1.23263,-6.42095 -2.43224,-12.85689 -4.11132,-19.17969 -2.61415,-9.15056 -5.80858,-18.11781 -8.63672,-27.20312 -2.47975,-7.85778 -4.76136,-15.79009 -7.65235,-23.50977 -1.23163,-3.2262 -2.55173,-6.42286 -3.55664,-9.73047 l -7.40429,-0.52148 z m 42.96875,96.17774 c 0.0749,0.0338 0.15865,0.0473 0.26172,0.006 z m -0.83789,-95.97657 c -0.6824,3.60414 -0.8798,7.27783 -1.0332,10.93555 -0.25613,5.69421 -0.0426,11.36652 0.76953,17.00586 0.9293,5.48671 2.60645,10.80036 4.76953,15.91601 2.74215,5.79474 6.34978,8.71652 11.94727,13.07032 0.93937,0.73066 4.87483,1.40995 5.95312,1.50195 1.06611,0.0909 2.14096,0.009 3.21094,0.0156 1.68809,-0.16071 3.24054,-0.46855 4.69726,-0.90625 -0.21239,3.69219 -0.51382,7.37693 -0.91211,11.05468 -0.42074,3.90134 -1.13021,7.76054 -2,11.58399 -0.58561,2.39794 -1.15935,4.79927 -1.72851,7.20117 -0.17287,0.74031 -0.083,0.38449 -0.26953,1.0625 l 14.95117,7.5625 c 0.17192,-0.69071 0.0663,-0.29273 0.33008,-1.18555 0.62776,-2.42856 1.13733,-4.88588 1.78125,-7.31054 1.01275,-4.17068 1.94157,-8.36363 2.46679,-12.62891 0.72411,-5.71815 1.24746,-11.46349 1.42774,-17.22656 0.21274,-5.70168 0.43554,-11.42077 1.2539,-17.07227 0.90064,-2.25172 1.64001,-4.58073 2.30274,-6.92578 1.27465,-5.111 2.03304,-10.33206 2.625,-15.56055 0.18395,-1.86164 0.35727,-3.72479 0.58203,-5.58203 l -15.43945,-6.50781 c -0.10564,0.65666 -0.19568,1.31423 -0.28907,1.97266 l -0.23828,-0.10352 c -0.41678,2.7615 -1.06304,5.48317 -1.60351,8.22266 -0.8531,5.15298 -1.91345,10.2666 -2.8711,15.40039 -0.22616,1.16681 -0.41986,2.33883 -0.59961,3.51172 -0.48935,1.00033 -1.0492,1.96622 -1.71289,2.88086 -2.4649,2.59052 -5.27566,4.80777 -9.0664,4.36718 -0.66546,-0.19452 -1.08856,-0.28876 -1.50977,-0.46679 -1.67374,-3.26529 -2.71147,-6.82961 -3.66992,-10.38086 -0.39874,-1.81807 -0.72042,-3.10052 -0.9668,-4.94532 -0.44575,-3.33749 -0.32567,-6.71535 -0.34961,-10.07226 0.0484,-3.20114 0.13777,-6.40045 0.5,-9.58399 z m 176.67969,0.12891 c -2.73965,8.4e-4 -5.47928,0.0686 -8.2168,0.20508 -6.24027,0.31885 -12.47481,0.74029 -18.68945,1.40039 -4.97048,0.45207 -9.97298,0.87204 -14.9668,0.625 -1.93978,-0.25677 -3.71915,-0.808 -5.35156,-1.92188 l 0.74414,16.73828 c 2.96608,1.22549 6.125,1.27453 9.2832,1.27149 4.51496,-0.0621 9.01635,-0.39095 13.50781,-0.82422 -0.0682,2.98618 -0.0403,5.97827 -0.0918,8.94727 -0.31502,9.52894 -1.09289,19.03374 -1.54688,28.55664 -0.28842,7.02183 -0.30845,14.05231 -1.14258,21.03711 -0.42345,3.15161 -0.98046,6.28378 -1.41601,9.43359 -0.0525,1.25145 -0.4436,2.47392 -0.51953,3.71875 l 15.12109,7.21289 c 0.43198,-1.48744 0.60827,-3.03992 0.89258,-4.56055 0.36105,-3.13496 0.87121,-6.24868 1.38867,-9.36133 1.08314,-7.25399 1.35301,-14.54738 1.46485,-21.87695 0.39778,-9.6041 1.13058,-19.18681 1.625,-28.78515 0.12404,-5.19366 0.0133,-10.40177 0.27343,-15.58985 1.67985,-0.0876 3.36048,-0.16698 5.04102,-0.23633 5.11815,-0.18901 10.2387,-0.10494 15.33984,0.34375 3.60627,0.45481 7.20301,0.96967 10.82422,1.29688 0.38467,0.0253 0.76767,0.0479 1.15234,0.0723 l -4.33789,-16.18164 c -0.33215,-0.0379 -0.66586,-0.0753 -0.99804,-0.11328 -3.71749,-0.4377 -7.42372,-0.99313 -11.16407,-1.20508 -2.73705,-0.13724 -5.47714,-0.20411 -8.21679,-0.20312 z m 38.07617,0.24414 c -0.32034,4.38701 -0.41365,8.7851 -0.49023,13.18164 -0.095,8.54747 -0.39395,17.09229 -0.62305,25.63672 -0.17571,7.10105 -0.2239,14.20119 -0.51758,21.29883 -0.18332,4.26109 -0.5398,8.51262 -1.08398,12.74218 -0.35666,2.64233 -0.71755,5.28459 -1.1836,7.91016 -0.3944,1.95828 -0.78019,3.91613 -1.16211,5.87695 -0.0855,0.49774 -0.1915,0.99299 -0.29883,1.48633 l 4.47657,2.05274 -4.26563,0.5957 c 2.61073,2.54965 5.12848,5.1974 7.83203,7.64844 0.38595,0.34991 0.92426,0.48663 1.39258,0.71484 2.71809,1.32449 5.37653,1.93329 8.36133,2.35156 6.16244,0.6257 12.29608,0.30025 18.40039,-0.63086 5.28655,-0.99265 10.65157,-2.438 14.83984,-6 0.85896,-0.73047 1.59776,-1.59086 2.39649,-2.38671 3.62981,-4.59677 5.81606,-10.28089 6.16211,-16.14844 0.0665,-1.12693 -0.0191,-2.25786 -0.0254,-3.38672 -0.23651,-1.26152 -0.34374,-2.5553 -0.71094,-3.78516 -2.07124,-6.93708 -8.30403,-12.18595 -13.40625,-16.66601 -1.45943,-1.28144 -6.02692,-3.11392 -7.75391,-3.86719 -5.69712,-2.06174 -11.65253,-3.21761 -17.60156,-4.32813 2.9e-4,-0.0191 0.002,-0.0375 0.002,-0.0566 0.21213,-8.58352 0.53431,-17.16447 0.66016,-25.75 0.0421,-4.24599 0.06,-8.49758 0.33594,-12.73632 z m -123.66602,24.42383 c 0.27075,1.61688 0.51639,3.23865 0.74414,4.86133 0.6197,5.1567 1.44643,10.28462 2.34571,15.39843 -3.56142,0.29461 -7.11705,0.66725 -10.6543,1.17969 -0.24764,0.0386 -0.49476,0.0853 -0.74219,0.125 2.81491,-7.17146 5.62417,-14.34317 8.30664,-21.56445 z m -125.18945,4.04883 c 0.7795,2.46054 1.55102,4.92316 2.32422,7.38476 1.19699,3.86759 2.44734,7.719 3.70117,11.56836 -2.95113,0.19911 -5.90968,0.25617 -8.86328,0.47461 -0.47945,0.0222 -0.95902,0.03 -1.4375,0.043 0.75524,-4.26793 1.61026,-8.51764 2.62891,-12.73438 0.52476,-2.2519 1.07297,-4.49727 1.64648,-6.73632 z m 51.93555,11.38476 c 0.36191,0.35599 0.7327,0.70541 1.09961,1.05664 -0.0613,-0.0444 -0.10972,-0.0701 -0.17578,-0.12109 -0.34697,-0.26753 -1.23622,-1.24281 -0.92383,-0.93555 z m 2.30469,2.21289 c 1.26398,1.20365 2.51992,2.415 3.68945,3.70899 0.35118,0.38854 -0.9319,-0.48577 -1.35742,-0.79102 -0.43698,-0.31344 -0.81252,-0.70425 -1.21875,-1.05664 -0.40297,-0.60497 -0.76739,-1.22898 -1.11328,-1.86133 z m 209.00976,17.97266 c 6.28283,1.24188 12.69769,2.34193 18.43359,5.32812 0.91629,0.57416 1.87912,1.08169 2.75,1.72266 0.82286,0.60566 2.93841,2.81842 2.31641,2.00781 -1.40823,-1.83517 -3.27649,-3.28385 -4.69726,-5.10937 -1.00854,-1.29583 2.5597,2.08069 3.65429,3.30468 0.41207,0.4608 0.75614,0.97815 1.13477,1.4668 0.17128,0.60605 0.41695,1.19607 0.51367,1.81836 0.53709,3.45521 -0.6549,7.20157 -2.37109,10.14844 -0.35466,0.39038 -0.66765,0.8244 -1.06446,1.17187 -2.86223,2.50638 -7.09592,2.77249 -10.63867,3.48438 -4.19255,0.45159 -8.471,0.65531 -12.65625,0.0527 0.37584,-2.03267 0.71558,-4.0707 0.97461,-6.12304 0.64945,-4.50587 1.18148,-9.02605 1.4082,-13.57618 0.0985,-1.89859 0.17595,-3.79808 0.24219,-5.69726 z m -3.16016,28.21094 c 0.0706,0.0701 0.14027,0.14089 0.21094,0.21093 l -0.26367,0.0371 c 0.0177,-0.0823 0.0348,-0.16578 0.0527,-0.24804 z"
         style="fill:#0e16ff;fill-opacity:1;stroke-width:0;stroke-linejoin:round;paint-order:markers stroke fill"
         id="path155" />
    </g>
  </g>
</svg>
