<?xml version="1.0" encoding="UTF-8" standalone="no"?>
<svg
   xmlns:dc="http://purl.org/dc/elements/1.1/"
   xmlns:cc="http://creativecommons.org/ns#"
   xmlns:rdf="http://www.w3.org/1999/02/22-rdf-syntax-ns#"
   xmlns:svg="http://www.w3.org/2000/svg"
   xmlns="http://www.w3.org/2000/svg"
   xmlns:sodipodi="http://sodipodi.sourceforge.net/DTD/sodipodi-0.dtd"
   xmlns:inkscape="http://www.inkscape.org/namespaces/inkscape"
   sodipodi:docname="coworker.svg"
   inkscape:version="1.0 (6e3e5246a0, 2020-05-07)"
   id="svg8"
   version="1.1"
   viewBox="0 0 338.66666 190.50001"
   height="720"
   width="1280">
  <defs
     id="defs2" />
  <sodipodi:namedview
     inkscape:window-maximized="1"
     inkscape:window-y="27"
     inkscape:window-x="72"
     inkscape:window-height="704"
     inkscape:window-width="1294"
     inkscape:pagecheckerboard="true"
     units="px"
     showgrid="false"
     inkscape:document-rotation="0"
     inkscape:current-layer="layer1"
     inkscape:document-units="mm"
     inkscape:cy="413.23597"
     inkscape:cx="1028.6433"
     inkscape:zoom="0.55048947"
     inkscape:pageshadow="2"
     inkscape:pageopacity="0.0"
     borderopacity="1.0"
     bordercolor="#666666"
     pagecolor="#ffffff"
     id="base" />
  <metadata
     id="metadata5">
    <rdf:RDF>
      <cc:Work
         rdf:about="">
        <dc:format>image/svg+xml</dc:format>
        <dc:type
           rdf:resource="http://purl.org/dc/dcmitype/StillImage" />
        <dc:title></dc:title>
      </cc:Work>
    </rdf:RDF>
  </metadata>
  <g
     id="layer1"
     inkscape:groupmode="layer"
     inkscape:label="Слой 1">
    <g
       transform="translate(13.488179,5.8725341)"
       id="g70">
      <path
         id="path74"
         d="m 129.33155,184.94712 c 0.49122,-5.34464 1.59513,-15.025 1.72734,-15.1474 0.0786,-0.0728 0.0665,0.58208 -0.0268,1.45521 -0.0934,0.87312 -0.24777,4.83195 -0.34314,8.7974 l -0.17339,7.20989 h -0.69837 -0.69837 z m 2.4834,1.19062 c 0.0506,-0.61846 0.15092,-3.68432 0.22287,-6.81302 0.27036,-11.75623 0.87995,-20.5161 1.75176,-25.17259 0.44435,-2.37339 0.90609,-4.37775 1.02609,-4.45414 0.11999,-0.0764 0.30213,-0.9128 0.40474,-1.85868 0.10262,-0.94589 0.46656,-2.96995 0.80877,-4.49792 1.25378,-5.59825 2.22444,-11.09034 2.75895,-15.61042 1.03786,-8.77655 1.91126,-12.09532 4.541,-17.25494 0.52947,-1.03883 4.95746,-4.6075 7.02707,-5.66336 1.0386,-0.52986 1.18644,-0.54064 2.51354,-0.18315 1.51087,0.407 8.27406,0.32948 11.4642,-0.1314 l 1.5875,-0.22935 2.51354,1.41962 c 1.38245,0.7808 3.3437,1.67412 4.35833,1.98517 1.01464,0.31105 2.20526,0.77663 2.64584,1.03463 3.02526,1.77158 9.7412,2.11793 15.30148,0.78912 4.51953,-1.0801 8.00411,-2.44077 9.3155,-3.63757 1.25579,-1.14606 1.25469,-1.1458 3.71994,-0.87378 1.29912,0.14335 3.01688,0.33028 3.81725,0.4154 1.4042,0.14933 5.72205,1.20961 8.73125,2.14401 1.67999,0.52166 3.88746,2.04037 4.90522,3.37471 0.85013,1.11459 2.54906,5.50567 2.21115,5.71498 -0.1322,0.0819 0.0453,0.85579 0.39439,1.71979 0.34912,0.86401 0.78243,2.22576 0.96292,3.02612 0.1805,0.80037 0.60994,1.94192 0.95433,2.53679 0.34439,0.59487 0.62616,1.26389 0.62616,1.48672 0,0.5495 2.38943,6.32621 3.67121,8.87554 0.57093,1.13552 1.79418,3.06024 2.71832,4.27715 4.66736,6.14598 8.38536,12.09306 9.92198,15.87059 0.26053,0.64047 0.80205,1.68227 1.20339,2.3151 0.59598,0.93977 0.87509,1.15061 1.52317,1.15061 0.57839,0 0.91741,-0.19723 1.25066,-0.7276 0.25145,-0.40018 1.02491,-1.26339 1.7188,-1.91823 0.77994,-0.73606 2.4796,-3.14294 4.45182,-6.30421 1.8504,-2.96601 4.0339,-6.07732 5.19913,-7.40833 2.4088,-2.75153 5.29879,-6.77363 6.30655,-8.77704 0.4026,-0.80037 0.95485,-1.77125 1.22723,-2.15751 0.27238,-0.38627 0.49686,-0.98158 0.49885,-1.32292 0.002,-0.34134 0.0748,-0.88599 0.16169,-1.21034 0.14556,-0.54302 0.20232,-0.55873 0.71672,-0.19844 0.30725,0.21521 0.74557,0.39129 0.97405,0.39129 0.22847,0 1.18424,0.85132 2.12394,1.89183 2.99546,3.31681 7.45623,5.88993 11.1785,6.44812 0.8082,0.1212 1.24566,0.31801 1.24566,0.56041 0,0.88948 -2.45817,6.66706 -3.51712,8.26648 -0.63757,0.96298 -1.55829,2.46524 -2.04605,3.33837 -0.48776,0.87312 -1.8466,2.98959 -3.01965,4.70325 -1.17304,1.71367 -2.36946,3.4996 -2.6587,3.96875 -1.01076,1.63947 -7.6134,9.3306 -9.09359,10.59275 -0.82116,0.70019 -3.38686,2.34774 -5.70156,3.66121 -3.7526,2.12942 -4.50973,2.4562 -6.98881,3.01637 -1.52916,0.34552 -4.76453,0.81579 -7.18972,1.04503 l -4.40944,0.4168 -2.22779,-0.7022 c -1.22528,-0.38621 -2.77638,-0.97939 -3.44688,-1.31817 -2.12816,-1.07531 -4.73561,-4.37043 -6.95282,-8.78652 -0.67731,-1.34901 -1.45951,-2.68079 -1.73825,-2.95952 -0.27872,-0.27872 -0.87623,-1.37765 -1.32779,-2.44206 -0.45155,-1.0644 -0.9331,-2.11387 -1.07011,-2.33215 -0.58561,-0.93298 -2.11234,-4.34347 -2.11904,-4.73362 -0.004,-0.23416 -0.66831,-2.0331 -1.4762,-3.99763 -0.80789,-1.96453 -1.75522,-4.64344 -2.10518,-5.95313 -0.34996,-1.30968 -1.3928,-4.64343 -2.31741,-7.40833 -1.61459,-4.82816 -1.97312,-5.48594 -2.70383,-4.96061 -0.35168,0.25284 -0.0178,11.29212 0.39703,13.12622 0.20644,0.91279 0.2089,1.3853 0.008,1.6268 -0.19034,0.22936 -0.22375,1.58306 -0.10243,4.15074 0.12309,2.60501 0.0875,3.98337 -0.11261,4.35721 -0.19853,0.37096 -0.30307,4.02591 -0.32503,11.36386 -0.0178,5.94937 -0.1376,11.94812 -0.2662,13.33057 -0.12861,1.38245 -0.30868,3.91253 -0.40016,5.6224 l -0.16634,3.10885 h -29.81628 -29.81628 l 0.34869,-2.97656 c 0.19178,-1.63711 0.4001,-6.25078 0.46292,-10.25261 0.073,-4.64983 0.27084,-8.42202 0.54813,-10.45104 0.23866,-1.74625 0.47681,-4.00843 0.52924,-5.02708 0.18874,-3.66684 1.15563,-9.95126 2.90331,-18.87041 1.32819,-6.77826 1.70316,-9.15703 1.47882,-9.38137 -0.50416,-0.50416 -1.07506,0.34902 -1.65963,2.48024 -0.29553,1.07747 -0.5732,2.27226 -0.61703,2.65507 -0.0438,0.38282 -0.20272,1.0972 -0.35309,1.5875 -0.38102,1.24236 -1.87949,8.98107 -2.47806,12.79772 -0.27387,1.74625 -0.6256,3.88938 -0.78162,4.7625 -0.15602,0.87312 -0.32564,2.37524 -0.37693,3.33804 -0.0513,0.9628 -0.33717,3.15524 -0.6353,4.87208 -0.48416,2.78824 -1.22191,13.68413 -0.95569,14.11487 0.0571,0.0924 -0.11798,1.35779 -0.389,2.81209 -0.27103,1.45429 -0.57535,3.7455 -0.67627,5.09157 l -0.18349,2.44739 h -7.60137 -7.60136 z m 78.97426,-5.11527 c 0.0127,-0.30823 0.0754,-0.37092 0.15985,-0.15986 0.0764,0.191 0.067,0.4192 -0.0209,0.50712 -0.0879,0.0879 -0.15045,-0.0684 -0.13896,-0.34726 z m -81.22709,-5.02709 c 0.0127,-0.30822 0.0754,-0.37092 0.15985,-0.15985 0.0764,0.19099 0.067,0.4192 -0.0209,0.50712 -0.0879,0.0879 -0.15045,-0.0684 -0.13896,-0.34727 z m 134.65203,-7.91545 c 0.49366,-0.50932 0.95709,-0.92604 1.02985,-0.92604 0.0728,0 -0.27161,0.41672 -0.76526,0.92604 -0.49366,0.50932 -0.95709,0.92604 -1.02985,0.92604 -0.0728,0 0.27161,-0.41672 0.76526,-0.92604 z m -24.6768,-22.39012 c 0.17947,-0.18083 0.39297,-0.26212 0.47443,-0.18066 0.0815,0.0815 -0.0654,0.22941 -0.32632,0.32877 -0.37708,0.14358 -0.40747,0.11319 -0.14811,-0.14811 z m -4.99028,-6.78019 c -0.32911,-0.41965 -0.31975,-0.42901 0.0999,-0.0999 0.44073,0.34565 0.58088,0.56292 0.36312,0.56292 -0.0549,0 -0.2633,-0.20836 -0.46302,-0.46302 z m -99.4287,-2.60174 c 0.0127,-0.30822 0.0754,-0.37092 0.15985,-0.15985 0.0764,0.19099 0.067,0.4192 -0.0209,0.50712 -0.0879,0.0879 -0.15045,-0.0683 -0.13896,-0.34727 z m 146.0765,-1.5388 c -1.8603,-0.26467 -1.85614,-0.25445 -0.96842,-2.37906 0.33742,-0.80756 0.48797,-0.93992 0.7869,-0.69183 0.53501,0.44402 2.05027,2.86397 1.94402,3.10471 -0.0496,0.11226 -0.84268,0.097 -1.7625,-0.0338 z m -5.23652,-1.77337 c -0.56571,-0.45137 -1.89898,-1.42373 -2.96282,-2.16079 -1.06384,-0.73706 -2.09784,-1.64768 -2.29779,-2.02359 -0.19994,-0.37592 -0.63922,-0.98114 -0.97616,-1.34494 -0.46334,-0.50027 -0.62935,-1.02334 -0.68123,-2.14652 l -0.0686,-1.48505 1.25922,-0.16808 c 0.69258,-0.0924 2.1522,-0.45826 3.2436,-0.81292 1.09141,-0.35466 2.81781,-0.89921 3.83646,-1.21011 1.01865,-0.31089 2.05492,-0.67335 2.30284,-0.80546 0.24791,-0.1321 0.49974,-0.15333 0.55962,-0.0472 0.21805,0.38659 -0.0284,4.19322 -0.34652,5.35239 -0.17972,0.65485 -0.60605,2.5335 -0.94741,4.17479 -0.34135,1.64128 -0.69212,3.0998 -0.77947,3.24114 -0.29418,0.47598 -1.10673,0.26212 -2.14174,-0.56369 z m 5.23091,-5.00015 c 0,-0.36381 0.0601,-0.51263 0.13346,-0.33073 0.0734,0.1819 0.0734,0.47955 0,0.66145 -0.0734,0.18191 -0.13346,0.0331 -0.13346,-0.33072 z m -9.2054,-8.16691 c -1.91494,-1.19917 -3.11009,-4.21648 -2.64679,-6.68221 0.226,-1.20286 0.43511,-1.24692 6.98177,-1.47112 4.81844,-0.16501 4.82865,-0.16416 4.82865,0.40452 0,0.31736 -0.16739,0.56988 -0.37776,0.56988 -0.29577,0 -0.34964,0.30148 -0.24821,1.38907 0.20584,2.20695 -0.86824,3.49391 -4.36274,5.22744 -2.20419,1.09344 -3.12817,1.21791 -4.17492,0.56242 z m 10.50743,-0.4541 c 0.0127,-0.30823 0.0754,-0.37092 0.15986,-0.15985 0.0764,0.19099 0.067,0.4192 -0.0209,0.50712 -0.0879,0.0879 -0.15045,-0.0684 -0.13896,-0.34727 z m -14.87115,-0.30437 c -0.42283,-0.095 -1.68124,-2.98087 -1.29983,-2.98087 0.26398,0 1.06846,0.91043 1.07047,1.21145 8e-4,0.13407 0.18163,0.58889 0.40161,1.01072 0.44644,0.85606 0.43744,0.89569 -0.17225,0.7587 z m -6.73918,-1.08923 c -3.05114,-1.2707 -5.5611,-3.01118 -6.62358,-4.59297 -0.83107,-1.23727 -1.55429,-4.04998 -1.24716,-4.85037 0.25333,-0.66016 1.4302,-0.76881 2.85855,-0.26388 2.96154,1.0469 3.55471,1.45012 4.24565,2.886 0.71515,1.48621 0.73886,1.42538 -0.91213,2.34022 -0.80194,0.44436 -1.28424,1.14395 -0.99089,1.43729 0.0814,0.0814 0.81147,-0.15569 1.62234,-0.52692 l 1.47431,-0.67496 0.39472,0.9447 c 0.21709,0.51959 0.39472,1.04072 0.39472,1.15808 0,0.11735 0.14883,0.37594 0.33073,0.57463 0.62552,0.68328 1.48834,2.58724 1.16864,2.57882 -0.16981,-0.004 -1.39197,-0.45926 -2.7159,-1.01064 z m 21.71391,-3.23922 c -0.235,-0.74042 0.12521,-2.63206 0.53083,-2.78771 0.18589,-0.0713 0.88915,-0.0928 1.56281,-0.0477 l 1.22482,0.082 -1.16604,1.48298 c -1.34173,1.70641 -1.90798,2.04065 -2.15242,1.27049 z m -16.4897,-1.3891 -0.61335,-0.65289 0.57843,-0.18358 c 0.77228,-0.24511 1.21565,0.21782 0.89558,0.93512 -0.24628,0.55193 -0.24984,0.55153 -0.86066,-0.0986 z m -2.63454,-3.17987 c -0.92962,-1.46585 -1.44522,-3.1821 -1.32747,-4.41865 0.0775,-0.81432 0.17797,-0.91837 0.95876,-0.99342 0.97279,-0.0935 2.68396,0.65393 3.84116,1.67779 l 0.74454,0.65875 -0.33312,1.9825 c -0.24726,1.47153 -0.43916,1.98324 -0.74454,1.98541 -0.22629,0.002 -0.85133,0.0756 -1.38899,0.16453 -0.93563,0.15469 -1.01073,0.10935 -1.75034,-1.05691 z m 20.82536,0.69908 -0.95254,-0.10142 -0.17074,-2.83066 c -0.18821,-3.12022 -0.51883,-4.69368 -1.82267,-8.674337 l -0.87412,-2.668677 4.29525,-0.347438 c 2.77455,-0.224428 4.69666,-0.262782 5.42902,-0.108326 l 1.13376,0.23911 0.17686,1.448075 c 0.12278,1.005287 0.0621,1.722731 -0.19844,2.346293 -0.20641,0.49402 -0.3753,1.27142 -0.3753,1.72755 0,0.45613 -0.12037,1.24526 -0.2675,1.75363 -0.14713,0.50836 -0.32809,1.39825 -0.40212,1.97753 -0.1389,1.08682 -0.85944,2.35413 -2.44738,4.30457 -0.96395,1.18401 -1.02502,1.2002 -3.52408,0.9341 z m -14.52558,-0.2002 c 0,-0.062 0.17859,-0.79843 0.39687,-1.63647 0.21828,-0.83804 0.4,-1.94518 0.40383,-2.46031 0.009,-1.24903 1.10495,-5.67492 1.78611,-7.214788 0.53816,-1.216596 0.57347,-1.24075 2.85369,-1.951685 2.74683,-0.856417 2.4696,-1.054264 4.03712,2.881203 1.12148,2.81561 1.90039,6.40892 1.89818,8.75677 l -10e-4,1.3544 -4.82737,0.0138 c -2.65506,0.008 -5.21433,0.0939 -5.68727,0.19182 -0.47294,0.0979 -0.8599,0.12729 -0.8599,0.0653 z m -89.44343,-2.23012 c -0.22612,-0.14186 -1.7144,-0.63617 -3.30729,-1.09846 -1.59289,-0.4623 -3.13429,-0.98718 -3.42533,-1.16641 -0.29104,-0.17922 -1.00542,-0.47903 -1.5875,-0.66625 -1.39472,-0.44857 -3.34213,-1.5861 -3.17588,-1.8551 0.0724,-0.11705 0.73625,-0.35789 1.47534,-0.5352 1.13096,-0.27131 1.48559,-0.5165 2.2389,-1.54794 1.74398,-2.387879 2.28224,-3.668288 2.6505,-6.304985 0.19344,-1.384948 0.40549,-2.571875 0.47123,-2.637616 0.0657,-0.06574 2.2366,0.281509 4.82412,0.771668 3.8504,0.729388 4.97248,0.851358 6.17998,0.671769 0.81147,-0.120687 2.43774,-0.217519 3.61396,-0.215183 1.18234,0.0024 2.76153,-0.18075 3.53182,-0.409503 0.7663,-0.227566 1.46233,-0.344691 1.54674,-0.260281 0.0844,0.08441 0.55817,1.548193 1.0528,3.252856 1.12004,3.860035 1.97396,5.689615 3.04771,6.529945 l 0.83439,0.65301 -0.75276,0.2862 c -0.41401,0.15741 -1.09015,0.52644 -1.50251,0.82007 -0.41237,0.29363 -1.68369,0.87112 -2.82516,1.28331 -1.14148,0.4122 -2.42564,0.92533 -2.85371,1.1403 -0.42807,0.21497 -1.55221,0.57753 -2.4981,0.8057 -2.08931,0.50398 -8.95158,0.85079 -9.53925,0.4821 z m -34.117,-1.71253 c 0,-0.0549 0.20836,-0.2633 0.46302,-0.46302 0.41965,-0.3291 0.429,-0.31975 0.0999,0.0999 -0.34565,0.44073 -0.56292,0.58089 -0.56292,0.36312 z m 120.83194,-2.65625 c -1.50166,-1.06764 -3.27537,-1.60101 -4.53699,-1.36433 -1.64029,0.30772 -1.10484,-0.49595 0.93942,-1.41001 1.6789,-0.7507 6.87031,-2.417805 7.06424,-2.268525 0.0422,0.03248 -0.27063,0.937347 -0.69516,2.010805 -0.42454,1.07346 -0.85518,2.33734 -0.95698,2.80861 -0.1018,0.47128 -0.27398,0.9118 -0.38264,0.97895 -0.10864,0.0672 -0.753,-0.27282 -1.43189,-0.7555 z m -114.14617,-0.073 c 0.25743,-0.0671 0.61461,-0.0627 0.79375,0.01 0.17913,0.0725 -0.0315,0.12736 -0.46806,0.12197 -0.43656,-0.005 -0.58312,-0.0647 -0.32569,-0.13177 z m 59.41046,0.003 c 0.19099,-0.0764 0.4192,-0.067 0.50712,0.0209 0.0879,0.0879 -0.0684,0.15046 -0.34727,0.13897 -0.30822,-0.0127 -0.37092,-0.0754 -0.15985,-0.15985 z m -58.7375,-0.79375 c 0.19099,-0.0764 0.41919,-0.067 0.50711,0.0209 0.0879,0.0879 -0.0683,0.15046 -0.34726,0.13897 -0.30823,-0.0127 -0.37092,-0.0754 -0.15985,-0.15985 z m 104.33722,-2.20054 c 0,-0.36381 0.06,-0.51263 0.13345,-0.33073 0.0734,0.1819 0.0734,0.47955 0,0.66146 -0.0734,0.1819 -0.13345,0.0331 -0.13345,-0.33073 z m 3.46348,-3.108858 c 0.16987,-3.436212 0.85675,-6.004697 1.70976,-6.393354 1.17638,-0.535996 3.71878,-1.068864 7.06536,-1.48085 3.06791,-0.377682 3.45819,-0.379269 3.8219,-0.01556 0.36371,0.363709 0.34746,0.507585 -0.15913,1.408943 -0.31032,0.552127 -0.9374,2.035228 -1.39352,3.295777 -0.45612,1.260547 -0.96958,2.403655 -1.14103,2.540236 -0.17145,0.136583 -1.65201,0.619506 -3.29014,1.073163 -1.63813,0.453657 -3.76796,1.182825 -4.73295,1.620372 -0.96499,0.437551 -1.81446,0.795551 -1.8877,0.795551 -0.0732,0 -0.0699,-1.279929 0.007,-2.844278 z m 33.92241,0.180835 c -0.27148,-0.439264 -0.0278,-0.500176 0.35204,-0.088 0.18764,0.203605 0.22443,0.370189 0.0818,0.370189 -0.14267,0 -0.33788,-0.126984 -0.4338,-0.282186 z m 0.77949,-1.37146 -0.50403,-0.595312 0.59531,0.504028 c 0.32743,0.277215 0.59532,0.545105 0.59532,0.595313 0,0.211732 -0.21294,0.05542 -0.6866,-0.504029 z m -21.65777,-0.927343 c 0.25792,-0.399466 0.73805,-1.127009 1.06694,-1.616761 l 0.59799,-0.890455 0.55013,1.078355 c 0.67182,1.31686 0.67369,1.364017 0.0542,1.364017 -0.27275,0 -1.00043,0.178009 -1.61708,0.395573 l -1.12118,0.395573 z M 290.5402,95.40335 c -0.96312,-0.457091 -1.4868,-0.487476 -5.82084,-0.337724 l -4.7625,0.164557 -0.9864,-2.174605 -0.9864,-2.174605 0.72182,-0.897062 0.72182,-0.897062 3.70416,0.138804 c 2.0373,0.07634 4.61304,0.139237 5.72387,0.139768 l 2.0197,0.0011 0.19035,1.785937 c 0.1047,0.982266 0.31101,2.012349 0.45848,2.289077 0.2288,0.42935 0.1957,0.474538 -0.22568,0.308121 -1.25812,-0.496869 -4.52213,-1.206916 -5.49706,-1.195816 l -1.08216,0.01233 1.19063,0.619654 c 0.65484,0.34081 2.14312,0.943909 3.30729,1.340221 1.16417,0.396311 2.22779,0.824314 2.36361,0.951116 0.48661,0.454303 -0.001,0.419788 -1.04069,-0.07367 z M 187.35269,92.758994 c -1.60073,-0.126892 -4.25532,-0.410015 -5.8991,-0.629156 -1.64378,-0.219144 -3.10213,-0.328329 -3.24079,-0.242636 -0.13865,0.08569 -0.9964,-0.04108 -1.9061,-0.281712 -0.9097,-0.240636 -2.15779,-0.477041 -2.77353,-0.525349 -2.43521,-0.191053 -6.29689,-3.328707 -8.12908,-6.604979 -0.51179,-0.915159 -1.08992,-1.725091 -1.28473,-1.799849 -0.34515,-0.132445 -1.05053,-2.424353 -1.4015,-4.553715 -0.0959,-0.582083 -0.32397,-1.355989 -0.50673,-1.719791 -0.31008,-0.617236 -0.83033,-7.261278 -0.68369,-8.73125 0.0363,-0.363802 0.22695,-1.217729 0.42367,-1.897613 0.19673,-0.679887 0.4424,-2.611707 0.54593,-4.292939 0.16534,-2.685028 0.24978,-3.076313 0.69427,-3.217388 0.83148,-0.263904 3.6563,-2.7476 4.52229,-3.976188 0.54784,-0.777237 1.06915,-1.201054 1.62401,-1.320299 1.04161,-0.223855 3.05909,-1.690561 3.97234,-2.887887 l 0.70623,-0.925918 0.75999,0.56189 c 0.9415,0.696078 1.66389,0.55066 3.23965,-0.652149 l 1.15489,-0.881543 0.44148,0.585292 c 0.56206,0.745129 2.07079,1.03522 3.2905,0.632679 0.59519,-0.196432 1.00237,-0.21653 1.108,-0.05469 0.6105,0.93537 2.3389,1.092445 4.20763,0.382383 l 1.26818,-0.481871 0.72494,0.735573 c 0.85239,0.864895 2.35044,1.218999 3.4312,0.811058 0.50286,-0.189808 0.99035,-0.202996 1.42302,-0.0385 0.36197,0.137621 0.94959,0.177068 1.30582,0.08766 0.49391,-0.123963 0.77302,-0.0032 1.17549,0.50842 0.61334,0.779737 1.73298,1.098735 2.65404,0.756168 0.58822,-0.218776 0.66951,-0.155171 0.91704,0.71759 0.2807,0.989732 1.27321,1.695053 2.82588,2.008195 0.39393,0.07945 1.05651,0.508537 1.4724,0.953535 0.71326,0.76319 0.75918,0.953732 0.80947,3.359179 0.0293,1.40255 0.18313,3.031773 0.34178,3.620497 0.16382,0.607946 0.32159,4.147169 0.36516,8.191883 0.0721,6.693654 0.0398,7.273822 -0.53784,9.657292 -0.91039,3.756525 -1.40562,4.705813 -3.33338,6.389693 -2.99405,2.615279 -4.60897,3.531959 -8.53025,4.842065 -2.01813,0.674261 -3.80407,1.207738 -3.96875,1.185505 -0.16467,-0.02223 -1.6091,-0.144245 -3.20983,-0.271139 z m -1.5875,-7.655137 c 1.91214,-0.525455 4.91475,-2.154065 6.10612,-3.311943 1.25582,-1.220515 1.56574,-1.916393 0.63061,-1.415926 -0.40871,0.218737 -0.3126,-0.02694 0.39687,-1.014476 0.51491,-0.716711 0.93619,-1.423199 0.93619,-1.569971 0,-0.146772 0.26789,-0.453729 0.59532,-0.682127 0.59466,-0.414812 0.59437,-0.415282 -0.25974,-0.429147 -0.47028,-0.0076 -2.67293,0.303806 -4.89479,0.692084 -3.39192,0.592752 -4.89971,0.712319 -9.40232,0.745599 -5.78172,0.04273 -6.20687,0.138988 -5.68389,1.286822 0.77091,1.691949 4.20753,4.535802 6.62172,5.479563 1.42468,0.556937 3.40648,0.644758 4.95391,0.219522 z m -4.14227,-1.662462 c -0.532,-0.190034 -1.49331,-0.653798 -2.13625,-1.030586 -1.19594,-0.700868 -4.00466,-3.090058 -3.83367,-3.261048 0.0522,-0.05219 1.0198,0.08208 2.15025,0.298373 4.15615,0.795203 8.76404,0.437328 14.17237,-1.100711 0.63887,-0.181684 0.63387,-0.160396 -0.21348,0.909468 -1.10864,1.399767 -4.43181,3.627781 -6.18956,4.149778 -1.63617,0.485889 -2.6614,0.494903 -3.94966,0.03473 z m 11.80602,-15.869909 c 0.3745,-0.374496 0.69794,-1.09583 0.8008,-1.785937 0.20908,-1.402694 0.0249,-8.395023 -0.23692,-8.993217 -0.24521,-0.560321 -1.41742,-1.083783 -2.00754,-0.896487 -0.85957,0.272817 -1.3253,2.80607 -1.3253,7.208803 v 3.998335 l 0.69714,0.54837 c 0.89826,0.706565 1.30091,0.691042 2.07182,-0.07987 z m -15.77642,-0.832551 c 0.48167,-0.612349 0.52016,-1.032515 0.46935,-5.124511 -0.0454,-3.657944 -0.13482,-4.578768 -0.49844,-5.133726 -0.62324,-0.951187 -1.36844,-1.115309 -2.38267,-0.524748 -0.80922,0.471191 -0.861,0.596868 -1.01651,2.467523 -0.27394,3.295253 -0.24896,6.208998 0.0614,7.157082 0.59951,1.831647 2.36069,2.437577 3.36691,1.15838 z m 85.72311,22.590154 c 0.56211,-1.330696 1.663,-2.175428 3.57514,-2.743272 1.70541,-0.506452 2.6402,-0.498186 3.69267,0.03265 0.87392,0.440782 2.30197,1.657016 2.30197,1.960536 0,0.09457 -1.33946,0.315997 -2.97657,0.492058 -2.77103,0.298014 -5.52497,0.810864 -6.61598,1.232057 -0.43708,0.168735 -0.43574,0.111376 0.0228,-0.974032 z m 27.26614,-0.61078 c -0.0836,-0.08359 -2.32186,-0.258107 -4.97392,-0.387808 -2.65206,-0.129699 -4.89423,-0.308115 -4.98259,-0.396475 -0.26398,-0.263986 1.296,-1.742681 2.67743,-2.537913 1.00476,-0.578398 1.44253,-0.693774 1.98438,-0.522994 0.38236,0.120515 1.11193,0.293304 1.62125,0.383977 1.02955,0.183285 4.10709,2.768256 3.92961,3.300669 -0.0573,0.171892 -0.17257,0.244136 -0.25616,0.160544 z m -14.25678,-0.774732 c 0,-0.05494 0.20836,-0.2633 0.46302,-0.463021 0.41964,-0.329107 0.429,-0.319749 0.0999,0.0999 -0.34565,0.44073 -0.56292,0.580888 -0.56292,0.363125 z m 15.0475,-2.744375 c -0.32911,-0.419645 -0.31975,-0.429003 0.0999,-0.0999 0.44073,0.345644 0.58088,0.562917 0.36312,0.562917 -0.0549,0 -0.2633,-0.208359 -0.46302,-0.463021 z m -11.08981,-0.926041 c 0.64876,-0.691224 1.21431,-1.256771 1.25677,-1.256771 0.19867,0 -0.0114,0.237551 -1.17957,1.333973 l -1.25677,1.179568 z m -72.17842,-8.135938 c 0,-0.363802 0.06,-0.51263 0.13345,-0.330729 0.0734,0.181901 0.0734,0.479557 0,0.661458 -0.0734,0.181902 -0.13345,0.03307 -0.13345,-0.330729 z m 0,-7.408333 c 0,-0.363802 0.06,-0.51263 0.13345,-0.330729 0.0734,0.181901 0.0734,0.479557 0,0.661458 -0.0734,0.181901 -0.13345,0.03307 -0.13345,-0.330729 z m -49.02277,-0.264583 c -0.0499,-0.399328 -0.1133,-0.590574 -0.48234,-1.455209 -0.19713,-0.461891 -0.3538,-2.010568 -0.3747,-3.704166 -0.0315,-2.549131 0.0413,-3.074638 0.58625,-4.233333 0.5876,-1.249405 0.63763,-1.289836 0.90033,-0.727604 0.15298,0.327421 0.37383,0.595312 0.49076,0.595312 0.17531,0 0.34959,4.694444 0.27716,7.465687 -0.0327,1.252659 -1.27033,3.076379 -1.39746,2.059313 z m 49.39792,-2.168263 c -0.356,-0.508204 -0.39797,-1.050901 -0.2518,-3.255695 0.0965,-1.455209 0.33692,-3.107288 0.53431,-3.671287 0.19739,-0.563999 0.3589,-1.6583 0.3589,-2.43178 0,-1.433195 0.18576,-1.813317 0.72368,-1.48086 0.60619,0.374639 0.9171,1.833184 1.05265,4.938093 0.12786,2.928919 0.0888,3.298 -0.50424,4.761979 -0.70613,1.743218 -1.2597,2.072883 -1.9135,1.13955 z M 160.84364,55.779912 c -1.71759,-0.618283 -1.93366,-0.752702 -1.93366,-1.202946 0,-0.199298 -0.19824,-0.5606 -0.44053,-0.802892 -0.39472,-0.394718 -0.40784,-0.692473 -0.12621,-2.86317 0.17288,-1.332451 0.36101,-2.806785 0.41808,-3.276298 0.0571,-0.469512 0.35198,-1.202267 0.65537,-1.628343 0.30339,-0.426077 0.55163,-0.898537 0.55163,-1.049912 0,-0.613735 1.89427,-4.377848 2.53109,-5.029537 0.37566,-0.384431 1.39463,-1.677457 2.26437,-2.873392 2.64608,-3.63848 6.60612,-6.178544 11.03603,-7.078763 1.21299,-0.246498 2.87987,-0.684908 3.70416,-0.974245 1.38308,-0.485476 1.90702,-0.511659 6.79039,-0.339329 2.91042,0.102707 5.70838,0.213678 6.21771,0.246602 1.21202,0.07835 4.02432,0.847489 5.68732,1.555429 1.43621,0.611395 5.16059,2.996505 5.16059,3.304865 0,0.104716 0.53721,0.780712 1.19379,1.502214 1.0825,1.189532 3.18047,4.589123 4.07516,6.603487 0.45949,1.034505 1.8748,8.137781 1.8748,9.409367 0,0.902114 -0.0887,1.019722 -1.06368,1.409821 -1.60572,0.642477 -2.81073,0.55466 -3.5656,-0.259856 -0.51875,-0.559742 -0.78328,-0.652949 -1.44231,-0.508201 -0.70444,0.15472 -0.78479,0.115719 -0.63197,-0.306728 0.0963,-0.266192 0.40496,-0.815634 0.6859,-1.220981 0.53802,-0.776243 0.4639,-1.511963 -0.15233,-1.511963 -0.20118,0 -0.93634,0.303371 -1.6337,0.674159 -1.28357,0.682482 -2.44069,0.702694 -3.24266,0.05664 -0.39531,-0.318457 -0.43953,-1.426076 -0.0661,-1.656843 0.37535,-0.231978 0.32853,-1.124447 -0.0661,-1.260742 -0.54623,-0.188634 -1.40557,0.331832 -1.88336,1.140669 -0.52352,0.886254 -1.7678,1.229213 -2.89912,0.799084 -0.40814,-0.155175 -1.1383,-0.282136 -1.62258,-0.282136 -1.20186,0 -1.35996,-0.591556 -0.54691,-2.046274 0.36486,-0.652801 0.59789,-1.292883 0.51784,-1.422402 -0.33597,-0.543611 -1.41527,-0.198068 -2.21056,0.707726 -1.49159,1.698819 -5.90099,3.26051 -5.62965,1.993869 0.0436,-0.203613 0.0124,-0.544444 -0.0693,-0.757402 -0.11549,-0.300965 -0.23149,-0.318391 -0.52085,-0.07824 -0.21288,0.176678 -0.97618,0.274395 -1.7828,0.228236 l -1.41055,-0.08072 0.0355,-1.376309 0.0354,-1.376309 -0.8292,0.15158 c -0.94714,0.17314 -2.92603,1.224265 -3.80577,2.021501 l -0.59531,0.539486 -0.61237,-0.575287 c -0.3368,-0.316408 -0.72426,-0.575287 -0.86102,-0.575287 -0.13676,0 -1.02205,0.895909 -1.96732,1.99091 -1.53794,1.781554 -3.27928,3.300756 -3.78341,3.300756 -0.10132,0 -0.18421,-0.171954 -0.18421,-0.382121 0,-0.210166 -0.28402,-0.712312 -0.63116,-1.11588 -0.56222,-0.653622 -0.68109,-0.692315 -1.08839,-0.354283 -0.36438,0.302405 -0.42607,0.642668 -0.30377,1.675352 0.18504,1.562315 -0.17654,2.36865 -1.87765,4.187275 -1.36035,1.454324 -1.80689,1.54101 -3.95496,0.767762 z m 30.03132,-27.448428 c 0.19099,-0.07643 0.4192,-0.06703 0.50712,0.02089 0.0879,0.08792 -0.0684,0.150453 -0.34727,0.138964 -0.30823,-0.0127 -0.37092,-0.07539 -0.15985,-0.159852 z m -12.31463,-1.060947 c 0.25743,-0.06708 0.61462,-0.06267 0.79375,0.0098 0.17913,0.07248 -0.0315,0.127362 -0.46806,0.12197 -0.43656,-0.0054 -0.58312,-0.06469 -0.32569,-0.131774 z m 2.64583,0 c 0.25744,-0.06708 0.61462,-0.06267 0.79375,0.0098 0.17913,0.07248 -0.0315,0.127362 -0.46805,0.12197 -0.43656,-0.0054 -0.58313,-0.06469 -0.3257,-0.131774 z"
         style="fill:#ffffff;stroke-width:0.264583" />
      <path
         id="path72"
         d="m 128.74881,186.97559 c 7.3e-4,-0.20616 0.18042,-2.39889 0.39931,-4.87274 0.21889,-2.47386 0.45816,-5.50995 0.53171,-6.74688 0.15193,-2.55522 1.8394,-14.73357 2.23634,-16.13958 0.1438,-0.50932 0.38503,-2.59292 0.53608,-4.63021 0.15105,-2.03729 0.50822,-5.07339 0.79372,-6.74687 0.28549,-1.67349 0.65197,-3.93568 0.81438,-5.02709 0.16242,-1.0914 0.51819,-3.05594 0.7906,-4.36562 0.27241,-1.30969 0.79014,-4.28625 1.15051,-6.61459 0.36037,-2.32833 0.89784,-5.36442 1.19439,-6.74687 0.29654,-1.38245 0.54104,-2.82112 0.54332,-3.19705 0.002,-0.37593 0.0852,-0.76456 0.18426,-0.86362 0.0991,-0.0991 0.38519,-0.98211 0.63584,-1.96232 0.25065,-0.98022 1.00211,-2.95595 1.66991,-4.39052 0.66779,-1.43456 1.15028,-2.71166 1.07221,-2.83799 -0.25198,-0.40771 0.50896,-1.50839 2.3739,-3.43383 1.91461,-1.97671 3.54646,-3.20875 4.3222,-3.26323 0.2538,-0.0178 1.00767,-0.3587 1.67526,-0.75751 1.50332,-0.89806 3.03827,-1.1768 5.26848,-0.95673 0.94589,0.0933 3.61542,0.18361 5.93229,0.20062 3.46878,0.0255 4.29271,-0.0417 4.6668,-0.3802 0.24987,-0.22613 1.3308,-0.85121 2.40208,-1.38907 1.92815,-0.96806 1.96148,-1.00272 3.30494,-3.437217 0.74643,-1.352611 1.43673,-2.959955 1.53401,-3.571875 0.0973,-0.61192 0.24074,-1.369102 0.31883,-1.682626 0.12393,-0.497559 -0.0375,-0.62277 -1.26942,-0.984707 -0.89355,-0.26252 -1.79971,-0.783442 -2.46974,-1.419768 -1.15138,-1.093472 -4.67895,-5.607952 -5.60062,-7.167498 -1.63843,-2.772365 -2.86572,-6.922511 -3.38553,-11.448283 -0.15923,-1.386414 -0.21107,-1.474152 -0.804,-1.360808 -0.87494,0.167257 -1.76218,-0.854175 -2.52988,-2.912543 -0.80605,-2.161178 -0.94562,-4.819798 -0.37847,-7.209266 0.54653,-2.302643 0.55863,-2.798633 0.11442,-4.692788 -0.3121,-1.330796 -0.3007,-1.754552 0.0925,-3.439583 0.24664,-1.056988 0.62048,-2.993358 0.83076,-4.303046 0.25866,-1.61093 0.77157,-3.275776 1.58553,-5.146453 1.30459,-2.998239 3.98231,-7.274358 4.39537,-7.019073 0.1408,0.08702 0.256,0.04662 0.256,-0.08977 0,-0.136394 0.77695,-1.087174 1.72657,-2.112845 1.86568,-2.015116 4.38828,-3.770159 6.19858,-4.312538 0.89791,-0.26902 1.03137,-0.378765 0.63964,-0.525978 -0.41978,-0.157758 -0.35428,-0.246116 0.43104,-0.581457 1.52581,-0.651539 3.68949,-0.992155 6.8923,-1.08502 1.66627,-0.04831 3.98207,-0.234886 5.14624,-0.414607 2.60376,-0.401962 5.22954,-0.178035 7.39167,0.630365 0.88229,0.329881 2.12272,0.681078 2.75652,0.780437 0.63379,0.09936 2.49357,0.72619 4.13285,1.392957 3.67042,1.492925 5.39649,2.833369 7.69335,5.974541 1.95819,2.678006 2.76265,4.178918 3.68321,6.871925 0.36348,1.063345 0.84779,2.46027 1.07624,3.104278 0.43318,1.221189 0.54638,4.193221 0.23802,6.24951 -0.12513,0.834442 -0.39539,1.366032 -0.91809,1.805852 -0.73186,0.615825 -0.73462,0.629433 -0.22997,1.134083 1.16613,1.166136 1.69683,8.407117 0.74633,10.183143 -0.17689,0.330518 -0.33394,0.839383 -0.349,1.130814 -0.0413,0.799824 -1.62819,1.773438 -2.40753,1.477131 l -0.62276,-0.236773 0.14472,3.359325 c 0.19648,4.560855 -0.21556,7.625315 -1.47663,10.982092 -0.55705,1.482791 -1.3518,3.350826 -1.7661,4.15119 -0.4143,0.800365 -0.75977,1.51474 -0.76769,1.5875 -0.0403,0.369504 -0.88248,1.279734 -1.46576,1.584138 -0.3638,0.189857 -0.75795,0.508698 -0.87589,0.708535 -0.11794,0.199837 -1.1354,0.826392 -2.26102,1.392343 l -2.04659,1.029005 0.1588,1.545592 c 0.0875,0.851882 0.46234,2.139366 0.83509,2.868512 0.37197,0.727604 0.99231,2.281127 1.37855,3.452264 l 0.70224,2.12936 1.45584,0.49485 c 0.80071,0.27217 1.58743,0.65342 1.74826,0.84721 0.21704,0.26151 1.25608,0.35642 4.03034,0.36812 2.05586,0.009 4.30347,0.12774 4.99469,0.26459 0.69122,0.13684 1.76279,0.34669 2.38125,0.46632 1.19164,0.23049 2.70108,0.92426 2.97491,1.36731 0.10975,0.17759 -0.0658,0.17821 -0.52962,0.002 -1.27669,-0.4854 -1.61449,-0.29412 -0.65188,0.36913 0.50521,0.3481 0.98414,0.59386 1.06429,0.54613 0.0801,-0.0477 0.774,0.49084 1.54191,1.19682 0.7679,0.70597 1.44852,1.29184 1.51249,1.30194 0.26845,0.0423 1.67047,1.81445 1.5393,1.94562 -0.22226,0.22227 2.99026,7.39199 3.38813,7.56165 0.11375,0.0485 0.20683,0.52555 0.20683,1.06008 0,0.53454 0.12559,1.38781 0.27909,1.89618 0.1535,0.50836 0.32726,1.1029 0.38615,1.32117 0.1962,0.72734 4.00333,9.36492 4.97677,11.29125 0.52766,1.0442 1.08323,1.97507 1.23457,2.06861 0.15135,0.0935 0.44891,0.58586 0.66125,1.09405 0.21233,0.50819 1.16449,1.77689 2.11592,2.81934 0.95142,1.04246 2.21419,2.61281 2.80614,3.4897 l 1.07629,1.59434 -0.9737,-1.05834 c -0.53553,-0.58207 -0.88383,-0.87973 -0.77401,-0.66145 0.34466,0.68504 2.54801,3.76922 3.86251,5.40665 0.69329,0.86361 1.51308,2.23282 1.82175,3.04271 0.30867,0.80989 0.67077,1.67926 0.80466,1.93195 0.13389,0.25269 0.24723,0.66941 0.25185,0.92604 0.005,0.25664 0.16295,0.66999 0.35182,0.91856 0.30425,0.40046 0.4719,0.21078 1.4709,-1.66414 0.62012,-1.16386 2.24663,-3.5986 3.61446,-5.41055 3.09352,-4.09796 4.51352,-6.13913 5.75014,-8.26551 0.53067,-0.9125 1.53745,-2.34712 2.23729,-3.18806 0.69983,-0.84094 1.85342,-2.41607 2.56353,-3.50029 0.71011,-1.08423 1.85532,-2.74523 2.54492,-3.69111 0.70329,-0.96468 1.33845,-2.17135 1.44658,-2.74823 0.21031,-1.12197 1.02348,-2.13042 1.5538,-1.92692 0.53731,0.20619 0.85922,-0.15332 1.04557,-1.16767 0.15292,-0.83241 0.0953,-0.98398 -0.47274,-1.24278 -0.35579,-0.16211 -0.91563,-0.65823 -1.24408,-1.10249 -0.44464,-0.60141 -0.80878,-0.80775 -1.42546,-0.80775 -2.14929,0 -7.02916,-2.21131 -9.7989,-4.44037 -2.17232,-1.74825 -3.38147,-4.0918 -3.51929,-6.82094 -0.0927,-1.83576 -0.059,-1.97409 0.65367,-2.67938 0.41328,-0.40902 0.72781,-0.82029 0.69897,-0.91391 -0.0289,-0.0936 0.30452,-0.3181 0.74082,-0.49882 1.08865,-0.45093 3.08264,-0.17291 4.72355,0.6586 0.73895,0.37445 1.34354,0.55295 1.34354,0.39665 0,-0.32519 -0.57016,-2.72168 -0.67969,-2.8569 -0.0399,-0.0492 -0.43754,0.18048 -0.88376,0.51038 -1.1452,0.84668 -1.23571,0.51534 -0.19282,-0.70594 l 0.88632,-1.03791 -0.26831,-1.85208 c -0.14756,-1.01864 -0.27892,-2.882706 -0.2919,-4.142361 -0.0149,-1.451006 -0.12083,-2.233784 -0.28891,-2.136105 -0.87808,0.510291 -3.44285,2.624413 -4.63423,3.819961 l -1.39529,1.400185 0.63315,-1.160125 c 0.61995,-1.135926 2.70656,-3.205216 4.91949,-4.87865 0.70298,-0.531598 1.17562,-1.132062 1.28629,-1.634151 0.4042,-1.833745 1.93281,-4.535268 3.45365,-6.103633 1.31261,-1.35364 1.88199,-1.723753 3.6269,-2.357594 4.44515,-1.61471 7.22486,-0.708083 10.43035,3.401946 l 0.59395,0.761553 3.0453,-2.840214 c 3.19177,-2.976817 3.72046,-3.267454 6.35014,-3.490841 1.13099,-0.09608 1.43444,-0.01455 2.09167,0.561845 0.42282,0.370827 0.90771,0.67423 1.07755,0.67423 0.16983,0 1.29274,1.008067 2.49535,2.24015 1.97467,2.023073 2.17017,2.314713 2.01755,3.009604 -0.16615,0.756472 -0.13988,0.77734 1.5573,1.236741 1.81889,0.492353 2.84199,1.249387 2.35144,1.739937 -0.19219,0.192186 -0.56927,0.149964 -1.23729,-0.138543 -0.52848,-0.228235 -1.38562,-0.598522 -1.90477,-0.822862 l -0.9439,-0.40789 0.18397,1.267785 c 0.10119,0.697283 0.30523,1.50086 0.45344,1.785729 0.14821,0.284869 0.25975,0.859782 0.24787,1.277585 -0.0173,0.609357 0.33843,1.099275 1.79826,2.476397 1.05195,0.992362 1.76257,1.86603 1.6841,2.070521 -0.16201,0.422174 -0.75101,0.159557 -2.29111,-1.02153 -0.54828,-0.420476 -1.06751,-0.693864 -1.15384,-0.607533 -0.25612,0.256121 -0.62643,2.511221 -0.88601,5.395603 -0.22501,2.50026 -0.32198,2.82564 -1.30684,4.38505 -1.35897,2.15178 -2.24641,4.15573 -1.96008,4.42609 0.12279,0.11594 0.46138,0.26807 0.75242,0.33808 0.33958,0.0817 0.21815,0.13828 -0.33894,0.15797 -0.75117,0.0266 -1.34323,0.51778 -4.39548,3.64684 l -3.52736,3.61616 -0.15,2.31527 c -0.0825,1.27341 -0.3665,2.92484 -0.63111,3.66986 -0.42362,1.19273 -0.43374,1.38557 -0.0847,1.61403 0.34505,0.22587 0.33643,0.29479 -0.0667,0.53236 -0.69479,0.40948 -0.61387,2.02947 0.13635,2.72979 0.8503,0.79375 1.78188,2.16034 1.78188,2.61395 0,0.21189 0.312,0.84502 0.69334,1.40695 0.67161,0.98967 0.68363,1.07599 0.38362,2.75472 -0.36674,2.05215 -0.79209,2.93734 -0.82718,1.72139 -0.0225,-0.78178 -0.35042,0.0989 -1.41137,3.79091 -0.18098,0.62979 -0.46578,1.22958 -0.63289,1.33286 -0.16711,0.10328 -0.79255,1.23066 -1.38986,2.50528 -0.59731,1.27462 -2.05354,3.71093 -3.23607,5.41401 -1.18253,1.70309 -2.57318,3.76724 -3.09034,4.58702 -0.51716,0.81977 -2.32706,3.32165 -4.02199,5.55973 -3.66555,4.8402 -6.7505,7.73434 -10.41205,9.76806 -0.87313,0.48496 -1.64704,0.96151 -1.7198,1.05901 -0.62247,0.83408 -8.32511,3.51798 -11.31229,3.94164 -2.56021,0.3631 -10.27409,0.4264 -10.70075,0.0878 -0.38565,-0.30604 -3.25089,-1.28477 -3.2614,-1.11404 -0.01,0.15815 -2.77151,-1.84529 -3.64257,-2.64239 -0.40639,-0.37188 -1.52774,-1.98847 -2.4919,-3.5924 -0.96415,-1.60391 -2.19227,-3.57107 -2.72915,-4.37143 -1.43728,-2.14266 -6.20182,-11.7459 -6.89169,-13.89063 -0.32765,-1.01864 -0.94894,-2.68552 -1.38065,-3.70416 -0.4317,-1.01865 -1.28828,-3.27055 -1.90349,-5.00422 l -1.11858,-3.15214 -0.18044,6.85631 c -0.0992,3.77096 -0.36471,8.61888 -0.58994,10.77314 -0.22522,2.15427 -0.34586,4.08269 -0.26808,4.28538 0.0778,0.20269 0.0451,0.97757 -0.0725,1.72195 -0.11816,0.74748 -0.0997,2.50102 0.0413,3.9167 0.17587,1.7662 0.15612,4.20882 -0.0635,7.85496 -0.17532,2.91042 -0.41624,6.95854 -0.53535,8.99583 -0.11912,2.03729 -0.22621,3.73393 -0.23799,3.77032 -0.0118,0.0364 -0.26997,0.0661 -0.57377,0.0661 -0.53925,0 -0.54837,-0.0771 -0.38352,-3.24114 0.0929,-1.78263 0.26977,-4.25318 0.3931,-5.49011 0.12333,-1.23693 0.24014,-7.17515 0.25959,-13.19605 0.0241,-7.45457 0.12911,-11.12226 0.32921,-11.49615 0.20152,-0.37655 0.23727,-1.74627 0.1138,-4.35944 -0.12132,-2.56768 -0.0879,-3.92138 0.10243,-4.15074 0.20043,-0.2415 0.19797,-0.71401 -0.008,-1.6268 -0.4148,-1.8341 -0.7487,-12.87338 -0.39702,-13.12622 0.73071,-0.52533 1.08924,0.13245 2.70383,4.96061 0.92461,2.7649 1.96744,6.09865 2.31741,7.40833 0.34995,1.30969 1.29729,3.9886 2.10518,5.95313 0.80789,1.96453 1.47218,3.76347 1.4762,3.99763 0.007,0.39015 1.53343,3.80064 2.11903,4.73362 0.13702,0.21828 0.61857,1.26775 1.07012,2.33215 0.45156,1.06441 1.04906,2.16334 1.32779,2.44206 0.27873,0.27873 1.06094,1.61051 1.73824,2.95952 2.21722,4.41609 4.82467,7.71121 6.95283,8.78652 0.6705,0.33878 2.2216,0.93196 3.44688,1.31817 l 2.22779,0.7022 4.40944,-0.4168 c 2.42519,-0.22924 5.66056,-0.69951 7.18971,-1.04503 2.47908,-0.56017 3.23621,-0.88695 6.98882,-3.01637 2.31469,-1.31347 4.8804,-2.96102 5.70155,-3.66121 1.4802,-1.26215 8.08283,-8.95328 9.0936,-10.59275 0.28924,-0.46915 1.48565,-2.25508 2.6587,-3.96875 1.17304,-1.71366 2.53189,-3.83013 3.01964,-4.70325 0.48777,-0.87313 1.40849,-2.37539 2.04606,-3.33837 1.05894,-1.59942 3.51711,-7.377 3.51711,-8.26648 0,-0.2424 -0.43746,-0.43921 -1.24566,-0.56041 -3.72227,-0.55819 -8.18304,-3.13131 -11.1785,-6.44812 -0.9397,-1.04051 -1.89547,-1.89183 -2.12394,-1.89183 -0.22848,0 -0.6668,-0.17608 -0.97405,-0.39128 -0.5144,-0.3603 -0.57116,-0.34458 -0.71672,0.19843 -0.0869,0.32436 -0.1597,0.869 -0.16169,1.21034 -0.002,0.34134 -0.22647,0.93665 -0.49885,1.32293 -0.27238,0.38625 -0.82463,1.35713 -1.22723,2.15751 -1.00776,2.00341 -3.89775,6.02551 -6.30655,8.77704 -1.16523,1.331 -3.34873,4.44232 -5.19913,7.40833 -1.97222,3.16127 -3.67188,5.56815 -4.45182,6.30421 -0.69389,0.65484 -1.46735,1.51805 -1.7188,1.91823 -0.33325,0.53037 -0.67227,0.7276 -1.25066,0.7276 -0.64808,0 -0.92719,-0.21084 -1.52317,-1.15061 -0.40134,-0.63283 -0.94286,-1.67463 -1.20339,-2.3151 -1.53662,-3.77754 -5.25462,-9.72461 -9.92198,-15.87059 -0.92414,-1.21691 -2.14739,-3.14163 -2.71832,-4.27715 -1.28178,-2.54933 -3.67121,-8.32604 -3.67121,-8.87554 0,-0.22283 -0.28177,-0.89185 -0.62616,-1.48672 -0.34439,-0.59487 -0.77383,-1.73642 -0.95433,-2.53679 -0.18049,-0.80036 -0.6138,-2.16211 -0.96292,-3.02612 -0.34911,-0.864 -0.52659,-1.6379 -0.39439,-1.71979 0.33791,-0.20931 -1.36102,-4.60039 -2.21115,-5.71498 -1.01776,-1.33434 -3.22523,-2.85305 -4.90522,-3.37471 -3.0092,-0.9344 -7.32705,-1.99468 -8.73125,-2.14401 -0.80037,-0.0851 -2.51813,-0.27205 -3.81725,-0.4154 -2.46525,-0.27202 -2.46415,-0.27228 -3.71994,0.87378 -1.31139,1.1968 -4.79597,2.55747 -9.3155,3.63757 -5.56028,1.32881 -12.27622,0.98246 -15.30148,-0.78912 -0.44058,-0.258 -1.6312,-0.72358 -2.64584,-1.03463 -1.01463,-0.31105 -2.97588,-1.20437 -4.35833,-1.98517 l -2.51354,-1.41962 -1.5875,0.22935 c -3.19014,0.46088 -9.95333,0.5384 -11.4642,0.1314 -1.3271,-0.35749 -1.47494,-0.34671 -2.51354,0.18315 -2.06961,1.05586 -6.4976,4.62453 -7.02707,5.66336 -2.62974,5.15962 -3.50314,8.47839 -4.541,17.25494 -0.53451,4.52008 -1.50517,10.01217 -2.75895,15.61042 -0.34221,1.52797 -0.70615,3.55203 -0.80877,4.49792 -0.10261,0.94588 -0.28475,1.78229 -0.40474,1.85868 -0.12,0.0764 -0.58174,2.08075 -1.02609,4.45414 -0.88958,4.75143 -1.50171,13.6784 -1.7624,25.70176 -0.15508,7.15258 -0.18627,7.40833 -0.90349,7.40833 -0.50104,0 -0.52402,-0.18937 -0.52176,-4.29948 0.001,-2.36471 0.12119,-6.25326 0.26642,-8.64122 0.46988,-7.72612 0.0844,-5.40328 -1.16764,7.03554 -0.31025,3.08232 -0.65165,5.69177 -0.75866,5.79879 -0.10701,0.10701 -0.19397,0.0259 -0.19324,-0.18026 z m 153.46642,-53.6737 c -1.2767,-1.98957 -1.4964,-2.0903 -1.98878,-0.91187 -0.88772,2.12461 -0.89188,2.11439 0.96842,2.37906 0.91982,0.13086 1.71295,0.14608 1.7625,0.0338 0.0495,-0.11226 -0.28442,-0.78772 -0.74214,-1.50101 z m -4.11514,0.25751 c 0.0873,-0.14134 0.43812,-1.59986 0.77947,-3.24114 0.34136,-1.64129 0.76769,-3.51994 0.94741,-4.17479 0.31812,-1.15917 0.56457,-4.9658 0.34652,-5.35239 -0.0599,-0.10616 -0.31171,-0.0849 -0.55962,0.0472 -0.24792,0.13211 -1.28419,0.49457 -2.30284,0.80546 -1.01865,0.3109 -2.74505,0.85545 -3.83646,1.21011 -1.0914,0.35466 -2.55102,0.72048 -3.2436,0.81292 l -1.25922,0.16808 0.0686,1.48505 c 0.0519,1.12318 0.21789,1.64625 0.68123,2.14652 0.33694,0.3638 0.77622,0.96902 0.97616,1.34494 0.19995,0.37591 1.23395,1.28653 2.29779,2.02359 1.06384,0.73706 2.39711,1.70942 2.96282,2.16079 1.03501,0.82581 1.84756,1.03967 2.14174,0.56369 z m -1.94131,-14.29317 c 3.4945,-1.73353 4.56858,-3.02049 4.36274,-5.22744 -0.10143,-1.08759 -0.0476,-1.38907 0.24821,-1.38907 0.21037,0 0.37776,-0.25252 0.37776,-0.56988 0,-0.56868 -0.0102,-0.56953 -4.82865,-0.40452 -6.54666,0.2242 -6.75577,0.26826 -6.98177,1.47112 -0.6328,3.36787 1.84815,7.44369 4.30817,7.0777 0.45767,-0.0681 1.58876,-0.49915 2.51354,-0.95791 z m -8.36639,-0.95475 c -0.21998,-0.42183 -0.40071,-0.87665 -0.40161,-1.01072 -0.002,-0.30102 -0.80649,-1.21145 -1.07047,-1.21145 -0.38141,0 0.877,2.88586 1.29983,2.98087 0.60969,0.13699 0.61869,0.0974 0.17225,-0.7587 z m -4.46011,-0.4246 c -0.31534,-0.61207 -0.72216,-1.27541 -0.90406,-1.47411 -0.1819,-0.19869 -0.33073,-0.45728 -0.33073,-0.57463 0,-0.11736 -0.17763,-0.63849 -0.39472,-1.15808 l -0.39472,-0.9447 -1.47431,0.67496 c -0.81087,0.37123 -1.54092,0.60834 -1.62234,0.52692 -0.29335,-0.29334 0.18895,-0.99293 0.99089,-1.43729 1.65099,-0.91484 1.62728,-0.85401 0.91213,-2.34022 -0.69094,-1.43588 -1.28411,-1.8391 -4.24565,-2.886 -1.42835,-0.50493 -2.60522,-0.39628 -2.85855,0.26388 -0.0824,0.21471 -0.0219,1.1163 0.13435,2.00354 0.37662,2.1381 1.5136,3.78286 3.63535,5.2589 1.52109,1.05819 6.03373,3.1709 6.81694,3.19154 0.19164,0.005 0.0913,-0.41397 -0.26458,-1.10471 z m 21.41501,-4.41564 1.16604,-1.48298 -1.22482,-0.082 c -0.67366,-0.0451 -1.37692,-0.0236 -1.56281,0.0477 -0.40562,0.15565 -0.76583,2.04729 -0.53083,2.78771 0.24444,0.77016 0.81069,0.43592 2.15242,-1.27049 z m -17.81638,-0.85643 c -0.15523,-0.15523 -0.54253,-0.19962 -0.86066,-0.0987 l -0.57843,0.18358 0.61335,0.65289 c 0.61082,0.65018 0.61438,0.65058 0.86066,0.0986 0.16172,-0.36242 0.14963,-0.65192 -0.0349,-0.83647 z m -0.32095,-1.54967 c 0.30538,-0.002 0.49728,-0.51388 0.74454,-1.98541 l 0.33312,-1.9825 -0.74454,-0.65875 c -1.1572,-1.02386 -2.86837,-1.77128 -3.84116,-1.67779 -0.78079,0.0751 -0.88121,0.1791 -0.95876,0.99342 -0.11775,1.23655 0.39785,2.9528 1.32747,4.41865 0.73961,1.16626 0.81471,1.2116 1.75034,1.05691 0.53766,-0.0889 1.1627,-0.16293 1.38899,-0.16453 z m 21.21011,-1.1274 c 1.58794,-1.95044 2.30848,-3.21775 2.44738,-4.30457 0.074,-0.57928 0.25499,-1.46917 0.40212,-1.97753 0.14713,-0.50837 0.2675,-1.2975 0.2675,-1.75363 0,-0.45613 0.16889,-1.23353 0.3753,-1.72755 0.26054,-0.623562 0.32122,-1.341006 0.19844,-2.346293 l -0.17686,-1.448075 -1.13376,-0.23911 c -0.73236,-0.154456 -2.65447,-0.116102 -5.42902,0.108326 l -4.29525,0.347438 0.87412,2.668677 c 1.30384,3.980657 1.63446,5.554117 1.82267,8.674337 l 0.17074,2.83066 0.95254,0.10142 c 2.49906,0.2661 2.56013,0.24991 3.52408,-0.9341 z m -11.5025,0.47682 4.82737,-0.0138 10e-4,-1.3544 c 0.002,-2.34785 -0.7767,-5.94115 -1.89818,-8.75677 -1.56752,-3.935467 -1.29029,-3.737619 -4.03712,-2.881203 -2.28022,0.710936 -2.31553,0.73509 -2.85369,1.951686 -0.68116,1.539877 -1.77685,5.965757 -1.78611,7.214787 -0.004,0.51513 -0.18555,1.62227 -0.40383,2.46031 -0.21828,0.83804 -0.39687,1.57445 -0.39687,1.63647 0,0.062 0.38695,0.0327 0.85989,-0.0653 0.47294,-0.0979 3.03221,-0.18423 5.68727,-0.19182 z m -86.45134,-2.45514 c 0.94589,-0.22817 2.07003,-0.59073 2.4981,-0.8057 0.42807,-0.21497 1.71223,-0.7281 2.85371,-1.1403 1.14147,-0.41219 2.41279,-0.98968 2.82516,-1.28331 0.41236,-0.29363 1.0885,-0.66266 1.50251,-0.82007 l 0.75276,-0.2862 -0.83439,-0.65301 c -1.07375,-0.84033 -1.92767,-2.66991 -3.04771,-6.529945 -0.49463,-1.704663 -0.96839,-3.168449 -1.0528,-3.252856 -0.0844,-0.08441 -0.78044,0.03271 -1.54674,0.260281 -0.77029,0.228753 -2.34948,0.411853 -3.53182,0.409503 -1.17622,-0.0024 -2.80249,0.0945 -3.61396,0.215183 -1.2075,0.179589 -2.32958,0.05762 -6.17998,-0.671769 -2.58752,-0.490159 -4.75838,-0.837409 -4.82412,-0.771668 -0.0657,0.06574 -0.27779,1.252668 -0.47123,2.637616 -0.36826,2.636697 -0.90652,3.917106 -2.6505,6.304985 -0.75331,1.03144 -1.10794,1.27663 -2.2389,1.54794 -0.73909,0.17731 -1.40299,0.41815 -1.47534,0.5352 -0.16625,0.269 1.78116,1.40653 3.17588,1.8551 0.58208,0.18722 1.29646,0.48703 1.5875,0.66625 0.29104,0.17923 1.83244,0.70411 3.42533,1.16641 1.59289,0.46229 3.08117,0.9566 3.30729,1.09846 0.58767,0.36869 7.44994,0.0219 9.53925,-0.4821 z m -43.09333,-1.59355 c 0.3291,-0.41965 0.31975,-0.429 -0.0999,-0.0999 -0.25466,0.19972 -0.46302,0.40808 -0.46302,0.46302 0,0.21777 0.21727,0.0776 0.56292,-0.36312 z m 122.08355,-2.51658 c 0.1018,-0.47127 0.53244,-1.73515 0.95698,-2.80861 0.42453,-1.073458 0.73736,-1.978322 0.69516,-2.010805 -0.19393,-0.14928 -5.38534,1.517825 -7.06424,2.268525 -2.04426,0.91406 -2.57971,1.71773 -0.93942,1.41001 1.26162,-0.23668 3.03533,0.29669 4.53699,1.36433 0.67889,0.48268 1.32325,0.82265 1.43189,0.7555 0.10866,-0.0671 0.28084,-0.50767 0.38264,-0.97895 z m -115.16695,0.16022 c -0.17914,-0.0725 -0.53632,-0.0769 -0.79375,-0.01 -0.25743,0.0671 -0.11087,0.12638 0.32569,0.13177 0.43656,0.005 0.64719,-0.0495 0.46806,-0.12197 z m 109.56016,-4.061581 c 0.96499,-0.437547 3.09482,-1.166715 4.73295,-1.620372 1.63813,-0.453657 3.11869,-0.93658 3.29014,-1.073163 0.17145,-0.136581 0.68491,-1.279689 1.14103,-2.540235 0.45612,-1.26055 1.0832,-2.74365 1.39352,-3.295777 0.50659,-0.901359 0.52284,-1.045234 0.15913,-1.408944 -0.36371,-0.363709 -0.75399,-0.362122 -3.8219,0.01556 -3.34658,0.411985 -5.88898,0.944853 -7.06536,1.480849 -0.85301,0.388657 -1.53989,2.957142 -1.70976,6.393354 -0.0773,1.564349 -0.0807,2.844269 -0.007,2.844269 0.0732,0 0.92271,-0.35799 1.8877,-0.795542 z m 13.43318,-4.231539 c 0.61945,0 0.61758,-0.04716 -0.0542,-1.364017 l -0.55013,-1.078355 -0.59799,0.890455 c -0.32889,0.489752 -0.80902,1.217295 -1.06694,1.616761 l -0.46896,0.726302 1.12118,-0.395573 c 0.61665,-0.217564 1.34433,-0.395573 1.61708,-0.395573 z m 14.89805,-0.239372 c -0.13582,-0.126801 -1.19944,-0.554804 -2.36361,-0.951116 -1.16417,-0.396311 -2.65245,-0.99941 -3.30729,-1.34022 l -1.19063,-0.619654 1.08216,-0.01233 c 0.97493,-0.01109 4.23894,0.698947 5.49706,1.195816 0.42138,0.166418 0.45448,0.12123 0.22568,-0.30812 -0.14747,-0.276728 -0.35378,-1.306812 -0.45848,-2.289077 l -0.19035,-1.785938 -2.0197,-0.0011 c -1.11083,-5.29e-4 -3.68657,-0.06343 -5.72387,-0.139769 l -3.70416,-0.138803 -0.72182,0.897062 -0.72182,0.897062 0.9864,2.174605 0.9864,2.174605 4.7625,-0.164558 c 4.33404,-0.149751 4.85772,-0.119367 5.82084,0.337725 1.03974,0.493456 1.5273,0.527971 1.04069,0.07367 z m -97.04962,-3.63239 c 3.92128,-1.310106 5.5362,-2.226786 8.53025,-4.842065 1.92776,-1.68388 2.42299,-2.633168 3.33338,-6.389693 0.57764,-2.38347 0.60995,-2.963638 0.53784,-9.657292 -0.0436,-4.044714 -0.20134,-7.583937 -0.36516,-8.191883 -0.15865,-0.588724 -0.31245,-2.217947 -0.34178,-3.620497 -0.0503,-2.405447 -0.0962,-2.595989 -0.80947,-3.359179 -0.41589,-0.444998 -1.07847,-0.874089 -1.4724,-0.953535 -1.55267,-0.313142 -2.54518,-1.018463 -2.82588,-2.008195 -0.24753,-0.872761 -0.32882,-0.936366 -0.91704,-0.71759 -0.92106,0.342567 -2.0407,0.02357 -2.65404,-0.756168 -0.40247,-0.511665 -0.68158,-0.632383 -1.17549,-0.50842 -0.35623,0.08941 -0.94385,0.04996 -1.30582,-0.08766 -0.43267,-0.164501 -0.92016,-0.151313 -1.42302,0.0385 -1.08076,0.407941 -2.57881,0.05384 -3.4312,-0.811058 l -0.72494,-0.735573 -1.26818,0.481871 c -1.86873,0.710062 -3.59713,0.552987 -4.20763,-0.382383 -0.10563,-0.16184 -0.51281,-0.141742 -1.108,0.05469 -1.21971,0.402541 -2.72844,0.11245 -3.2905,-0.632679 l -0.44148,-0.585292 -1.15489,0.881543 c -1.57576,1.202809 -2.29815,1.348227 -3.23965,0.652149 l -0.75999,-0.56189 -0.70623,0.925918 c -0.91325,1.197326 -2.93073,2.664032 -3.97234,2.887887 -0.55486,0.119245 -1.07617,0.543062 -1.62401,1.320299 -0.86599,1.228588 -3.69081,3.712284 -4.52229,3.976188 -0.44449,0.141075 -0.52893,0.53236 -0.69427,3.217388 -0.10353,1.681232 -0.3492,3.613052 -0.54593,4.292939 -0.19672,0.679884 -0.38738,1.533811 -0.42367,1.897613 -0.14664,1.469972 0.37361,8.114014 0.68369,8.73125 0.18276,0.363802 0.41079,1.137708 0.50673,1.719791 0.35097,2.129362 1.05635,4.42127 1.4015,4.553715 0.19481,0.07476 0.77294,0.88469 1.28473,1.799849 1.83219,3.276272 5.69387,6.413926 8.12908,6.604979 0.61574,0.04831 1.86383,0.284713 2.77353,0.525349 0.9097,0.240633 1.76745,0.367403 1.9061,0.281712 0.13866,-0.08569 1.59701,0.02349 3.24079,0.242636 1.64378,0.219141 4.29837,0.502264 5.8991,0.629156 1.60073,0.126894 3.04516,0.248906 3.20983,0.271139 0.16468,0.02222 1.95062,-0.511244 3.96875,-1.185505 z m -13.71999,-6.960293 c -2.41419,-0.943761 -5.85081,-3.787614 -6.62172,-5.479563 -0.52298,-1.147834 -0.0978,-1.244089 5.68389,-1.286822 4.50261,-0.03328 6.0104,-0.152847 9.40232,-0.745599 2.22186,-0.388278 4.42451,-0.699717 4.89479,-0.692084 0.85411,0.01386 0.8544,0.01434 0.25974,0.429147 -0.32743,0.228398 -0.59532,0.535355 -0.59532,0.682127 0,0.146772 -0.42128,0.85326 -0.93619,1.569971 -0.70947,0.987539 -0.80558,1.233213 -0.39687,1.014476 0.93513,-0.500467 0.62521,0.195411 -0.63061,1.415926 -1.19137,1.157878 -4.19398,2.786488 -6.10612,3.311943 -1.54743,0.425236 -3.52923,0.337415 -4.95391,-0.219522 z m 4.7613,-1.477666 c 1.75775,-0.521997 5.08092,-2.750011 6.18956,-4.149778 0.84735,-1.069864 0.85235,-1.091152 0.21348,-0.909468 -5.40833,1.538039 -10.01622,1.895914 -14.17237,1.100711 -1.13045,-0.216291 -2.09806,-0.350559 -2.15025,-0.298373 -0.17099,0.17099 2.63773,2.56018 3.83367,3.261048 2.45703,1.439915 3.83263,1.66501 6.08591,0.99586 z m 5.78454,-15.755316 -0.69714,-0.54837 v -3.998335 c 0,-4.402733 0.46573,-6.935986 1.3253,-7.208803 0.59012,-0.187296 1.76233,0.336166 2.00754,0.896487 0.2618,0.598194 0.446,7.590523 0.23692,8.993217 -0.1762,1.182126 -1.09596,2.414174 -1.80226,2.414174 -0.20527,0 -0.68693,-0.246766 -1.07036,-0.54837 z m -16.24845,-0.7084 c -1.07983,-0.945703 -1.32095,-3.268388 -0.88442,-8.51948 0.15551,-1.870655 0.20729,-1.996332 1.01651,-2.467523 1.01423,-0.590561 1.75943,-0.426439 2.38267,0.524748 0.36362,0.554958 0.45303,1.475782 0.49844,5.133726 0.0508,4.091996 0.0123,4.512162 -0.46935,5.124511 -0.62437,0.793753 -1.76594,0.885307 -2.54385,0.204018 z m 90.29611,22.814549 c 0.87312,-0.201477 2.92695,-0.510373 4.56406,-0.686438 1.63711,-0.176061 2.97657,-0.397488 2.97657,-0.492058 0,-0.30352 -1.42805,-1.519754 -2.30197,-1.960536 -1.05247,-0.530839 -1.98726,-0.539105 -3.69267,-0.03265 -1.91214,0.567844 -3.01303,1.412576 -3.57514,2.743272 -0.45851,1.085408 -0.45985,1.142767 -0.0228,0.974032 0.25543,-0.09861 1.17879,-0.344141 2.05192,-0.545619 z m 24.04346,-2.92391 c -1.01405,-0.921221 -1.87559,-1.468911 -2.47992,-1.576496 -0.50932,-0.09067 -1.23889,-0.263462 -1.62125,-0.383977 -0.54185,-0.17078 -0.97962,-0.0554 -1.98438,0.522994 -1.38143,0.795232 -2.94141,2.273927 -2.67743,2.537913 0.0884,0.08836 2.33053,0.266776 4.98259,0.396475 2.65206,0.129701 4.89033,0.304215 4.97392,0.387808 0.0836,0.08359 0.19887,0.01135 0.25616,-0.160544 0.0573,-0.171895 -0.59506,-0.947772 -1.44969,-1.724173 z M 160.10515,67.926348 c 0.46563,-0.900422 0.46863,-0.941382 0.41092,-5.613604 -0.0229,-1.85539 -0.13734,-3.373437 -0.25428,-3.373437 -0.11693,0 -0.33778,-0.267891 -0.49076,-0.595312 -0.2627,-0.562232 -0.31273,-0.521801 -0.90033,0.727604 -0.54494,1.158695 -0.61772,1.684202 -0.58625,4.233333 0.0209,1.693598 0.17757,3.242275 0.3747,3.704166 0.36904,0.864635 0.43243,1.055881 0.48234,1.455209 0.0654,0.523306 0.55668,0.24906 0.96366,-0.537959 z m 50.34776,-2.769854 c 0.59302,-1.463979 0.6321,-1.83306 0.50424,-4.761979 -0.13555,-3.104909 -0.44646,-4.563454 -1.05265,-4.938093 -0.53792,-0.332457 -0.72368,0.04766 -0.72368,1.48086 0,0.77348 -0.16151,1.867781 -0.3589,2.43178 -0.19739,0.563999 -0.43783,2.216078 -0.53431,3.671287 -0.14617,2.204794 -0.1042,2.747491 0.2518,3.255695 0.6538,0.933333 1.20737,0.603668 1.9135,-1.13955 z M 164.7986,55.01215 c 1.70111,-1.818625 2.06269,-2.62496 1.87765,-4.187275 -0.1223,-1.032684 -0.0606,-1.372947 0.30377,-1.675352 0.4073,-0.338032 0.52617,-0.299339 1.08839,0.354283 0.34714,0.403568 0.63116,0.905714 0.63116,1.11588 0,0.210167 0.0829,0.382121 0.18421,0.382121 0.50413,0 2.24547,-1.519202 3.78341,-3.300756 0.94527,-1.095001 1.83056,-1.99091 1.96732,-1.99091 0.13676,0 0.52422,0.258879 0.86102,0.575287 l 0.61237,0.575287 0.59531,-0.539486 c 0.87974,-0.797236 2.85863,-1.848361 3.80577,-2.021501 l 0.8292,-0.15158 -0.0354,1.376309 -0.0355,1.376309 1.41055,0.08072 c 0.80662,0.04616 1.56992,-0.05156 1.7828,-0.228236 0.28936,-0.240147 0.40536,-0.222721 0.52085,0.07824 0.0817,0.212958 0.11289,0.553789 0.0693,0.757402 -0.27134,1.266641 4.13806,-0.29505 5.62965,-1.993869 0.79529,-0.905794 1.87459,-1.251337 2.21056,-0.707726 0.08,0.129519 -0.15298,0.769601 -0.51784,1.422402 -0.81305,1.454718 -0.65495,2.046274 0.54691,2.046274 0.48428,0 1.21444,0.126961 1.62258,0.282136 1.13132,0.430129 2.3756,0.08717 2.89912,-0.799084 0.47779,-0.808837 1.33713,-1.329303 1.88336,-1.140669 0.39467,0.136295 0.44149,1.028764 0.0661,1.260742 -0.37338,0.230767 -0.32916,1.338386 0.0661,1.656843 0.80197,0.646052 1.95909,0.62584 3.24266,-0.05664 0.69736,-0.370788 1.43252,-0.674159 1.6337,-0.674159 0.61623,0 0.69035,0.73572 0.15233,1.511963 -0.28094,0.405347 -0.5896,0.954789 -0.6859,1.220981 -0.15282,0.422447 -0.0725,0.461448 0.63197,0.306728 0.65903,-0.144748 0.92356,-0.05154 1.44231,0.508201 0.75487,0.814516 1.95988,0.902333 3.5656,0.259856 0.97495,-0.390099 1.06368,-0.507707 1.06368,-1.409821 0,-1.271586 -1.41531,-8.374862 -1.8748,-9.409367 -0.89469,-2.014364 -2.99266,-5.413955 -4.07516,-6.603487 -0.65658,-0.721502 -1.19379,-1.397498 -1.19379,-1.502214 0,-0.30836 -3.72438,-2.69347 -5.16059,-3.304865 -1.663,-0.70794 -4.4753,-1.477079 -5.68732,-1.555429 -0.50933,-0.03292 -3.30729,-0.143895 -6.21771,-0.246602 -4.88337,-0.17233 -5.40731,-0.146147 -6.79039,0.339329 -0.82429,0.289337 -2.49117,0.727747 -3.70416,0.974245 -4.42991,0.900219 -8.38995,3.440283 -11.03603,7.078763 -0.86974,1.195935 -1.88871,2.488961 -2.26437,2.873392 -0.63682,0.651689 -2.53109,4.415802 -2.53109,5.029537 0,0.151375 -0.24824,0.623835 -0.55163,1.049912 -0.30339,0.426076 -0.59831,1.158831 -0.65537,1.628343 -0.0571,0.469513 -0.2452,1.943847 -0.41808,3.276298 -0.28163,2.170697 -0.26851,2.468452 0.12621,2.86317 0.24229,0.242292 0.44053,0.603594 0.44053,0.802892 0,0.450244 0.21607,0.584663 1.93366,1.202946 2.14807,0.773248 2.59461,0.686562 3.95496,-0.767762 z m 26.58348,-26.659778 c -0.0879,-0.08792 -0.31613,-0.09732 -0.50712,-0.02089 -0.21107,0.08446 -0.14838,0.147156 0.15985,0.159852 0.27891,0.01149 0.43519,-0.05105 0.34727,-0.138964 z M 147.10805,184.83004 c 0.10152,-1.35444 0.40632,-3.65249 0.67735,-5.10678 0.27102,-1.4543 0.44607,-2.71974 0.38899,-2.81209 -0.26621,-0.43074 0.47154,-11.32663 0.9557,-14.11487 0.29813,-1.71684 0.58401,-3.90928 0.6353,-4.87208 0.0513,-0.9628 0.22091,-2.46492 0.37693,-3.33804 0.15602,-0.87312 0.50775,-3.01625 0.78162,-4.7625 0.59857,-3.81665 2.09704,-11.55536 2.47806,-12.79772 0.15037,-0.4903 0.30926,-1.20468 0.35309,-1.5875 0.0438,-0.38281 0.32149,-1.5776 0.61703,-2.65507 0.58457,-2.13122 1.15547,-2.9844 1.65963,-2.48024 0.22434,0.22434 -0.15064,2.60311 -1.47882,9.38137 -1.74768,8.91915 -2.71457,15.20357 -2.90331,18.87041 -0.0524,1.01865 -0.29059,3.28083 -0.52924,5.02708 -0.27648,2.02305 -0.47615,5.81489 -0.55033,10.45104 -0.064,4.00183 -0.26758,8.58573 -0.45231,10.18646 l -0.33588,2.91042 -1.42919,0.0814 -1.42918,0.0814 z"
         style="fill:#000000;stroke-width:0.264583" />
    </g>
  </g>
</svg>
