<?xml version="1.0" encoding="iso-8859-1"?>
<!-- Generator: Adobe Illustrator 19.0.0, SVG Export Plug-In . SVG Version: 6.00 Build 0)  -->
<svg version="1.1" id="Layer_1" xmlns="http://www.w3.org/2000/svg" xmlns:xlink="http://www.w3.org/1999/xlink" x="0px" y="0px"
	 viewBox="0 0 512 512" style="enable-background:new 0 0 512 512;" xml:space="preserve">
<g>
	<g>
		<path d="M0,0v512h512V0H0z M477.867,477.867H34.133V34.133h443.733V477.867z"/>
	</g>
</g>
<g>
	<g>
		<polygon points="193.422,96.713 193.422,169.287 97.401,73.266 73.266,97.401 169.289,193.424 96.711,193.424 96.711,227.558 
			227.556,227.558 227.556,96.713 		"/>
	</g>
</g>
<g>
	<g>
		<polygon points="96.712,284.447 96.712,318.58 169.288,318.58 73.267,414.602 97.402,438.736 193.423,342.716 193.423,415.291 
			227.557,415.291 227.557,284.447 		"/>
	</g>
</g>
<g>
	<g>
		<polygon points="342.716,318.58 415.289,318.58 415.289,284.447 284.444,284.447 284.444,415.291 318.578,415.291 
			318.578,342.714 414.599,438.736 438.734,414.602 		"/>
	</g>
</g>
<g>
	<g>
		<polygon points="438.734,97.401 414.599,73.266 318.578,169.287 318.578,96.713 284.444,96.713 284.444,227.558 415.289,227.558 
			415.289,193.424 342.711,193.424 		"/>
	</g>
</g>
<g>
</g>
<g>
</g>
<g>
</g>
<g>
</g>
<g>
</g>
<g>
</g>
<g>
</g>
<g>
</g>
<g>
</g>
<g>
</g>
<g>
</g>
<g>
</g>
<g>
</g>
<g>
</g>
<g>
</g>
</svg>
