<?xml version="1.0" encoding="UTF-8" standalone="no"?>
<svg
   xmlns:dc="http://purl.org/dc/elements/1.1/"
   xmlns:cc="http://creativecommons.org/ns#"
   xmlns:rdf="http://www.w3.org/1999/02/22-rdf-syntax-ns#"
   xmlns:svg="http://www.w3.org/2000/svg"
   xmlns="http://www.w3.org/2000/svg"
   xmlns:sodipodi="http://sodipodi.sourceforge.net/DTD/sodipodi-0.dtd"
   xmlns:inkscape="http://www.inkscape.org/namespaces/inkscape"
   width="8.5441704mm"
   height="8.5441704mm"
   viewBox="0 0 8.5441704 8.5441704"
   version="1.1"
   id="svg8"
   inkscape:version="1.0 (6e3e5246a0, 2020-05-07)"
   sodipodi:docname="todpo.svg">
  <defs
     id="defs2" />
  <sodipodi:namedview
     id="base"
     pagecolor="#ffffff"
     bordercolor="#666666"
     borderopacity="1.0"
     inkscape:pageopacity="0.0"
     inkscape:pageshadow="2"
     inkscape:zoom="4"
     inkscape:cx="80.853877"
     inkscape:cy="20.401347"
     inkscape:document-units="mm"
     inkscape:current-layer="layer1"
     inkscape:document-rotation="0"
     showgrid="false"
     fit-margin-top="0"
     fit-margin-left="0"
     fit-margin-right="0"
     fit-margin-bottom="0"
     inkscape:window-width="1294"
     inkscape:window-height="704"
     inkscape:window-x="72"
     inkscape:window-y="27"
     inkscape:window-maximized="1" />
  <metadata
     id="metadata5">
    <rdf:RDF>
      <cc:Work
         rdf:about="">
        <dc:format>image/svg+xml</dc:format>
        <dc:type
           rdf:resource="http://purl.org/dc/dcmitype/StillImage" />
        <dc:title></dc:title>
      </cc:Work>
    </rdf:RDF>
  </metadata>
  <g
     inkscape:label="Слой 1"
     inkscape:groupmode="layer"
     id="layer1"
     transform="translate(-146.36096,-145.94824)">
    <g
       id="g87"
       transform="translate(1.2264971,0.1879818)">
      <path
         style="fill:#eef616;stroke-width:0.0379671"
         d="m 148.94783,153.99984 c -0.15228,-0.0663 -0.35759,-0.27495 -0.42177,-0.42856 -0.12343,-0.2954 -0.0253,-0.691 0.22623,-0.91183 0.16508,-0.14495 0.3462,-0.20065 0.65243,-0.20065 0.30624,0 0.48735,0.0557 0.65244,0.20065 0.41009,0.36006 0.35114,1.01322 -0.11562,1.28093 -0.17699,0.10151 -0.22685,0.1118 -0.53682,0.11078 -0.19731,-6.6e-4 -0.39037,-0.0223 -0.45689,-0.0513 z m 0.16237,-2.68892 c -0.24273,-0.14068 -0.27449,-0.26033 -0.38577,-1.45322 -0.0805,-0.86282 -0.0989,-1.26691 -0.0977,-2.14514 0.001,-0.9728 0.009,-1.0974 0.0719,-1.23393 0.24359,-0.52448 0.87217,-0.63477 1.26412,-0.22179 0.2095,0.22073 0.22034,0.29372 0.2202,1.48298 -1e-4,0.93268 -0.0164,1.25364 -0.11139,2.19089 -0.12093,1.1935 -0.12375,1.20369 -0.38167,1.37923 -0.16214,0.11036 -0.39032,0.11074 -0.57969,9.8e-4 z"
         id="path91"
         sodipodi:nodetypes="cccssccccccccccccc" />
      <path
         style="fill:#b7be00;stroke-width:0.0379671"
         d="m 149.04404,154.29429 c -0.18299,-0.0342 -0.50802,-0.29145 -0.66337,-0.52501 -0.14067,-0.21148 -0.15071,-0.2447 -0.1492,-0.49357 0.001,-0.20595 0.0214,-0.30149 0.0882,-0.41871 0.15471,-0.27146 0.25612,-0.37965 0.46355,-0.49454 0.19149,-0.10606 0.2293,-0.11293 0.62153,-0.11293 0.3578,0 0.44004,0.012 0.57393,0.0836 0.24919,0.13331 0.37666,0.26024 0.49374,0.49163 0.2436,0.48147 0.072,1.00863 -0.43372,1.33211 -0.19744,0.1263 -0.23404,0.13586 -0.55554,0.14518 -0.1893,0.005 -0.38689,0.002 -0.43909,-0.008 z m 0.8975,-0.35394 c 0.34494,-0.19784 0.48778,-0.64408 0.32257,-1.00774 -0.087,-0.19141 -0.30153,-0.38218 -0.48817,-0.43401 -0.18408,-0.0511 -0.55835,-0.0511 -0.74243,0 -0.31184,0.0866 -0.55656,0.42324 -0.55815,0.76777 -0.001,0.22843 0.067,0.39295 0.22975,0.55573 0.18596,0.18596 0.31361,0.22775 0.69961,0.22903 0.30997,0.001 0.35983,-0.009 0.53682,-0.11078 z m -0.82043,-2.3575 c -0.17221,-0.0724 -0.34274,-0.22837 -0.42404,-0.38773 -0.0661,-0.12967 -0.0997,-0.35417 -0.18853,-1.26021 -0.09,-0.91842 -0.10819,-1.2836 -0.10899,-2.18794 -0.001,-1.18198 0.0182,-1.32685 0.20914,-1.57722 0.0564,-0.074 0.19882,-0.19638 0.31643,-0.272 0.19371,-0.12455 0.23885,-0.13749 0.4796,-0.13749 0.24076,0 0.2859,0.0129 0.47961,0.13749 0.11761,0.0756 0.26,0.19802 0.31643,0.272 0.1902,0.24936 0.2101,0.39704 0.20998,1.55824 -9e-5,0.90885 -0.0169,1.23212 -0.11367,2.18656 -0.12807,1.26314 -0.15834,1.36919 -0.44909,1.57354 -0.12872,0.0905 -0.20638,0.11463 -0.39658,0.12336 -0.13008,0.006 -0.27871,-0.007 -0.33029,-0.0286 z m 0.56875,-0.27301 c 0.25792,-0.17554 0.26074,-0.18573 0.38167,-1.37923 0.095,-0.93725 0.11129,-1.25821 0.11139,-2.19089 1.1e-4,-0.90225 -0.0101,-1.11739 -0.0588,-1.23394 -0.17562,-0.42041 -0.6627,-0.61945 -1.04215,-0.42587 -0.18799,0.0959 -0.29389,0.20603 -0.38334,0.39862 -0.0634,0.13653 -0.0707,0.26113 -0.0719,1.23393 -0.002,1.30549 0.14089,3.08852 0.26887,3.36194 0.13842,0.2957 0.53367,0.41285 0.79434,0.23544 z"
         id="path89" />
    </g>
  </g>
</svg>
